solid OpenSCAD_Model
  facet normal -2.22045e-16 -1 -2.54072e-33
    outer loop
      vertex 0 -1.69 4.49
      vertex -1.7 -1.69 4.49
      vertex -1.7 -1.69 3.29
    endloop
  endfacet
  facet normal -2.22045e-16 -1 -2.54072e-33
    outer loop
      vertex 1.46958e-16 -1.69 3.29
      vertex 0 -1.69 4.49
      vertex -1.7 -1.69 3.29
    endloop
  endfacet
  facet normal -1 2.22045e-16 -1.22465e-16
    outer loop
      vertex -1.7 -1.69 4.49
      vertex -1.7 4.07 4.49
      vertex -1.7 -1.69 3.29
    endloop
  endfacet
  facet normal -1 2.22045e-16 -1.22465e-16
    outer loop
      vertex -1.7 -1.69 3.29
      vertex -1.7 4.07 4.49
      vertex -1.7 4.07 3.29
    endloop
  endfacet
  facet normal -1.22465e-16 2.71926e-32 1
    outer loop
      vertex -1.2 -1.21 4.49
      vertex -1.7 -1.69 4.49
      vertex 0 -1.69 4.49
    endloop
  endfacet
  facet normal -1.22465e-16 2.71926e-32 1
    outer loop
      vertex -1.2 -0.01 4.49
      vertex 3.73035e-16 -0.01 4.49
      vertex -1.2 0.71 4.49
    endloop
  endfacet
  facet normal -1.22465e-16 2.71926e-32 1
    outer loop
      vertex -1.7 4.07 4.49
      vertex -1.7 -1.69 4.49
      vertex -1.2 -1.21 4.49
    endloop
  endfacet
  facet normal -1.22465e-16 2.71926e-32 1
    outer loop
      vertex -1.2 1.91 4.49
      vertex -1.2 2.63 4.49
      vertex -1.7 4.07 4.49
    endloop
  endfacet
  facet normal -1.22465e-16 2.71926e-32 1
    outer loop
      vertex -1.7 4.07 4.49
      vertex -1.2 -1.21 4.49
      vertex -1.2 -0.01 4.49
    endloop
  endfacet
  facet normal -1.22465e-16 2.71926e-32 1
    outer loop
      vertex -1.7 4.07 4.49
      vertex -1.2 -0.01 4.49
      vertex -1.2 0.71 4.49
    endloop
  endfacet
  facet normal -1.22465e-16 2.71926e-32 1
    outer loop
      vertex -1.7 4.07 4.49
      vertex -1.2 0.71 4.49
      vertex -1.2 1.91 4.49
    endloop
  endfacet
  facet normal -1.22465e-16 2.71926e-32 1
    outer loop
      vertex -1.2 2.63 4.49
      vertex -1.2 3.83 4.49
      vertex -1.7 4.07 4.49
    endloop
  endfacet
  facet normal -1.22465e-16 2.71926e-32 1
    outer loop
      vertex 9.59233e-16 2.63 4.49
      vertex -1.2 2.63 4.49
      vertex 7.99361e-16 1.91 4.49
    endloop
  endfacet
  facet normal -1.22465e-16 2.71926e-32 1
    outer loop
      vertex -1.2 1.91 4.49
      vertex 7.99361e-16 1.91 4.49
      vertex -1.2 2.63 4.49
    endloop
  endfacet
  facet normal -1.22465e-16 2.71926e-32 1
    outer loop
      vertex 1.22569e-15 3.83 4.49
      vertex -1.7 4.07 4.49
      vertex -1.2 3.83 4.49
    endloop
  endfacet
  facet normal -1.22465e-16 2.71926e-32 1
    outer loop
      vertex 1.27898e-15 4.07 4.49
      vertex -1.7 4.07 4.49
      vertex 1.22569e-15 3.83 4.49
    endloop
  endfacet
  facet normal -1.22465e-16 2.71926e-32 1
    outer loop
      vertex 5.32907e-16 0.71 4.49
      vertex -1.2 0.71 4.49
      vertex 3.73035e-16 -0.01 4.49
    endloop
  endfacet
  facet normal -1.22465e-16 2.71926e-32 1
    outer loop
      vertex 1.06581e-16 -1.21 4.49
      vertex -1.2 -1.21 4.49
      vertex 0 -1.69 4.49
    endloop
  endfacet
  facet normal 1 -2.22045e-16 1.22465e-16
    outer loop
      vertex 1.36505e-31 -1.69 4.49
      vertex 0 -1.69 4.49
      vertex 1.46958e-16 -1.69 3.29
    endloop
  endfacet
  facet normal 1 -2.22045e-16 1.22465e-16
    outer loop
      vertex 1.06581e-16 -1.21 4.49
      vertex 0 -1.69 4.49
      vertex 1.36505e-31 -1.69 4.49
    endloop
  endfacet
  facet normal 1.22465e-16 -2.71926e-32 -1
    outer loop
      vertex 0 3.83 3.29
      vertex -1.7 4.07 3.29
      vertex 0 4.07 3.29
    endloop
  endfacet
  facet normal 1.22465e-16 -2.71926e-32 -1
    outer loop
      vertex -1.2 3.83 3.29
      vertex -1.7 4.07 3.29
      vertex 0 3.83 3.29
    endloop
  endfacet
  facet normal 1.22465e-16 -2.71926e-32 -1
    outer loop
      vertex -1.2 2.63 3.29
      vertex -1.7 4.07 3.29
      vertex -1.2 3.83 3.29
    endloop
  endfacet
  facet normal 1.22465e-16 -2.71926e-32 -1
    outer loop
      vertex -1.2 1.91 3.29
      vertex -1.7 4.07 3.29
      vertex -1.2 2.63 3.29
    endloop
  endfacet
  facet normal 1.22465e-16 -2.71926e-32 -1
    outer loop
      vertex -1.2 1.91 3.29
      vertex -1.2 2.63 3.29
      vertex 0 1.91 3.29
    endloop
  endfacet
  facet normal 1.22465e-16 -2.71926e-32 -1
    outer loop
      vertex -1.7 -1.69 3.29
      vertex -1.7 4.07 3.29
      vertex -1.2 1.91 3.29
    endloop
  endfacet
  facet normal 1.22465e-16 -2.71926e-32 -1
    outer loop
      vertex -1.7 -1.69 3.29
      vertex -1.2 1.91 3.29
      vertex -1.2 0.71 3.29
    endloop
  endfacet
  facet normal 1.22465e-16 -2.71926e-32 -1
    outer loop
      vertex 0 -1.69 3.29
      vertex 1.46958e-16 -1.69 3.29
      vertex -1.2 -1.21 3.29
    endloop
  endfacet
  facet normal 1.22465e-16 -2.71926e-32 -1
    outer loop
      vertex -1.7 -1.69 3.29
      vertex -1.2 0.71 3.29
      vertex -1.2 -0.01 3.29
    endloop
  endfacet
  facet normal 1.22465e-16 -2.71926e-32 -1
    outer loop
      vertex -1.7 -1.69 3.29
      vertex -1.2 -0.01 3.29
      vertex -1.2 -1.21 3.29
    endloop
  endfacet
  facet normal 1.22465e-16 -2.71926e-32 -1
    outer loop
      vertex -1.7 -1.69 3.29
      vertex -1.2 -1.21 3.29
      vertex 1.46958e-16 -1.69 3.29
    endloop
  endfacet
  facet normal 1.22465e-16 -2.71926e-32 -1
    outer loop
      vertex -1.2 -0.01 3.29
      vertex -1.2 0.71 3.29
      vertex 0 -0.01 3.29
    endloop
  endfacet
  facet normal 1.22465e-16 -2.71926e-32 -1
    outer loop
      vertex 0 -1.21 3.29
      vertex 0 -1.69 3.29
      vertex -1.2 -1.21 3.29
    endloop
  endfacet
  facet normal 1.22465e-16 -2.71926e-32 -1
    outer loop
      vertex 0 0.71 3.29
      vertex 0 -0.01 3.29
      vertex -1.2 0.71 3.29
    endloop
  endfacet
  facet normal 1.22465e-16 -2.71926e-32 -1
    outer loop
      vertex 0 2.63 3.29
      vertex 0 1.91 3.29
      vertex -1.2 2.63 3.29
    endloop
  endfacet
  facet normal 2.22045e-16 1 2.54072e-33
    outer loop
      vertex 0 4.07 3.29
      vertex -1.7 4.07 3.29
      vertex 0 4.07 4.49
    endloop
  endfacet
  facet normal 2.22045e-16 1 2.54072e-33
    outer loop
      vertex -1.7 4.07 4.49
      vertex 1.27898e-15 4.07 4.49
      vertex 0 4.07 4.49
    endloop
  endfacet
  facet normal 2.22045e-16 1 2.54072e-33
    outer loop
      vertex -1.7 4.07 4.49
      vertex 0 4.07 4.49
      vertex -1.7 4.07 3.29
    endloop
  endfacet
  facet normal -2.22045e-16 -1 -2.54072e-33
    outer loop
      vertex -1.2 3.83 3.29
      vertex 0 3.83 3.29
      vertex 0 3.83 4.49
    endloop
  endfacet
  facet normal -2.22045e-16 -1 -2.54072e-33
    outer loop
      vertex -1.2 3.83 4.49
      vertex -1.2 3.83 3.29
      vertex 0 3.83 4.49
    endloop
  endfacet
  facet normal -2.22045e-16 -1 -2.54072e-33
    outer loop
      vertex 1.22569e-15 3.83 4.49
      vertex -1.2 3.83 4.49
      vertex 0 3.83 4.49
    endloop
  endfacet
  facet normal 1 -2.22045e-16 1.22465e-16
    outer loop
      vertex -1.2 2.63 3.29
      vertex -1.2 3.83 3.29
      vertex -1.2 3.83 4.49
    endloop
  endfacet
  facet normal 1 -2.22045e-16 1.22465e-16
    outer loop
      vertex -1.2 2.63 4.49
      vertex -1.2 2.63 3.29
      vertex -1.2 3.83 4.49
    endloop
  endfacet
  facet normal 2.22045e-16 1 2.54072e-33
    outer loop
      vertex -1.2 2.63 3.29
      vertex 0 2.63 4.49
      vertex 0 2.63 3.29
    endloop
  endfacet
  facet normal 2.22045e-16 1 2.54072e-33
    outer loop
      vertex -1.2 2.63 4.49
      vertex 0 2.63 4.49
      vertex -1.2 2.63 3.29
    endloop
  endfacet
  facet normal 2.22045e-16 1 2.54072e-33
    outer loop
      vertex 9.59233e-16 2.63 4.49
      vertex 0 2.63 4.49
      vertex -1.2 2.63 4.49
    endloop
  endfacet
  facet normal -2.22045e-16 -1 -2.54072e-33
    outer loop
      vertex -1.2 1.91 3.29
      vertex 0 1.91 3.29
      vertex 0 1.91 4.49
    endloop
  endfacet
  facet normal -2.22045e-16 -1 -2.54072e-33
    outer loop
      vertex -1.2 1.91 4.49
      vertex -1.2 1.91 3.29
      vertex 0 1.91 4.49
    endloop
  endfacet
  facet normal -2.22045e-16 -1 -2.54072e-33
    outer loop
      vertex 7.99361e-16 1.91 4.49
      vertex -1.2 1.91 4.49
      vertex 0 1.91 4.49
    endloop
  endfacet
  facet normal 1 -2.22045e-16 1.22465e-16
    outer loop
      vertex -1.2 0.71 3.29
      vertex -1.2 1.91 3.29
      vertex -1.2 1.91 4.49
    endloop
  endfacet
  facet normal 1 -2.22045e-16 1.22465e-16
    outer loop
      vertex -1.2 0.71 4.49
      vertex -1.2 0.71 3.29
      vertex -1.2 1.91 4.49
    endloop
  endfacet
  facet normal 2.22045e-16 1 2.54072e-33
    outer loop
      vertex -1.2 0.71 3.29
      vertex 0 0.71 4.49
      vertex 0 0.71 3.29
    endloop
  endfacet
  facet normal 2.22045e-16 1 2.54072e-33
    outer loop
      vertex -1.2 0.71 4.49
      vertex 0 0.71 4.49
      vertex -1.2 0.71 3.29
    endloop
  endfacet
  facet normal 2.22045e-16 1 2.54072e-33
    outer loop
      vertex 5.32907e-16 0.71 4.49
      vertex 0 0.71 4.49
      vertex -1.2 0.71 4.49
    endloop
  endfacet
  facet normal 1 -2.22045e-16 1.22465e-16
    outer loop
      vertex 5.32907e-16 0.71 4.49
      vertex 3.73035e-16 -0.01 4.49
      vertex 3.75255e-16 0 4.49
    endloop
  endfacet
  facet normal -2.22045e-16 -1 -2.54072e-33
    outer loop
      vertex -1.2 -0.01 3.29
      vertex 0 -0.01 3.29
      vertex 0 -0.01 4.49
    endloop
  endfacet
  facet normal -2.22045e-16 -1 -2.54072e-33
    outer loop
      vertex 3.73035e-16 -0.01 4.49
      vertex -1.2 -0.01 3.29
      vertex 0 -0.01 4.49
    endloop
  endfacet
  facet normal -2.22045e-16 -1 -2.54072e-33
    outer loop
      vertex 3.73035e-16 -0.01 4.49
      vertex -1.2 -0.01 4.49
      vertex -1.2 -0.01 3.29
    endloop
  endfacet
  facet normal 1 -2.22045e-16 1.22465e-16
    outer loop
      vertex -1.2 -1.21 3.29
      vertex -1.2 -0.01 3.29
      vertex -1.2 -0.01 4.49
    endloop
  endfacet
  facet normal 1 -2.22045e-16 1.22465e-16
    outer loop
      vertex -1.2 -1.21 4.49
      vertex -1.2 -1.21 3.29
      vertex -1.2 -0.01 4.49
    endloop
  endfacet
  facet normal 2.22045e-16 1 2.54072e-33
    outer loop
      vertex -1.2 -1.21 3.29
      vertex 0 -1.21 4.49
      vertex 0 -1.21 3.29
    endloop
  endfacet
  facet normal 2.22045e-16 1 2.54072e-33
    outer loop
      vertex 1.06581e-16 -1.21 4.49
      vertex 0 -1.21 4.49
      vertex -1.2 -1.21 3.29
    endloop
  endfacet
  facet normal 2.22045e-16 1 2.54072e-33
    outer loop
      vertex 1.06581e-16 -1.21 4.49
      vertex -1.2 -1.21 3.29
      vertex -1.2 -1.21 4.49
    endloop
  endfacet
  facet normal 0 0 1
    outer loop
      vertex 0 -0.01 4.49
      vertex 0 -1.21 4.49
      vertex 1.06581e-16 -1.21 4.49
    endloop
  endfacet
  facet normal 0 0 1
    outer loop
      vertex 0.48375 -1.19 4.49
      vertex 0 -0.01 4.49
      vertex 1.06581e-16 -1.21 4.49
    endloop
  endfacet
  facet normal 0 0 1
    outer loop
      vertex 1.36505e-31 -1.69 4.49
      vertex 7.74 -1.69 4.49
      vertex 1.06581e-16 -1.21 4.49
    endloop
  endfacet
  facet normal 0 0 1
    outer loop
      vertex 5.55375 -1.19 4.49
      vertex 4.35375 -1.19 4.49
      vertex 7.74 -1.69 4.49
    endloop
  endfacet
  facet normal 0 0 1
    outer loop
      vertex 5.55375 0 4.49
      vertex 5.55375 -1.19 4.49
      vertex 6.28875 -1.19 4.49
    endloop
  endfacet
  facet normal 0 0 1
    outer loop
      vertex 7.74 -1.69 4.49
      vertex 7.74 0 4.49
      vertex 7.48875 -1.19 4.49
    endloop
  endfacet
  facet normal 0 0 1
    outer loop
      vertex 3.61875 0 4.49
      vertex 3.61875 -1.19 4.49
      vertex 4.35375 -1.19 4.49
    endloop
  endfacet
  facet normal 0 0 1
    outer loop
      vertex 7.74 -1.69 4.49
      vertex 7.48875 -1.19 4.49
      vertex 6.28875 -1.19 4.49
    endloop
  endfacet
  facet normal 0 0 1
    outer loop
      vertex 3.61875 0 4.49
      vertex 4.35375 -1.19 4.49
      vertex 4.35375 0 4.49
    endloop
  endfacet
  facet normal 0 0 1
    outer loop
      vertex 7.74 -1.69 4.49
      vertex 6.28875 -1.19 4.49
      vertex 5.55375 -1.19 4.49
    endloop
  endfacet
  facet normal 0 0 1
    outer loop
      vertex 7.74 -1.69 4.49
      vertex 4.35375 -1.19 4.49
      vertex 1.06581e-16 -1.21 4.49
    endloop
  endfacet
  facet normal 0 0 1
    outer loop
      vertex 1.68375 0 4.49
      vertex 2.41875 -1.19 4.49
      vertex 2.41875 0 4.49
    endloop
  endfacet
  facet normal 0 0 1
    outer loop
      vertex 0.48375 -1.19 4.49
      vertex 3.73035e-16 -0.01 4.49
      vertex 0 -0.01 4.49
    endloop
  endfacet
  facet normal 0 0 1
    outer loop
      vertex 4.35375 -1.19 4.49
      vertex 3.61875 -1.19 4.49
      vertex 1.06581e-16 -1.21 4.49
    endloop
  endfacet
  facet normal 0 0 1
    outer loop
      vertex 3.61875 -1.19 4.49
      vertex 2.41875 -1.19 4.49
      vertex 1.06581e-16 -1.21 4.49
    endloop
  endfacet
  facet normal 0 0 1
    outer loop
      vertex 1.68375 0 4.49
      vertex 1.68375 -1.19 4.49
      vertex 2.41875 -1.19 4.49
    endloop
  endfacet
  facet normal 0 0 1
    outer loop
      vertex 0.48375 -1.19 4.49
      vertex 0.48375 0 4.49
      vertex 3.73035e-16 -0.01 4.49
    endloop
  endfacet
  facet normal 0 0 1
    outer loop
      vertex 2.41875 -1.19 4.49
      vertex 1.68375 -1.19 4.49
      vertex 1.06581e-16 -1.21 4.49
    endloop
  endfacet
  facet normal 0 0 1
    outer loop
      vertex 1.68375 -1.19 4.49
      vertex 0.48375 -1.19 4.49
      vertex 1.06581e-16 -1.21 4.49
    endloop
  endfacet
  facet normal 0 0 1
    outer loop
      vertex 5.55375 0 4.49
      vertex 6.28875 -1.19 4.49
      vertex 6.28875 0 4.49
    endloop
  endfacet
  facet normal 0 0 1
    outer loop
      vertex 3.75255e-16 0 4.49
      vertex 3.73035e-16 -0.01 4.49
      vertex 0.48375 0 4.49
    endloop
  endfacet
  facet normal 0 0 1
    outer loop
      vertex 7.48875 0 4.49
      vertex 7.48875 -1.19 4.49
      vertex 7.74 0 4.49
    endloop
  endfacet
  facet normal 0 -1 0
    outer loop
      vertex 1.46958e-16 -1.69 3.29
      vertex 0 -1.69 3.29
      vertex 7.74 -1.69 3.29
    endloop
  endfacet
  facet normal 0 -1 0
    outer loop
      vertex 7.74 -1.69 4.49
      vertex 1.46958e-16 -1.69 3.29
      vertex 7.74 -1.69 3.29
    endloop
  endfacet
  facet normal 0 -1 0
    outer loop
      vertex 1.36505e-31 -1.69 4.49
      vertex 1.46958e-16 -1.69 3.29
      vertex 7.74 -1.69 4.49
    endloop
  endfacet
  facet normal -1 0 0
    outer loop
      vertex 0 0 3.29
      vertex 0 -1.69 3.29
      vertex 0 -1.21 3.29
    endloop
  endfacet
  facet normal -1 0 0
    outer loop
      vertex 0 -0.01 3.29
      vertex 0 -1.21 3.29
      vertex 0 -1.21 4.49
    endloop
  endfacet
  facet normal -1 0 0
    outer loop
      vertex 0 0 3.29
      vertex 0 -1.21 3.29
      vertex 0 -0.01 3.29
    endloop
  endfacet
  facet normal -1 0 0
    outer loop
      vertex 0 0.71 3.29
      vertex 0 0 3.29
      vertex 0 -0.01 3.29
    endloop
  endfacet
  facet normal -1 0 0
    outer loop
      vertex 0 -0.01 3.29
      vertex 0 -1.21 4.49
      vertex 0 -0.01 4.49
    endloop
  endfacet
  facet normal -1 0 0
    outer loop
      vertex 0 0.71 3.29
      vertex 0 0.71 4.49
      vertex 0 1.91 4.49
    endloop
  endfacet
  facet normal -1 0 0
    outer loop
      vertex 0 0.71 3.29
      vertex 0 1.91 4.49
      vertex 0 1.91 3.29
    endloop
  endfacet
  facet normal -1 0 0
    outer loop
      vertex 0 0.71 3.29
      vertex 0 1.91 3.29
      vertex 0 0 3.29
    endloop
  endfacet
  facet normal -1 0 0
    outer loop
      vertex 0 1.91 3.29
      vertex 0 2.63 3.29
      vertex 0 0 3.29
    endloop
  endfacet
  facet normal -1 0 0
    outer loop
      vertex 0 2.63 3.29
      vertex 0 2.63 4.49
      vertex 0 3.83 4.49
    endloop
  endfacet
  facet normal -1 0 0
    outer loop
      vertex 0 2.63 3.29
      vertex 0 3.83 4.49
      vertex 0 3.83 3.29
    endloop
  endfacet
  facet normal -1 0 0
    outer loop
      vertex 0 2.63 3.29
      vertex 0 3.83 3.29
      vertex 0 0 3.29
    endloop
  endfacet
  facet normal -1 0 0
    outer loop
      vertex 0 3.83 3.29
      vertex 0 4.07 3.29
      vertex 0 0 3.29
    endloop
  endfacet
  facet normal -1 0 0
    outer loop
      vertex 0 4.07 3.29
      vertex 0 4.07 4.49
      vertex 0 4.76 4.49
    endloop
  endfacet
  facet normal -1 0 0
    outer loop
      vertex 0 4.07 3.29
      vertex 0 4.76 4.49
      vertex 0 4.76 0
    endloop
  endfacet
  facet normal -1 0 0
    outer loop
      vertex 0 4.07 3.29
      vertex 0 4.76 0
      vertex 0 0 3.29
    endloop
  endfacet
  facet normal -1 0 0
    outer loop
      vertex 0 0 3.29
      vertex 0 4.76 0
      vertex 0 0 0
    endloop
  endfacet
  facet normal 0 0 1
    outer loop
      vertex 0 1.91 4.49
      vertex 0 0.71 4.49
      vertex 5.32907e-16 0.71 4.49
    endloop
  endfacet
  facet normal 0 0 1
    outer loop
      vertex 1.1 1.1 4.49
      vertex 0 1.91 4.49
      vertex 5.32907e-16 0.71 4.49
    endloop
  endfacet
  facet normal 0 0 1
    outer loop
      vertex 3.75255e-16 0 4.49
      vertex 7.74 0 4.49
      vertex 5.32907e-16 0.71 4.49
    endloop
  endfacet
  facet normal 0 0 1
    outer loop
      vertex 3.12 3.66 4.49
      vertex 3.12 4.76 4.49
      vertex 1.1 3.66 4.49
    endloop
  endfacet
  facet normal 0 0 1
    outer loop
      vertex 6.64 1.1 4.49
      vertex 1.1 1.1 4.49
      vertex 7.74 0 4.49
    endloop
  endfacet
  facet normal 0 0 1
    outer loop
      vertex 7.74 4.76 4.49
      vertex 4.62 4.76 4.49
      vertex 4.62 3.66 4.49
    endloop
  endfacet
  facet normal 0 0 1
    outer loop
      vertex 7.74 0 4.49
      vertex 7.74 4.76 4.49
      vertex 6.64 3.66 4.49
    endloop
  endfacet
  facet normal 0 0 1
    outer loop
      vertex 7.74 0 4.49
      vertex 6.64 3.66 4.49
      vertex 6.64 1.1 4.49
    endloop
  endfacet
  facet normal 0 0 1
    outer loop
      vertex 7.74 0 4.49
      vertex 1.1 1.1 4.49
      vertex 5.32907e-16 0.71 4.49
    endloop
  endfacet
  facet normal 0 0 1
    outer loop
      vertex 1.27898e-15 4.07 4.49
      vertex 1.22569e-15 3.83 4.49
      vertex 1.1 3.66 4.49
    endloop
  endfacet
  facet normal 0 0 1
    outer loop
      vertex 3.12 4.76 4.49
      vertex 0 4.76 4.49
      vertex 1.1 3.66 4.49
    endloop
  endfacet
  facet normal 0 0 1
    outer loop
      vertex 1.27898e-15 4.07 4.49
      vertex 0 4.76 4.49
      vertex 0 4.07 4.49
    endloop
  endfacet
  facet normal 0 0 1
    outer loop
      vertex 0 2.63 4.49
      vertex 9.59233e-16 2.63 4.49
      vertex 1.22569e-15 3.83 4.49
    endloop
  endfacet
  facet normal 0 0 1
    outer loop
      vertex 1.1 3.66 4.49
      vertex 0 4.76 4.49
      vertex 1.27898e-15 4.07 4.49
    endloop
  endfacet
  facet normal 0 0 1
    outer loop
      vertex 9.59233e-16 2.63 4.49
      vertex 7.99361e-16 1.91 4.49
      vertex 1.1 3.66 4.49
    endloop
  endfacet
  facet normal 0 0 1
    outer loop
      vertex 1.22569e-15 3.83 4.49
      vertex 0 3.83 4.49
      vertex 0 2.63 4.49
    endloop
  endfacet
  facet normal 0 0 1
    outer loop
      vertex 1.1 3.66 4.49
      vertex 1.22569e-15 3.83 4.49
      vertex 9.59233e-16 2.63 4.49
    endloop
  endfacet
  facet normal 0 0 1
    outer loop
      vertex 4.62 3.66 4.49
      vertex 6.64 3.66 4.49
      vertex 7.74 4.76 4.49
    endloop
  endfacet
  facet normal 0 0 1
    outer loop
      vertex 1.1 1.1 4.49
      vertex 7.99361e-16 1.91 4.49
      vertex 0 1.91 4.49
    endloop
  endfacet
  facet normal 0 0 1
    outer loop
      vertex 1.1 1.1 4.49
      vertex 1.1 3.66 4.49
      vertex 7.99361e-16 1.91 4.49
    endloop
  endfacet
  facet normal 0 -1 0
    outer loop
      vertex 0 0 3.29
      vertex 0 0 0
      vertex 3.00444 0 0
    endloop
  endfacet
  facet normal 0 -1 0
    outer loop
      vertex 5.17637 0 2.5
      vertex 0 0 3.29
      vertex 2.56363 0 2.5
    endloop
  endfacet
  facet normal 0 -1 0
    outer loop
      vertex 2.56363 0 2.5
      vertex 0 0 3.29
      vertex 3.00444 0 0
    endloop
  endfacet
  facet normal 0 -1 0
    outer loop
      vertex 7.48875 0 3.29
      vertex 6.28875 0 3.29
      vertex 5.17637 0 2.5
    endloop
  endfacet
  facet normal 0 -1 0
    outer loop
      vertex 7.74 0 0
      vertex 5.17637 0 2.5
      vertex 4.73556 0 0
    endloop
  endfacet
  facet normal 0 -1 0
    outer loop
      vertex 7.74 0 3.29
      vertex 5.17637 0 2.5
      vertex 7.74 0 0
    endloop
  endfacet
  facet normal 0 -1 0
    outer loop
      vertex 0.48375 0 3.29
      vertex 0 0 3.29
      vertex 5.17637 0 2.5
    endloop
  endfacet
  facet normal 0 -1 0
    outer loop
      vertex 7.74 0 3.29
      vertex 7.48875 0 3.29
      vertex 5.17637 0 2.5
    endloop
  endfacet
  facet normal 0 -1 0
    outer loop
      vertex 7.74 0 4.49
      vertex 3.75255e-16 0 4.49
      vertex 7.48875 0 4.49
    endloop
  endfacet
  facet normal 0 -1 0
    outer loop
      vertex 3.75255e-16 0 4.49
      vertex 0.48375 0 4.49
      vertex 1.68375 0 4.49
    endloop
  endfacet
  facet normal 0 -1 0
    outer loop
      vertex 1.68375 0 3.29
      vertex 0.48375 0 3.29
      vertex 5.17637 0 2.5
    endloop
  endfacet
  facet normal 0 -1 0
    outer loop
      vertex 5.55375 0 3.29
      vertex 5.55375 0 4.49
      vertex 4.35375 0 3.29
    endloop
  endfacet
  facet normal 0 -1 0
    outer loop
      vertex 2.41875 0 3.29
      vertex 1.68375 0 3.29
      vertex 5.17637 0 2.5
    endloop
  endfacet
  facet normal 0 -1 0
    outer loop
      vertex 3.75255e-16 0 4.49
      vertex 1.68375 0 4.49
      vertex 2.41875 0 4.49
    endloop
  endfacet
  facet normal 0 -1 0
    outer loop
      vertex 3.75255e-16 0 4.49
      vertex 2.41875 0 4.49
      vertex 3.61875 0 4.49
    endloop
  endfacet
  facet normal 0 -1 0
    outer loop
      vertex 1.68375 0 3.29
      vertex 1.68375 0 4.49
      vertex 0.48375 0 3.29
    endloop
  endfacet
  facet normal 0 -1 0
    outer loop
      vertex 3.61875 0 3.29
      vertex 2.41875 0 3.29
      vertex 5.17637 0 2.5
    endloop
  endfacet
  facet normal 0 -1 0
    outer loop
      vertex 4.35375 0 3.29
      vertex 3.61875 0 3.29
      vertex 5.17637 0 2.5
    endloop
  endfacet
  facet normal 0 -1 0
    outer loop
      vertex 3.75255e-16 0 4.49
      vertex 3.61875 0 4.49
      vertex 4.35375 0 4.49
    endloop
  endfacet
  facet normal 0 -1 0
    outer loop
      vertex 3.75255e-16 0 4.49
      vertex 4.35375 0 4.49
      vertex 5.55375 0 4.49
    endloop
  endfacet
  facet normal 0 -1 0
    outer loop
      vertex 5.55375 0 3.29
      vertex 4.35375 0 3.29
      vertex 5.17637 0 2.5
    endloop
  endfacet
  facet normal 0 -1 0
    outer loop
      vertex 6.28875 0 3.29
      vertex 5.55375 0 3.29
      vertex 5.17637 0 2.5
    endloop
  endfacet
  facet normal 0 -1 0
    outer loop
      vertex 3.75255e-16 0 4.49
      vertex 5.55375 0 4.49
      vertex 6.28875 0 4.49
    endloop
  endfacet
  facet normal 0 -1 0
    outer loop
      vertex 3.61875 0 3.29
      vertex 3.61875 0 4.49
      vertex 2.41875 0 3.29
    endloop
  endfacet
  facet normal 0 -1 0
    outer loop
      vertex 3.75255e-16 0 4.49
      vertex 6.28875 0 4.49
      vertex 7.48875 0 4.49
    endloop
  endfacet
  facet normal 0 -1 0
    outer loop
      vertex 7.48875 0 4.49
      vertex 6.28875 0 3.29
      vertex 7.48875 0 3.29
    endloop
  endfacet
  facet normal 0 -1 0
    outer loop
      vertex 2.41875 0 4.49
      vertex 2.41875 0 3.29
      vertex 3.61875 0 4.49
    endloop
  endfacet
  facet normal 0 -1 0
    outer loop
      vertex 6.28875 0 4.49
      vertex 6.28875 0 3.29
      vertex 7.48875 0 4.49
    endloop
  endfacet
  facet normal 0 -1 0
    outer loop
      vertex 4.35375 0 4.49
      vertex 4.35375 0 3.29
      vertex 5.55375 0 4.49
    endloop
  endfacet
  facet normal 0 -1 0
    outer loop
      vertex 0.48375 0 4.49
      vertex 0.48375 0 3.29
      vertex 1.68375 0 4.49
    endloop
  endfacet
  facet normal 1 0 0
    outer loop
      vertex 0.48375 0 3.29
      vertex 0.48375 0 4.49
      vertex 0.48375 -1.19 4.49
    endloop
  endfacet
  facet normal 1 0 0
    outer loop
      vertex 0.48375 -1.19 3.29
      vertex 0.48375 0 3.29
      vertex 0.48375 -1.19 4.49
    endloop
  endfacet
  facet normal 0 1 0
    outer loop
      vertex 1.68375 -1.19 4.49
      vertex 1.68375 -1.19 3.29
      vertex 0.48375 -1.19 4.49
    endloop
  endfacet
  facet normal 0 1 0
    outer loop
      vertex 0.48375 -1.19 4.49
      vertex 1.68375 -1.19 3.29
      vertex 0.48375 -1.19 3.29
    endloop
  endfacet
  facet normal -1 0 0
    outer loop
      vertex 1.68375 0 4.49
      vertex 1.68375 0 3.29
      vertex 1.68375 -1.19 4.49
    endloop
  endfacet
  facet normal -1 0 0
    outer loop
      vertex 1.68375 -1.19 4.49
      vertex 1.68375 0 3.29
      vertex 1.68375 -1.19 3.29
    endloop
  endfacet
  facet normal 1 0 0
    outer loop
      vertex 2.41875 0 3.29
      vertex 2.41875 0 4.49
      vertex 2.41875 -1.19 4.49
    endloop
  endfacet
  facet normal 1 0 0
    outer loop
      vertex 2.41875 -1.19 3.29
      vertex 2.41875 0 3.29
      vertex 2.41875 -1.19 4.49
    endloop
  endfacet
  facet normal 0 1 0
    outer loop
      vertex 3.61875 -1.19 4.49
      vertex 3.61875 -1.19 3.29
      vertex 2.41875 -1.19 4.49
    endloop
  endfacet
  facet normal 0 1 0
    outer loop
      vertex 2.41875 -1.19 4.49
      vertex 3.61875 -1.19 3.29
      vertex 2.41875 -1.19 3.29
    endloop
  endfacet
  facet normal -1 0 0
    outer loop
      vertex 3.61875 0 4.49
      vertex 3.61875 0 3.29
      vertex 3.61875 -1.19 4.49
    endloop
  endfacet
  facet normal -1 0 0
    outer loop
      vertex 3.61875 -1.19 4.49
      vertex 3.61875 0 3.29
      vertex 3.61875 -1.19 3.29
    endloop
  endfacet
  facet normal 1 0 0
    outer loop
      vertex 4.35375 0 3.29
      vertex 4.35375 0 4.49
      vertex 4.35375 -1.19 4.49
    endloop
  endfacet
  facet normal 1 0 0
    outer loop
      vertex 4.35375 -1.19 3.29
      vertex 4.35375 0 3.29
      vertex 4.35375 -1.19 4.49
    endloop
  endfacet
  facet normal 0 1 0
    outer loop
      vertex 5.55375 -1.19 4.49
      vertex 5.55375 -1.19 3.29
      vertex 4.35375 -1.19 4.49
    endloop
  endfacet
  facet normal 0 1 0
    outer loop
      vertex 4.35375 -1.19 4.49
      vertex 5.55375 -1.19 3.29
      vertex 4.35375 -1.19 3.29
    endloop
  endfacet
  facet normal -1 0 0
    outer loop
      vertex 5.55375 0 4.49
      vertex 5.55375 0 3.29
      vertex 5.55375 -1.19 4.49
    endloop
  endfacet
  facet normal -1 0 0
    outer loop
      vertex 5.55375 -1.19 4.49
      vertex 5.55375 0 3.29
      vertex 5.55375 -1.19 3.29
    endloop
  endfacet
  facet normal 1 0 0
    outer loop
      vertex 6.28875 0 3.29
      vertex 6.28875 0 4.49
      vertex 6.28875 -1.19 4.49
    endloop
  endfacet
  facet normal 1 0 0
    outer loop
      vertex 6.28875 -1.19 3.29
      vertex 6.28875 0 3.29
      vertex 6.28875 -1.19 4.49
    endloop
  endfacet
  facet normal 0 1 0
    outer loop
      vertex 7.48875 -1.19 4.49
      vertex 7.48875 -1.19 3.29
      vertex 6.28875 -1.19 4.49
    endloop
  endfacet
  facet normal 0 1 0
    outer loop
      vertex 6.28875 -1.19 4.49
      vertex 7.48875 -1.19 3.29
      vertex 6.28875 -1.19 3.29
    endloop
  endfacet
  facet normal -1 0 0
    outer loop
      vertex 7.48875 0 4.49
      vertex 7.48875 0 3.29
      vertex 7.48875 -1.19 4.49
    endloop
  endfacet
  facet normal -1 0 0
    outer loop
      vertex 7.48875 -1.19 4.49
      vertex 7.48875 0 3.29
      vertex 7.48875 -1.19 3.29
    endloop
  endfacet
  facet normal 1 0 0
    outer loop
      vertex 7.74 -1.69 4.49
      vertex 7.74 -1.69 3.29
      vertex 7.74 0 3.29
    endloop
  endfacet
  facet normal 1 0 0
    outer loop
      vertex 7.74 4.76 0
      vertex 7.74 -1.69 4.49
      vertex 7.74 0 3.29
    endloop
  endfacet
  facet normal 1 0 0
    outer loop
      vertex 7.74 0 0
      vertex 7.74 4.76 0
      vertex 7.74 0 3.29
    endloop
  endfacet
  facet normal 1 0 0
    outer loop
      vertex 7.74 4.76 0
      vertex 7.74 0 4.49
      vertex 7.74 -1.69 4.49
    endloop
  endfacet
  facet normal 1 0 0
    outer loop
      vertex 7.74 4.76 0
      vertex 7.74 4.76 4.49
      vertex 7.74 0 4.49
    endloop
  endfacet
  facet normal 0 0 -1
    outer loop
      vertex 1.68375 0 3.29
      vertex 2.41875 -1.19 3.29
      vertex 1.68375 -1.19 3.29
    endloop
  endfacet
  facet normal 0 0 -1
    outer loop
      vertex 0 -1.69 3.29
      vertex 0 0 3.29
      vertex 0.48375 -1.19 3.29
    endloop
  endfacet
  facet normal 0 0 -1
    outer loop
      vertex 0 -1.69 3.29
      vertex 0.48375 -1.19 3.29
      vertex 7.74 -1.69 3.29
    endloop
  endfacet
  facet normal 0 0 -1
    outer loop
      vertex 3.61875 0 3.29
      vertex 4.35375 -1.19 3.29
      vertex 3.61875 -1.19 3.29
    endloop
  endfacet
  facet normal 0 0 -1
    outer loop
      vertex 0.48375 -1.19 3.29
      vertex 1.68375 -1.19 3.29
      vertex 7.74 -1.69 3.29
    endloop
  endfacet
  facet normal 0 0 -1
    outer loop
      vertex 2.41875 -1.19 3.29
      vertex 1.68375 0 3.29
      vertex 2.41875 0 3.29
    endloop
  endfacet
  facet normal 0 0 -1
    outer loop
      vertex 7.48875 -1.19 3.29
      vertex 7.74 -1.69 3.29
      vertex 6.28875 -1.19 3.29
    endloop
  endfacet
  facet normal 0 0 -1
    outer loop
      vertex 1.68375 -1.19 3.29
      vertex 2.41875 -1.19 3.29
      vertex 7.74 -1.69 3.29
    endloop
  endfacet
  facet normal 0 0 -1
    outer loop
      vertex 5.55375 0 3.29
      vertex 6.28875 -1.19 3.29
      vertex 5.55375 -1.19 3.29
    endloop
  endfacet
  facet normal 0 0 -1
    outer loop
      vertex 2.41875 -1.19 3.29
      vertex 3.61875 -1.19 3.29
      vertex 7.74 -1.69 3.29
    endloop
  endfacet
  facet normal 0 0 -1
    outer loop
      vertex 4.35375 -1.19 3.29
      vertex 3.61875 0 3.29
      vertex 4.35375 0 3.29
    endloop
  endfacet
  facet normal 0 0 -1
    outer loop
      vertex 6.28875 -1.19 3.29
      vertex 7.74 -1.69 3.29
      vertex 5.55375 -1.19 3.29
    endloop
  endfacet
  facet normal 0 0 -1
    outer loop
      vertex 3.61875 -1.19 3.29
      vertex 4.35375 -1.19 3.29
      vertex 7.74 -1.69 3.29
    endloop
  endfacet
  facet normal 0 0 -1
    outer loop
      vertex 6.28875 -1.19 3.29
      vertex 5.55375 0 3.29
      vertex 6.28875 0 3.29
    endloop
  endfacet
  facet normal 0 0 -1
    outer loop
      vertex 7.74 -1.69 3.29
      vertex 7.48875 -1.19 3.29
      vertex 7.48875 0 3.29
    endloop
  endfacet
  facet normal 0 0 -1
    outer loop
      vertex 7.74 -1.69 3.29
      vertex 7.48875 0 3.29
      vertex 7.74 0 3.29
    endloop
  endfacet
  facet normal 0 0 -1
    outer loop
      vertex 0.48375 -1.19 3.29
      vertex 0 0 3.29
      vertex 0.48375 0 3.29
    endloop
  endfacet
  facet normal 0 0 -1
    outer loop
      vertex 5.55375 -1.19 3.29
      vertex 7.74 -1.69 3.29
      vertex 4.35375 -1.19 3.29
    endloop
  endfacet
  facet normal 0 0 -1
    outer loop
      vertex 1.1 3.66 0
      vertex 0 4.76 0
      vertex 3.12 4.76 0
    endloop
  endfacet
  facet normal 0 0 -1
    outer loop
      vertex 3.00444 0.75 0
      vertex 3.00444 0 0
      vertex 1.1 1.1 0
    endloop
  endfacet
  facet normal 0 0 -1
    outer loop
      vertex 6.64 1.1 0
      vertex 4.73556 0.75 0
      vertex 3.00444 0.75 0
    endloop
  endfacet
  facet normal 0 0 -1
    outer loop
      vertex 1.1 1.1 0
      vertex 0 4.76 0
      vertex 1.1 3.66 0
    endloop
  endfacet
  facet normal 0 0 -1
    outer loop
      vertex 0 0 0
      vertex 0 4.76 0
      vertex 1.1 1.1 0
    endloop
  endfacet
  facet normal 0 0 -1
    outer loop
      vertex 0 0 0
      vertex 1.1 1.1 0
      vertex 3.00444 0 0
    endloop
  endfacet
  facet normal 0 0 -1
    outer loop
      vertex 4.62 4.76 0
      vertex 6.64 3.66 0
      vertex 4.62 3.66 0
    endloop
  endfacet
  facet normal 0 0 -1
    outer loop
      vertex 4.73556 0.75 0
      vertex 6.64 1.1 0
      vertex 4.73556 0 0
    endloop
  endfacet
  facet normal 0 0 -1
    outer loop
      vertex 6.64 3.66 0
      vertex 4.62 4.76 0
      vertex 7.74 4.76 0
    endloop
  endfacet
  facet normal 0 0 -1
    outer loop
      vertex 6.64 3.66 0
      vertex 7.74 4.76 0
      vertex 6.64 1.1 0
    endloop
  endfacet
  facet normal 0 0 -1
    outer loop
      vertex 6.64 1.1 0
      vertex 7.74 4.76 0
      vertex 7.74 0 0
    endloop
  endfacet
  facet normal 0 0 -1
    outer loop
      vertex 6.64 1.1 0
      vertex 7.74 0 0
      vertex 4.73556 0 0
    endloop
  endfacet
  facet normal 0 0 -1
    outer loop
      vertex 1.1 3.66 0
      vertex 3.12 4.76 0
      vertex 3.12 3.66 0
    endloop
  endfacet
  facet normal 0 0 -1
    outer loop
      vertex 6.64 1.1 0
      vertex 3.00444 0.75 0
      vertex 1.1 1.1 0
    endloop
  endfacet
  facet normal 0 1 0
    outer loop
      vertex 0 4.76 0
      vertex 0 4.76 4.49
      vertex 3.12 4.76 0
    endloop
  endfacet
  facet normal 0 1 0
    outer loop
      vertex 3.12 4.76 0
      vertex 0 4.76 4.49
      vertex 3.12 4.76 4.49
    endloop
  endfacet
  facet normal 1 0 0
    outer loop
      vertex 3.12 4.76 0
      vertex 3.12 4.76 4.49
      vertex 3.12 3.66 4.49
    endloop
  endfacet
  facet normal 1 0 0
    outer loop
      vertex 3.12 3.66 0
      vertex 3.12 4.76 0
      vertex 3.12 3.66 4.49
    endloop
  endfacet
  facet normal 0 -1 0
    outer loop
      vertex 3.12 3.66 0
      vertex 3.12 3.66 4.49
      vertex 1.1 3.66 4.49
    endloop
  endfacet
  facet normal 0 -1 0
    outer loop
      vertex 1.1 3.66 0
      vertex 3.12 3.66 0
      vertex 1.1 3.66 4.49
    endloop
  endfacet
  facet normal 1 0 0
    outer loop
      vertex 1.1 3.66 0
      vertex 1.1 3.66 4.49
      vertex 1.1 1.1 4.49
    endloop
  endfacet
  facet normal 1 0 0
    outer loop
      vertex 1.1 1.1 0
      vertex 1.1 3.66 0
      vertex 1.1 1.1 4.49
    endloop
  endfacet
  facet normal 0 1 0
    outer loop
      vertex 6.64 1.1 4.49
      vertex 6.64 1.1 0
      vertex 1.1 1.1 4.49
    endloop
  endfacet
  facet normal 0 1 0
    outer loop
      vertex 1.1 1.1 4.49
      vertex 6.64 1.1 0
      vertex 1.1 1.1 0
    endloop
  endfacet
  facet normal -1 0 0
    outer loop
      vertex 6.64 3.66 4.49
      vertex 6.64 3.66 0
      vertex 6.64 1.1 4.49
    endloop
  endfacet
  facet normal -1 0 0
    outer loop
      vertex 6.64 1.1 4.49
      vertex 6.64 3.66 0
      vertex 6.64 1.1 0
    endloop
  endfacet
  facet normal 0 -1 0
    outer loop
      vertex 6.64 3.66 0
      vertex 6.64 3.66 4.49
      vertex 4.62 3.66 4.49
    endloop
  endfacet
  facet normal 0 -1 0
    outer loop
      vertex 4.62 3.66 0
      vertex 6.64 3.66 0
      vertex 4.62 3.66 4.49
    endloop
  endfacet
  facet normal -1 0 0
    outer loop
      vertex 4.62 4.76 4.49
      vertex 4.62 4.76 0
      vertex 4.62 3.66 4.49
    endloop
  endfacet
  facet normal -1 0 0
    outer loop
      vertex 4.62 3.66 4.49
      vertex 4.62 4.76 0
      vertex 4.62 3.66 0
    endloop
  endfacet
  facet normal 0 1 0
    outer loop
      vertex 4.62 4.76 0
      vertex 4.62 4.76 4.49
      vertex 7.74 4.76 0
    endloop
  endfacet
  facet normal 0 1 0
    outer loop
      vertex 7.74 4.76 0
      vertex 4.62 4.76 4.49
      vertex 7.74 4.76 4.49
    endloop
  endfacet
  facet normal 0.984808 0 -0.173648
    outer loop
      vertex 4.53086 0.75 -1.16086
      vertex 4.73556 0.75 0
      vertex 4.73556 0 0
    endloop
  endfacet
  facet normal 0.984808 0 -0.173648
    outer loop
      vertex 4.53086 -0.75 -1.16086
      vertex 4.53086 0.75 -1.16086
      vertex 4.73556 0 0
    endloop
  endfacet
  facet normal 0.984808 0 -0.173648
    outer loop
      vertex 5.17637 0 2.5
      vertex 5.17637 -0.75 2.5
      vertex 4.73556 0 0
    endloop
  endfacet
  facet normal 0.984808 0 -0.173648
    outer loop
      vertex 5.17637 -0.75 2.5
      vertex 4.53086 -0.75 -1.16086
      vertex 4.73556 0 0
    endloop
  endfacet
  facet normal 0 0 1
    outer loop
      vertex 2.56363 0 2.5
      vertex 2.56363 -0.75 2.5
      vertex 3.62 -0.75 2.5
    endloop
  endfacet
  facet normal 0 0 1
    outer loop
      vertex 3.63224 -0.672746 2.5
      vertex 2.56363 0 2.5
      vertex 3.62308 -0.710891 2.5
    endloop
  endfacet
  facet normal 0 0 1
    outer loop
      vertex 3.62308 -0.710891 2.5
      vertex 2.56363 0 2.5
      vertex 3.62 -0.75 2.5
    endloop
  endfacet
  facet normal 0 0 1
    outer loop
      vertex 3.64725 -0.636502 2.5
      vertex 2.56363 0 2.5
      vertex 3.63224 -0.672746 2.5
    endloop
  endfacet
  facet normal 0 0 1
    outer loop
      vertex 3.66775 -0.603054 2.5
      vertex 2.56363 0 2.5
      vertex 3.64725 -0.636502 2.5
    endloop
  endfacet
  facet normal 0 0 1
    outer loop
      vertex 3.69322 -0.573223 2.5
      vertex 2.56363 0 2.5
      vertex 3.66775 -0.603054 2.5
    endloop
  endfacet
  facet normal 0 0 1
    outer loop
      vertex 3.72305 -0.547746 2.5
      vertex 2.56363 0 2.5
      vertex 3.69322 -0.573223 2.5
    endloop
  endfacet
  facet normal 0 0 1
    outer loop
      vertex 3.7565 -0.527248 2.5
      vertex 2.56363 0 2.5
      vertex 3.72305 -0.547746 2.5
    endloop
  endfacet
  facet normal 0 0 1
    outer loop
      vertex 3.79275 -0.512236 2.5
      vertex 2.56363 0 2.5
      vertex 3.7565 -0.527248 2.5
    endloop
  endfacet
  facet normal 0 0 1
    outer loop
      vertex 3.83089 -0.503078 2.5
      vertex 2.56363 0 2.5
      vertex 3.79275 -0.512236 2.5
    endloop
  endfacet
  facet normal 0 0 1
    outer loop
      vertex 3.87 -0.5 2.5
      vertex 2.56363 0 2.5
      vertex 3.83089 -0.503078 2.5
    endloop
  endfacet
  facet normal 0 0 1
    outer loop
      vertex 3.90911 -0.503078 2.5
      vertex 2.56363 0 2.5
      vertex 3.87 -0.5 2.5
    endloop
  endfacet
  facet normal 0 0 1
    outer loop
      vertex 3.94725 -0.512236 2.5
      vertex 2.56363 0 2.5
      vertex 3.90911 -0.503078 2.5
    endloop
  endfacet
  facet normal 0 0 1
    outer loop
      vertex 5.17637 -0.75 2.5
      vertex 2.56363 0 2.5
      vertex 3.94725 -0.512236 2.5
    endloop
  endfacet
  facet normal 0 0 1
    outer loop
      vertex 5.17637 -0.75 2.5
      vertex 3.94725 -0.512236 2.5
      vertex 3.9835 -0.527248 2.5
    endloop
  endfacet
  facet normal 0 0 1
    outer loop
      vertex 5.17637 -0.75 2.5
      vertex 3.9835 -0.527248 2.5
      vertex 4.01695 -0.547746 2.5
    endloop
  endfacet
  facet normal 0 0 1
    outer loop
      vertex 5.17637 -0.75 2.5
      vertex 4.01695 -0.547746 2.5
      vertex 4.04678 -0.573223 2.5
    endloop
  endfacet
  facet normal 0 0 1
    outer loop
      vertex 5.17637 -0.75 2.5
      vertex 4.04678 -0.573223 2.5
      vertex 4.07225 -0.603054 2.5
    endloop
  endfacet
  facet normal 0 0 1
    outer loop
      vertex 5.17637 -0.75 2.5
      vertex 4.07225 -0.603054 2.5
      vertex 4.09275 -0.636502 2.5
    endloop
  endfacet
  facet normal 0 0 1
    outer loop
      vertex 5.17637 -0.75 2.5
      vertex 4.09275 -0.636502 2.5
      vertex 4.10776 -0.672746 2.5
    endloop
  endfacet
  facet normal 0 0 1
    outer loop
      vertex 5.17637 -0.75 2.5
      vertex 4.10776 -0.672746 2.5
      vertex 4.11692 -0.710891 2.5
    endloop
  endfacet
  facet normal 0 0 1
    outer loop
      vertex 5.17637 -0.75 2.5
      vertex 4.11692 -0.710891 2.5
      vertex 4.12 -0.75 2.5
    endloop
  endfacet
  facet normal 0 0 1
    outer loop
      vertex 5.17637 0 2.5
      vertex 2.56363 0 2.5
      vertex 5.17637 -0.75 2.5
    endloop
  endfacet
  facet normal -0.984808 0 -0.173648
    outer loop
      vertex 3.00444 0 0
      vertex 3.00444 0.75 0
      vertex 3.20267 0.75 -1.12419
    endloop
  endfacet
  facet normal -0.984808 0 -0.173648
    outer loop
      vertex 3.00444 0 0
      vertex 3.20267 0.75 -1.12419
      vertex 3.20267 -0.75 -1.12419
    endloop
  endfacet
  facet normal -0.984808 0 -0.173648
    outer loop
      vertex 3.00444 0 0
      vertex 3.20267 -0.75 -1.12419
      vertex 2.56363 0 2.5
    endloop
  endfacet
  facet normal -0.984808 0 -0.173648
    outer loop
      vertex 3.20267 -0.75 -1.12419
      vertex 2.56363 -0.75 2.5
      vertex 2.56363 0 2.5
    endloop
  endfacet
  facet normal 0 1 0
    outer loop
      vertex 1.87 0.75 -2.5
      vertex 1.87 0.75 -2.45685
      vertex 5.87 0.75 -2.5
    endloop
  endfacet
  facet normal 0 1 0
    outer loop
      vertex 5.87 0.75 -2.5
      vertex 1.87 0.75 -2.45685
      vertex 3.20267 0.75 -1.12419
    endloop
  endfacet
  facet normal 0 1 0
    outer loop
      vertex 5.87 0.75 -2.5
      vertex 3.20267 0.75 -1.12419
      vertex 3.00444 0.75 0
    endloop
  endfacet
  facet normal 0 1 0
    outer loop
      vertex 4.53086 0.75 -1.16086
      vertex 3.00444 0.75 0
      vertex 4.73556 0.75 0
    endloop
  endfacet
  facet normal 0 1 0
    outer loop
      vertex 5.87 0.75 -2.5
      vertex 3.00444 0.75 0
      vertex 4.53086 0.75 -1.16086
    endloop
  endfacet
  facet normal 0.707107 0 0.707107
    outer loop
      vertex 5.87 -0.75 -2.5
      vertex 5.87 0.75 -2.5
      vertex 4.53086 0.75 -1.16086
    endloop
  endfacet
  facet normal 0.707107 0 0.707107
    outer loop
      vertex 4.53086 -0.75 -1.16086
      vertex 5.87 -0.75 -2.5
      vertex 4.53086 0.75 -1.16086
    endloop
  endfacet
  facet normal 0 -1 0
    outer loop
      vertex 4.53086 -0.75 -1.16086
      vertex 4.12 -0.75 -2.5
      vertex 5.87 -0.75 -2.5
    endloop
  endfacet
  facet normal 0 -1 0
    outer loop
      vertex 4.12 -0.75 2.5
      vertex 4.12 -0.75 -2.5
      vertex 4.53086 -0.75 -1.16086
    endloop
  endfacet
  facet normal 0 -1 0
    outer loop
      vertex 4.53086 -0.75 -1.16086
      vertex 5.17637 -0.75 2.5
      vertex 4.12 -0.75 2.5
    endloop
  endfacet
  facet normal -0.996917 -0.0784605 0
    outer loop
      vertex 4.12 -0.75 2.5
      vertex 4.11692 -0.710891 2.5
      vertex 4.12 -0.75 -2.5
    endloop
  endfacet
  facet normal -0.996917 -0.0784605 0
    outer loop
      vertex 4.12 -0.75 -2.5
      vertex 4.11692 -0.710891 2.5
      vertex 4.11692 -0.710891 -2.5
    endloop
  endfacet
  facet normal -0.972369 -0.23345 0
    outer loop
      vertex 4.11692 -0.710891 2.5
      vertex 4.10776 -0.672746 2.5
      vertex 4.11692 -0.710891 -2.5
    endloop
  endfacet
  facet normal -0.972369 -0.23345 0
    outer loop
      vertex 4.11692 -0.710891 -2.5
      vertex 4.10776 -0.672746 2.5
      vertex 4.10776 -0.672746 -2.5
    endloop
  endfacet
  facet normal -0.923886 -0.382667 0
    outer loop
      vertex 4.10776 -0.672746 2.5
      vertex 4.09275 -0.636502 2.5
      vertex 4.10776 -0.672746 -2.5
    endloop
  endfacet
  facet normal -0.923886 -0.382667 0
    outer loop
      vertex 4.10776 -0.672746 -2.5
      vertex 4.09275 -0.636502 2.5
      vertex 4.09275 -0.636502 -2.5
    endloop
  endfacet
  facet normal -0.852628 -0.522518 0
    outer loop
      vertex 4.09275 -0.636502 2.5
      vertex 4.07225 -0.603054 2.5
      vertex 4.09275 -0.636502 -2.5
    endloop
  endfacet
  facet normal -0.852628 -0.522518 0
    outer loop
      vertex 4.09275 -0.636502 -2.5
      vertex 4.07225 -0.603054 2.5
      vertex 4.07225 -0.603054 -2.5
    endloop
  endfacet
  facet normal -0.76042 -0.649432 0
    outer loop
      vertex 4.07225 -0.603054 2.5
      vertex 4.04678 -0.573223 2.5
      vertex 4.07225 -0.603054 -2.5
    endloop
  endfacet
  facet normal -0.76042 -0.649432 0
    outer loop
      vertex 4.07225 -0.603054 -2.5
      vertex 4.04678 -0.573223 2.5
      vertex 4.04678 -0.573223 -2.5
    endloop
  endfacet
  facet normal -0.649432 -0.76042 0
    outer loop
      vertex 4.04678 -0.573223 -2.5
      vertex 4.04678 -0.573223 2.5
      vertex 4.01695 -0.547746 2.5
    endloop
  endfacet
  facet normal -0.649432 -0.76042 0
    outer loop
      vertex 4.01695 -0.547746 -2.5
      vertex 4.04678 -0.573223 -2.5
      vertex 4.01695 -0.547746 2.5
    endloop
  endfacet
  facet normal -0.522518 -0.852628 0
    outer loop
      vertex 4.01695 -0.547746 -2.5
      vertex 4.01695 -0.547746 2.5
      vertex 3.9835 -0.527248 2.5
    endloop
  endfacet
  facet normal -0.522518 -0.852628 0
    outer loop
      vertex 3.9835 -0.527248 -2.5
      vertex 4.01695 -0.547746 -2.5
      vertex 3.9835 -0.527248 2.5
    endloop
  endfacet
  facet normal -0.382667 -0.923886 0
    outer loop
      vertex 3.9835 -0.527248 -2.5
      vertex 3.9835 -0.527248 2.5
      vertex 3.94725 -0.512236 2.5
    endloop
  endfacet
  facet normal -0.382667 -0.923886 0
    outer loop
      vertex 3.94725 -0.512236 -2.5
      vertex 3.9835 -0.527248 -2.5
      vertex 3.94725 -0.512236 2.5
    endloop
  endfacet
  facet normal -0.23345 -0.972369 0
    outer loop
      vertex 3.94725 -0.512236 -2.5
      vertex 3.94725 -0.512236 2.5
      vertex 3.90911 -0.503078 2.5
    endloop
  endfacet
  facet normal -0.23345 -0.972369 0
    outer loop
      vertex 3.90911 -0.503078 -2.5
      vertex 3.94725 -0.512236 -2.5
      vertex 3.90911 -0.503078 2.5
    endloop
  endfacet
  facet normal -0.0784605 -0.996917 0
    outer loop
      vertex 3.90911 -0.503078 -2.5
      vertex 3.90911 -0.503078 2.5
      vertex 3.87 -0.5 2.5
    endloop
  endfacet
  facet normal -0.0784605 -0.996917 0
    outer loop
      vertex 3.87 -0.5 -2.5
      vertex 3.90911 -0.503078 -2.5
      vertex 3.87 -0.5 2.5
    endloop
  endfacet
  facet normal 0.0784605 -0.996917 0
    outer loop
      vertex 3.87 -0.5 -2.5
      vertex 3.87 -0.5 2.5
      vertex 3.83089 -0.503078 2.5
    endloop
  endfacet
  facet normal 0.0784605 -0.996917 0
    outer loop
      vertex 3.83089 -0.503078 -2.5
      vertex 3.87 -0.5 -2.5
      vertex 3.83089 -0.503078 2.5
    endloop
  endfacet
  facet normal 0.23345 -0.972369 0
    outer loop
      vertex 3.83089 -0.503078 -2.5
      vertex 3.83089 -0.503078 2.5
      vertex 3.79275 -0.512236 2.5
    endloop
  endfacet
  facet normal 0.23345 -0.972369 0
    outer loop
      vertex 3.79275 -0.512236 -2.5
      vertex 3.83089 -0.503078 -2.5
      vertex 3.79275 -0.512236 2.5
    endloop
  endfacet
  facet normal 0.382667 -0.923886 0
    outer loop
      vertex 3.79275 -0.512236 -2.5
      vertex 3.79275 -0.512236 2.5
      vertex 3.7565 -0.527248 2.5
    endloop
  endfacet
  facet normal 0.382667 -0.923886 0
    outer loop
      vertex 3.7565 -0.527248 -2.5
      vertex 3.79275 -0.512236 -2.5
      vertex 3.7565 -0.527248 2.5
    endloop
  endfacet
  facet normal 0.522518 -0.852628 0
    outer loop
      vertex 3.7565 -0.527248 -2.5
      vertex 3.7565 -0.527248 2.5
      vertex 3.72305 -0.547746 2.5
    endloop
  endfacet
  facet normal 0.522518 -0.852628 0
    outer loop
      vertex 3.72305 -0.547746 -2.5
      vertex 3.7565 -0.527248 -2.5
      vertex 3.72305 -0.547746 2.5
    endloop
  endfacet
  facet normal 0.649432 -0.76042 0
    outer loop
      vertex 3.72305 -0.547746 -2.5
      vertex 3.72305 -0.547746 2.5
      vertex 3.69322 -0.573223 2.5
    endloop
  endfacet
  facet normal 0.649432 -0.76042 0
    outer loop
      vertex 3.69322 -0.573223 -2.5
      vertex 3.72305 -0.547746 -2.5
      vertex 3.69322 -0.573223 2.5
    endloop
  endfacet
  facet normal 0.76042 -0.649432 0
    outer loop
      vertex 3.69322 -0.573223 -2.5
      vertex 3.69322 -0.573223 2.5
      vertex 3.66775 -0.603054 2.5
    endloop
  endfacet
  facet normal 0.76042 -0.649432 0
    outer loop
      vertex 3.66775 -0.603054 -2.5
      vertex 3.69322 -0.573223 -2.5
      vertex 3.66775 -0.603054 2.5
    endloop
  endfacet
  facet normal 0.852628 -0.522518 0
    outer loop
      vertex 3.66775 -0.603054 -2.5
      vertex 3.66775 -0.603054 2.5
      vertex 3.64725 -0.636502 2.5
    endloop
  endfacet
  facet normal 0.852628 -0.522518 0
    outer loop
      vertex 3.64725 -0.636502 -2.5
      vertex 3.66775 -0.603054 -2.5
      vertex 3.64725 -0.636502 2.5
    endloop
  endfacet
  facet normal 0.923886 -0.382667 0
    outer loop
      vertex 3.64725 -0.636502 -2.5
      vertex 3.64725 -0.636502 2.5
      vertex 3.63224 -0.672746 2.5
    endloop
  endfacet
  facet normal 0.923886 -0.382667 0
    outer loop
      vertex 3.63224 -0.672746 -2.5
      vertex 3.64725 -0.636502 -2.5
      vertex 3.63224 -0.672746 2.5
    endloop
  endfacet
  facet normal 0.972369 -0.23345 0
    outer loop
      vertex 3.63224 -0.672746 -2.5
      vertex 3.63224 -0.672746 2.5
      vertex 3.62308 -0.710891 2.5
    endloop
  endfacet
  facet normal 0.972369 -0.23345 0
    outer loop
      vertex 3.62308 -0.710891 -2.5
      vertex 3.63224 -0.672746 -2.5
      vertex 3.62308 -0.710891 2.5
    endloop
  endfacet
  facet normal 0.996917 -0.0784605 0
    outer loop
      vertex 3.62308 -0.710891 -2.5
      vertex 3.62308 -0.710891 2.5
      vertex 3.62 -0.75 2.5
    endloop
  endfacet
  facet normal 0.996917 -0.0784605 0
    outer loop
      vertex 3.62 -0.75 -2.5
      vertex 3.62308 -0.710891 -2.5
      vertex 3.62 -0.75 2.5
    endloop
  endfacet
  facet normal 0 -1 0
    outer loop
      vertex 1.87 -0.75 -2.45685
      vertex 1.87 -0.75 -2.5
      vertex 3.62 -0.75 -2.5
    endloop
  endfacet
  facet normal 0 -1 0
    outer loop
      vertex 3.20267 -0.75 -1.12419
      vertex 1.87 -0.75 -2.45685
      vertex 3.62 -0.75 -2.5
    endloop
  endfacet
  facet normal 0 -1 0
    outer loop
      vertex 3.62 -0.75 2.5
      vertex 3.20267 -0.75 -1.12419
      vertex 3.62 -0.75 -2.5
    endloop
  endfacet
  facet normal 0 -1 0
    outer loop
      vertex 2.56363 -0.75 2.5
      vertex 3.20267 -0.75 -1.12419
      vertex 3.62 -0.75 2.5
    endloop
  endfacet
  facet normal -0.707107 0 0.707107
    outer loop
      vertex 3.20267 -0.75 -1.12419
      vertex 3.20267 0.75 -1.12419
      vertex 1.87 0.75 -2.45685
    endloop
  endfacet
  facet normal -0.707107 0 0.707107
    outer loop
      vertex 1.87 -0.75 -2.45685
      vertex 3.20267 -0.75 -1.12419
      vertex 1.87 0.75 -2.45685
    endloop
  endfacet
  facet normal 0 0 -1
    outer loop
      vertex 1.87 -0.75 -2.5
      vertex 1.87 0.75 -2.5
      vertex 3.62 -0.75 -2.5
    endloop
  endfacet
  facet normal 0 0 -1
    outer loop
      vertex 3.94725 -0.512236 -2.5
      vertex 1.87 0.75 -2.5
      vertex 5.87 0.75 -2.5
    endloop
  endfacet
  facet normal 0 0 -1
    outer loop
      vertex 4.12 -0.75 -2.5
      vertex 5.87 0.75 -2.5
      vertex 5.87 -0.75 -2.5
    endloop
  endfacet
  facet normal 0 0 -1
    outer loop
      vertex 4.11692 -0.710891 -2.5
      vertex 5.87 0.75 -2.5
      vertex 4.12 -0.75 -2.5
    endloop
  endfacet
  facet normal 0 0 -1
    outer loop
      vertex 4.10776 -0.672746 -2.5
      vertex 5.87 0.75 -2.5
      vertex 4.11692 -0.710891 -2.5
    endloop
  endfacet
  facet normal 0 0 -1
    outer loop
      vertex 4.09275 -0.636502 -2.5
      vertex 5.87 0.75 -2.5
      vertex 4.10776 -0.672746 -2.5
    endloop
  endfacet
  facet normal 0 0 -1
    outer loop
      vertex 4.07225 -0.603054 -2.5
      vertex 5.87 0.75 -2.5
      vertex 4.09275 -0.636502 -2.5
    endloop
  endfacet
  facet normal 0 0 -1
    outer loop
      vertex 4.04678 -0.573223 -2.5
      vertex 5.87 0.75 -2.5
      vertex 4.07225 -0.603054 -2.5
    endloop
  endfacet
  facet normal 0 0 -1
    outer loop
      vertex 4.01695 -0.547746 -2.5
      vertex 5.87 0.75 -2.5
      vertex 4.04678 -0.573223 -2.5
    endloop
  endfacet
  facet normal 0 0 -1
    outer loop
      vertex 3.9835 -0.527248 -2.5
      vertex 5.87 0.75 -2.5
      vertex 4.01695 -0.547746 -2.5
    endloop
  endfacet
  facet normal 0 0 -1
    outer loop
      vertex 3.90911 -0.503078 -2.5
      vertex 1.87 0.75 -2.5
      vertex 3.94725 -0.512236 -2.5
    endloop
  endfacet
  facet normal 0 0 -1
    outer loop
      vertex 3.87 -0.5 -2.5
      vertex 1.87 0.75 -2.5
      vertex 3.90911 -0.503078 -2.5
    endloop
  endfacet
  facet normal 0 0 -1
    outer loop
      vertex 3.83089 -0.503078 -2.5
      vertex 1.87 0.75 -2.5
      vertex 3.87 -0.5 -2.5
    endloop
  endfacet
  facet normal 0 0 -1
    outer loop
      vertex 3.79275 -0.512236 -2.5
      vertex 1.87 0.75 -2.5
      vertex 3.83089 -0.503078 -2.5
    endloop
  endfacet
  facet normal 0 0 -1
    outer loop
      vertex 3.7565 -0.527248 -2.5
      vertex 1.87 0.75 -2.5
      vertex 3.79275 -0.512236 -2.5
    endloop
  endfacet
  facet normal 0 0 -1
    outer loop
      vertex 3.72305 -0.547746 -2.5
      vertex 1.87 0.75 -2.5
      vertex 3.7565 -0.527248 -2.5
    endloop
  endfacet
  facet normal 0 0 -1
    outer loop
      vertex 3.69322 -0.573223 -2.5
      vertex 1.87 0.75 -2.5
      vertex 3.72305 -0.547746 -2.5
    endloop
  endfacet
  facet normal 0 0 -1
    outer loop
      vertex 3.66775 -0.603054 -2.5
      vertex 1.87 0.75 -2.5
      vertex 3.69322 -0.573223 -2.5
    endloop
  endfacet
  facet normal 0 0 -1
    outer loop
      vertex 3.64725 -0.636502 -2.5
      vertex 1.87 0.75 -2.5
      vertex 3.66775 -0.603054 -2.5
    endloop
  endfacet
  facet normal 0 0 -1
    outer loop
      vertex 3.63224 -0.672746 -2.5
      vertex 1.87 0.75 -2.5
      vertex 3.64725 -0.636502 -2.5
    endloop
  endfacet
  facet normal 0 0 -1
    outer loop
      vertex 3.62308 -0.710891 -2.5
      vertex 1.87 0.75 -2.5
      vertex 3.63224 -0.672746 -2.5
    endloop
  endfacet
  facet normal 0 0 -1
    outer loop
      vertex 3.62 -0.75 -2.5
      vertex 1.87 0.75 -2.5
      vertex 3.62308 -0.710891 -2.5
    endloop
  endfacet
  facet normal 0 0 -1
    outer loop
      vertex 3.94725 -0.512236 -2.5
      vertex 5.87 0.75 -2.5
      vertex 3.9835 -0.527248 -2.5
    endloop
  endfacet
  facet normal -1 0 0
    outer loop
      vertex 1.87 -0.75 -2.5
      vertex 1.87 -0.75 -2.45685
      vertex 1.87 0.75 -2.5
    endloop
  endfacet
  facet normal -1 0 0
    outer loop
      vertex 1.87 0.75 -2.5
      vertex 1.87 -0.75 -2.45685
      vertex 1.87 0.75 -2.45685
    endloop
  endfacet
  facet normal -2.22045e-16 -1 0
    outer loop
      vertex 7.74 -1.69 4.49
      vertex 7.74 -1.69 3.29
      vertex 9.44 -1.69 3.29
    endloop
  endfacet
  facet normal -2.22045e-16 -1 0
    outer loop
      vertex 9.44 -1.69 4.49
      vertex 7.74 -1.69 4.49
      vertex 9.44 -1.69 3.29
    endloop
  endfacet
  facet normal 0 0 -1
    outer loop
      vertex 7.74 -1.69 3.29
      vertex 7.74 -1.21 3.29
      vertex 9.44 -1.69 3.29
    endloop
  endfacet
  facet normal 0 0 -1
    outer loop
      vertex 9.44 -1.69 3.29
      vertex 7.74 -1.21 3.29
      vertex 8.94 -1.21 3.29
    endloop
  endfacet
  facet normal 0 0 -1
    outer loop
      vertex 9.44 -1.69 3.29
      vertex 8.94 -1.21 3.29
      vertex 8.94 -0.01 3.29
    endloop
  endfacet
  facet normal 0 0 -1
    outer loop
      vertex 8.94 -0.01 3.29
      vertex 7.74 -0.01 3.29
      vertex 7.74 0.71 3.29
    endloop
  endfacet
  facet normal 0 0 -1
    outer loop
      vertex 8.94 -0.01 3.29
      vertex 7.74 0.71 3.29
      vertex 8.94 0.71 3.29
    endloop
  endfacet
  facet normal 0 0 -1
    outer loop
      vertex 8.94 -0.01 3.29
      vertex 8.94 0.71 3.29
      vertex 9.44 -1.69 3.29
    endloop
  endfacet
  facet normal 0 0 -1
    outer loop
      vertex 8.94 0.71 3.29
      vertex 8.94 1.91 3.29
      vertex 9.44 -1.69 3.29
    endloop
  endfacet
  facet normal 0 0 -1
    outer loop
      vertex 8.94 1.91 3.29
      vertex 7.74 1.91 3.29
      vertex 7.74 2.63 3.29
    endloop
  endfacet
  facet normal 0 0 -1
    outer loop
      vertex 8.94 1.91 3.29
      vertex 7.74 2.63 3.29
      vertex 8.94 2.63 3.29
    endloop
  endfacet
  facet normal 0 0 -1
    outer loop
      vertex 8.94 1.91 3.29
      vertex 8.94 2.63 3.29
      vertex 9.44 -1.69 3.29
    endloop
  endfacet
  facet normal 0 0 -1
    outer loop
      vertex 8.94 2.63 3.29
      vertex 8.94 3.83 3.29
      vertex 9.44 -1.69 3.29
    endloop
  endfacet
  facet normal 0 0 -1
    outer loop
      vertex 8.94 3.83 3.29
      vertex 7.74 3.83 3.29
      vertex 7.74 4.07 3.29
    endloop
  endfacet
  facet normal 0 0 -1
    outer loop
      vertex 8.94 3.83 3.29
      vertex 7.74 4.07 3.29
      vertex 9.44 4.07 3.29
    endloop
  endfacet
  facet normal 0 0 -1
    outer loop
      vertex 8.94 3.83 3.29
      vertex 9.44 4.07 3.29
      vertex 9.44 -1.69 3.29
    endloop
  endfacet
  facet normal -1 2.22045e-16 0
    outer loop
      vertex 7.74 -1.69 3.29
      vertex 7.74 -1.69 4.49
      vertex 7.74 -1.21 3.29
    endloop
  endfacet
  facet normal -1 2.22045e-16 0
    outer loop
      vertex 7.74 -1.21 3.29
      vertex 7.74 -1.69 4.49
      vertex 7.74 -1.21 4.49
    endloop
  endfacet
  facet normal 0 0 1
    outer loop
      vertex 7.74 -1.21 4.49
      vertex 7.74 -1.69 4.49
      vertex 9.44 -1.69 4.49
    endloop
  endfacet
  facet normal 0 0 1
    outer loop
      vertex 8.94 -1.21 4.49
      vertex 7.74 -1.21 4.49
      vertex 9.44 -1.69 4.49
    endloop
  endfacet
  facet normal 0 0 1
    outer loop
      vertex 7.74 4.07 4.49
      vertex 7.74 3.83 4.49
      vertex 9.44 4.07 4.49
    endloop
  endfacet
  facet normal 0 0 1
    outer loop
      vertex 7.74 3.83 4.49
      vertex 8.94 3.83 4.49
      vertex 9.44 4.07 4.49
    endloop
  endfacet
  facet normal 0 0 1
    outer loop
      vertex 8.94 2.63 4.49
      vertex 8.94 1.91 4.49
      vertex 9.44 4.07 4.49
    endloop
  endfacet
  facet normal 0 0 1
    outer loop
      vertex 8.94 3.83 4.49
      vertex 8.94 2.63 4.49
      vertex 9.44 4.07 4.49
    endloop
  endfacet
  facet normal 0 0 1
    outer loop
      vertex 7.74 1.91 4.49
      vertex 8.94 1.91 4.49
      vertex 8.94 2.63 4.49
    endloop
  endfacet
  facet normal 0 0 1
    outer loop
      vertex 7.74 -0.01 4.49
      vertex 8.94 -0.01 4.49
      vertex 8.94 0.71 4.49
    endloop
  endfacet
  facet normal 0 0 1
    outer loop
      vertex 9.44 4.07 4.49
      vertex 8.94 1.91 4.49
      vertex 9.44 -1.69 4.49
    endloop
  endfacet
  facet normal 0 0 1
    outer loop
      vertex 8.94 1.91 4.49
      vertex 8.94 0.71 4.49
      vertex 9.44 -1.69 4.49
    endloop
  endfacet
  facet normal 0 0 1
    outer loop
      vertex 8.94 0.71 4.49
      vertex 8.94 -0.01 4.49
      vertex 9.44 -1.69 4.49
    endloop
  endfacet
  facet normal 0 0 1
    outer loop
      vertex 8.94 -0.01 4.49
      vertex 8.94 -1.21 4.49
      vertex 9.44 -1.69 4.49
    endloop
  endfacet
  facet normal 0 0 1
    outer loop
      vertex 8.94 0.71 4.49
      vertex 7.74 0.71 4.49
      vertex 7.74 -0.01 4.49
    endloop
  endfacet
  facet normal 0 0 1
    outer loop
      vertex 8.94 2.63 4.49
      vertex 7.74 2.63 4.49
      vertex 7.74 1.91 4.49
    endloop
  endfacet
  facet normal 1 -2.22045e-16 0
    outer loop
      vertex 9.44 -1.69 4.49
      vertex 9.44 -1.69 3.29
      vertex 9.44 4.07 3.29
    endloop
  endfacet
  facet normal 1 -2.22045e-16 0
    outer loop
      vertex 9.44 4.07 4.49
      vertex 9.44 -1.69 4.49
      vertex 9.44 4.07 3.29
    endloop
  endfacet
  facet normal 2.22045e-16 1 0
    outer loop
      vertex 7.74 4.07 3.29
      vertex 7.74 4.07 4.49
      vertex 9.44 4.07 3.29
    endloop
  endfacet
  facet normal 2.22045e-16 1 0
    outer loop
      vertex 9.44 4.07 3.29
      vertex 7.74 4.07 4.49
      vertex 9.44 4.07 4.49
    endloop
  endfacet
  facet normal -1 2.22045e-16 0
    outer loop
      vertex 7.74 3.83 3.29
      vertex 7.74 3.83 4.49
      vertex 7.74 4.07 3.29
    endloop
  endfacet
  facet normal -1 2.22045e-16 0
    outer loop
      vertex 7.74 4.07 3.29
      vertex 7.74 3.83 4.49
      vertex 7.74 4.07 4.49
    endloop
  endfacet
  facet normal -2.22045e-16 -1 0
    outer loop
      vertex 8.94 3.83 3.29
      vertex 8.94 3.83 4.49
      vertex 7.74 3.83 4.49
    endloop
  endfacet
  facet normal -2.22045e-16 -1 0
    outer loop
      vertex 7.74 3.83 3.29
      vertex 8.94 3.83 3.29
      vertex 7.74 3.83 4.49
    endloop
  endfacet
  facet normal -1 2.22045e-16 0
    outer loop
      vertex 8.94 3.83 4.49
      vertex 8.94 3.83 3.29
      vertex 8.94 2.63 4.49
    endloop
  endfacet
  facet normal -1 2.22045e-16 0
    outer loop
      vertex 8.94 2.63 4.49
      vertex 8.94 3.83 3.29
      vertex 8.94 2.63 3.29
    endloop
  endfacet
  facet normal 2.22045e-16 1 0
    outer loop
      vertex 8.94 2.63 4.49
      vertex 8.94 2.63 3.29
      vertex 7.74 2.63 4.49
    endloop
  endfacet
  facet normal 2.22045e-16 1 0
    outer loop
      vertex 7.74 2.63 4.49
      vertex 8.94 2.63 3.29
      vertex 7.74 2.63 3.29
    endloop
  endfacet
  facet normal -1 2.22045e-16 0
    outer loop
      vertex 7.74 1.91 3.29
      vertex 7.74 1.91 4.49
      vertex 7.74 2.63 3.29
    endloop
  endfacet
  facet normal -1 2.22045e-16 0
    outer loop
      vertex 7.74 2.63 3.29
      vertex 7.74 1.91 4.49
      vertex 7.74 2.63 4.49
    endloop
  endfacet
  facet normal -2.22045e-16 -1 0
    outer loop
      vertex 8.94 1.91 3.29
      vertex 8.94 1.91 4.49
      vertex 7.74 1.91 4.49
    endloop
  endfacet
  facet normal -2.22045e-16 -1 0
    outer loop
      vertex 7.74 1.91 3.29
      vertex 8.94 1.91 3.29
      vertex 7.74 1.91 4.49
    endloop
  endfacet
  facet normal -1 2.22045e-16 0
    outer loop
      vertex 8.94 1.91 4.49
      vertex 8.94 1.91 3.29
      vertex 8.94 0.71 4.49
    endloop
  endfacet
  facet normal -1 2.22045e-16 0
    outer loop
      vertex 8.94 0.71 4.49
      vertex 8.94 1.91 3.29
      vertex 8.94 0.71 3.29
    endloop
  endfacet
  facet normal 2.22045e-16 1 0
    outer loop
      vertex 8.94 0.71 4.49
      vertex 8.94 0.71 3.29
      vertex 7.74 0.71 4.49
    endloop
  endfacet
  facet normal 2.22045e-16 1 0
    outer loop
      vertex 7.74 0.71 4.49
      vertex 8.94 0.71 3.29
      vertex 7.74 0.71 3.29
    endloop
  endfacet
  facet normal -1 2.22045e-16 0
    outer loop
      vertex 7.74 -0.01 3.29
      vertex 7.74 -0.01 4.49
      vertex 7.74 0.71 3.29
    endloop
  endfacet
  facet normal -1 2.22045e-16 0
    outer loop
      vertex 7.74 0.71 3.29
      vertex 7.74 -0.01 4.49
      vertex 7.74 0.71 4.49
    endloop
  endfacet
  facet normal -2.22045e-16 -1 0
    outer loop
      vertex 8.94 -0.01 3.29
      vertex 8.94 -0.01 4.49
      vertex 7.74 -0.01 4.49
    endloop
  endfacet
  facet normal -2.22045e-16 -1 0
    outer loop
      vertex 7.74 -0.01 3.29
      vertex 8.94 -0.01 3.29
      vertex 7.74 -0.01 4.49
    endloop
  endfacet
  facet normal -1 2.22045e-16 0
    outer loop
      vertex 8.94 -0.01 4.49
      vertex 8.94 -0.01 3.29
      vertex 8.94 -1.21 4.49
    endloop
  endfacet
  facet normal -1 2.22045e-16 0
    outer loop
      vertex 8.94 -1.21 4.49
      vertex 8.94 -0.01 3.29
      vertex 8.94 -1.21 3.29
    endloop
  endfacet
  facet normal 2.22045e-16 1 0
    outer loop
      vertex 8.94 -1.21 4.49
      vertex 8.94 -1.21 3.29
      vertex 7.74 -1.21 4.49
    endloop
  endfacet
  facet normal 2.22045e-16 1 0
    outer loop
      vertex 7.74 -1.21 4.49
      vertex 8.94 -1.21 3.29
      vertex 7.74 -1.21 3.29
    endloop
  endfacet
endsolid OpenSCAD_Model
