solid OpenSCAD_Model
  facet normal -2.22045e-16 -1 -2.54072e-33
    outer loop
      vertex 1 -2.99 4.5
      vertex -2 -2.99 4.5
      vertex -2 -2.99 2.5
    endloop
  endfacet
  facet normal -2.22045e-16 -1 -2.54072e-33
    outer loop
      vertex 1 -2.99 2.5
      vertex 1 -2.99 4.5
      vertex -2 -2.99 2.5
    endloop
  endfacet
  facet normal -1 2.22045e-16 -1.22465e-16
    outer loop
      vertex -2 -2.99 4.5
      vertex -2 5.41 4.5
      vertex -2 -2.99 2.5
    endloop
  endfacet
  facet normal -1 2.22045e-16 -1.22465e-16
    outer loop
      vertex -2 -2.99 2.5
      vertex -2 5.41 4.5
      vertex -2 5.41 2.5
    endloop
  endfacet
  facet normal -1.22465e-16 2.71926e-32 1
    outer loop
      vertex -1.55 -2.29 4.5
      vertex -2 -2.99 4.5
      vertex 1 -2.99 4.5
    endloop
  endfacet
  facet normal -1.22465e-16 2.71926e-32 1
    outer loop
      vertex 0.14 -2.29 4.5
      vertex -1.55 -2.29 4.5
      vertex 1 -2.99 4.5
    endloop
  endfacet
  facet normal -1.22465e-16 2.71926e-32 1
    outer loop
      vertex -2 5.41 4.5
      vertex -2 -2.99 4.5
      vertex -1.55 -2.29 4.5
    endloop
  endfacet
  facet normal -1.22465e-16 2.71926e-32 1
    outer loop
      vertex 0.14 3.31 4.5
      vertex -1.55 3.31 4.5
      vertex 0.14 2.2 4.5
    endloop
  endfacet
  facet normal -1.22465e-16 2.71926e-32 1
    outer loop
      vertex -2 5.41 4.5
      vertex -1.55 -2.29 4.5
      vertex -1.55 -0.6 4.5
    endloop
  endfacet
  facet normal -1.22465e-16 2.71926e-32 1
    outer loop
      vertex -1.55 0.51 4.5
      vertex -1.55 -0.6 4.5
      vertex 0.14 -0.6 4.5
    endloop
  endfacet
  facet normal -1.22465e-16 2.71926e-32 1
    outer loop
      vertex -2 5.41 4.5
      vertex -1.55 -0.6 4.5
      vertex -1.55 0.51 4.5
    endloop
  endfacet
  facet normal -1.22465e-16 2.71926e-32 1
    outer loop
      vertex -2 5.41 4.5
      vertex -1.55 0.51 4.5
      vertex -1.55 2.2 4.5
    endloop
  endfacet
  facet normal -1.22465e-16 2.71926e-32 1
    outer loop
      vertex 1 5.41 4.5
      vertex 0.14 2.2 4.5
      vertex 1 -2.99 4.5
    endloop
  endfacet
  facet normal -1.22465e-16 2.71926e-32 1
    outer loop
      vertex 0.14 2.2 4.5
      vertex 0.14 0.51 4.5
      vertex 1 -2.99 4.5
    endloop
  endfacet
  facet normal -1.22465e-16 2.71926e-32 1
    outer loop
      vertex -1.55 3.31 4.5
      vertex -1.55 5 4.5
      vertex -2 5.41 4.5
    endloop
  endfacet
  facet normal -1.22465e-16 2.71926e-32 1
    outer loop
      vertex -1.55 2.2 4.5
      vertex 0.14 2.2 4.5
      vertex -1.55 3.31 4.5
    endloop
  endfacet
  facet normal -1.22465e-16 2.71926e-32 1
    outer loop
      vertex -2 5.41 4.5
      vertex -1.55 2.2 4.5
      vertex -1.55 3.31 4.5
    endloop
  endfacet
  facet normal -1.22465e-16 2.71926e-32 1
    outer loop
      vertex 1 5.41 4.5
      vertex -2 5.41 4.5
      vertex -1.55 5 4.5
    endloop
  endfacet
  facet normal -1.22465e-16 2.71926e-32 1
    outer loop
      vertex 1 5.41 4.5
      vertex -1.55 5 4.5
      vertex 0.14 5 4.5
    endloop
  endfacet
  facet normal -1.22465e-16 2.71926e-32 1
    outer loop
      vertex 1 5.41 4.5
      vertex 0.14 3.31 4.5
      vertex 0.14 2.2 4.5
    endloop
  endfacet
  facet normal -1.22465e-16 2.71926e-32 1
    outer loop
      vertex 1 5.41 4.5
      vertex 0.14 5 4.5
      vertex 0.14 3.31 4.5
    endloop
  endfacet
  facet normal -1.22465e-16 2.71926e-32 1
    outer loop
      vertex 0.14 -0.6 4.5
      vertex 0.14 -2.29 4.5
      vertex 1 -2.99 4.5
    endloop
  endfacet
  facet normal -1.22465e-16 2.71926e-32 1
    outer loop
      vertex 0.14 0.51 4.5
      vertex 0.14 -0.6 4.5
      vertex 1 -2.99 4.5
    endloop
  endfacet
  facet normal -1.22465e-16 2.71926e-32 1
    outer loop
      vertex 0.14 0.51 4.5
      vertex -1.55 0.51 4.5
      vertex 0.14 -0.6 4.5
    endloop
  endfacet
  facet normal 1 -2.22045e-16 1.22465e-16
    outer loop
      vertex 1 0.7 4.5
      vertex 1 0.7 2.5
      vertex 1 3.7 4.5
    endloop
  endfacet
  facet normal 1 -2.22045e-16 1.22465e-16
    outer loop
      vertex 1 5.41 4.5
      vertex 1 -2.99 4.5
      vertex 1 -2.54 4.5
    endloop
  endfacet
  facet normal 1 -2.22045e-16 1.22465e-16
    outer loop
      vertex 1 5.41 4.5
      vertex 1 -2.54 4.5
      vertex 1 -0.85 4.5
    endloop
  endfacet
  facet normal 1 -2.22045e-16 1.22465e-16
    outer loop
      vertex 1 4.4 4.5
      vertex 1 4.4 2.5
      vertex 1 5.41 4.5
    endloop
  endfacet
  facet normal 1 -2.22045e-16 1.22465e-16
    outer loop
      vertex 1 5.41 4.5
      vertex 1 -0.85 4.5
      vertex 1 0.7 4.5
    endloop
  endfacet
  facet normal 1 -2.22045e-16 1.22465e-16
    outer loop
      vertex 1 5.41 4.5
      vertex 1 0.7 4.5
      vertex 1 3.7 4.5
    endloop
  endfacet
  facet normal 1 -2.22045e-16 1.22465e-16
    outer loop
      vertex 1 -2.54 4.5
      vertex 1 -2.54 2.5
      vertex 1 -0.85 4.5
    endloop
  endfacet
  facet normal 1 -2.22045e-16 1.22465e-16
    outer loop
      vertex 1 5.41 4.5
      vertex 1 3.7 4.5
      vertex 1 4.4 4.5
    endloop
  endfacet
  facet normal 1 -2.22045e-16 1.22465e-16
    outer loop
      vertex 1 5.41 2.5
      vertex 1 5.41 4.5
      vertex 1 4.4 2.5
    endloop
  endfacet
  facet normal 1 -2.22045e-16 1.22465e-16
    outer loop
      vertex 1 3.7 2.5
      vertex 1 3.7 4.5
      vertex 1 0.7 2.5
    endloop
  endfacet
  facet normal 1 -2.22045e-16 1.22465e-16
    outer loop
      vertex 1 -0.85 2.5
      vertex 1 -0.85 4.5
      vertex 1 -2.54 2.5
    endloop
  endfacet
  facet normal 1.22465e-16 -2.71926e-32 -1
    outer loop
      vertex 0.14 5 2.5
      vertex -2 5.41 2.5
      vertex 1 5.41 2.5
    endloop
  endfacet
  facet normal 1.22465e-16 -2.71926e-32 -1
    outer loop
      vertex -1.55 3.31 2.5
      vertex -2 5.41 2.5
      vertex -1.55 5 2.5
    endloop
  endfacet
  facet normal 1.22465e-16 -2.71926e-32 -1
    outer loop
      vertex -1.55 5 2.5
      vertex -2 5.41 2.5
      vertex 0.14 5 2.5
    endloop
  endfacet
  facet normal 1.22465e-16 -2.71926e-32 -1
    outer loop
      vertex 1 4.4 2.5
      vertex 0.14 5 2.5
      vertex 1 5.41 2.5
    endloop
  endfacet
  facet normal 1.22465e-16 -2.71926e-32 -1
    outer loop
      vertex -2 -2.99 2.5
      vertex -2 5.41 2.5
      vertex -1.55 3.31 2.5
    endloop
  endfacet
  facet normal 1.22465e-16 -2.71926e-32 -1
    outer loop
      vertex 0 0.51 2.5
      vertex 0 -0.6 2.5
      vertex -1.55 0.51 2.5
    endloop
  endfacet
  facet normal 1.22465e-16 -2.71926e-32 -1
    outer loop
      vertex -1.55 2.2 2.5
      vertex -1.55 3.31 2.5
      vertex 0 2.2 2.5
    endloop
  endfacet
  facet normal 1.22465e-16 -2.71926e-32 -1
    outer loop
      vertex -2 -2.99 2.5
      vertex -1.55 3.31 2.5
      vertex -1.55 2.2 2.5
    endloop
  endfacet
  facet normal 1.22465e-16 -2.71926e-32 -1
    outer loop
      vertex -2 -2.99 2.5
      vertex -1.55 2.2 2.5
      vertex -1.55 0.51 2.5
    endloop
  endfacet
  facet normal 1.22465e-16 -2.71926e-32 -1
    outer loop
      vertex 0 -2.99 2.5
      vertex -1.55 -2.29 2.5
      vertex 0 -2.29 2.5
    endloop
  endfacet
  facet normal 1.22465e-16 -2.71926e-32 -1
    outer loop
      vertex -1.55 -0.6 2.5
      vertex -1.55 0.51 2.5
      vertex 0 -0.6 2.5
    endloop
  endfacet
  facet normal 1.22465e-16 -2.71926e-32 -1
    outer loop
      vertex -2 -2.99 2.5
      vertex -1.55 0.51 2.5
      vertex -1.55 -0.6 2.5
    endloop
  endfacet
  facet normal 1.22465e-16 -2.71926e-32 -1
    outer loop
      vertex -2 -2.99 2.5
      vertex -1.55 -0.6 2.5
      vertex -1.55 -2.29 2.5
    endloop
  endfacet
  facet normal 1.22465e-16 -2.71926e-32 -1
    outer loop
      vertex -2 -2.99 2.5
      vertex -1.55 -2.29 2.5
      vertex 0 -2.99 2.5
    endloop
  endfacet
  facet normal 1.22465e-16 -2.71926e-32 -1
    outer loop
      vertex -2 -2.99 2.5
      vertex 0 -2.99 2.5
      vertex 1 -2.99 2.5
    endloop
  endfacet
  facet normal 1.22465e-16 -2.71926e-32 -1
    outer loop
      vertex 0.14 5 2.5
      vertex 1 4.4 2.5
      vertex 0.14 4.4 2.5
    endloop
  endfacet
  facet normal 1.22465e-16 -2.71926e-32 -1
    outer loop
      vertex 0 3.31 2.5
      vertex 0 2.2 2.5
      vertex -1.55 3.31 2.5
    endloop
  endfacet
  facet normal 2.22045e-16 1 2.54072e-33
    outer loop
      vertex -2 5.41 4.5
      vertex 1 5.41 4.5
      vertex -2 5.41 2.5
    endloop
  endfacet
  facet normal 2.22045e-16 1 2.54072e-33
    outer loop
      vertex -2 5.41 2.5
      vertex 1 5.41 4.5
      vertex 1 5.41 2.5
    endloop
  endfacet
  facet normal 2.22045e-16 1 2.54072e-33
    outer loop
      vertex -1.55 -2.29 2.5
      vertex 0 -2.29 4.5
      vertex 0 -2.29 2.5
    endloop
  endfacet
  facet normal 2.22045e-16 1 2.54072e-33
    outer loop
      vertex -1.55 -2.29 4.5
      vertex 0 -2.29 4.5
      vertex -1.55 -2.29 2.5
    endloop
  endfacet
  facet normal 2.22045e-16 1 2.54072e-33
    outer loop
      vertex 0.14 -2.29 4.5
      vertex 0 -2.29 4.5
      vertex -1.55 -2.29 4.5
    endloop
  endfacet
  facet normal 1 -2.22045e-16 1.22465e-16
    outer loop
      vertex -1.55 -2.29 2.5
      vertex -1.55 -0.6 2.5
      vertex -1.55 -0.6 4.5
    endloop
  endfacet
  facet normal 1 -2.22045e-16 1.22465e-16
    outer loop
      vertex -1.55 -2.29 4.5
      vertex -1.55 -2.29 2.5
      vertex -1.55 -0.6 4.5
    endloop
  endfacet
  facet normal -2.22045e-16 -1 -2.54072e-33
    outer loop
      vertex -1.55 -0.6 2.5
      vertex 0 -0.6 2.5
      vertex 0 -0.6 4.5
    endloop
  endfacet
  facet normal -2.22045e-16 -1 -2.54072e-33
    outer loop
      vertex -1.55 -0.6 4.5
      vertex -1.55 -0.6 2.5
      vertex 0 -0.6 4.5
    endloop
  endfacet
  facet normal -2.22045e-16 -1 -2.54072e-33
    outer loop
      vertex 0.14 -0.6 4.5
      vertex -1.55 -0.6 4.5
      vertex 0 -0.6 4.5
    endloop
  endfacet
  facet normal 2.22045e-16 1 2.54072e-33
    outer loop
      vertex -1.55 0.51 2.5
      vertex 0 0.51 4.5
      vertex 0 0.51 2.5
    endloop
  endfacet
  facet normal 2.22045e-16 1 2.54072e-33
    outer loop
      vertex -1.55 0.51 4.5
      vertex 0 0.51 4.5
      vertex -1.55 0.51 2.5
    endloop
  endfacet
  facet normal 2.22045e-16 1 2.54072e-33
    outer loop
      vertex 0.14 0.51 4.5
      vertex 0 0.51 4.5
      vertex -1.55 0.51 4.5
    endloop
  endfacet
  facet normal 1 -2.22045e-16 1.22465e-16
    outer loop
      vertex -1.55 0.51 2.5
      vertex -1.55 2.2 2.5
      vertex -1.55 2.2 4.5
    endloop
  endfacet
  facet normal 1 -2.22045e-16 1.22465e-16
    outer loop
      vertex -1.55 0.51 4.5
      vertex -1.55 0.51 2.5
      vertex -1.55 2.2 4.5
    endloop
  endfacet
  facet normal -2.22045e-16 -1 -2.54072e-33
    outer loop
      vertex -1.55 2.2 2.5
      vertex 0 2.2 2.5
      vertex 0 2.2 4.5
    endloop
  endfacet
  facet normal -2.22045e-16 -1 -2.54072e-33
    outer loop
      vertex -1.55 2.2 4.5
      vertex -1.55 2.2 2.5
      vertex 0 2.2 4.5
    endloop
  endfacet
  facet normal -2.22045e-16 -1 -2.54072e-33
    outer loop
      vertex 0.14 2.2 4.5
      vertex -1.55 2.2 4.5
      vertex 0 2.2 4.5
    endloop
  endfacet
  facet normal 2.22045e-16 1 2.54072e-33
    outer loop
      vertex -1.55 3.31 2.5
      vertex 0 3.31 4.5
      vertex 0 3.31 2.5
    endloop
  endfacet
  facet normal 2.22045e-16 1 2.54072e-33
    outer loop
      vertex -1.55 3.31 4.5
      vertex 0 3.31 4.5
      vertex -1.55 3.31 2.5
    endloop
  endfacet
  facet normal 2.22045e-16 1 2.54072e-33
    outer loop
      vertex 0.14 3.31 4.5
      vertex 0 3.31 4.5
      vertex -1.55 3.31 4.5
    endloop
  endfacet
  facet normal 1 -2.22045e-16 1.22465e-16
    outer loop
      vertex -1.55 3.31 2.5
      vertex -1.55 5 2.5
      vertex -1.55 5 4.5
    endloop
  endfacet
  facet normal 1 -2.22045e-16 1.22465e-16
    outer loop
      vertex -1.55 3.31 4.5
      vertex -1.55 3.31 2.5
      vertex -1.55 5 4.5
    endloop
  endfacet
  facet normal -1 2.22045e-16 -1.22465e-16
    outer loop
      vertex 0.14 5 2.5
      vertex 0.14 4.4 2.5
      vertex 0.14 5 4.5
    endloop
  endfacet
  facet normal -1 2.22045e-16 -1.22465e-16
    outer loop
      vertex 0.14 5 4.5
      vertex 0.14 4.4 2.5
      vertex 0.14 4.4 4.5
    endloop
  endfacet
  facet normal -1 2.22045e-16 -1.22465e-16
    outer loop
      vertex 0.14 5 4.5
      vertex 0.14 4.4 4.5
      vertex 0.14 3.31 4.5
    endloop
  endfacet
  facet normal -2.22045e-16 -1 -2.54072e-33
    outer loop
      vertex -1.55 5 2.5
      vertex 0.14 5 2.5
      vertex 0.14 5 4.5
    endloop
  endfacet
  facet normal -2.22045e-16 -1 -2.54072e-33
    outer loop
      vertex -1.55 5 4.5
      vertex -1.55 5 2.5
      vertex 0.14 5 4.5
    endloop
  endfacet
  facet normal 0 1 0
    outer loop
      vertex 0 4.4 0
      vertex 0 4.4 4.5
      vertex 0.14 4.4 2.5
    endloop
  endfacet
  facet normal 0 1 0
    outer loop
      vertex 0 4.4 0
      vertex 0.14 4.4 2.5
      vertex 2.9 4.4 0
    endloop
  endfacet
  facet normal 0 1 0
    outer loop
      vertex 1 4.4 4.5
      vertex 2.9 4.4 0
      vertex 1 4.4 2.5
    endloop
  endfacet
  facet normal 0 1 0
    outer loop
      vertex 0.14 4.4 2.5
      vertex 1 4.4 2.5
      vertex 2.9 4.4 0
    endloop
  endfacet
  facet normal 0 1 0
    outer loop
      vertex 2.9 4.4 0
      vertex 1 4.4 4.5
      vertex 2.9 4.4 4.5
    endloop
  endfacet
  facet normal 0 1 0
    outer loop
      vertex 0.14 4.4 2.5
      vertex 0 4.4 4.5
      vertex 0.14 4.4 4.5
    endloop
  endfacet
  facet normal 0 0 1
    outer loop
      vertex 1 4.4 4.5
      vertex 1 3.7 4.5
      vertex 2.9 3.7 4.5
    endloop
  endfacet
  facet normal 0 0 1
    outer loop
      vertex 2.9 4.4 4.5
      vertex 1 4.4 4.5
      vertex 2.9 3.7 4.5
    endloop
  endfacet
  facet normal 0 -1 0
    outer loop
      vertex 2.9 3.7 0
      vertex 2.9 3.7 4.5
      vertex 1 3.7 4.5
    endloop
  endfacet
  facet normal 0 -1 0
    outer loop
      vertex 0.7 3.7 2.5
      vertex 2.9 3.7 0
      vertex 1 3.7 2.5
    endloop
  endfacet
  facet normal 0 -1 0
    outer loop
      vertex 1 3.7 2.5
      vertex 2.9 3.7 0
      vertex 1 3.7 4.5
    endloop
  endfacet
  facet normal 0 -1 0
    outer loop
      vertex 0.7 3.7 0
      vertex 2.9 3.7 0
      vertex 0.7 3.7 2.5
    endloop
  endfacet
  facet normal 1.22465e-16 -2.71926e-32 -1
    outer loop
      vertex 0.7 0.7 2.5
      vertex 0.7 3.7 2.5
      vertex 1 0.7 2.5
    endloop
  endfacet
  facet normal 1.22465e-16 -2.71926e-32 -1
    outer loop
      vertex 1 0.7 2.5
      vertex 0.7 3.7 2.5
      vertex 1 3.7 2.5
    endloop
  endfacet
  facet normal 0 1 0
    outer loop
      vertex 1 0.7 2.5
      vertex 1 0.7 4.5
      vertex 6.3 0.7 4.5
    endloop
  endfacet
  facet normal 0 1 0
    outer loop
      vertex 1 0.7 2.5
      vertex 6.3 0.7 4.5
      vertex 6.3 0.7 0
    endloop
  endfacet
  facet normal 0 1 0
    outer loop
      vertex 1 0.7 2.5
      vertex 6.3 0.7 0
      vertex 0.7 0.7 2.5
    endloop
  endfacet
  facet normal 0 1 0
    outer loop
      vertex 6.3 0.7 0
      vertex 0.7 0.7 0
      vertex 0.7 0.7 2.5
    endloop
  endfacet
  facet normal 0 0 1
    outer loop
      vertex 1 -2.54 4.5
      vertex 1 -2.99 4.5
      vertex 7 -2.99 4.5
    endloop
  endfacet
  facet normal 0 0 1
    outer loop
      vertex 9.4 -2.99 4.5
      vertex 1 -2.54 4.5
      vertex 7 -2.99 4.5
    endloop
  endfacet
  facet normal 0 0 1
    outer loop
      vertex 2.27333 -2.54 4.5
      vertex 1 -2.54 4.5
      vertex 9.4 -2.99 4.5
    endloop
  endfacet
  facet normal 0 0 1
    outer loop
      vertex 6.3 0.7 4.5
      vertex 2.27333 -0.85 4.5
      vertex 2.91667 -0.85 4.5
    endloop
  endfacet
  facet normal 0 0 1
    outer loop
      vertex 2.27333 -0.85 4.5
      vertex 2.27333 -2.54 4.5
      vertex 2.91667 -0.85 4.5
    endloop
  endfacet
  facet normal 0 0 1
    outer loop
      vertex 8.95 5 4.5
      vertex 8.95 3.31 4.5
      vertex 9.4 5.41 4.5
    endloop
  endfacet
  facet normal 0 0 1
    outer loop
      vertex 7.26 3.31 4.5
      vertex 7.26 5 4.5
      vertex 6.4 4.4 4.5
    endloop
  endfacet
  facet normal 0 0 1
    outer loop
      vertex 4.1 3.7 4.5
      vertex 6.3 3.7 4.5
      vertex 6.4 4.4 4.5
    endloop
  endfacet
  facet normal 0 0 1
    outer loop
      vertex 2.91667 -2.54 4.5
      vertex 2.27333 -2.54 4.5
      vertex 9.4 -2.99 4.5
    endloop
  endfacet
  facet normal 0 0 1
    outer loop
      vertex 2.91667 -0.85 4.5
      vertex 4.60667 -0.85 4.5
      vertex 6.3 0.7 4.5
    endloop
  endfacet
  facet normal 0 0 1
    outer loop
      vertex 4.60667 -2.54 4.5
      vertex 2.91667 -2.54 4.5
      vertex 9.4 -2.99 4.5
    endloop
  endfacet
  facet normal 0 0 1
    outer loop
      vertex 4.60667 -0.85 4.5
      vertex 4.60667 -2.54 4.5
      vertex 5.25 -0.85 4.5
    endloop
  endfacet
  facet normal 0 0 1
    outer loop
      vertex 2.91667 -2.54 4.5
      vertex 2.91667 -0.85 4.5
      vertex 2.27333 -2.54 4.5
    endloop
  endfacet
  facet normal 0 0 1
    outer loop
      vertex 4.60667 -0.85 4.5
      vertex 5.25 -0.85 4.5
      vertex 6.3 0.7 4.5
    endloop
  endfacet
  facet normal 0 0 1
    outer loop
      vertex 5.25 -2.54 4.5
      vertex 4.60667 -2.54 4.5
      vertex 9.4 -2.99 4.5
    endloop
  endfacet
  facet normal 0 0 1
    outer loop
      vertex 7.26 0.51 4.5
      vertex 7.26 2.2 4.5
      vertex 6.3 0.7 4.5
    endloop
  endfacet
  facet normal 0 0 1
    outer loop
      vertex 6.4 -2.54 4.5
      vertex 5.25 -2.54 4.5
      vertex 9.4 -2.99 4.5
    endloop
  endfacet
  facet normal 0 0 1
    outer loop
      vertex 5.25 -0.85 4.5
      vertex 6.4 -0.85 4.5
      vertex 6.3 0.7 4.5
    endloop
  endfacet
  facet normal 0 0 1
    outer loop
      vertex 5.25 -2.54 4.5
      vertex 5.25 -0.85 4.5
      vertex 4.60667 -2.54 4.5
    endloop
  endfacet
  facet normal 0 0 1
    outer loop
      vertex 7.26 -0.6 4.5
      vertex 8.95 -0.6 4.5
      vertex 6.3 0.7 4.5
    endloop
  endfacet
  facet normal 0 0 1
    outer loop
      vertex 7.26 -2.29 4.5
      vertex 7.26 -0.6 4.5
      vertex 6.4 -0.85 4.5
    endloop
  endfacet
  facet normal 0 0 1
    outer loop
      vertex 7.26 -2.29 4.5
      vertex 6.4 -2.54 4.5
      vertex 9.4 -2.99 4.5
    endloop
  endfacet
  facet normal 0 0 1
    outer loop
      vertex 6.4 -0.85 4.5
      vertex 6.4 -2.54 4.5
      vertex 7.26 -2.29 4.5
    endloop
  endfacet
  facet normal 0 0 1
    outer loop
      vertex 7.26 2.2 4.5
      vertex 8.95 2.2 4.5
      vertex 8.95 3.31 4.5
    endloop
  endfacet
  facet normal 0 0 1
    outer loop
      vertex 6.3 0.7 4.5
      vertex 6.4 -0.85 4.5
      vertex 7.26 -0.6 4.5
    endloop
  endfacet
  facet normal 0 0 1
    outer loop
      vertex 9.4 5.41 4.5
      vertex 8.95 -0.6 4.5
      vertex 9.4 -2.99 4.5
    endloop
  endfacet
  facet normal 0 0 1
    outer loop
      vertex 7.26 0.51 4.5
      vertex 6.3 0.7 4.5
      vertex 8.95 -0.6 4.5
    endloop
  endfacet
  facet normal 0 0 1
    outer loop
      vertex 8.95 -0.6 4.5
      vertex 8.95 -2.29 4.5
      vertex 9.4 -2.99 4.5
    endloop
  endfacet
  facet normal 0 0 1
    outer loop
      vertex 7.26 3.31 4.5
      vertex 6.4 4.4 4.5
      vertex 6.3 3.7 4.5
    endloop
  endfacet
  facet normal 0 0 1
    outer loop
      vertex 8.95 0.51 4.5
      vertex 7.26 0.51 4.5
      vertex 8.95 -0.6 4.5
    endloop
  endfacet
  facet normal 0 0 1
    outer loop
      vertex 9.4 5.41 4.5
      vertex 8.95 2.2 4.5
      vertex 8.95 0.51 4.5
    endloop
  endfacet
  facet normal 0 0 1
    outer loop
      vertex 9.4 5.41 4.5
      vertex 8.95 0.51 4.5
      vertex 8.95 -0.6 4.5
    endloop
  endfacet
  facet normal 0 0 1
    outer loop
      vertex 7.26 5 4.5
      vertex 8.95 5 4.5
      vertex 9.4 5.41 4.5
    endloop
  endfacet
  facet normal 0 0 1
    outer loop
      vertex 6.4 5.41 4.5
      vertex 7.26 5 4.5
      vertex 9.4 5.41 4.5
    endloop
  endfacet
  facet normal 0 0 1
    outer loop
      vertex 6.4 5.41 4.5
      vertex 6.4 4.4 4.5
      vertex 7.26 5 4.5
    endloop
  endfacet
  facet normal 0 0 1
    outer loop
      vertex 9.4 5.41 4.5
      vertex 8.95 3.31 4.5
      vertex 8.95 2.2 4.5
    endloop
  endfacet
  facet normal 0 0 1
    outer loop
      vertex 8.95 3.31 4.5
      vertex 7.26 3.31 4.5
      vertex 7.26 2.2 4.5
    endloop
  endfacet
  facet normal 0 0 1
    outer loop
      vertex 8.95 -2.29 4.5
      vertex 7.26 -2.29 4.5
      vertex 9.4 -2.99 4.5
    endloop
  endfacet
  facet normal 0 0 1
    outer loop
      vertex 6.4 4.4 4.5
      vertex 4.1 4.4 4.5
      vertex 4.1 3.7 4.5
    endloop
  endfacet
  facet normal 0 0 1
    outer loop
      vertex 6.3 3.7 4.5
      vertex 7.26 2.2 4.5
      vertex 7.26 3.31 4.5
    endloop
  endfacet
  facet normal 0 0 1
    outer loop
      vertex 6.3 3.7 4.5
      vertex 6.3 0.7 4.5
      vertex 7.26 2.2 4.5
    endloop
  endfacet
  facet normal 0 0 1
    outer loop
      vertex 6.3 0.7 4.5
      vertex 1 -0.85 4.5
      vertex 2.27333 -0.85 4.5
    endloop
  endfacet
  facet normal 0 0 1
    outer loop
      vertex 6.3 0.7 4.5
      vertex 1 0.7 4.5
      vertex 1 -0.85 4.5
    endloop
  endfacet
  facet normal 0 -1 0
    outer loop
      vertex 2.27333 -0.85 2.5
      vertex 2.27333 -0.85 4.5
      vertex 1 -0.85 4.5
    endloop
  endfacet
  facet normal 0 -1 0
    outer loop
      vertex 0.583333 -0.85 2.5
      vertex 2.27333 -0.85 2.5
      vertex 1 -0.85 2.5
    endloop
  endfacet
  facet normal 0 -1 0
    outer loop
      vertex 1 -0.85 2.5
      vertex 2.27333 -0.85 2.5
      vertex 1 -0.85 4.5
    endloop
  endfacet
  facet normal 1.22465e-16 -2.71926e-32 -1
    outer loop
      vertex 0.583333 -2.54 2.5
      vertex 0.583333 -0.85 2.5
      vertex 1 -2.54 2.5
    endloop
  endfacet
  facet normal 1.22465e-16 -2.71926e-32 -1
    outer loop
      vertex 1 -2.54 2.5
      vertex 0.583333 -0.85 2.5
      vertex 1 -0.85 2.5
    endloop
  endfacet
  facet normal 0 1 0
    outer loop
      vertex 1 -2.54 2.5
      vertex 1 -2.54 4.5
      vertex 2.27333 -2.54 4.5
    endloop
  endfacet
  facet normal 0 1 0
    outer loop
      vertex 1 -2.54 2.5
      vertex 2.27333 -2.54 4.5
      vertex 2.27333 -2.54 2.5
    endloop
  endfacet
  facet normal 0 1 0
    outer loop
      vertex 1 -2.54 2.5
      vertex 2.27333 -2.54 2.5
      vertex 0.583333 -2.54 2.5
    endloop
  endfacet
  facet normal 0 -1 0
    outer loop
      vertex 1 -2.99 2.5
      vertex 0 -2.99 2.5
      vertex 7 -2.99 2.5
    endloop
  endfacet
  facet normal 0 -1 0
    outer loop
      vertex 7 -2.99 4.5
      vertex 1 -2.99 2.5
      vertex 7 -2.99 2.5
    endloop
  endfacet
  facet normal 0 -1 0
    outer loop
      vertex 1 -2.99 4.5
      vertex 1 -2.99 2.5
      vertex 7 -2.99 4.5
    endloop
  endfacet
  facet normal -1 0 0
    outer loop
      vertex 0 0 2.5
      vertex 0 -2.99 2.5
      vertex 0 -2.29 2.5
    endloop
  endfacet
  facet normal -1 0 0
    outer loop
      vertex 0 -0.6 2.5
      vertex 0 -2.29 2.5
      vertex 0 -2.29 4.5
    endloop
  endfacet
  facet normal -1 0 0
    outer loop
      vertex 0 0 2.5
      vertex 0 -2.29 2.5
      vertex 0 -0.6 2.5
    endloop
  endfacet
  facet normal -1 0 0
    outer loop
      vertex 0 0.51 2.5
      vertex 0 0 2.5
      vertex 0 -0.6 2.5
    endloop
  endfacet
  facet normal -1 0 0
    outer loop
      vertex 0 -0.6 2.5
      vertex 0 -2.29 4.5
      vertex 0 -0.6 4.5
    endloop
  endfacet
  facet normal -1 0 0
    outer loop
      vertex 0 0.51 2.5
      vertex 0 0.51 4.5
      vertex 0 2.2 4.5
    endloop
  endfacet
  facet normal -1 0 0
    outer loop
      vertex 0 0.51 2.5
      vertex 0 2.2 4.5
      vertex 0 2.2 2.5
    endloop
  endfacet
  facet normal -1 0 0
    outer loop
      vertex 0 0.51 2.5
      vertex 0 2.2 2.5
      vertex 0 0 2.5
    endloop
  endfacet
  facet normal -1 0 0
    outer loop
      vertex 0 2.2 2.5
      vertex 0 3.31 2.5
      vertex 0 0 2.5
    endloop
  endfacet
  facet normal -1 0 0
    outer loop
      vertex 0 3.31 2.5
      vertex 0 3.31 4.5
      vertex 0 4.4 4.5
    endloop
  endfacet
  facet normal -1 0 0
    outer loop
      vertex 0 3.31 2.5
      vertex 0 4.4 4.5
      vertex 0 4.4 0
    endloop
  endfacet
  facet normal -1 0 0
    outer loop
      vertex 0 3.31 2.5
      vertex 0 4.4 0
      vertex 0 0 2.5
    endloop
  endfacet
  facet normal -1 0 0
    outer loop
      vertex 0 0 2.5
      vertex 0 4.4 0
      vertex 0 0 0
    endloop
  endfacet
  facet normal 0 0 1
    outer loop
      vertex 0 -0.6 4.5
      vertex 0 -2.29 4.5
      vertex 0.14 -2.29 4.5
    endloop
  endfacet
  facet normal 0 0 1
    outer loop
      vertex 0.14 -0.6 4.5
      vertex 0 -0.6 4.5
      vertex 0.14 -2.29 4.5
    endloop
  endfacet
  facet normal 0 0 1
    outer loop
      vertex 0 2.2 4.5
      vertex 0 0.51 4.5
      vertex 0.14 0.51 4.5
    endloop
  endfacet
  facet normal 0 0 1
    outer loop
      vertex 0.14 2.2 4.5
      vertex 0 2.2 4.5
      vertex 0.14 0.51 4.5
    endloop
  endfacet
  facet normal 0 0 1
    outer loop
      vertex 0 4.4 4.5
      vertex 0 3.31 4.5
      vertex 0.14 3.31 4.5
    endloop
  endfacet
  facet normal 0 0 1
    outer loop
      vertex 0.14 4.4 4.5
      vertex 0 4.4 4.5
      vertex 0.14 3.31 4.5
    endloop
  endfacet
  facet normal 0 0 -1
    outer loop
      vertex 0.7 3.7 0
      vertex 0 4.4 0
      vertex 2.9 4.4 0
    endloop
  endfacet
  facet normal 0 0 -1
    outer loop
      vertex 2.5 0.69 0
      vertex 2.5 0 0
      vertex 0.7 0.7 0
    endloop
  endfacet
  facet normal 0 0 -1
    outer loop
      vertex 6.3 0.7 0
      vertex 4.5 0.69 0
      vertex 2.5 0.69 0
    endloop
  endfacet
  facet normal 0 0 -1
    outer loop
      vertex 0.7 0.7 0
      vertex 0 4.4 0
      vertex 0.7 3.7 0
    endloop
  endfacet
  facet normal 0 0 -1
    outer loop
      vertex 0 0 0
      vertex 0 4.4 0
      vertex 0.7 0.7 0
    endloop
  endfacet
  facet normal 0 0 -1
    outer loop
      vertex 0 0 0
      vertex 0.7 0.7 0
      vertex 2.5 0 0
    endloop
  endfacet
  facet normal 0 0 -1
    outer loop
      vertex 4.1 4.4 0
      vertex 6.3 3.7 0
      vertex 4.1 3.7 0
    endloop
  endfacet
  facet normal 0 0 -1
    outer loop
      vertex 4.5 0.69 0
      vertex 6.3 0.7 0
      vertex 4.5 0 0
    endloop
  endfacet
  facet normal 0 0 -1
    outer loop
      vertex 6.3 3.7 0
      vertex 4.1 4.4 0
      vertex 7 4.4 0
    endloop
  endfacet
  facet normal 0 0 -1
    outer loop
      vertex 6.3 3.7 0
      vertex 7 4.4 0
      vertex 6.3 0.7 0
    endloop
  endfacet
  facet normal 0 0 -1
    outer loop
      vertex 6.3 0.7 0
      vertex 7 4.4 0
      vertex 7 0 0
    endloop
  endfacet
  facet normal 0 0 -1
    outer loop
      vertex 6.3 0.7 0
      vertex 7 0 0
      vertex 4.5 0 0
    endloop
  endfacet
  facet normal 0 0 -1
    outer loop
      vertex 0.7 3.7 0
      vertex 2.9 4.4 0
      vertex 2.9 3.7 0
    endloop
  endfacet
  facet normal 0 0 -1
    outer loop
      vertex 6.3 0.7 0
      vertex 2.5 0.69 0
      vertex 0.7 0.7 0
    endloop
  endfacet
  facet normal 1 0 0
    outer loop
      vertex 2.9 4.4 0
      vertex 2.9 4.4 4.5
      vertex 2.9 3.7 4.5
    endloop
  endfacet
  facet normal 1 0 0
    outer loop
      vertex 2.9 3.7 0
      vertex 2.9 4.4 0
      vertex 2.9 3.7 4.5
    endloop
  endfacet
  facet normal 1 0 0
    outer loop
      vertex 0.7 3.7 0
      vertex 0.7 3.7 2.5
      vertex 0.7 0.7 2.5
    endloop
  endfacet
  facet normal 1 0 0
    outer loop
      vertex 0.7 0.7 0
      vertex 0.7 3.7 0
      vertex 0.7 0.7 2.5
    endloop
  endfacet
  facet normal -1 0 0
    outer loop
      vertex 6.3 3.7 4.5
      vertex 6.3 3.7 0
      vertex 6.3 0.7 4.5
    endloop
  endfacet
  facet normal -1 0 0
    outer loop
      vertex 6.3 0.7 4.5
      vertex 6.3 3.7 0
      vertex 6.3 0.7 0
    endloop
  endfacet
  facet normal -1 0 0
    outer loop
      vertex 2.27333 -0.85 4.5
      vertex 2.27333 -0.85 2.5
      vertex 2.27333 -2.54 4.5
    endloop
  endfacet
  facet normal -1 0 0
    outer loop
      vertex 2.27333 -2.54 4.5
      vertex 2.27333 -0.85 2.5
      vertex 2.27333 -2.54 2.5
    endloop
  endfacet
  facet normal 0 -1 0
    outer loop
      vertex 6.3 3.7 0
      vertex 6.3 3.7 4.5
      vertex 4.1 3.7 4.5
    endloop
  endfacet
  facet normal 0 -1 0
    outer loop
      vertex 4.1 3.7 0
      vertex 6.3 3.7 0
      vertex 4.1 3.7 4.5
    endloop
  endfacet
  facet normal -1 0 0
    outer loop
      vertex 4.1 4.4 4.5
      vertex 4.1 4.4 0
      vertex 4.1 3.7 4.5
    endloop
  endfacet
  facet normal -1 0 0
    outer loop
      vertex 4.1 3.7 4.5
      vertex 4.1 4.4 0
      vertex 4.1 3.7 0
    endloop
  endfacet
  facet normal 0 1 0
    outer loop
      vertex 4.1 4.4 0
      vertex 4.1 4.4 4.5
      vertex 7 4.4 0
    endloop
  endfacet
  facet normal 0 1 0
    outer loop
      vertex 6.4 4.4 2.5
      vertex 4.1 4.4 4.5
      vertex 6.4 4.4 4.5
    endloop
  endfacet
  facet normal 0 1 0
    outer loop
      vertex 7 4.4 0
      vertex 4.1 4.4 4.5
      vertex 6.4 4.4 2.5
    endloop
  endfacet
  facet normal 0 1 0
    outer loop
      vertex 7 4.4 2.5
      vertex 7 4.4 0
      vertex 6.4 4.4 2.5
    endloop
  endfacet
  facet normal -1 2.22045e-16 0
    outer loop
      vertex 6.4 4.4 2.5
      vertex 6.4 4.4 4.5
      vertex 6.4 5.41 2.5
    endloop
  endfacet
  facet normal -1 2.22045e-16 0
    outer loop
      vertex 6.4 5.41 2.5
      vertex 6.4 4.4 4.5
      vertex 6.4 5.41 4.5
    endloop
  endfacet
  facet normal 2.22045e-16 1 0
    outer loop
      vertex 6.4 5.41 2.5
      vertex 6.4 5.41 4.5
      vertex 9.4 5.41 2.5
    endloop
  endfacet
  facet normal 2.22045e-16 1 0
    outer loop
      vertex 9.4 5.41 2.5
      vertex 6.4 5.41 4.5
      vertex 9.4 5.41 4.5
    endloop
  endfacet
  facet normal 1 -2.22045e-16 0
    outer loop
      vertex 9.4 -2.99 4.5
      vertex 9.4 -2.99 2.5
      vertex 9.4 5.41 2.5
    endloop
  endfacet
  facet normal 1 -2.22045e-16 0
    outer loop
      vertex 9.4 5.41 4.5
      vertex 9.4 -2.99 4.5
      vertex 9.4 5.41 2.5
    endloop
  endfacet
  facet normal -2.22045e-16 -1 0
    outer loop
      vertex 7 -2.99 4.5
      vertex 7 -2.99 2.5
      vertex 9.4 -2.99 2.5
    endloop
  endfacet
  facet normal -2.22045e-16 -1 0
    outer loop
      vertex 9.4 -2.99 4.5
      vertex 7 -2.99 4.5
      vertex 9.4 -2.99 2.5
    endloop
  endfacet
  facet normal 1 0 0
    outer loop
      vertex 2.91667 -0.85 2.5
      vertex 2.91667 -0.85 4.5
      vertex 2.91667 -2.54 4.5
    endloop
  endfacet
  facet normal 1 0 0
    outer loop
      vertex 2.91667 -2.54 2.5
      vertex 2.91667 -0.85 2.5
      vertex 2.91667 -2.54 4.5
    endloop
  endfacet
  facet normal 0 1 0
    outer loop
      vertex 4.60667 -2.54 4.5
      vertex 4.60667 -2.54 2.5
      vertex 2.91667 -2.54 4.5
    endloop
  endfacet
  facet normal 0 1 0
    outer loop
      vertex 2.91667 -2.54 4.5
      vertex 4.60667 -2.54 2.5
      vertex 2.91667 -2.54 2.5
    endloop
  endfacet
  facet normal -1 0 0
    outer loop
      vertex 4.60667 -0.85 4.5
      vertex 4.60667 -0.85 2.5
      vertex 4.60667 -2.54 4.5
    endloop
  endfacet
  facet normal -1 0 0
    outer loop
      vertex 4.60667 -2.54 4.5
      vertex 4.60667 -0.85 2.5
      vertex 4.60667 -2.54 2.5
    endloop
  endfacet
  facet normal 0 -1 0
    outer loop
      vertex 4.60667 -0.85 2.5
      vertex 4.60667 -0.85 4.5
      vertex 2.91667 -0.85 4.5
    endloop
  endfacet
  facet normal 0 -1 0
    outer loop
      vertex 2.91667 -0.85 2.5
      vertex 4.60667 -0.85 2.5
      vertex 2.91667 -0.85 4.5
    endloop
  endfacet
  facet normal 1 0 0
    outer loop
      vertex 5.25 -0.85 2.5
      vertex 5.25 -0.85 4.5
      vertex 5.25 -2.54 4.5
    endloop
  endfacet
  facet normal 1 0 0
    outer loop
      vertex 5.25 -2.54 2.5
      vertex 5.25 -0.85 2.5
      vertex 5.25 -2.54 4.5
    endloop
  endfacet
  facet normal 0 1 0
    outer loop
      vertex 6.4 -2.54 4.5
      vertex 6.4 -2.54 2.5
      vertex 5.25 -2.54 4.5
    endloop
  endfacet
  facet normal 0 1 0
    outer loop
      vertex 5.25 -2.54 4.5
      vertex 6.4 -2.54 2.5
      vertex 5.25 -2.54 2.5
    endloop
  endfacet
  facet normal -1 2.22045e-16 0
    outer loop
      vertex 6.4 -2.54 2.5
      vertex 6.4 -2.54 4.5
      vertex 6.4 -0.85 2.5
    endloop
  endfacet
  facet normal -1 2.22045e-16 0
    outer loop
      vertex 6.4 -0.85 2.5
      vertex 6.4 -2.54 4.5
      vertex 6.4 -0.85 4.5
    endloop
  endfacet
  facet normal 0 -1 0
    outer loop
      vertex 6.4 -0.85 2.5
      vertex 6.4 -0.85 4.5
      vertex 5.25 -0.85 4.5
    endloop
  endfacet
  facet normal 0 -1 0
    outer loop
      vertex 5.25 -0.85 2.5
      vertex 6.4 -0.85 2.5
      vertex 5.25 -0.85 4.5
    endloop
  endfacet
  facet normal 2.22045e-16 1 0
    outer loop
      vertex 8.95 -2.29 4.5
      vertex 8.95 -2.29 2.5
      vertex 7.26 -2.29 4.5
    endloop
  endfacet
  facet normal 2.22045e-16 1 0
    outer loop
      vertex 7.26 -2.29 4.5
      vertex 8.95 -2.29 2.5
      vertex 7.26 -2.29 2.5
    endloop
  endfacet
  facet normal 1 -2.22045e-16 0
    outer loop
      vertex 7.26 -0.6 2.5
      vertex 7.26 -0.6 4.5
      vertex 7.26 -2.29 4.5
    endloop
  endfacet
  facet normal 1 -2.22045e-16 0
    outer loop
      vertex 7.26 -2.29 2.5
      vertex 7.26 -0.6 2.5
      vertex 7.26 -2.29 4.5
    endloop
  endfacet
  facet normal -1 2.22045e-16 0
    outer loop
      vertex 8.95 -0.6 4.5
      vertex 8.95 -0.6 2.5
      vertex 8.95 -2.29 4.5
    endloop
  endfacet
  facet normal -1 2.22045e-16 0
    outer loop
      vertex 8.95 -2.29 4.5
      vertex 8.95 -0.6 2.5
      vertex 8.95 -2.29 2.5
    endloop
  endfacet
  facet normal -2.22045e-16 -1 0
    outer loop
      vertex 8.95 -0.6 2.5
      vertex 8.95 -0.6 4.5
      vertex 7.26 -0.6 4.5
    endloop
  endfacet
  facet normal -2.22045e-16 -1 0
    outer loop
      vertex 7.26 -0.6 2.5
      vertex 8.95 -0.6 2.5
      vertex 7.26 -0.6 4.5
    endloop
  endfacet
  facet normal 2.22045e-16 1 0
    outer loop
      vertex 8.95 0.51 4.5
      vertex 8.95 0.51 2.5
      vertex 7.26 0.51 4.5
    endloop
  endfacet
  facet normal 2.22045e-16 1 0
    outer loop
      vertex 7.26 0.51 4.5
      vertex 8.95 0.51 2.5
      vertex 7.26 0.51 2.5
    endloop
  endfacet
  facet normal 1 -2.22045e-16 0
    outer loop
      vertex 7.26 2.2 2.5
      vertex 7.26 2.2 4.5
      vertex 7.26 0.51 4.5
    endloop
  endfacet
  facet normal 1 -2.22045e-16 0
    outer loop
      vertex 7.26 0.51 2.5
      vertex 7.26 2.2 2.5
      vertex 7.26 0.51 4.5
    endloop
  endfacet
  facet normal -1 2.22045e-16 0
    outer loop
      vertex 8.95 2.2 4.5
      vertex 8.95 2.2 2.5
      vertex 8.95 0.51 4.5
    endloop
  endfacet
  facet normal -1 2.22045e-16 0
    outer loop
      vertex 8.95 0.51 4.5
      vertex 8.95 2.2 2.5
      vertex 8.95 0.51 2.5
    endloop
  endfacet
  facet normal -2.22045e-16 -1 0
    outer loop
      vertex 8.95 2.2 2.5
      vertex 8.95 2.2 4.5
      vertex 7.26 2.2 4.5
    endloop
  endfacet
  facet normal -2.22045e-16 -1 0
    outer loop
      vertex 7.26 2.2 2.5
      vertex 8.95 2.2 2.5
      vertex 7.26 2.2 4.5
    endloop
  endfacet
  facet normal 2.22045e-16 1 0
    outer loop
      vertex 8.95 3.31 4.5
      vertex 8.95 3.31 2.5
      vertex 7.26 3.31 4.5
    endloop
  endfacet
  facet normal 2.22045e-16 1 0
    outer loop
      vertex 7.26 3.31 4.5
      vertex 8.95 3.31 2.5
      vertex 7.26 3.31 2.5
    endloop
  endfacet
  facet normal 1 -2.22045e-16 0
    outer loop
      vertex 7.26 5 2.5
      vertex 7.26 5 4.5
      vertex 7.26 3.31 4.5
    endloop
  endfacet
  facet normal 1 -2.22045e-16 0
    outer loop
      vertex 7.26 3.31 2.5
      vertex 7.26 5 2.5
      vertex 7.26 3.31 4.5
    endloop
  endfacet
  facet normal -1 2.22045e-16 0
    outer loop
      vertex 8.95 5 4.5
      vertex 8.95 5 2.5
      vertex 8.95 3.31 4.5
    endloop
  endfacet
  facet normal -1 2.22045e-16 0
    outer loop
      vertex 8.95 3.31 4.5
      vertex 8.95 5 2.5
      vertex 8.95 3.31 2.5
    endloop
  endfacet
  facet normal -2.22045e-16 -1 0
    outer loop
      vertex 8.95 5 2.5
      vertex 8.95 5 4.5
      vertex 7.26 5 4.5
    endloop
  endfacet
  facet normal -2.22045e-16 -1 0
    outer loop
      vertex 7.26 5 2.5
      vertex 8.95 5 2.5
      vertex 7.26 5 4.5
    endloop
  endfacet
  facet normal 0 0 -1
    outer loop
      vertex 2.5 0 2.5
      vertex 2.5 -0.81 2.5
      vertex 0 0 2.5
    endloop
  endfacet
  facet normal 0 0 -1
    outer loop
      vertex 5.25 -2.54 2.5
      vertex 4.60667 -0.85 2.5
      vertex 5.25 -0.85 2.5
    endloop
  endfacet
  facet normal 0 0 -1
    outer loop
      vertex 3.27725 -0.696502 2.5
      vertex 3.25 -0.81 2.5
      vertex 3.26224 -0.732746 2.5
    endloop
  endfacet
  facet normal 0 0 -1
    outer loop
      vertex 3.25 -0.81 2.5
      vertex 3.25308 -0.770891 2.5
      vertex 3.26224 -0.732746 2.5
    endloop
  endfacet
  facet normal 0 0 -1
    outer loop
      vertex 3.29775 -0.663054 2.5
      vertex 3.25 -0.81 2.5
      vertex 3.27725 -0.696502 2.5
    endloop
  endfacet
  facet normal 0 0 -1
    outer loop
      vertex 3.32322 -0.633223 2.5
      vertex 3.25 -0.81 2.5
      vertex 3.29775 -0.663054 2.5
    endloop
  endfacet
  facet normal 0 0 -1
    outer loop
      vertex 3.35305 -0.607746 2.5
      vertex 3.25 -0.81 2.5
      vertex 3.32322 -0.633223 2.5
    endloop
  endfacet
  facet normal 0 0 -1
    outer loop
      vertex 3.3865 -0.587248 2.5
      vertex 3.25 -0.81 2.5
      vertex 3.35305 -0.607746 2.5
    endloop
  endfacet
  facet normal 0 0 -1
    outer loop
      vertex 3.42275 -0.572236 2.5
      vertex 3.25 -0.81 2.5
      vertex 3.3865 -0.587248 2.5
    endloop
  endfacet
  facet normal 0 0 -1
    outer loop
      vertex 3.46089 -0.563078 2.5
      vertex 3.25 -0.81 2.5
      vertex 3.42275 -0.572236 2.5
    endloop
  endfacet
  facet normal 0 0 -1
    outer loop
      vertex 3.5 -0.56 2.5
      vertex 3.25 -0.81 2.5
      vertex 3.46089 -0.563078 2.5
    endloop
  endfacet
  facet normal 0 0 -1
    outer loop
      vertex 3.53911 -0.563078 2.5
      vertex 3.25 -0.81 2.5
      vertex 3.5 -0.56 2.5
    endloop
  endfacet
  facet normal 0 0 -1
    outer loop
      vertex 3.57725 -0.572236 2.5
      vertex 3.25 -0.81 2.5
      vertex 3.53911 -0.563078 2.5
    endloop
  endfacet
  facet normal 0 0 -1
    outer loop
      vertex 3.6135 -0.587248 2.5
      vertex 3.25 -0.81 2.5
      vertex 3.57725 -0.572236 2.5
    endloop
  endfacet
  facet normal 0 0 -1
    outer loop
      vertex 3.64695 -0.607746 2.5
      vertex 3.25 -0.81 2.5
      vertex 3.6135 -0.587248 2.5
    endloop
  endfacet
  facet normal 0 0 -1
    outer loop
      vertex 3.67678 -0.633223 2.5
      vertex 3.25 -0.81 2.5
      vertex 3.64695 -0.607746 2.5
    endloop
  endfacet
  facet normal 0 0 -1
    outer loop
      vertex 3.70225 -0.663054 2.5
      vertex 3.25 -0.81 2.5
      vertex 3.67678 -0.633223 2.5
    endloop
  endfacet
  facet normal 0 0 -1
    outer loop
      vertex 3.72275 -0.696502 2.5
      vertex 3.25 -0.81 2.5
      vertex 3.70225 -0.663054 2.5
    endloop
  endfacet
  facet normal 0 0 -1
    outer loop
      vertex 3.73776 -0.732746 2.5
      vertex 3.25 -0.81 2.5
      vertex 3.72275 -0.696502 2.5
    endloop
  endfacet
  facet normal 0 0 -1
    outer loop
      vertex 3.74692 -0.770891 2.5
      vertex 3.25 -0.81 2.5
      vertex 3.73776 -0.732746 2.5
    endloop
  endfacet
  facet normal 0 0 -1
    outer loop
      vertex 3.75 -0.81 2.5
      vertex 3.25 -0.81 2.5
      vertex 3.74692 -0.770891 2.5
    endloop
  endfacet
  facet normal 0 0 -1
    outer loop
      vertex 2.91667 -0.85 2.5
      vertex 4.5 -0.81 2.5
      vertex 4.60667 -0.85 2.5
    endloop
  endfacet
  facet normal 0 0 -1
    outer loop
      vertex 7 0 2.5
      vertex 4.5 -0.81 2.5
      vertex 4.5 0 2.5
    endloop
  endfacet
  facet normal 0 0 -1
    outer loop
      vertex 2.91667 -0.85 2.5
      vertex 3.75 -0.81 2.5
      vertex 4.5 -0.81 2.5
    endloop
  endfacet
  facet normal 0 0 -1
    outer loop
      vertex 8.95 5 2.5
      vertex 9.4 5.41 2.5
      vertex 8.95 3.31 2.5
    endloop
  endfacet
  facet normal 0 0 -1
    outer loop
      vertex 7.26 5 2.5
      vertex 7 4.4 2.5
      vertex 6.4 5.41 2.5
    endloop
  endfacet
  facet normal 0 0 -1
    outer loop
      vertex 7 4.4 2.5
      vertex 6.4 4.4 2.5
      vertex 6.4 5.41 2.5
    endloop
  endfacet
  facet normal 0 0 -1
    outer loop
      vertex 8.95 -2.29 2.5
      vertex 9.4 -2.99 2.5
      vertex 7.26 -2.29 2.5
    endloop
  endfacet
  facet normal 0 0 -1
    outer loop
      vertex 0.583333 -2.54 2.5
      vertex 7 -2.99 2.5
      vertex 0 -2.99 2.5
    endloop
  endfacet
  facet normal 0 0 -1
    outer loop
      vertex 2.27333 -2.54 2.5
      vertex 7 -2.99 2.5
      vertex 0.583333 -2.54 2.5
    endloop
  endfacet
  facet normal 0 0 -1
    outer loop
      vertex 0 0 2.5
      vertex 0.583333 -2.54 2.5
      vertex 0 -2.99 2.5
    endloop
  endfacet
  facet normal 0 0 -1
    outer loop
      vertex 2.91667 -2.54 2.5
      vertex 7 -2.99 2.5
      vertex 2.27333 -2.54 2.5
    endloop
  endfacet
  facet normal 0 0 -1
    outer loop
      vertex 0 0 2.5
      vertex 2.5 -0.81 2.5
      vertex 2.27333 -0.85 2.5
    endloop
  endfacet
  facet normal 0 0 -1
    outer loop
      vertex 0.583333 -0.85 2.5
      vertex 0 0 2.5
      vertex 2.27333 -0.85 2.5
    endloop
  endfacet
  facet normal 0 0 -1
    outer loop
      vertex 2.91667 -2.54 2.5
      vertex 2.27333 -0.85 2.5
      vertex 2.5 -0.81 2.5
    endloop
  endfacet
  facet normal 0 0 -1
    outer loop
      vertex 0 0 2.5
      vertex 0.583333 -0.85 2.5
      vertex 0.583333 -2.54 2.5
    endloop
  endfacet
  facet normal 0 0 -1
    outer loop
      vertex 4.60667 -2.54 2.5
      vertex 7 -2.99 2.5
      vertex 2.91667 -2.54 2.5
    endloop
  endfacet
  facet normal 0 0 -1
    outer loop
      vertex 5.25 -2.54 2.5
      vertex 7 -2.99 2.5
      vertex 4.60667 -2.54 2.5
    endloop
  endfacet
  facet normal 0 0 -1
    outer loop
      vertex 4.5 -0.81 2.5
      vertex 7 0 2.5
      vertex 4.60667 -0.85 2.5
    endloop
  endfacet
  facet normal 0 0 -1
    outer loop
      vertex 2.91667 -0.85 2.5
      vertex 3.25 -0.81 2.5
      vertex 3.75 -0.81 2.5
    endloop
  endfacet
  facet normal 0 0 -1
    outer loop
      vertex 2.5 -0.81 2.5
      vertex 3.25 -0.81 2.5
      vertex 2.91667 -0.85 2.5
    endloop
  endfacet
  facet normal 0 0 -1
    outer loop
      vertex 7.26 -2.29 2.5
      vertex 9.4 -2.99 2.5
      vertex 6.4 -2.54 2.5
    endloop
  endfacet
  facet normal 0 0 -1
    outer loop
      vertex 4.60667 -0.85 2.5
      vertex 5.25 -2.54 2.5
      vertex 4.60667 -2.54 2.5
    endloop
  endfacet
  facet normal 0 0 -1
    outer loop
      vertex 7 -2.99 2.5
      vertex 6.4 -2.54 2.5
      vertex 9.4 -2.99 2.5
    endloop
  endfacet
  facet normal 0 0 -1
    outer loop
      vertex 5.25 -0.85 2.5
      vertex 7 0 2.5
      vertex 6.4 -0.85 2.5
    endloop
  endfacet
  facet normal 0 0 -1
    outer loop
      vertex 7.26 -2.29 2.5
      vertex 6.4 -0.85 2.5
      vertex 7.26 -0.6 2.5
    endloop
  endfacet
  facet normal 0 0 -1
    outer loop
      vertex 4.60667 -0.85 2.5
      vertex 7 0 2.5
      vertex 5.25 -0.85 2.5
    endloop
  endfacet
  facet normal 0 0 -1
    outer loop
      vertex 7.26 -0.6 2.5
      vertex 7 0 2.5
      vertex 8.95 -0.6 2.5
    endloop
  endfacet
  facet normal 0 0 -1
    outer loop
      vertex 9.4 -2.99 2.5
      vertex 8.95 -2.29 2.5
      vertex 9.4 5.41 2.5
    endloop
  endfacet
  facet normal 0 0 -1
    outer loop
      vertex 7.26 3.31 2.5
      vertex 7 4.4 2.5
      vertex 7.26 5 2.5
    endloop
  endfacet
  facet normal 0 0 -1
    outer loop
      vertex 8.95 -2.29 2.5
      vertex 8.95 -0.6 2.5
      vertex 9.4 5.41 2.5
    endloop
  endfacet
  facet normal 0 0 -1
    outer loop
      vertex 6.4 -0.85 2.5
      vertex 7 0 2.5
      vertex 7.26 -0.6 2.5
    endloop
  endfacet
  facet normal 0 0 -1
    outer loop
      vertex 7.26 0.51 2.5
      vertex 7 0 2.5
      vertex 7.26 2.2 2.5
    endloop
  endfacet
  facet normal 0 0 -1
    outer loop
      vertex 8.95 -0.6 2.5
      vertex 7 0 2.5
      vertex 7.26 0.51 2.5
    endloop
  endfacet
  facet normal 0 0 -1
    outer loop
      vertex 7.26 5 2.5
      vertex 9.4 5.41 2.5
      vertex 8.95 5 2.5
    endloop
  endfacet
  facet normal 0 0 -1
    outer loop
      vertex 8.95 -0.6 2.5
      vertex 7.26 0.51 2.5
      vertex 8.95 0.51 2.5
    endloop
  endfacet
  facet normal 0 0 -1
    outer loop
      vertex 8.95 -0.6 2.5
      vertex 8.95 0.51 2.5
      vertex 9.4 5.41 2.5
    endloop
  endfacet
  facet normal 0 0 -1
    outer loop
      vertex 8.95 0.51 2.5
      vertex 8.95 2.2 2.5
      vertex 9.4 5.41 2.5
    endloop
  endfacet
  facet normal 0 0 -1
    outer loop
      vertex 7 0 2.5
      vertex 7 4.4 2.5
      vertex 7.26 2.2 2.5
    endloop
  endfacet
  facet normal 0 0 -1
    outer loop
      vertex 7.26 2.2 2.5
      vertex 8.95 3.31 2.5
      vertex 8.95 2.2 2.5
    endloop
  endfacet
  facet normal 0 0 -1
    outer loop
      vertex 7.26 2.2 2.5
      vertex 7 4.4 2.5
      vertex 7.26 3.31 2.5
    endloop
  endfacet
  facet normal 0 0 -1
    outer loop
      vertex 8.95 2.2 2.5
      vertex 8.95 3.31 2.5
      vertex 9.4 5.41 2.5
    endloop
  endfacet
  facet normal 0 0 -1
    outer loop
      vertex 8.95 3.31 2.5
      vertex 7.26 2.2 2.5
      vertex 7.26 3.31 2.5
    endloop
  endfacet
  facet normal 0 0 -1
    outer loop
      vertex 9.4 5.41 2.5
      vertex 7.26 5 2.5
      vertex 6.4 5.41 2.5
    endloop
  endfacet
  facet normal 0 0 -1
    outer loop
      vertex 6.4 -2.54 2.5
      vertex 7 -2.99 2.5
      vertex 5.25 -2.54 2.5
    endloop
  endfacet
  facet normal 0 0 -1
    outer loop
      vertex 6.4 -0.85 2.5
      vertex 7.26 -2.29 2.5
      vertex 6.4 -2.54 2.5
    endloop
  endfacet
  facet normal 0 0 -1
    outer loop
      vertex 2.27333 -0.85 2.5
      vertex 2.91667 -2.54 2.5
      vertex 2.27333 -2.54 2.5
    endloop
  endfacet
  facet normal 0 0 -1
    outer loop
      vertex 2.91667 -2.54 2.5
      vertex 2.5 -0.81 2.5
      vertex 2.91667 -0.85 2.5
    endloop
  endfacet
  facet normal 0 -1 0
    outer loop
      vertex 0 0 2.5
      vertex 0 0 0
      vertex 2.5 0 0
    endloop
  endfacet
  facet normal 0 -1 0
    outer loop
      vertex 2.5 0 2.5
      vertex 0 0 2.5
      vertex 2.5 0 0
    endloop
  endfacet
  facet normal -1 0 0
    outer loop
      vertex 2.5 0 2.5
      vertex 2.5 0 0
      vertex 2.5 -0.81 2.5
    endloop
  endfacet
  facet normal -1 0 0
    outer loop
      vertex 2.5 0.69 -1.45685
      vertex 2.5 0 0
      vertex 2.5 0.69 0
    endloop
  endfacet
  facet normal -1 0 0
    outer loop
      vertex 2.5 -0.81 -1.45685
      vertex 2.5 0 0
      vertex 2.5 0.69 -1.45685
    endloop
  endfacet
  facet normal -1 0 0
    outer loop
      vertex 2.5 -0.81 2.5
      vertex 2.5 0 0
      vertex 2.5 -0.81 -1.45685
    endloop
  endfacet
  facet normal 0 1 0
    outer loop
      vertex 1.5 0.69 -2.5
      vertex 1.5 0.69 -2.45685
      vertex 5.5 0.69 -2.5
    endloop
  endfacet
  facet normal 0 1 0
    outer loop
      vertex 5.5 0.69 -2.5
      vertex 1.5 0.69 -2.45685
      vertex 2.5 0.69 -1.45685
    endloop
  endfacet
  facet normal 0 1 0
    outer loop
      vertex 5.5 0.69 -2.5
      vertex 2.5 0.69 -1.45685
      vertex 2.5 0.69 0
    endloop
  endfacet
  facet normal 0 1 0
    outer loop
      vertex 4.5 0.69 -1.5
      vertex 2.5 0.69 0
      vertex 4.5 0.69 0
    endloop
  endfacet
  facet normal 0 1 0
    outer loop
      vertex 5.5 0.69 -2.5
      vertex 2.5 0.69 0
      vertex 4.5 0.69 -1.5
    endloop
  endfacet
  facet normal 1 0 0
    outer loop
      vertex 4.5 0.69 -1.5
      vertex 4.5 0.69 0
      vertex 4.5 0 0
    endloop
  endfacet
  facet normal 1 0 0
    outer loop
      vertex 4.5 -0.81 -1.5
      vertex 4.5 0.69 -1.5
      vertex 4.5 0 0
    endloop
  endfacet
  facet normal 1 0 0
    outer loop
      vertex 4.5 0 2.5
      vertex 4.5 -0.81 2.5
      vertex 4.5 0 0
    endloop
  endfacet
  facet normal 1 0 0
    outer loop
      vertex 4.5 -0.81 2.5
      vertex 4.5 -0.81 -1.5
      vertex 4.5 0 0
    endloop
  endfacet
  facet normal 0 -1 0
    outer loop
      vertex 4.5 0 2.5
      vertex 4.5 0 0
      vertex 7 0 0
    endloop
  endfacet
  facet normal 0 -1 0
    outer loop
      vertex 7 0 2.5
      vertex 4.5 0 2.5
      vertex 7 0 0
    endloop
  endfacet
  facet normal 1 0 0
    outer loop
      vertex 7 0 2.5
      vertex 7 0 0
      vertex 7 4.4 0
    endloop
  endfacet
  facet normal 1 0 0
    outer loop
      vertex 7 4.4 2.5
      vertex 7 0 2.5
      vertex 7 4.4 0
    endloop
  endfacet
  facet normal 0 -1 0
    outer loop
      vertex 4.5 -0.81 -1.5
      vertex 3.75 -0.81 -2.5
      vertex 5.5 -0.81 -2.5
    endloop
  endfacet
  facet normal 0 -1 0
    outer loop
      vertex 3.75 -0.81 2.5
      vertex 3.75 -0.81 -2.5
      vertex 4.5 -0.81 -1.5
    endloop
  endfacet
  facet normal 0 -1 0
    outer loop
      vertex 4.5 -0.81 -1.5
      vertex 4.5 -0.81 2.5
      vertex 3.75 -0.81 2.5
    endloop
  endfacet
  facet normal -0.996917 -0.0784605 0
    outer loop
      vertex 3.75 -0.81 2.5
      vertex 3.74692 -0.770891 2.5
      vertex 3.75 -0.81 -2.5
    endloop
  endfacet
  facet normal -0.996917 -0.0784605 0
    outer loop
      vertex 3.75 -0.81 -2.5
      vertex 3.74692 -0.770891 2.5
      vertex 3.74692 -0.770891 -2.5
    endloop
  endfacet
  facet normal -0.972369 -0.23345 0
    outer loop
      vertex 3.74692 -0.770891 2.5
      vertex 3.73776 -0.732746 2.5
      vertex 3.74692 -0.770891 -2.5
    endloop
  endfacet
  facet normal -0.972369 -0.23345 0
    outer loop
      vertex 3.74692 -0.770891 -2.5
      vertex 3.73776 -0.732746 2.5
      vertex 3.73776 -0.732746 -2.5
    endloop
  endfacet
  facet normal -0.923886 -0.382667 0
    outer loop
      vertex 3.73776 -0.732746 2.5
      vertex 3.72275 -0.696502 2.5
      vertex 3.73776 -0.732746 -2.5
    endloop
  endfacet
  facet normal -0.923886 -0.382667 0
    outer loop
      vertex 3.73776 -0.732746 -2.5
      vertex 3.72275 -0.696502 2.5
      vertex 3.72275 -0.696502 -2.5
    endloop
  endfacet
  facet normal -0.852628 -0.522518 0
    outer loop
      vertex 3.72275 -0.696502 2.5
      vertex 3.70225 -0.663054 2.5
      vertex 3.72275 -0.696502 -2.5
    endloop
  endfacet
  facet normal -0.852628 -0.522518 0
    outer loop
      vertex 3.72275 -0.696502 -2.5
      vertex 3.70225 -0.663054 2.5
      vertex 3.70225 -0.663054 -2.5
    endloop
  endfacet
  facet normal -0.76042 -0.649432 0
    outer loop
      vertex 3.70225 -0.663054 2.5
      vertex 3.67678 -0.633223 2.5
      vertex 3.70225 -0.663054 -2.5
    endloop
  endfacet
  facet normal -0.76042 -0.649432 0
    outer loop
      vertex 3.70225 -0.663054 -2.5
      vertex 3.67678 -0.633223 2.5
      vertex 3.67678 -0.633223 -2.5
    endloop
  endfacet
  facet normal -0.649432 -0.76042 0
    outer loop
      vertex 3.67678 -0.633223 -2.5
      vertex 3.67678 -0.633223 2.5
      vertex 3.64695 -0.607746 2.5
    endloop
  endfacet
  facet normal -0.649432 -0.76042 0
    outer loop
      vertex 3.64695 -0.607746 -2.5
      vertex 3.67678 -0.633223 -2.5
      vertex 3.64695 -0.607746 2.5
    endloop
  endfacet
  facet normal -0.522518 -0.852628 0
    outer loop
      vertex 3.64695 -0.607746 -2.5
      vertex 3.64695 -0.607746 2.5
      vertex 3.6135 -0.587248 2.5
    endloop
  endfacet
  facet normal -0.522518 -0.852628 0
    outer loop
      vertex 3.6135 -0.587248 -2.5
      vertex 3.64695 -0.607746 -2.5
      vertex 3.6135 -0.587248 2.5
    endloop
  endfacet
  facet normal -0.382667 -0.923886 0
    outer loop
      vertex 3.6135 -0.587248 -2.5
      vertex 3.6135 -0.587248 2.5
      vertex 3.57725 -0.572236 2.5
    endloop
  endfacet
  facet normal -0.382667 -0.923886 0
    outer loop
      vertex 3.57725 -0.572236 -2.5
      vertex 3.6135 -0.587248 -2.5
      vertex 3.57725 -0.572236 2.5
    endloop
  endfacet
  facet normal -0.23345 -0.972369 0
    outer loop
      vertex 3.57725 -0.572236 -2.5
      vertex 3.57725 -0.572236 2.5
      vertex 3.53911 -0.563078 2.5
    endloop
  endfacet
  facet normal -0.23345 -0.972369 0
    outer loop
      vertex 3.53911 -0.563078 -2.5
      vertex 3.57725 -0.572236 -2.5
      vertex 3.53911 -0.563078 2.5
    endloop
  endfacet
  facet normal -0.0784605 -0.996917 0
    outer loop
      vertex 3.53911 -0.563078 -2.5
      vertex 3.53911 -0.563078 2.5
      vertex 3.5 -0.56 2.5
    endloop
  endfacet
  facet normal -0.0784605 -0.996917 0
    outer loop
      vertex 3.5 -0.56 -2.5
      vertex 3.53911 -0.563078 -2.5
      vertex 3.5 -0.56 2.5
    endloop
  endfacet
  facet normal 0.0784605 -0.996917 0
    outer loop
      vertex 3.5 -0.56 -2.5
      vertex 3.5 -0.56 2.5
      vertex 3.46089 -0.563078 2.5
    endloop
  endfacet
  facet normal 0.0784605 -0.996917 0
    outer loop
      vertex 3.46089 -0.563078 -2.5
      vertex 3.5 -0.56 -2.5
      vertex 3.46089 -0.563078 2.5
    endloop
  endfacet
  facet normal 0.23345 -0.972369 0
    outer loop
      vertex 3.46089 -0.563078 -2.5
      vertex 3.46089 -0.563078 2.5
      vertex 3.42275 -0.572236 2.5
    endloop
  endfacet
  facet normal 0.23345 -0.972369 0
    outer loop
      vertex 3.42275 -0.572236 -2.5
      vertex 3.46089 -0.563078 -2.5
      vertex 3.42275 -0.572236 2.5
    endloop
  endfacet
  facet normal 0.382667 -0.923886 0
    outer loop
      vertex 3.42275 -0.572236 -2.5
      vertex 3.42275 -0.572236 2.5
      vertex 3.3865 -0.587248 2.5
    endloop
  endfacet
  facet normal 0.382667 -0.923886 0
    outer loop
      vertex 3.3865 -0.587248 -2.5
      vertex 3.42275 -0.572236 -2.5
      vertex 3.3865 -0.587248 2.5
    endloop
  endfacet
  facet normal 0.522518 -0.852628 0
    outer loop
      vertex 3.3865 -0.587248 -2.5
      vertex 3.3865 -0.587248 2.5
      vertex 3.35305 -0.607746 2.5
    endloop
  endfacet
  facet normal 0.522518 -0.852628 0
    outer loop
      vertex 3.35305 -0.607746 -2.5
      vertex 3.3865 -0.587248 -2.5
      vertex 3.35305 -0.607746 2.5
    endloop
  endfacet
  facet normal 0.649432 -0.76042 0
    outer loop
      vertex 3.35305 -0.607746 -2.5
      vertex 3.35305 -0.607746 2.5
      vertex 3.32322 -0.633223 2.5
    endloop
  endfacet
  facet normal 0.649432 -0.76042 0
    outer loop
      vertex 3.32322 -0.633223 -2.5
      vertex 3.35305 -0.607746 -2.5
      vertex 3.32322 -0.633223 2.5
    endloop
  endfacet
  facet normal 0.76042 -0.649432 0
    outer loop
      vertex 3.32322 -0.633223 -2.5
      vertex 3.32322 -0.633223 2.5
      vertex 3.29775 -0.663054 2.5
    endloop
  endfacet
  facet normal 0.76042 -0.649432 0
    outer loop
      vertex 3.29775 -0.663054 -2.5
      vertex 3.32322 -0.633223 -2.5
      vertex 3.29775 -0.663054 2.5
    endloop
  endfacet
  facet normal 0.852628 -0.522518 0
    outer loop
      vertex 3.29775 -0.663054 -2.5
      vertex 3.29775 -0.663054 2.5
      vertex 3.27725 -0.696502 2.5
    endloop
  endfacet
  facet normal 0.852628 -0.522518 0
    outer loop
      vertex 3.27725 -0.696502 -2.5
      vertex 3.29775 -0.663054 -2.5
      vertex 3.27725 -0.696502 2.5
    endloop
  endfacet
  facet normal 0.923886 -0.382667 0
    outer loop
      vertex 3.27725 -0.696502 -2.5
      vertex 3.27725 -0.696502 2.5
      vertex 3.26224 -0.732746 2.5
    endloop
  endfacet
  facet normal 0.923886 -0.382667 0
    outer loop
      vertex 3.26224 -0.732746 -2.5
      vertex 3.27725 -0.696502 -2.5
      vertex 3.26224 -0.732746 2.5
    endloop
  endfacet
  facet normal 0.972369 -0.23345 0
    outer loop
      vertex 3.26224 -0.732746 -2.5
      vertex 3.26224 -0.732746 2.5
      vertex 3.25308 -0.770891 2.5
    endloop
  endfacet
  facet normal 0.972369 -0.23345 0
    outer loop
      vertex 3.25308 -0.770891 -2.5
      vertex 3.26224 -0.732746 -2.5
      vertex 3.25308 -0.770891 2.5
    endloop
  endfacet
  facet normal 0.996917 -0.0784605 0
    outer loop
      vertex 3.25308 -0.770891 -2.5
      vertex 3.25308 -0.770891 2.5
      vertex 3.25 -0.81 2.5
    endloop
  endfacet
  facet normal 0.996917 -0.0784605 0
    outer loop
      vertex 3.25 -0.81 -2.5
      vertex 3.25308 -0.770891 -2.5
      vertex 3.25 -0.81 2.5
    endloop
  endfacet
  facet normal 0 -1 0
    outer loop
      vertex 1.5 -0.81 -2.45685
      vertex 1.5 -0.81 -2.5
      vertex 3.25 -0.81 -2.5
    endloop
  endfacet
  facet normal 0 -1 0
    outer loop
      vertex 2.5 -0.81 -1.45685
      vertex 1.5 -0.81 -2.45685
      vertex 3.25 -0.81 -2.5
    endloop
  endfacet
  facet normal 0 -1 0
    outer loop
      vertex 3.25 -0.81 2.5
      vertex 2.5 -0.81 -1.45685
      vertex 3.25 -0.81 -2.5
    endloop
  endfacet
  facet normal 0 -1 0
    outer loop
      vertex 2.5 -0.81 2.5
      vertex 2.5 -0.81 -1.45685
      vertex 3.25 -0.81 2.5
    endloop
  endfacet
  facet normal -0.707107 0 0.707107
    outer loop
      vertex 2.5 -0.81 -1.45685
      vertex 2.5 0.69 -1.45685
      vertex 1.5 0.69 -2.45685
    endloop
  endfacet
  facet normal -0.707107 0 0.707107
    outer loop
      vertex 1.5 -0.81 -2.45685
      vertex 2.5 -0.81 -1.45685
      vertex 1.5 0.69 -2.45685
    endloop
  endfacet
  facet normal 0 0 -1
    outer loop
      vertex 1.5 -0.81 -2.5
      vertex 1.5 0.69 -2.5
      vertex 3.25 -0.81 -2.5
    endloop
  endfacet
  facet normal 0 0 -1
    outer loop
      vertex 3.57725 -0.572236 -2.5
      vertex 1.5 0.69 -2.5
      vertex 5.5 0.69 -2.5
    endloop
  endfacet
  facet normal 0 0 -1
    outer loop
      vertex 3.75 -0.81 -2.5
      vertex 5.5 0.69 -2.5
      vertex 5.5 -0.81 -2.5
    endloop
  endfacet
  facet normal 0 0 -1
    outer loop
      vertex 3.74692 -0.770891 -2.5
      vertex 5.5 0.69 -2.5
      vertex 3.75 -0.81 -2.5
    endloop
  endfacet
  facet normal 0 0 -1
    outer loop
      vertex 3.73776 -0.732746 -2.5
      vertex 5.5 0.69 -2.5
      vertex 3.74692 -0.770891 -2.5
    endloop
  endfacet
  facet normal 0 0 -1
    outer loop
      vertex 3.72275 -0.696502 -2.5
      vertex 5.5 0.69 -2.5
      vertex 3.73776 -0.732746 -2.5
    endloop
  endfacet
  facet normal 0 0 -1
    outer loop
      vertex 3.70225 -0.663054 -2.5
      vertex 5.5 0.69 -2.5
      vertex 3.72275 -0.696502 -2.5
    endloop
  endfacet
  facet normal 0 0 -1
    outer loop
      vertex 3.67678 -0.633223 -2.5
      vertex 5.5 0.69 -2.5
      vertex 3.70225 -0.663054 -2.5
    endloop
  endfacet
  facet normal 0 0 -1
    outer loop
      vertex 3.64695 -0.607746 -2.5
      vertex 5.5 0.69 -2.5
      vertex 3.67678 -0.633223 -2.5
    endloop
  endfacet
  facet normal 0 0 -1
    outer loop
      vertex 3.6135 -0.587248 -2.5
      vertex 5.5 0.69 -2.5
      vertex 3.64695 -0.607746 -2.5
    endloop
  endfacet
  facet normal 0 0 -1
    outer loop
      vertex 3.53911 -0.563078 -2.5
      vertex 1.5 0.69 -2.5
      vertex 3.57725 -0.572236 -2.5
    endloop
  endfacet
  facet normal 0 0 -1
    outer loop
      vertex 3.5 -0.56 -2.5
      vertex 1.5 0.69 -2.5
      vertex 3.53911 -0.563078 -2.5
    endloop
  endfacet
  facet normal 0 0 -1
    outer loop
      vertex 3.46089 -0.563078 -2.5
      vertex 1.5 0.69 -2.5
      vertex 3.5 -0.56 -2.5
    endloop
  endfacet
  facet normal 0 0 -1
    outer loop
      vertex 3.42275 -0.572236 -2.5
      vertex 1.5 0.69 -2.5
      vertex 3.46089 -0.563078 -2.5
    endloop
  endfacet
  facet normal 0 0 -1
    outer loop
      vertex 3.3865 -0.587248 -2.5
      vertex 1.5 0.69 -2.5
      vertex 3.42275 -0.572236 -2.5
    endloop
  endfacet
  facet normal 0 0 -1
    outer loop
      vertex 3.35305 -0.607746 -2.5
      vertex 1.5 0.69 -2.5
      vertex 3.3865 -0.587248 -2.5
    endloop
  endfacet
  facet normal 0 0 -1
    outer loop
      vertex 3.32322 -0.633223 -2.5
      vertex 1.5 0.69 -2.5
      vertex 3.35305 -0.607746 -2.5
    endloop
  endfacet
  facet normal 0 0 -1
    outer loop
      vertex 3.29775 -0.663054 -2.5
      vertex 1.5 0.69 -2.5
      vertex 3.32322 -0.633223 -2.5
    endloop
  endfacet
  facet normal 0 0 -1
    outer loop
      vertex 3.27725 -0.696502 -2.5
      vertex 1.5 0.69 -2.5
      vertex 3.29775 -0.663054 -2.5
    endloop
  endfacet
  facet normal 0 0 -1
    outer loop
      vertex 3.26224 -0.732746 -2.5
      vertex 1.5 0.69 -2.5
      vertex 3.27725 -0.696502 -2.5
    endloop
  endfacet
  facet normal 0 0 -1
    outer loop
      vertex 3.25308 -0.770891 -2.5
      vertex 1.5 0.69 -2.5
      vertex 3.26224 -0.732746 -2.5
    endloop
  endfacet
  facet normal 0 0 -1
    outer loop
      vertex 3.25 -0.81 -2.5
      vertex 1.5 0.69 -2.5
      vertex 3.25308 -0.770891 -2.5
    endloop
  endfacet
  facet normal 0 0 -1
    outer loop
      vertex 3.57725 -0.572236 -2.5
      vertex 5.5 0.69 -2.5
      vertex 3.6135 -0.587248 -2.5
    endloop
  endfacet
  facet normal 0.707107 0 0.707107
    outer loop
      vertex 5.5 -0.81 -2.5
      vertex 5.5 0.69 -2.5
      vertex 4.5 0.69 -1.5
    endloop
  endfacet
  facet normal 0.707107 0 0.707107
    outer loop
      vertex 4.5 -0.81 -1.5
      vertex 5.5 -0.81 -2.5
      vertex 4.5 0.69 -1.5
    endloop
  endfacet
  facet normal -1 0 0
    outer loop
      vertex 1.5 -0.81 -2.5
      vertex 1.5 -0.81 -2.45685
      vertex 1.5 0.69 -2.5
    endloop
  endfacet
  facet normal -1 0 0
    outer loop
      vertex 1.5 0.69 -2.5
      vertex 1.5 -0.81 -2.45685
      vertex 1.5 0.69 -2.45685
    endloop
  endfacet
endsolid OpenSCAD_Model
