solid OpenSCAD_Model
  facet normal -1 0 0
    outer loop
      vertex 0 0 0
      vertex 0 0 2.99205
      vertex 0 0.948557 0
    endloop
  endfacet
  facet normal -1 0 0
    outer loop
      vertex 0 0.948557 0
      vertex 0 0 2.99205
      vertex 0 0.948557 2.73789
    endloop
  endfacet
  facet normal 0 -1 0
    outer loop
      vertex 4.43767 0 0.503943
      vertex 0 0 0
      vertex 8.75 0 0
    endloop
  endfacet
  facet normal 0 -1 0
    outer loop
      vertex 8.75 0 2.99205
      vertex 7.75 0 2.99205
      vertex 8.75 0 0
    endloop
  endfacet
  facet normal 0 -1 0
    outer loop
      vertex 7.75 0 2.99205
      vertex 7.75 0 1.01
      vertex 8.75 0 0
    endloop
  endfacet
  facet normal 0 -1 0
    outer loop
      vertex 3.89071 0 0.875655
      vertex 1 0 1.01
      vertex 3.89947 0 0.845492
    endloop
  endfacet
  facet normal 0 -1 0
    outer loop
      vertex 4.875 0 1.01
      vertex 4.875 0 1
      vertex 8.75 0 0
    endloop
  endfacet
  facet normal 0 -1 0
    outer loop
      vertex 4.22049 0 0.524472
      vertex 4.19094 0 0.535112
      vertex 0 0 0
    endloop
  endfacet
  facet normal 0 -1 0
    outer loop
      vertex 4.875 0 1
      vertex 4.87401 0 0.968605
      vertex 8.75 0 0
    endloop
  endfacet
  facet normal 0 -1 0
    outer loop
      vertex 4.87401 0 0.968605
      vertex 4.87106 0 0.937333
      vertex 8.75 0 0
    endloop
  endfacet
  facet normal 0 -1 0
    outer loop
      vertex 4.87106 0 0.937333
      vertex 4.86614 0 0.906309
      vertex 8.75 0 0
    endloop
  endfacet
  facet normal 0 -1 0
    outer loop
      vertex 3.93685 0 0.759123
      vertex 3.92259 0 0.78711
      vertex 0 0 0
    endloop
  endfacet
  facet normal 0 -1 0
    outer loop
      vertex 4.86614 0 0.906309
      vertex 4.85929 0 0.875655
      vertex 8.75 0 0
    endloop
  endfacet
  facet normal 0 -1 0
    outer loop
      vertex 4.85929 0 0.875655
      vertex 4.85053 0 0.845492
      vertex 8.75 0 0
    endloop
  endfacet
  facet normal 0 -1 0
    outer loop
      vertex 4.85053 0 0.845492
      vertex 4.83989 0 0.815938
      vertex 8.75 0 0
    endloop
  endfacet
  facet normal 0 -1 0
    outer loop
      vertex 4.83989 0 0.815938
      vertex 4.82741 0 0.78711
      vertex 8.75 0 0
    endloop
  endfacet
  facet normal 0 -1 0
    outer loop
      vertex 4.82741 0 0.78711
      vertex 4.81315 0 0.759123
      vertex 8.75 0 0
    endloop
  endfacet
  facet normal 0 -1 0
    outer loop
      vertex 4.01052 0 0.657726
      vertex 3.98974 0 0.681288
      vertex 0 0 0
    endloop
  endfacet
  facet normal 0 -1 0
    outer loop
      vertex 4.81315 0 0.759123
      vertex 4.79716 0 0.732087
      vertex 8.75 0 0
    endloop
  endfacet
  facet normal 0 -1 0
    outer loop
      vertex 4.79716 0 0.732087
      vertex 4.77951 0 0.706107
      vertex 8.75 0 0
    endloop
  endfacet
  facet normal 0 -1 0
    outer loop
      vertex 4.77951 0 0.706107
      vertex 4.76026 0 0.681288
      vertex 8.75 0 0
    endloop
  endfacet
  facet normal 0 -1 0
    outer loop
      vertex 4.76026 0 0.681288
      vertex 4.73948 0 0.657726
      vertex 8.75 0 0
    endloop
  endfacet
  facet normal 0 -1 0
    outer loop
      vertex 4.73948 0 0.657726
      vertex 4.71727 0 0.635516
      vertex 8.75 0 0
    endloop
  endfacet
  facet normal 0 -1 0
    outer loop
      vertex 4.71727 0 0.635516
      vertex 4.69371 0 0.614743
      vertex 8.75 0 0
    endloop
  endfacet
  facet normal 0 -1 0
    outer loop
      vertex 4.69371 0 0.614743
      vertex 4.66889 0 0.595492
      vertex 8.75 0 0
    endloop
  endfacet
  facet normal 0 -1 0
    outer loop
      vertex 4.66889 0 0.595492
      vertex 4.64291 0 0.577836
      vertex 8.75 0 0
    endloop
  endfacet
  facet normal 0 -1 0
    outer loop
      vertex 4.19094 0 0.535112
      vertex 4.16211 0 0.547586
      vertex 0 0 0
    endloop
  endfacet
  facet normal 0 -1 0
    outer loop
      vertex 4.64291 0 0.577836
      vertex 4.61588 0 0.561847
      vertex 8.75 0 0
    endloop
  endfacet
  facet normal 0 -1 0
    outer loop
      vertex 4.61588 0 0.561847
      vertex 4.58789 0 0.547586
      vertex 8.75 0 0
    endloop
  endfacet
  facet normal 0 -1 0
    outer loop
      vertex 4.58789 0 0.547586
      vertex 4.55906 0 0.535112
      vertex 8.75 0 0
    endloop
  endfacet
  facet normal 0 -1 0
    outer loop
      vertex 4.55906 0 0.535112
      vertex 4.52951 0 0.524472
      vertex 8.75 0 0
    endloop
  endfacet
  facet normal 0 -1 0
    outer loop
      vertex 4.52951 0 0.524472
      vertex 4.49934 0 0.515708
      vertex 8.75 0 0
    endloop
  endfacet
  facet normal 0 -1 0
    outer loop
      vertex 4.49934 0 0.515708
      vertex 4.46869 0 0.508856
      vertex 8.75 0 0
    endloop
  endfacet
  facet normal 0 -1 0
    outer loop
      vertex 4.46869 0 0.508856
      vertex 4.43767 0 0.503943
      vertex 8.75 0 0
    endloop
  endfacet
  facet normal 0 -1 0
    outer loop
      vertex 4.40639 0 0.500987
      vertex 0 0 0
      vertex 4.43767 0 0.503943
    endloop
  endfacet
  facet normal 0 -1 0
    outer loop
      vertex 4.375 0 0.5
      vertex 4.3436 0 0.500987
      vertex 0 0 0
    endloop
  endfacet
  facet normal 0 -1 0
    outer loop
      vertex 4.3436 0 0.500987
      vertex 4.31233 0 0.503943
      vertex 0 0 0
    endloop
  endfacet
  facet normal 0 -1 0
    outer loop
      vertex 4.31233 0 0.503943
      vertex 4.28131 0 0.508856
      vertex 0 0 0
    endloop
  endfacet
  facet normal 0 -1 0
    outer loop
      vertex 4.28131 0 0.508856
      vertex 4.25065 0 0.515708
      vertex 0 0 0
    endloop
  endfacet
  facet normal 0 -1 0
    outer loop
      vertex 4.25065 0 0.515708
      vertex 4.22049 0 0.524472
      vertex 0 0 0
    endloop
  endfacet
  facet normal 0 -1 0
    outer loop
      vertex 4.03273 0 0.635516
      vertex 4.01052 0 0.657726
      vertex 0 0 0
    endloop
  endfacet
  facet normal 0 -1 0
    outer loop
      vertex 4.16211 0 0.547586
      vertex 4.13412 0 0.561847
      vertex 0 0 0
    endloop
  endfacet
  facet normal 0 -1 0
    outer loop
      vertex 4.13412 0 0.561847
      vertex 4.10709 0 0.577836
      vertex 0 0 0
    endloop
  endfacet
  facet normal 0 -1 0
    outer loop
      vertex 4.10709 0 0.577836
      vertex 4.08111 0 0.595492
      vertex 0 0 0
    endloop
  endfacet
  facet normal 0 -1 0
    outer loop
      vertex 4.08111 0 0.595492
      vertex 4.05629 0 0.614743
      vertex 0 0 0
    endloop
  endfacet
  facet normal 0 -1 0
    outer loop
      vertex 4.05629 0 0.614743
      vertex 4.03273 0 0.635516
      vertex 0 0 0
    endloop
  endfacet
  facet normal 0 -1 0
    outer loop
      vertex 3.95284 0 0.732087
      vertex 3.93685 0 0.759123
      vertex 0 0 0
    endloop
  endfacet
  facet normal 0 -1 0
    outer loop
      vertex 3.98974 0 0.681288
      vertex 3.97049 0 0.706107
      vertex 0 0 0
    endloop
  endfacet
  facet normal 0 -1 0
    outer loop
      vertex 3.97049 0 0.706107
      vertex 3.95284 0 0.732087
      vertex 0 0 0
    endloop
  endfacet
  facet normal 0 -1 0
    outer loop
      vertex 3.92259 0 0.78711
      vertex 3.91011 0 0.815938
      vertex 0 0 0
    endloop
  endfacet
  facet normal 0 -1 0
    outer loop
      vertex 4.40639 0 0.500987
      vertex 4.375 0 0.5
      vertex 0 0 0
    endloop
  endfacet
  facet normal 0 -1 0
    outer loop
      vertex 1 0 1.01
      vertex 0 0 0
      vertex 3.91011 0 0.815938
    endloop
  endfacet
  facet normal 0 -1 0
    outer loop
      vertex 1 0 1.01
      vertex 1 0 2.99205
      vertex 0 0 2.99205
    endloop
  endfacet
  facet normal 0 -1 0
    outer loop
      vertex 3.89947 0 0.845492
      vertex 1 0 1.01
      vertex 3.91011 0 0.815938
    endloop
  endfacet
  facet normal 0 -1 0
    outer loop
      vertex 0 0 2.99205
      vertex 0 0 0
      vertex 1 0 1.01
    endloop
  endfacet
  facet normal 0 -1 0
    outer loop
      vertex 7.75 0 1.01
      vertex 4.875 0 1.01
      vertex 8.75 0 0
    endloop
  endfacet
  facet normal 0 -1 0
    outer loop
      vertex 3.88386 0 0.906309
      vertex 1 0 1.01
      vertex 3.89071 0 0.875655
    endloop
  endfacet
  facet normal 0 -1 0
    outer loop
      vertex 3.87894 0 0.937333
      vertex 1 0 1.01
      vertex 3.88386 0 0.906309
    endloop
  endfacet
  facet normal 0 -1 0
    outer loop
      vertex 3.87599 0 0.968605
      vertex 1 0 1.01
      vertex 3.87894 0 0.937333
    endloop
  endfacet
  facet normal 0 -1 0
    outer loop
      vertex 3.875 0 1
      vertex 1 0 1.01
      vertex 3.87599 0 0.968605
    endloop
  endfacet
  facet normal 0 -1 0
    outer loop
      vertex 3.875 0 1.01
      vertex 1 0 1.01
      vertex 3.875 0 1
    endloop
  endfacet
  facet normal 0 0 -1
    outer loop
      vertex 0 0 0
      vertex 0 0.948557 0
      vertex 8.75 0 0
    endloop
  endfacet
  facet normal 0 0 -1
    outer loop
      vertex 8.75 0 0
      vertex 0 0.948557 0
      vertex 2.91645 6 0
    endloop
  endfacet
  facet normal 0 0 -1
    outer loop
      vertex 8.75 0 0
      vertex 2.91645 6 0
      vertex 5.83355 6 0
    endloop
  endfacet
  facet normal 0 0 -1
    outer loop
      vertex 8.75 0 0
      vertex 5.83355 6 0
      vertex 8.75 0.948557 0
    endloop
  endfacet
  facet normal -0.866025 0.5 0
    outer loop
      vertex 1.575 3.67654 2.00693
      vertex 1.575 3.67654 1
      vertex 0 0.948557 2.73789
    endloop
  endfacet
  facet normal -0.866025 0.5 0
    outer loop
      vertex 0 0.948557 0
      vertex 1.575 3.67654 1
      vertex 2.91645 6 0
    endloop
  endfacet
  facet normal -0.866025 0.5 0
    outer loop
      vertex 2.91645 6 1.38436
      vertex 2.06197 4.52 1
      vertex 2.06197 4.52 1.78092
    endloop
  endfacet
  facet normal -0.866025 0.5 0
    outer loop
      vertex 2.91645 6 0
      vertex 2.06197 4.52 1
      vertex 2.91645 6 1.38436
    endloop
  endfacet
  facet normal -0.866025 0.5 0
    outer loop
      vertex 1.575 3.67654 1
      vertex 2.06197 4.52 1
      vertex 2.91645 6 0
    endloop
  endfacet
  facet normal -0.866025 0.5 0
    outer loop
      vertex 0 0.948557 2.73789
      vertex 1.575 3.67654 1
      vertex 0 0.948557 0
    endloop
  endfacet
  facet normal 0 0.258819 0.965926
    outer loop
      vertex 1.575 3.67654 2.00693
      vertex 1 1.49 2.59281
      vertex 1.575 1.49 2.59281
    endloop
  endfacet
  facet normal 0 0.258819 0.965926
    outer loop
      vertex 0 0.948557 2.73789
      vertex 1 1.49 2.59281
      vertex 1.575 3.67654 2.00693
    endloop
  endfacet
  facet normal 0 0.258819 0.965926
    outer loop
      vertex 1 0 2.99205
      vertex 1 1.49 2.59281
      vertex 0 0.948557 2.73789
    endloop
  endfacet
  facet normal 0 0.258819 0.965926
    outer loop
      vertex 0 0 2.99205
      vertex 1 0 2.99205
      vertex 0 0.948557 2.73789
    endloop
  endfacet
  facet normal 1 0 0
    outer loop
      vertex 1 1.49 1.01
      vertex 1 1.49 2.59281
      vertex 1 0 2.99205
    endloop
  endfacet
  facet normal 1 0 0
    outer loop
      vertex 1 0 1.01
      vertex 1 1.49 1.01
      vertex 1 0 2.99205
    endloop
  endfacet
  facet normal 0 0 1
    outer loop
      vertex 3.875 0 1.01
      vertex 3.875 1.48 1.01
      vertex 1.575 1.48 1.01
    endloop
  endfacet
  facet normal 0 0 1
    outer loop
      vertex 1 1.49 1.01
      vertex 3.875 0 1.01
      vertex 1.575 1.48 1.01
    endloop
  endfacet
  facet normal 0 0 1
    outer loop
      vertex 1.575 1.49 1.01
      vertex 1 1.49 1.01
      vertex 1.575 1.48 1.01
    endloop
  endfacet
  facet normal 0 0 1
    outer loop
      vertex 1 1.49 1.01
      vertex 1 0 1.01
      vertex 3.875 0 1.01
    endloop
  endfacet
  facet normal 1 0 0
    outer loop
      vertex 3.875 1.48 1
      vertex 3.875 1.48 1.01
      vertex 3.875 0 1.01
    endloop
  endfacet
  facet normal 1 0 0
    outer loop
      vertex 3.875 0 1
      vertex 3.875 1.48 1
      vertex 3.875 0 1.01
    endloop
  endfacet
  facet normal 0 0 1
    outer loop
      vertex 3.875 4.52 1
      vertex 3.875 1.48 1
      vertex 3.875 6 1
    endloop
  endfacet
  facet normal 0 0 1
    outer loop
      vertex 3.875 6 1
      vertex 3.875 1.48 1
      vertex 3.875 0 1
    endloop
  endfacet
  facet normal 0 0 1
    outer loop
      vertex 2.06197 4.52 1
      vertex 3.875 1.48 1
      vertex 3.875 4.52 1
    endloop
  endfacet
  facet normal 0 0 1
    outer loop
      vertex 1.575 1.48 1
      vertex 2.06197 4.52 1
      vertex 1.575 3.67654 1
    endloop
  endfacet
  facet normal 0 0 1
    outer loop
      vertex 1.575 1.48 1
      vertex 3.875 1.48 1
      vertex 2.06197 4.52 1
    endloop
  endfacet
  facet normal 0.999506 6.97722e-18 0.0314226
    outer loop
      vertex 3.875 0 1
      vertex 3.87599 0 0.968605
      vertex 3.87599 6 0.968605
    endloop
  endfacet
  facet normal 0.999506 6.97722e-18 0.0314226
    outer loop
      vertex 3.875 6 1
      vertex 3.875 0 1
      vertex 3.87599 6 0.968605
    endloop
  endfacet
  facet normal 0.995562 2.08957e-17 0.094106
    outer loop
      vertex 3.87894 0 0.937333
      vertex 3.87894 6 0.937333
      vertex 3.87599 6 0.968605
    endloop
  endfacet
  facet normal 0.995562 2.08957e-17 0.094106
    outer loop
      vertex 3.87599 0 0.968605
      vertex 3.87894 0 0.937333
      vertex 3.87599 6 0.968605
    endloop
  endfacet
  facet normal 0.987692 3.47305e-17 0.156412
    outer loop
      vertex 3.88386 0 0.906309
      vertex 3.88386 6 0.906309
      vertex 3.87894 6 0.937333
    endloop
  endfacet
  facet normal 0.987692 3.47305e-17 0.156412
    outer loop
      vertex 3.87894 0 0.937333
      vertex 3.88386 0 0.906309
      vertex 3.87894 6 0.937333
    endloop
  endfacet
  facet normal 0.975917 4.84377e-17 0.218144
    outer loop
      vertex 3.89071 0 0.875655
      vertex 3.89071 6 0.875655
      vertex 3.88386 6 0.906309
    endloop
  endfacet
  facet normal 0.975917 4.84377e-17 0.218144
    outer loop
      vertex 3.88386 0 0.906309
      vertex 3.89071 0 0.875655
      vertex 3.88386 6 0.906309
    endloop
  endfacet
  facet normal 0.960287 6.19539e-17 0.279016
    outer loop
      vertex 3.89947 0 0.845492
      vertex 3.89947 6 0.845492
      vertex 3.89071 6 0.875655
    endloop
  endfacet
  facet normal 0.960287 6.19539e-17 0.279016
    outer loop
      vertex 3.89071 0 0.875655
      vertex 3.89947 0 0.845492
      vertex 3.89071 6 0.875655
    endloop
  endfacet
  facet normal 0.940882 7.52143e-17 0.338735
    outer loop
      vertex 3.91011 0 0.815938
      vertex 3.91011 6 0.815938
      vertex 3.89947 6 0.845492
    endloop
  endfacet
  facet normal 0.940882 7.52143e-17 0.338735
    outer loop
      vertex 3.89947 0 0.845492
      vertex 3.91011 0 0.815938
      vertex 3.89947 6 0.845492
    endloop
  endfacet
  facet normal 0.917766 8.81787e-17 0.397121
    outer loop
      vertex 3.92259 0 0.78711
      vertex 3.92259 6 0.78711
      vertex 3.91011 6 0.815938
    endloop
  endfacet
  facet normal 0.917766 8.81787e-17 0.397121
    outer loop
      vertex 3.91011 0 0.815938
      vertex 3.92259 0 0.78711
      vertex 3.91011 6 0.815938
    endloop
  endfacet
  facet normal 0.890995 1.00811e-16 0.454014
    outer loop
      vertex 3.93685 0 0.759123
      vertex 3.93685 6 0.759123
      vertex 3.92259 6 0.78711
    endloop
  endfacet
  facet normal 0.890995 1.00811e-16 0.454014
    outer loop
      vertex 3.92259 0 0.78711
      vertex 3.93685 0 0.759123
      vertex 3.92259 6 0.78711
    endloop
  endfacet
  facet normal 0.860743 1.1303e-16 0.50904
    outer loop
      vertex 3.95284 0 0.732087
      vertex 3.95284 6 0.732087
      vertex 3.93685 6 0.759123
    endloop
  endfacet
  facet normal 0.860743 1.1303e-16 0.50904
    outer loop
      vertex 3.93685 0 0.759123
      vertex 3.95284 0 0.732087
      vertex 3.93685 6 0.759123
    endloop
  endfacet
  facet normal 0.82708 1.24808e-16 0.562084
    outer loop
      vertex 3.97049 0 0.706107
      vertex 3.97049 6 0.706107
      vertex 3.95284 6 0.732087
    endloop
  endfacet
  facet normal 0.82708 1.24808e-16 0.562084
    outer loop
      vertex 3.95284 0 0.732087
      vertex 3.97049 0 0.706107
      vertex 3.95284 6 0.732087
    endloop
  endfacet
  facet normal 0.790164 1.3609e-16 0.612895
    outer loop
      vertex 3.98974 0 0.681288
      vertex 3.98974 6 0.681288
      vertex 3.97049 6 0.706107
    endloop
  endfacet
  facet normal 0.790164 1.3609e-16 0.612895
    outer loop
      vertex 3.97049 0 0.706107
      vertex 3.98974 0 0.681288
      vertex 3.97049 6 0.706107
    endloop
  endfacet
  facet normal 0.750106 1.46842e-16 0.661317
    outer loop
      vertex 4.01052 0 0.657726
      vertex 4.01052 6 0.657726
      vertex 3.98974 6 0.681288
    endloop
  endfacet
  facet normal 0.750106 1.46842e-16 0.661317
    outer loop
      vertex 3.98974 0 0.681288
      vertex 4.01052 0 0.657726
      vertex 3.98974 6 0.681288
    endloop
  endfacet
  facet normal 0.707107 1.57009e-16 0.707107
    outer loop
      vertex 4.03273 0 0.635516
      vertex 4.03273 6 0.635516
      vertex 4.01052 6 0.657726
    endloop
  endfacet
  facet normal 0.707107 1.57009e-16 0.707107
    outer loop
      vertex 4.01052 0 0.657726
      vertex 4.03273 0 0.635516
      vertex 4.01052 6 0.657726
    endloop
  endfacet
  facet normal 0.661317 1.66557e-16 0.750106
    outer loop
      vertex 4.05629 0 0.614743
      vertex 4.05629 6 0.614743
      vertex 4.03273 6 0.635516
    endloop
  endfacet
  facet normal 0.661317 1.66557e-16 0.750106
    outer loop
      vertex 4.03273 0 0.635516
      vertex 4.05629 0 0.614743
      vertex 4.03273 6 0.635516
    endloop
  endfacet
  facet normal 0.612895 1.75452e-16 0.790164
    outer loop
      vertex 4.08111 0 0.595492
      vertex 4.08111 6 0.595492
      vertex 4.05629 6 0.614743
    endloop
  endfacet
  facet normal 0.612895 1.75452e-16 0.790164
    outer loop
      vertex 4.05629 0 0.614743
      vertex 4.08111 0 0.595492
      vertex 4.05629 6 0.614743
    endloop
  endfacet
  facet normal 0.562084 1.83649e-16 0.82708
    outer loop
      vertex 4.10709 0 0.577836
      vertex 4.10709 6 0.577836
      vertex 4.08111 6 0.595492
    endloop
  endfacet
  facet normal 0.562084 1.83649e-16 0.82708
    outer loop
      vertex 4.08111 0 0.595492
      vertex 4.10709 0 0.577836
      vertex 4.08111 6 0.595492
    endloop
  endfacet
  facet normal 0.50904 1.91123e-16 0.860743
    outer loop
      vertex 4.13412 0 0.561847
      vertex 4.13412 6 0.561847
      vertex 4.10709 6 0.577836
    endloop
  endfacet
  facet normal 0.50904 1.91123e-16 0.860743
    outer loop
      vertex 4.10709 0 0.577836
      vertex 4.13412 0 0.561847
      vertex 4.10709 6 0.577836
    endloop
  endfacet
  facet normal 0.454014 1.97841e-16 0.890995
    outer loop
      vertex 4.16211 0 0.547586
      vertex 4.16211 6 0.547586
      vertex 4.13412 6 0.561847
    endloop
  endfacet
  facet normal 0.454014 1.97841e-16 0.890995
    outer loop
      vertex 4.13412 0 0.561847
      vertex 4.16211 0 0.547586
      vertex 4.13412 6 0.561847
    endloop
  endfacet
  facet normal 0.397121 2.03785e-16 0.917766
    outer loop
      vertex 4.19094 0 0.535112
      vertex 4.19094 6 0.535112
      vertex 4.16211 6 0.547586
    endloop
  endfacet
  facet normal 0.397121 2.03785e-16 0.917766
    outer loop
      vertex 4.16211 0 0.547586
      vertex 4.19094 0 0.535112
      vertex 4.16211 6 0.547586
    endloop
  endfacet
  facet normal 0.338735 2.08918e-16 0.940882
    outer loop
      vertex 4.22049 0 0.524472
      vertex 4.22049 6 0.524472
      vertex 4.19094 6 0.535112
    endloop
  endfacet
  facet normal 0.338735 2.08918e-16 0.940882
    outer loop
      vertex 4.19094 0 0.535112
      vertex 4.22049 0 0.524472
      vertex 4.19094 6 0.535112
    endloop
  endfacet
  facet normal 0.279016 2.13226e-16 0.960287
    outer loop
      vertex 4.25065 0 0.515708
      vertex 4.25065 6 0.515708
      vertex 4.22049 6 0.524472
    endloop
  endfacet
  facet normal 0.279016 2.13226e-16 0.960287
    outer loop
      vertex 4.22049 0 0.524472
      vertex 4.25065 0 0.515708
      vertex 4.22049 6 0.524472
    endloop
  endfacet
  facet normal 0.218144 2.16697e-16 0.975917
    outer loop
      vertex 4.28131 0 0.508856
      vertex 4.28131 6 0.508856
      vertex 4.25065 6 0.515708
    endloop
  endfacet
  facet normal 0.218144 2.16697e-16 0.975917
    outer loop
      vertex 4.25065 0 0.515708
      vertex 4.28131 0 0.508856
      vertex 4.25065 6 0.515708
    endloop
  endfacet
  facet normal 0.156412 2.19312e-16 0.987692
    outer loop
      vertex 4.31233 0 0.503943
      vertex 4.31233 6 0.503943
      vertex 4.28131 6 0.508856
    endloop
  endfacet
  facet normal 0.156412 2.19312e-16 0.987692
    outer loop
      vertex 4.28131 0 0.508856
      vertex 4.31233 0 0.503943
      vertex 4.28131 6 0.508856
    endloop
  endfacet
  facet normal 0.094106 2.21059e-16 0.995562
    outer loop
      vertex 4.3436 0 0.500987
      vertex 4.3436 6 0.500987
      vertex 4.31233 6 0.503943
    endloop
  endfacet
  facet normal 0.094106 2.21059e-16 0.995562
    outer loop
      vertex 4.31233 0 0.503943
      vertex 4.3436 0 0.500987
      vertex 4.31233 6 0.503943
    endloop
  endfacet
  facet normal 0.0314226 2.21935e-16 0.999506
    outer loop
      vertex 4.375 0 0.5
      vertex 4.375 6 0.5
      vertex 4.3436 6 0.500987
    endloop
  endfacet
  facet normal 0.0314226 2.21935e-16 0.999506
    outer loop
      vertex 4.3436 0 0.500987
      vertex 4.375 0 0.5
      vertex 4.3436 6 0.500987
    endloop
  endfacet
  facet normal -0.0314226 2.21935e-16 0.999506
    outer loop
      vertex 4.40639 0 0.500987
      vertex 4.40639 6 0.500987
      vertex 4.375 6 0.5
    endloop
  endfacet
  facet normal -0.0314226 2.21935e-16 0.999506
    outer loop
      vertex 4.375 0 0.5
      vertex 4.40639 0 0.500987
      vertex 4.375 6 0.5
    endloop
  endfacet
  facet normal -0.094106 2.21059e-16 0.995562
    outer loop
      vertex 4.43767 0 0.503943
      vertex 4.43767 6 0.503943
      vertex 4.40639 6 0.500987
    endloop
  endfacet
  facet normal -0.094106 2.21059e-16 0.995562
    outer loop
      vertex 4.40639 0 0.500987
      vertex 4.43767 0 0.503943
      vertex 4.40639 6 0.500987
    endloop
  endfacet
  facet normal -0.156412 2.19312e-16 0.987692
    outer loop
      vertex 4.46869 0 0.508856
      vertex 4.46869 6 0.508856
      vertex 4.43767 6 0.503943
    endloop
  endfacet
  facet normal -0.156412 2.19312e-16 0.987692
    outer loop
      vertex 4.43767 0 0.503943
      vertex 4.46869 0 0.508856
      vertex 4.43767 6 0.503943
    endloop
  endfacet
  facet normal -0.218144 2.16697e-16 0.975917
    outer loop
      vertex 4.49934 0 0.515708
      vertex 4.49934 6 0.515708
      vertex 4.46869 6 0.508856
    endloop
  endfacet
  facet normal -0.218144 2.16697e-16 0.975917
    outer loop
      vertex 4.46869 0 0.508856
      vertex 4.49934 0 0.515708
      vertex 4.46869 6 0.508856
    endloop
  endfacet
  facet normal -0.279016 2.13226e-16 0.960287
    outer loop
      vertex 4.52951 0 0.524472
      vertex 4.52951 6 0.524472
      vertex 4.49934 6 0.515708
    endloop
  endfacet
  facet normal -0.279016 2.13226e-16 0.960287
    outer loop
      vertex 4.49934 0 0.515708
      vertex 4.52951 0 0.524472
      vertex 4.49934 6 0.515708
    endloop
  endfacet
  facet normal -0.338735 2.08918e-16 0.940882
    outer loop
      vertex 4.55906 0 0.535112
      vertex 4.55906 6 0.535112
      vertex 4.52951 6 0.524472
    endloop
  endfacet
  facet normal -0.338735 2.08918e-16 0.940882
    outer loop
      vertex 4.52951 0 0.524472
      vertex 4.55906 0 0.535112
      vertex 4.52951 6 0.524472
    endloop
  endfacet
  facet normal -0.397121 2.03785e-16 0.917766
    outer loop
      vertex 4.58789 0 0.547586
      vertex 4.58789 6 0.547586
      vertex 4.55906 6 0.535112
    endloop
  endfacet
  facet normal -0.397121 2.03785e-16 0.917766
    outer loop
      vertex 4.55906 0 0.535112
      vertex 4.58789 0 0.547586
      vertex 4.55906 6 0.535112
    endloop
  endfacet
  facet normal -0.454014 1.97841e-16 0.890995
    outer loop
      vertex 4.61588 0 0.561847
      vertex 4.61588 6 0.561847
      vertex 4.58789 6 0.547586
    endloop
  endfacet
  facet normal -0.454014 1.97841e-16 0.890995
    outer loop
      vertex 4.58789 0 0.547586
      vertex 4.61588 0 0.561847
      vertex 4.58789 6 0.547586
    endloop
  endfacet
  facet normal -0.50904 1.91123e-16 0.860743
    outer loop
      vertex 4.64291 0 0.577836
      vertex 4.64291 6 0.577836
      vertex 4.61588 6 0.561847
    endloop
  endfacet
  facet normal -0.50904 1.91123e-16 0.860743
    outer loop
      vertex 4.61588 0 0.561847
      vertex 4.64291 0 0.577836
      vertex 4.61588 6 0.561847
    endloop
  endfacet
  facet normal -0.562084 1.83649e-16 0.82708
    outer loop
      vertex 4.66889 0 0.595492
      vertex 4.66889 6 0.595492
      vertex 4.64291 6 0.577836
    endloop
  endfacet
  facet normal -0.562084 1.83649e-16 0.82708
    outer loop
      vertex 4.64291 0 0.577836
      vertex 4.66889 0 0.595492
      vertex 4.64291 6 0.577836
    endloop
  endfacet
  facet normal -0.612895 1.75452e-16 0.790164
    outer loop
      vertex 4.69371 0 0.614743
      vertex 4.69371 6 0.614743
      vertex 4.66889 6 0.595492
    endloop
  endfacet
  facet normal -0.612895 1.75452e-16 0.790164
    outer loop
      vertex 4.66889 0 0.595492
      vertex 4.69371 0 0.614743
      vertex 4.66889 6 0.595492
    endloop
  endfacet
  facet normal -0.661317 1.66557e-16 0.750106
    outer loop
      vertex 4.71727 0 0.635516
      vertex 4.71727 6 0.635516
      vertex 4.69371 6 0.614743
    endloop
  endfacet
  facet normal -0.661317 1.66557e-16 0.750106
    outer loop
      vertex 4.69371 0 0.614743
      vertex 4.71727 0 0.635516
      vertex 4.69371 6 0.614743
    endloop
  endfacet
  facet normal -0.707107 1.57009e-16 0.707107
    outer loop
      vertex 4.73948 6 0.657726
      vertex 4.71727 6 0.635516
      vertex 4.73948 0 0.657726
    endloop
  endfacet
  facet normal -0.707107 1.57009e-16 0.707107
    outer loop
      vertex 4.73948 0 0.657726
      vertex 4.71727 6 0.635516
      vertex 4.71727 0 0.635516
    endloop
  endfacet
  facet normal -0.750106 1.46842e-16 0.661317
    outer loop
      vertex 4.76026 6 0.681288
      vertex 4.73948 6 0.657726
      vertex 4.76026 0 0.681288
    endloop
  endfacet
  facet normal -0.750106 1.46842e-16 0.661317
    outer loop
      vertex 4.76026 0 0.681288
      vertex 4.73948 6 0.657726
      vertex 4.73948 0 0.657726
    endloop
  endfacet
  facet normal -0.790164 1.3609e-16 0.612895
    outer loop
      vertex 4.77951 6 0.706107
      vertex 4.76026 6 0.681288
      vertex 4.77951 0 0.706107
    endloop
  endfacet
  facet normal -0.790164 1.3609e-16 0.612895
    outer loop
      vertex 4.77951 0 0.706107
      vertex 4.76026 6 0.681288
      vertex 4.76026 0 0.681288
    endloop
  endfacet
  facet normal -0.82708 1.24808e-16 0.562084
    outer loop
      vertex 4.79716 6 0.732087
      vertex 4.77951 6 0.706107
      vertex 4.79716 0 0.732087
    endloop
  endfacet
  facet normal -0.82708 1.24808e-16 0.562084
    outer loop
      vertex 4.79716 0 0.732087
      vertex 4.77951 6 0.706107
      vertex 4.77951 0 0.706107
    endloop
  endfacet
  facet normal -0.860743 1.1303e-16 0.50904
    outer loop
      vertex 4.81315 6 0.759123
      vertex 4.79716 6 0.732087
      vertex 4.81315 0 0.759123
    endloop
  endfacet
  facet normal -0.860743 1.1303e-16 0.50904
    outer loop
      vertex 4.81315 0 0.759123
      vertex 4.79716 6 0.732087
      vertex 4.79716 0 0.732087
    endloop
  endfacet
  facet normal -0.890995 1.00811e-16 0.454014
    outer loop
      vertex 4.82741 6 0.78711
      vertex 4.81315 6 0.759123
      vertex 4.82741 0 0.78711
    endloop
  endfacet
  facet normal -0.890995 1.00811e-16 0.454014
    outer loop
      vertex 4.82741 0 0.78711
      vertex 4.81315 6 0.759123
      vertex 4.81315 0 0.759123
    endloop
  endfacet
  facet normal -0.917766 8.81787e-17 0.397121
    outer loop
      vertex 4.83989 6 0.815938
      vertex 4.82741 6 0.78711
      vertex 4.83989 0 0.815938
    endloop
  endfacet
  facet normal -0.917766 8.81787e-17 0.397121
    outer loop
      vertex 4.83989 0 0.815938
      vertex 4.82741 6 0.78711
      vertex 4.82741 0 0.78711
    endloop
  endfacet
  facet normal -0.940882 7.52143e-17 0.338735
    outer loop
      vertex 4.85053 6 0.845492
      vertex 4.83989 6 0.815938
      vertex 4.85053 0 0.845492
    endloop
  endfacet
  facet normal -0.940882 7.52143e-17 0.338735
    outer loop
      vertex 4.85053 0 0.845492
      vertex 4.83989 6 0.815938
      vertex 4.83989 0 0.815938
    endloop
  endfacet
  facet normal -0.960287 6.19539e-17 0.279016
    outer loop
      vertex 4.85929 6 0.875655
      vertex 4.85053 6 0.845492
      vertex 4.85929 0 0.875655
    endloop
  endfacet
  facet normal -0.960287 6.19539e-17 0.279016
    outer loop
      vertex 4.85929 0 0.875655
      vertex 4.85053 6 0.845492
      vertex 4.85053 0 0.845492
    endloop
  endfacet
  facet normal -0.975917 4.84377e-17 0.218144
    outer loop
      vertex 4.86614 6 0.906309
      vertex 4.85929 6 0.875655
      vertex 4.86614 0 0.906309
    endloop
  endfacet
  facet normal -0.975917 4.84377e-17 0.218144
    outer loop
      vertex 4.86614 0 0.906309
      vertex 4.85929 6 0.875655
      vertex 4.85929 0 0.875655
    endloop
  endfacet
  facet normal -0.987692 3.47305e-17 0.156412
    outer loop
      vertex 4.87106 6 0.937333
      vertex 4.86614 6 0.906309
      vertex 4.87106 0 0.937333
    endloop
  endfacet
  facet normal -0.987692 3.47305e-17 0.156412
    outer loop
      vertex 4.87106 0 0.937333
      vertex 4.86614 6 0.906309
      vertex 4.86614 0 0.906309
    endloop
  endfacet
  facet normal -0.995562 2.08957e-17 0.094106
    outer loop
      vertex 4.87401 6 0.968605
      vertex 4.87106 6 0.937333
      vertex 4.87401 0 0.968605
    endloop
  endfacet
  facet normal -0.995562 2.08957e-17 0.094106
    outer loop
      vertex 4.87401 0 0.968605
      vertex 4.87106 6 0.937333
      vertex 4.87106 0 0.937333
    endloop
  endfacet
  facet normal -0.999506 6.97722e-18 0.0314226
    outer loop
      vertex 4.875 6 1
      vertex 4.87401 6 0.968605
      vertex 4.875 0 1
    endloop
  endfacet
  facet normal -0.999506 6.97722e-18 0.0314226
    outer loop
      vertex 4.875 0 1
      vertex 4.87401 6 0.968605
      vertex 4.87401 0 0.968605
    endloop
  endfacet
  facet normal 0 0 1
    outer loop
      vertex 7.175 3.67654 1
      vertex 4.875 1.48 1
      vertex 7.175 1.48 1
    endloop
  endfacet
  facet normal 0 0 1
    outer loop
      vertex 6.68803 4.52 1
      vertex 4.875 1.48 1
      vertex 7.175 3.67654 1
    endloop
  endfacet
  facet normal 0 0 1
    outer loop
      vertex 4.875 0 1
      vertex 4.875 1.48 1
      vertex 4.875 6 1
    endloop
  endfacet
  facet normal 0 0 1
    outer loop
      vertex 4.875 4.52 1
      vertex 4.875 1.48 1
      vertex 6.68803 4.52 1
    endloop
  endfacet
  facet normal 0 0 1
    outer loop
      vertex 4.875 6 1
      vertex 4.875 1.48 1
      vertex 4.875 4.52 1
    endloop
  endfacet
  facet normal -1 0 0
    outer loop
      vertex 4.875 1.48 1.01
      vertex 4.875 1.48 1
      vertex 4.875 0 1.01
    endloop
  endfacet
  facet normal -1 0 0
    outer loop
      vertex 4.875 0 1.01
      vertex 4.875 1.48 1
      vertex 4.875 0 1
    endloop
  endfacet
  facet normal 0 0 1
    outer loop
      vertex 7.75 0 1.01
      vertex 7.75 1.49 1.01
      vertex 7.175 1.49 1.01
    endloop
  endfacet
  facet normal 0 0 1
    outer loop
      vertex 4.875 1.48 1.01
      vertex 7.75 0 1.01
      vertex 7.175 1.48 1.01
    endloop
  endfacet
  facet normal 0 0 1
    outer loop
      vertex 7.175 1.48 1.01
      vertex 7.75 0 1.01
      vertex 7.175 1.49 1.01
    endloop
  endfacet
  facet normal 0 0 1
    outer loop
      vertex 4.875 0 1.01
      vertex 7.75 0 1.01
      vertex 4.875 1.48 1.01
    endloop
  endfacet
  facet normal -1 0 0
    outer loop
      vertex 7.75 1.49 2.59281
      vertex 7.75 1.49 1.01
      vertex 7.75 0 2.99205
    endloop
  endfacet
  facet normal -1 0 0
    outer loop
      vertex 7.75 0 2.99205
      vertex 7.75 1.49 1.01
      vertex 7.75 0 1.01
    endloop
  endfacet
  facet normal 0 0.258819 0.965926
    outer loop
      vertex 7.75 1.49 2.59281
      vertex 7.75 0 2.99205
      vertex 8.75 0 2.99205
    endloop
  endfacet
  facet normal 0 0.258819 0.965926
    outer loop
      vertex 7.175 3.67654 2.00693
      vertex 7.75 1.49 2.59281
      vertex 8.75 0.948557 2.73789
    endloop
  endfacet
  facet normal 0 0.258819 0.965926
    outer loop
      vertex 8.75 0.948557 2.73789
      vertex 7.75 1.49 2.59281
      vertex 8.75 0 2.99205
    endloop
  endfacet
  facet normal 0 0.258819 0.965926
    outer loop
      vertex 7.175 1.49 2.59281
      vertex 7.75 1.49 2.59281
      vertex 7.175 3.67654 2.00693
    endloop
  endfacet
  facet normal 1 0 0
    outer loop
      vertex 8.75 0 2.99205
      vertex 8.75 0 0
      vertex 8.75 0.948557 0
    endloop
  endfacet
  facet normal 1 0 0
    outer loop
      vertex 8.75 0.948557 2.73789
      vertex 8.75 0 2.99205
      vertex 8.75 0.948557 0
    endloop
  endfacet
  facet normal 0.866025 0.5 0
    outer loop
      vertex 7.175 3.67654 1
      vertex 8.75 0.948557 0
      vertex 6.68803 4.52 1
    endloop
  endfacet
  facet normal 0.866025 0.5 0
    outer loop
      vertex 5.83355 6 1.38436
      vertex 6.68803 4.52 1.78092
      vertex 6.68803 4.52 1
    endloop
  endfacet
  facet normal 0.866025 0.5 0
    outer loop
      vertex 8.75 0.948557 0
      vertex 5.83355 6 1.38436
      vertex 6.68803 4.52 1
    endloop
  endfacet
  facet normal 0.866025 0.5 0
    outer loop
      vertex 7.175 3.67654 2.00693
      vertex 8.75 0.948557 2.73789
      vertex 7.175 3.67654 1
    endloop
  endfacet
  facet normal 0.866025 0.5 0
    outer loop
      vertex 8.75 0.948557 2.73789
      vertex 8.75 0.948557 0
      vertex 7.175 3.67654 1
    endloop
  endfacet
  facet normal 0.866025 0.5 0
    outer loop
      vertex 8.75 0.948557 0
      vertex 5.83355 6 0
      vertex 5.83355 6 1.38436
    endloop
  endfacet
  facet normal 0 1 0
    outer loop
      vertex 4.25065 6 0.515708
      vertex 5.83355 6 0
      vertex 4.22049 6 0.524472
    endloop
  endfacet
  facet normal 0 1 0
    outer loop
      vertex 3.875 6 1
      vertex 2.91645 6 1.38436
      vertex 3.875 6 1.38436
    endloop
  endfacet
  facet normal 0 1 0
    outer loop
      vertex 3.87599 6 0.968605
      vertex 2.91645 6 1.38436
      vertex 3.875 6 1
    endloop
  endfacet
  facet normal 0 1 0
    outer loop
      vertex 3.87894 6 0.937333
      vertex 2.91645 6 1.38436
      vertex 3.87599 6 0.968605
    endloop
  endfacet
  facet normal 0 1 0
    outer loop
      vertex 3.88386 6 0.906309
      vertex 2.91645 6 1.38436
      vertex 3.87894 6 0.937333
    endloop
  endfacet
  facet normal 0 1 0
    outer loop
      vertex 2.91645 6 0
      vertex 2.91645 6 1.38436
      vertex 3.88386 6 0.906309
    endloop
  endfacet
  facet normal 0 1 0
    outer loop
      vertex 2.91645 6 0
      vertex 3.88386 6 0.906309
      vertex 3.89071 6 0.875655
    endloop
  endfacet
  facet normal 0 1 0
    outer loop
      vertex 2.91645 6 0
      vertex 3.89071 6 0.875655
      vertex 3.89947 6 0.845492
    endloop
  endfacet
  facet normal 0 1 0
    outer loop
      vertex 2.91645 6 0
      vertex 3.89947 6 0.845492
      vertex 3.91011 6 0.815938
    endloop
  endfacet
  facet normal 0 1 0
    outer loop
      vertex 2.91645 6 0
      vertex 3.91011 6 0.815938
      vertex 3.92259 6 0.78711
    endloop
  endfacet
  facet normal 0 1 0
    outer loop
      vertex 2.91645 6 0
      vertex 3.92259 6 0.78711
      vertex 3.93685 6 0.759123
    endloop
  endfacet
  facet normal 0 1 0
    outer loop
      vertex 2.91645 6 0
      vertex 3.93685 6 0.759123
      vertex 3.95284 6 0.732087
    endloop
  endfacet
  facet normal 0 1 0
    outer loop
      vertex 2.91645 6 0
      vertex 3.95284 6 0.732087
      vertex 3.97049 6 0.706107
    endloop
  endfacet
  facet normal 0 1 0
    outer loop
      vertex 2.91645 6 0
      vertex 3.97049 6 0.706107
      vertex 3.98974 6 0.681288
    endloop
  endfacet
  facet normal 0 1 0
    outer loop
      vertex 2.91645 6 0
      vertex 3.98974 6 0.681288
      vertex 4.01052 6 0.657726
    endloop
  endfacet
  facet normal 0 1 0
    outer loop
      vertex 2.91645 6 0
      vertex 4.01052 6 0.657726
      vertex 4.03273 6 0.635516
    endloop
  endfacet
  facet normal 0 1 0
    outer loop
      vertex 2.91645 6 0
      vertex 4.03273 6 0.635516
      vertex 4.05629 6 0.614743
    endloop
  endfacet
  facet normal 0 1 0
    outer loop
      vertex 2.91645 6 0
      vertex 4.05629 6 0.614743
      vertex 4.08111 6 0.595492
    endloop
  endfacet
  facet normal 0 1 0
    outer loop
      vertex 2.91645 6 0
      vertex 4.08111 6 0.595492
      vertex 4.10709 6 0.577836
    endloop
  endfacet
  facet normal 0 1 0
    outer loop
      vertex 2.91645 6 0
      vertex 4.10709 6 0.577836
      vertex 4.13412 6 0.561847
    endloop
  endfacet
  facet normal 0 1 0
    outer loop
      vertex 2.91645 6 0
      vertex 4.13412 6 0.561847
      vertex 4.16211 6 0.547586
    endloop
  endfacet
  facet normal 0 1 0
    outer loop
      vertex 2.91645 6 0
      vertex 4.16211 6 0.547586
      vertex 4.19094 6 0.535112
    endloop
  endfacet
  facet normal 0 1 0
    outer loop
      vertex 2.91645 6 0
      vertex 4.19094 6 0.535112
      vertex 4.22049 6 0.524472
    endloop
  endfacet
  facet normal 0 1 0
    outer loop
      vertex 2.91645 6 0
      vertex 4.22049 6 0.524472
      vertex 5.83355 6 0
    endloop
  endfacet
  facet normal 0 1 0
    outer loop
      vertex 4.28131 6 0.508856
      vertex 5.83355 6 0
      vertex 4.25065 6 0.515708
    endloop
  endfacet
  facet normal 0 1 0
    outer loop
      vertex 4.31233 6 0.503943
      vertex 5.83355 6 0
      vertex 4.28131 6 0.508856
    endloop
  endfacet
  facet normal 0 1 0
    outer loop
      vertex 4.3436 6 0.500987
      vertex 5.83355 6 0
      vertex 4.31233 6 0.503943
    endloop
  endfacet
  facet normal 0 1 0
    outer loop
      vertex 4.375 6 0.5
      vertex 5.83355 6 0
      vertex 4.3436 6 0.500987
    endloop
  endfacet
  facet normal 0 1 0
    outer loop
      vertex 4.40639 6 0.500987
      vertex 5.83355 6 0
      vertex 4.375 6 0.5
    endloop
  endfacet
  facet normal 0 1 0
    outer loop
      vertex 4.43767 6 0.503943
      vertex 5.83355 6 0
      vertex 4.40639 6 0.500987
    endloop
  endfacet
  facet normal 0 1 0
    outer loop
      vertex 4.46869 6 0.508856
      vertex 5.83355 6 0
      vertex 4.43767 6 0.503943
    endloop
  endfacet
  facet normal 0 1 0
    outer loop
      vertex 4.49934 6 0.515708
      vertex 5.83355 6 0
      vertex 4.46869 6 0.508856
    endloop
  endfacet
  facet normal 0 1 0
    outer loop
      vertex 4.52951 6 0.524472
      vertex 5.83355 6 0
      vertex 4.49934 6 0.515708
    endloop
  endfacet
  facet normal 0 1 0
    outer loop
      vertex 4.55906 6 0.535112
      vertex 5.83355 6 0
      vertex 4.52951 6 0.524472
    endloop
  endfacet
  facet normal 0 1 0
    outer loop
      vertex 4.58789 6 0.547586
      vertex 5.83355 6 0
      vertex 4.55906 6 0.535112
    endloop
  endfacet
  facet normal 0 1 0
    outer loop
      vertex 4.61588 6 0.561847
      vertex 5.83355 6 0
      vertex 4.58789 6 0.547586
    endloop
  endfacet
  facet normal 0 1 0
    outer loop
      vertex 4.64291 6 0.577836
      vertex 5.83355 6 0
      vertex 4.61588 6 0.561847
    endloop
  endfacet
  facet normal 0 1 0
    outer loop
      vertex 4.66889 6 0.595492
      vertex 5.83355 6 0
      vertex 4.64291 6 0.577836
    endloop
  endfacet
  facet normal 0 1 0
    outer loop
      vertex 4.81315 6 0.759123
      vertex 5.83355 6 0
      vertex 4.79716 6 0.732087
    endloop
  endfacet
  facet normal 0 1 0
    outer loop
      vertex 5.83355 6 0
      vertex 4.66889 6 0.595492
      vertex 4.69371 6 0.614743
    endloop
  endfacet
  facet normal 0 1 0
    outer loop
      vertex 5.83355 6 0
      vertex 4.69371 6 0.614743
      vertex 4.71727 6 0.635516
    endloop
  endfacet
  facet normal 0 1 0
    outer loop
      vertex 5.83355 6 0
      vertex 4.71727 6 0.635516
      vertex 4.73948 6 0.657726
    endloop
  endfacet
  facet normal 0 1 0
    outer loop
      vertex 5.83355 6 0
      vertex 4.73948 6 0.657726
      vertex 4.76026 6 0.681288
    endloop
  endfacet
  facet normal 0 1 0
    outer loop
      vertex 5.83355 6 0
      vertex 4.76026 6 0.681288
      vertex 4.77951 6 0.706107
    endloop
  endfacet
  facet normal 0 1 0
    outer loop
      vertex 5.83355 6 0
      vertex 4.77951 6 0.706107
      vertex 4.79716 6 0.732087
    endloop
  endfacet
  facet normal 0 1 0
    outer loop
      vertex 5.83355 6 0
      vertex 4.81315 6 0.759123
      vertex 4.82741 6 0.78711
    endloop
  endfacet
  facet normal 0 1 0
    outer loop
      vertex 4.82741 6 0.78711
      vertex 4.83989 6 0.815938
      vertex 5.83355 6 0
    endloop
  endfacet
  facet normal 0 1 0
    outer loop
      vertex 4.83989 6 0.815938
      vertex 4.85053 6 0.845492
      vertex 5.83355 6 0
    endloop
  endfacet
  facet normal 0 1 0
    outer loop
      vertex 4.85053 6 0.845492
      vertex 4.85929 6 0.875655
      vertex 5.83355 6 0
    endloop
  endfacet
  facet normal 0 1 0
    outer loop
      vertex 4.85929 6 0.875655
      vertex 4.86614 6 0.906309
      vertex 5.83355 6 0
    endloop
  endfacet
  facet normal 0 1 0
    outer loop
      vertex 4.86614 6 0.906309
      vertex 4.87106 6 0.937333
      vertex 5.83355 6 0
    endloop
  endfacet
  facet normal 0 1 0
    outer loop
      vertex 4.87106 6 0.937333
      vertex 4.87401 6 0.968605
      vertex 5.83355 6 0
    endloop
  endfacet
  facet normal 0 1 0
    outer loop
      vertex 4.87401 6 0.968605
      vertex 4.875 6 1
      vertex 5.83355 6 0
    endloop
  endfacet
  facet normal 0 1 0
    outer loop
      vertex 4.875 6 1
      vertex 4.875 6 1.38436
      vertex 5.83355 6 0
    endloop
  endfacet
  facet normal 0 1 0
    outer loop
      vertex 5.83355 6 0
      vertex 4.875 6 1.38436
      vertex 5.83355 6 1.38436
    endloop
  endfacet
  facet normal 0 0.258819 0.965926
    outer loop
      vertex 3.875 4.52 1.78092
      vertex 3.875 6 1.38436
      vertex 2.91645 6 1.38436
    endloop
  endfacet
  facet normal 0 0.258819 0.965926
    outer loop
      vertex 2.06197 4.52 1.78092
      vertex 3.875 4.52 1.78092
      vertex 2.91645 6 1.38436
    endloop
  endfacet
  facet normal 0 -1 0
    outer loop
      vertex 3.875 4.52 1
      vertex 3.875 4.52 1.78092
      vertex 2.06197 4.52 1.78092
    endloop
  endfacet
  facet normal 0 -1 0
    outer loop
      vertex 2.06197 4.52 1
      vertex 3.875 4.52 1
      vertex 2.06197 4.52 1.78092
    endloop
  endfacet
  facet normal 1 0 0
    outer loop
      vertex 1.575 3.67654 1
      vertex 1.575 3.67654 2.00693
      vertex 1.575 1.49 2.59281
    endloop
  endfacet
  facet normal 1 0 0
    outer loop
      vertex 1.575 1.48 1.01
      vertex 1.575 3.67654 1
      vertex 1.575 1.49 1.01
    endloop
  endfacet
  facet normal 1 0 0
    outer loop
      vertex 1.575 1.49 1.01
      vertex 1.575 3.67654 1
      vertex 1.575 1.49 2.59281
    endloop
  endfacet
  facet normal 1 0 0
    outer loop
      vertex 1.575 1.48 1
      vertex 1.575 3.67654 1
      vertex 1.575 1.48 1.01
    endloop
  endfacet
  facet normal 0 -1 0
    outer loop
      vertex 1.575 1.49 1.01
      vertex 1.575 1.49 2.59281
      vertex 1 1.49 2.59281
    endloop
  endfacet
  facet normal 0 -1 0
    outer loop
      vertex 1 1.49 1.01
      vertex 1.575 1.49 1.01
      vertex 1 1.49 2.59281
    endloop
  endfacet
  facet normal 0 1 0
    outer loop
      vertex 3.875 1.48 1.01
      vertex 3.875 1.48 1
      vertex 1.575 1.48 1.01
    endloop
  endfacet
  facet normal 0 1 0
    outer loop
      vertex 1.575 1.48 1.01
      vertex 3.875 1.48 1
      vertex 1.575 1.48 1
    endloop
  endfacet
  facet normal 1 0 0
    outer loop
      vertex 3.875 6 1
      vertex 3.875 6 1.38436
      vertex 3.875 4.52 1.78092
    endloop
  endfacet
  facet normal 1 0 0
    outer loop
      vertex 3.875 4.52 1
      vertex 3.875 6 1
      vertex 3.875 4.52 1.78092
    endloop
  endfacet
  facet normal -1 0 0
    outer loop
      vertex 4.875 6 1.38436
      vertex 4.875 6 1
      vertex 4.875 4.52 1.78092
    endloop
  endfacet
  facet normal -1 0 0
    outer loop
      vertex 4.875 4.52 1.78092
      vertex 4.875 6 1
      vertex 4.875 4.52 1
    endloop
  endfacet
  facet normal 0 -1 0
    outer loop
      vertex 6.68803 4.52 1
      vertex 6.68803 4.52 1.78092
      vertex 4.875 4.52 1.78092
    endloop
  endfacet
  facet normal 0 -1 0
    outer loop
      vertex 4.875 4.52 1
      vertex 6.68803 4.52 1
      vertex 4.875 4.52 1.78092
    endloop
  endfacet
  facet normal -1 0 0
    outer loop
      vertex 7.175 1.49 1.01
      vertex 7.175 1.49 2.59281
      vertex 7.175 3.67654 2.00693
    endloop
  endfacet
  facet normal -1 0 0
    outer loop
      vertex 7.175 1.49 1.01
      vertex 7.175 3.67654 2.00693
      vertex 7.175 3.67654 1
    endloop
  endfacet
  facet normal -1 0 0
    outer loop
      vertex 7.175 1.49 1.01
      vertex 7.175 3.67654 1
      vertex 7.175 1.48 1.01
    endloop
  endfacet
  facet normal -1 0 0
    outer loop
      vertex 7.175 3.67654 1
      vertex 7.175 1.48 1
      vertex 7.175 1.48 1.01
    endloop
  endfacet
  facet normal 0 1 0
    outer loop
      vertex 7.175 1.48 1.01
      vertex 7.175 1.48 1
      vertex 4.875 1.48 1.01
    endloop
  endfacet
  facet normal 0 1 0
    outer loop
      vertex 4.875 1.48 1.01
      vertex 7.175 1.48 1
      vertex 4.875 1.48 1
    endloop
  endfacet
  facet normal 0 -1 0
    outer loop
      vertex 7.75 1.49 1.01
      vertex 7.75 1.49 2.59281
      vertex 7.175 1.49 2.59281
    endloop
  endfacet
  facet normal 0 -1 0
    outer loop
      vertex 7.175 1.49 1.01
      vertex 7.75 1.49 1.01
      vertex 7.175 1.49 2.59281
    endloop
  endfacet
  facet normal 0 0.258819 0.965926
    outer loop
      vertex 6.68803 4.52 1.78092
      vertex 5.83355 6 1.38436
      vertex 4.875 6 1.38436
    endloop
  endfacet
  facet normal 0 0.258819 0.965926
    outer loop
      vertex 4.875 4.52 1.78092
      vertex 6.68803 4.52 1.78092
      vertex 4.875 6 1.38436
    endloop
  endfacet
endsolid OpenSCAD_Model
