solid OpenSCAD_Model
  facet normal -1 0 0
    outer loop
      vertex 0 0 0
      vertex 0 0 4.49
      vertex 0 4.96 0
    endloop
  endfacet
  facet normal -1 0 0
    outer loop
      vertex 0 4.96 0
      vertex 0 0 4.49
      vertex 0 4.96 4.49
    endloop
  endfacet
  facet normal 0 -1 0
    outer loop
      vertex 0 0 4.49
      vertex 0 0 0
      vertex 3.01628 0 0
    endloop
  endfacet
  facet normal 0 -1 0
    outer loop
      vertex 5.4527 0 3
      vertex 0 0 4.49
      vertex 2.4873 0 3
    endloop
  endfacet
  facet normal 0 -1 0
    outer loop
      vertex 2.4873 0 3
      vertex 0 0 4.49
      vertex 3.01628 0 0
    endloop
  endfacet
  facet normal 0 -1 0
    outer loop
      vertex 7.94 0 4.49
      vertex 0 0 4.49
      vertex 5.4527 0 3
    endloop
  endfacet
  facet normal 0 -1 0
    outer loop
      vertex 7.94 0 0
      vertex 5.4527 0 3
      vertex 4.92372 0 0
    endloop
  endfacet
  facet normal 0 -1 0
    outer loop
      vertex 7.94 0 4.49
      vertex 5.4527 0 3
      vertex 7.94 0 0
    endloop
  endfacet
  facet normal 0 0 -1
    outer loop
      vertex 1.2 3.76 0
      vertex 0 4.96 0
      vertex 3.22 4.96 0
    endloop
  endfacet
  facet normal 0 0 -1
    outer loop
      vertex 3.01628 0.75 0
      vertex 3.01628 0 0
      vertex 1.2 1.2 0
    endloop
  endfacet
  facet normal 0 0 -1
    outer loop
      vertex 6.74 1.2 0
      vertex 4.92372 0.75 0
      vertex 3.01628 0.75 0
    endloop
  endfacet
  facet normal 0 0 -1
    outer loop
      vertex 1.2 1.2 0
      vertex 0 4.96 0
      vertex 1.2 3.76 0
    endloop
  endfacet
  facet normal 0 0 -1
    outer loop
      vertex 0 0 0
      vertex 0 4.96 0
      vertex 1.2 1.2 0
    endloop
  endfacet
  facet normal 0 0 -1
    outer loop
      vertex 0 0 0
      vertex 1.2 1.2 0
      vertex 3.01628 0 0
    endloop
  endfacet
  facet normal 0 0 -1
    outer loop
      vertex 4.72 4.96 0
      vertex 6.74 3.76 0
      vertex 4.72 3.76 0
    endloop
  endfacet
  facet normal 0 0 -1
    outer loop
      vertex 4.92372 0.75 0
      vertex 6.74 1.2 0
      vertex 4.92372 0 0
    endloop
  endfacet
  facet normal 0 0 -1
    outer loop
      vertex 6.74 3.76 0
      vertex 4.72 4.96 0
      vertex 7.94 4.96 0
    endloop
  endfacet
  facet normal 0 0 -1
    outer loop
      vertex 6.74 3.76 0
      vertex 7.94 4.96 0
      vertex 6.74 1.2 0
    endloop
  endfacet
  facet normal 0 0 -1
    outer loop
      vertex 6.74 1.2 0
      vertex 7.94 4.96 0
      vertex 7.94 0 0
    endloop
  endfacet
  facet normal 0 0 -1
    outer loop
      vertex 6.74 1.2 0
      vertex 7.94 0 0
      vertex 4.92372 0 0
    endloop
  endfacet
  facet normal 0 0 -1
    outer loop
      vertex 1.2 3.76 0
      vertex 3.22 4.96 0
      vertex 3.22 3.76 0
    endloop
  endfacet
  facet normal 0 0 -1
    outer loop
      vertex 6.74 1.2 0
      vertex 3.01628 0.75 0
      vertex 1.2 1.2 0
    endloop
  endfacet
  facet normal 0 1 0
    outer loop
      vertex 0 4.96 0
      vertex 0 4.96 4.49
      vertex 3.22 4.96 0
    endloop
  endfacet
  facet normal 0 1 0
    outer loop
      vertex 3.22 4.96 0
      vertex 0 4.96 4.49
      vertex 3.22 4.96 4.49
    endloop
  endfacet
  facet normal 0 0 1
    outer loop
      vertex 1.2 1.2 4.49
      vertex 0 0 4.49
      vertex 7.94 0 4.49
    endloop
  endfacet
  facet normal 0 0 1
    outer loop
      vertex 6.74 3.76 4.49
      vertex 6.74 1.2 4.49
      vertex 7.94 0 4.49
    endloop
  endfacet
  facet normal 0 0 1
    outer loop
      vertex 7.94 4.96 4.49
      vertex 6.74 3.76 4.49
      vertex 7.94 0 4.49
    endloop
  endfacet
  facet normal 0 0 1
    outer loop
      vertex 7.94 4.96 4.49
      vertex 4.72 4.96 4.49
      vertex 6.74 3.76 4.49
    endloop
  endfacet
  facet normal 0 0 1
    outer loop
      vertex 3.22 3.76 4.49
      vertex 3.22 4.96 4.49
      vertex 0 4.96 4.49
    endloop
  endfacet
  facet normal 0 0 1
    outer loop
      vertex 0 4.96 4.49
      vertex 0 0 4.49
      vertex 1.2 1.2 4.49
    endloop
  endfacet
  facet normal 0 0 1
    outer loop
      vertex 1.2 3.76 4.49
      vertex 3.22 3.76 4.49
      vertex 0 4.96 4.49
    endloop
  endfacet
  facet normal 0 0 1
    outer loop
      vertex 0 4.96 4.49
      vertex 1.2 1.2 4.49
      vertex 1.2 3.76 4.49
    endloop
  endfacet
  facet normal 0 0 1
    outer loop
      vertex 4.72 3.76 4.49
      vertex 6.74 3.76 4.49
      vertex 4.72 4.96 4.49
    endloop
  endfacet
  facet normal 0 0 1
    outer loop
      vertex 6.74 1.2 4.49
      vertex 1.2 1.2 4.49
      vertex 7.94 0 4.49
    endloop
  endfacet
  facet normal 1 0 0
    outer loop
      vertex 7.94 0 4.49
      vertex 7.94 0 0
      vertex 7.94 4.96 0
    endloop
  endfacet
  facet normal 1 0 0
    outer loop
      vertex 7.94 4.96 4.49
      vertex 7.94 0 4.49
      vertex 7.94 4.96 0
    endloop
  endfacet
  facet normal 0.984808 0 -0.173648
    outer loop
      vertex 4.78076 0.45 -0.810761
      vertex 4.92372 0.75 0
      vertex 4.92372 0 0
    endloop
  endfacet
  facet normal 0.984808 0 -0.173648
    outer loop
      vertex 4.57107 0.45 -2
      vertex 4.57107 -0.75 -2
      vertex 4.39474 0.75 -3
    endloop
  endfacet
  facet normal 0.984808 0 -0.173648
    outer loop
      vertex 5.4527 0 3
      vertex 5.4527 -0.75 3
      vertex 4.92372 0 0
    endloop
  endfacet
  facet normal 0.984808 0 -0.173648
    outer loop
      vertex 5.4527 -0.75 3
      vertex 4.78076 -0.75 -0.810761
      vertex 4.92372 0 0
    endloop
  endfacet
  facet normal 0.984808 0 -0.173648
    outer loop
      vertex 4.39474 0.75 -3
      vertex 4.92372 0.75 0
      vertex 4.78076 0.45 -0.810761
    endloop
  endfacet
  facet normal 0.984808 0 -0.173648
    outer loop
      vertex 4.57107 -0.75 -2
      vertex 4.39474 -0.75 -3
      vertex 4.39474 0.75 -3
    endloop
  endfacet
  facet normal 0.984808 0 -0.173648
    outer loop
      vertex 4.78076 0.45 -0.810761
      vertex 4.57107 0.45 -2
      vertex 4.39474 0.75 -3
    endloop
  endfacet
  facet normal 0.984808 0 -0.173648
    outer loop
      vertex 4.78076 -0.75 -0.810761
      vertex 4.78076 0.45 -0.810761
      vertex 4.92372 0 0
    endloop
  endfacet
  facet normal 0 0 1
    outer loop
      vertex 2.4873 0 3
      vertex 2.4873 -0.75 3
      vertex 3.72 -0.75 3
    endloop
  endfacet
  facet normal 0 0 1
    outer loop
      vertex 3.72197 -0.718667 3
      vertex 2.4873 0 3
      vertex 3.72049 -0.734302 3
    endloop
  endfacet
  facet normal 0 0 1
    outer loop
      vertex 3.72049 -0.734302 3
      vertex 2.4873 0 3
      vertex 3.72 -0.75 3
    endloop
  endfacet
  facet normal 0 0 1
    outer loop
      vertex 3.72443 -0.703155 3
      vertex 2.4873 0 3
      vertex 3.72197 -0.718667 3
    endloop
  endfacet
  facet normal 0 0 1
    outer loop
      vertex 3.72785 -0.687828 3
      vertex 2.4873 0 3
      vertex 3.72443 -0.703155 3
    endloop
  endfacet
  facet normal 0 0 1
    outer loop
      vertex 3.73224 -0.672746 3
      vertex 2.4873 0 3
      vertex 3.72785 -0.687828 3
    endloop
  endfacet
  facet normal 0 0 1
    outer loop
      vertex 3.73756 -0.657969 3
      vertex 2.4873 0 3
      vertex 3.73224 -0.672746 3
    endloop
  endfacet
  facet normal 0 0 1
    outer loop
      vertex 3.74379 -0.643555 3
      vertex 2.4873 0 3
      vertex 3.73756 -0.657969 3
    endloop
  endfacet
  facet normal 0 0 1
    outer loop
      vertex 3.75092 -0.629562 3
      vertex 2.4873 0 3
      vertex 3.74379 -0.643555 3
    endloop
  endfacet
  facet normal 0 0 1
    outer loop
      vertex 3.75892 -0.616043 3
      vertex 2.4873 0 3
      vertex 3.75092 -0.629562 3
    endloop
  endfacet
  facet normal 0 0 1
    outer loop
      vertex 3.76775 -0.603054 3
      vertex 2.4873 0 3
      vertex 3.75892 -0.616043 3
    endloop
  endfacet
  facet normal 0 0 1
    outer loop
      vertex 3.77737 -0.590644 3
      vertex 2.4873 0 3
      vertex 3.76775 -0.603054 3
    endloop
  endfacet
  facet normal 0 0 1
    outer loop
      vertex 3.78776 -0.578863 3
      vertex 2.4873 0 3
      vertex 3.77737 -0.590644 3
    endloop
  endfacet
  facet normal 0 0 1
    outer loop
      vertex 3.79886 -0.567758 3
      vertex 2.4873 0 3
      vertex 3.78776 -0.578863 3
    endloop
  endfacet
  facet normal 0 0 1
    outer loop
      vertex 3.81064 -0.557372 3
      vertex 2.4873 0 3
      vertex 3.79886 -0.567758 3
    endloop
  endfacet
  facet normal 0 0 1
    outer loop
      vertex 3.82305 -0.547746 3
      vertex 2.4873 0 3
      vertex 3.81064 -0.557372 3
    endloop
  endfacet
  facet normal 0 0 1
    outer loop
      vertex 3.83604 -0.538918 3
      vertex 2.4873 0 3
      vertex 3.82305 -0.547746 3
    endloop
  endfacet
  facet normal 0 0 1
    outer loop
      vertex 3.84956 -0.530923 3
      vertex 2.4873 0 3
      vertex 3.83604 -0.538918 3
    endloop
  endfacet
  facet normal 0 0 1
    outer loop
      vertex 3.86355 -0.523793 3
      vertex 2.4873 0 3
      vertex 3.84956 -0.530923 3
    endloop
  endfacet
  facet normal 0 0 1
    outer loop
      vertex 3.87797 -0.517556 3
      vertex 2.4873 0 3
      vertex 3.86355 -0.523793 3
    endloop
  endfacet
  facet normal 0 0 1
    outer loop
      vertex 3.89275 -0.512236 3
      vertex 2.4873 0 3
      vertex 3.87797 -0.517556 3
    endloop
  endfacet
  facet normal 0 0 1
    outer loop
      vertex 3.90783 -0.507854 3
      vertex 2.4873 0 3
      vertex 3.89275 -0.512236 3
    endloop
  endfacet
  facet normal 0 0 1
    outer loop
      vertex 3.92315 -0.504428 3
      vertex 2.4873 0 3
      vertex 3.90783 -0.507854 3
    endloop
  endfacet
  facet normal 0 0 1
    outer loop
      vertex 3.93867 -0.501971 3
      vertex 2.4873 0 3
      vertex 3.92315 -0.504428 3
    endloop
  endfacet
  facet normal 0 0 1
    outer loop
      vertex 3.9543 -0.500493 3
      vertex 2.4873 0 3
      vertex 3.93867 -0.501971 3
    endloop
  endfacet
  facet normal 0 0 1
    outer loop
      vertex 3.97 -0.5 3
      vertex 2.4873 0 3
      vertex 3.9543 -0.500493 3
    endloop
  endfacet
  facet normal 0 0 1
    outer loop
      vertex 3.9857 -0.500493 3
      vertex 2.4873 0 3
      vertex 3.97 -0.5 3
    endloop
  endfacet
  facet normal 0 0 1
    outer loop
      vertex 4.00133 -0.501971 3
      vertex 2.4873 0 3
      vertex 3.9857 -0.500493 3
    endloop
  endfacet
  facet normal 0 0 1
    outer loop
      vertex 4.01684 -0.504428 3
      vertex 2.4873 0 3
      vertex 4.00133 -0.501971 3
    endloop
  endfacet
  facet normal 0 0 1
    outer loop
      vertex 4.03217 -0.507854 3
      vertex 2.4873 0 3
      vertex 4.01684 -0.504428 3
    endloop
  endfacet
  facet normal 0 0 1
    outer loop
      vertex 4.04725 -0.512236 3
      vertex 2.4873 0 3
      vertex 4.03217 -0.507854 3
    endloop
  endfacet
  facet normal 0 0 1
    outer loop
      vertex 5.4527 -0.75 3
      vertex 2.4873 0 3
      vertex 4.04725 -0.512236 3
    endloop
  endfacet
  facet normal 0 0 1
    outer loop
      vertex 5.4527 -0.75 3
      vertex 4.04725 -0.512236 3
      vertex 4.06203 -0.517556 3
    endloop
  endfacet
  facet normal 0 0 1
    outer loop
      vertex 5.4527 -0.75 3
      vertex 4.06203 -0.517556 3
      vertex 4.07644 -0.523793 3
    endloop
  endfacet
  facet normal 0 0 1
    outer loop
      vertex 5.4527 -0.75 3
      vertex 4.07644 -0.523793 3
      vertex 4.09044 -0.530923 3
    endloop
  endfacet
  facet normal 0 0 1
    outer loop
      vertex 5.4527 -0.75 3
      vertex 4.09044 -0.530923 3
      vertex 4.10396 -0.538918 3
    endloop
  endfacet
  facet normal 0 0 1
    outer loop
      vertex 5.4527 -0.75 3
      vertex 4.10396 -0.538918 3
      vertex 4.11695 -0.547746 3
    endloop
  endfacet
  facet normal 0 0 1
    outer loop
      vertex 5.4527 -0.75 3
      vertex 4.11695 -0.547746 3
      vertex 4.12936 -0.557372 3
    endloop
  endfacet
  facet normal 0 0 1
    outer loop
      vertex 5.4527 -0.75 3
      vertex 4.12936 -0.557372 3
      vertex 4.14114 -0.567758 3
    endloop
  endfacet
  facet normal 0 0 1
    outer loop
      vertex 5.4527 -0.75 3
      vertex 4.14114 -0.567758 3
      vertex 4.15224 -0.578863 3
    endloop
  endfacet
  facet normal 0 0 1
    outer loop
      vertex 5.4527 -0.75 3
      vertex 4.15224 -0.578863 3
      vertex 4.16263 -0.590644 3
    endloop
  endfacet
  facet normal 0 0 1
    outer loop
      vertex 5.4527 -0.75 3
      vertex 4.16263 -0.590644 3
      vertex 4.17225 -0.603054 3
    endloop
  endfacet
  facet normal 0 0 1
    outer loop
      vertex 5.4527 -0.75 3
      vertex 4.17225 -0.603054 3
      vertex 4.18108 -0.616043 3
    endloop
  endfacet
  facet normal 0 0 1
    outer loop
      vertex 5.4527 -0.75 3
      vertex 4.18108 -0.616043 3
      vertex 4.18908 -0.629562 3
    endloop
  endfacet
  facet normal 0 0 1
    outer loop
      vertex 5.4527 -0.75 3
      vertex 4.18908 -0.629562 3
      vertex 4.19621 -0.643555 3
    endloop
  endfacet
  facet normal 0 0 1
    outer loop
      vertex 5.4527 -0.75 3
      vertex 4.19621 -0.643555 3
      vertex 4.20244 -0.657969 3
    endloop
  endfacet
  facet normal 0 0 1
    outer loop
      vertex 5.4527 -0.75 3
      vertex 4.20244 -0.657969 3
      vertex 4.20776 -0.672746 3
    endloop
  endfacet
  facet normal 0 0 1
    outer loop
      vertex 5.4527 -0.75 3
      vertex 4.20776 -0.672746 3
      vertex 4.21215 -0.687828 3
    endloop
  endfacet
  facet normal 0 0 1
    outer loop
      vertex 5.4527 -0.75 3
      vertex 4.21215 -0.687828 3
      vertex 4.21557 -0.703155 3
    endloop
  endfacet
  facet normal 0 0 1
    outer loop
      vertex 5.4527 -0.75 3
      vertex 4.21557 -0.703155 3
      vertex 4.21803 -0.718667 3
    endloop
  endfacet
  facet normal 0 0 1
    outer loop
      vertex 5.4527 -0.75 3
      vertex 4.21803 -0.718667 3
      vertex 4.21951 -0.734302 3
    endloop
  endfacet
  facet normal 0 0 1
    outer loop
      vertex 5.4527 -0.75 3
      vertex 4.21951 -0.734302 3
      vertex 4.22 -0.75 3
    endloop
  endfacet
  facet normal 0 0 1
    outer loop
      vertex 5.4527 0 3
      vertex 2.4873 0 3
      vertex 5.4527 -0.75 3
    endloop
  endfacet
  facet normal -0.984808 0 -0.173648
    outer loop
      vertex 3.15734 0.45 -0.8
      vertex 3.01628 0.75 0
      vertex 3.54526 0.75 -3
    endloop
  endfacet
  facet normal -0.984808 0 -0.173648
    outer loop
      vertex 3.36893 0.45 -2
      vertex 3.54526 0.75 -3
      vertex 3.54526 -0.75 -3
    endloop
  endfacet
  facet normal -0.984808 0 -0.173648
    outer loop
      vertex 3.15734 -0.75 -0.8
      vertex 3.01628 0 0
      vertex 3.15734 0.45 -0.8
    endloop
  endfacet
  facet normal -0.984808 0 -0.173648
    outer loop
      vertex 3.15734 0.45 -0.8
      vertex 3.54526 0.75 -3
      vertex 3.36893 0.45 -2
    endloop
  endfacet
  facet normal -0.984808 0 -0.173648
    outer loop
      vertex 3.01628 0 0
      vertex 3.01628 0.75 0
      vertex 3.15734 0.45 -0.8
    endloop
  endfacet
  facet normal -0.984808 0 -0.173648
    outer loop
      vertex 3.15734 -0.75 -0.8
      vertex 2.4873 0 3
      vertex 3.01628 0 0
    endloop
  endfacet
  facet normal -0.984808 0 -0.173648
    outer loop
      vertex 3.15734 -0.75 -0.8
      vertex 2.4873 -0.75 3
      vertex 2.4873 0 3
    endloop
  endfacet
  facet normal -0.984808 0 -0.173648
    outer loop
      vertex 3.36893 0.45 -2
      vertex 3.54526 -0.75 -3
      vertex 3.36893 -0.75 -2
    endloop
  endfacet
  facet normal 0 1 0
    outer loop
      vertex 3.01628 0.75 0
      vertex 4.92372 0.75 0
      vertex 3.54526 0.75 -3
    endloop
  endfacet
  facet normal 0 1 0
    outer loop
      vertex 3.54526 0.75 -3
      vertex 4.92372 0.75 0
      vertex 4.39474 0.75 -3
    endloop
  endfacet
  facet normal 0 1 0
    outer loop
      vertex 4.72 4.96 0
      vertex 4.72 4.96 4.49
      vertex 7.94 4.96 0
    endloop
  endfacet
  facet normal 0 1 0
    outer loop
      vertex 7.94 4.96 0
      vertex 4.72 4.96 4.49
      vertex 7.94 4.96 4.49
    endloop
  endfacet
  facet normal -1 0 0
    outer loop
      vertex 4.72 4.96 4.49
      vertex 4.72 4.96 0
      vertex 4.72 3.76 4.49
    endloop
  endfacet
  facet normal -1 0 0
    outer loop
      vertex 4.72 3.76 4.49
      vertex 4.72 4.96 0
      vertex 4.72 3.76 0
    endloop
  endfacet
  facet normal 0 -1 0
    outer loop
      vertex 6.74 3.76 0
      vertex 6.74 3.76 4.49
      vertex 4.72 3.76 4.49
    endloop
  endfacet
  facet normal 0 -1 0
    outer loop
      vertex 4.72 3.76 0
      vertex 6.74 3.76 0
      vertex 4.72 3.76 4.49
    endloop
  endfacet
  facet normal -1 0 0
    outer loop
      vertex 6.74 3.76 4.49
      vertex 6.74 3.76 0
      vertex 6.74 1.2 4.49
    endloop
  endfacet
  facet normal -1 0 0
    outer loop
      vertex 6.74 1.2 4.49
      vertex 6.74 3.76 0
      vertex 6.74 1.2 0
    endloop
  endfacet
  facet normal 0 1 0
    outer loop
      vertex 6.74 1.2 4.49
      vertex 6.74 1.2 0
      vertex 1.2 1.2 4.49
    endloop
  endfacet
  facet normal 0 1 0
    outer loop
      vertex 1.2 1.2 4.49
      vertex 6.74 1.2 0
      vertex 1.2 1.2 0
    endloop
  endfacet
  facet normal 1 0 0
    outer loop
      vertex 1.2 3.76 0
      vertex 1.2 3.76 4.49
      vertex 1.2 1.2 4.49
    endloop
  endfacet
  facet normal 1 0 0
    outer loop
      vertex 1.2 1.2 0
      vertex 1.2 3.76 0
      vertex 1.2 1.2 4.49
    endloop
  endfacet
  facet normal 0 -1 0
    outer loop
      vertex 3.22 3.76 0
      vertex 3.22 3.76 4.49
      vertex 1.2 3.76 4.49
    endloop
  endfacet
  facet normal 0 -1 0
    outer loop
      vertex 1.2 3.76 0
      vertex 3.22 3.76 0
      vertex 1.2 3.76 4.49
    endloop
  endfacet
  facet normal 1 0 0
    outer loop
      vertex 3.22 4.96 0
      vertex 3.22 4.96 4.49
      vertex 3.22 3.76 4.49
    endloop
  endfacet
  facet normal 1 0 0
    outer loop
      vertex 3.22 3.76 0
      vertex 3.22 4.96 0
      vertex 3.22 3.76 4.49
    endloop
  endfacet
  facet normal 0 0 -1
    outer loop
      vertex 3.54526 -0.75 -3
      vertex 3.54526 0.75 -3
      vertex 3.72 -0.75 -3
    endloop
  endfacet
  facet normal 0 0 -1
    outer loop
      vertex 3.79886 -0.567758 -3
      vertex 3.54526 0.75 -3
      vertex 4.39474 0.75 -3
    endloop
  endfacet
  facet normal 0 0 -1
    outer loop
      vertex 4.22 -0.75 -3
      vertex 4.39474 0.75 -3
      vertex 4.39474 -0.75 -3
    endloop
  endfacet
  facet normal 0 0 -1
    outer loop
      vertex 4.21951 -0.734302 -3
      vertex 4.39474 0.75 -3
      vertex 4.22 -0.75 -3
    endloop
  endfacet
  facet normal 0 0 -1
    outer loop
      vertex 4.21803 -0.718667 -3
      vertex 4.39474 0.75 -3
      vertex 4.21951 -0.734302 -3
    endloop
  endfacet
  facet normal 0 0 -1
    outer loop
      vertex 4.21557 -0.703155 -3
      vertex 4.39474 0.75 -3
      vertex 4.21803 -0.718667 -3
    endloop
  endfacet
  facet normal 0 0 -1
    outer loop
      vertex 4.21215 -0.687828 -3
      vertex 4.39474 0.75 -3
      vertex 4.21557 -0.703155 -3
    endloop
  endfacet
  facet normal 0 0 -1
    outer loop
      vertex 4.20776 -0.672746 -3
      vertex 4.39474 0.75 -3
      vertex 4.21215 -0.687828 -3
    endloop
  endfacet
  facet normal 0 0 -1
    outer loop
      vertex 4.20244 -0.657969 -3
      vertex 4.39474 0.75 -3
      vertex 4.20776 -0.672746 -3
    endloop
  endfacet
  facet normal 0 0 -1
    outer loop
      vertex 4.19621 -0.643555 -3
      vertex 4.39474 0.75 -3
      vertex 4.20244 -0.657969 -3
    endloop
  endfacet
  facet normal 0 0 -1
    outer loop
      vertex 4.18908 -0.629562 -3
      vertex 4.39474 0.75 -3
      vertex 4.19621 -0.643555 -3
    endloop
  endfacet
  facet normal 0 0 -1
    outer loop
      vertex 4.18108 -0.616043 -3
      vertex 4.39474 0.75 -3
      vertex 4.18908 -0.629562 -3
    endloop
  endfacet
  facet normal 0 0 -1
    outer loop
      vertex 4.17225 -0.603054 -3
      vertex 4.39474 0.75 -3
      vertex 4.18108 -0.616043 -3
    endloop
  endfacet
  facet normal 0 0 -1
    outer loop
      vertex 4.16263 -0.590644 -3
      vertex 4.39474 0.75 -3
      vertex 4.17225 -0.603054 -3
    endloop
  endfacet
  facet normal 0 0 -1
    outer loop
      vertex 4.15224 -0.578863 -3
      vertex 4.39474 0.75 -3
      vertex 4.16263 -0.590644 -3
    endloop
  endfacet
  facet normal 0 0 -1
    outer loop
      vertex 4.14114 -0.567758 -3
      vertex 4.39474 0.75 -3
      vertex 4.15224 -0.578863 -3
    endloop
  endfacet
  facet normal 0 0 -1
    outer loop
      vertex 4.12936 -0.557372 -3
      vertex 4.39474 0.75 -3
      vertex 4.14114 -0.567758 -3
    endloop
  endfacet
  facet normal 0 0 -1
    outer loop
      vertex 4.11695 -0.547746 -3
      vertex 4.39474 0.75 -3
      vertex 4.12936 -0.557372 -3
    endloop
  endfacet
  facet normal 0 0 -1
    outer loop
      vertex 4.10396 -0.538918 -3
      vertex 4.39474 0.75 -3
      vertex 4.11695 -0.547746 -3
    endloop
  endfacet
  facet normal 0 0 -1
    outer loop
      vertex 4.09044 -0.530923 -3
      vertex 4.39474 0.75 -3
      vertex 4.10396 -0.538918 -3
    endloop
  endfacet
  facet normal 0 0 -1
    outer loop
      vertex 4.07644 -0.523793 -3
      vertex 4.39474 0.75 -3
      vertex 4.09044 -0.530923 -3
    endloop
  endfacet
  facet normal 0 0 -1
    outer loop
      vertex 4.06203 -0.517556 -3
      vertex 4.39474 0.75 -3
      vertex 4.07644 -0.523793 -3
    endloop
  endfacet
  facet normal 0 0 -1
    outer loop
      vertex 4.04725 -0.512236 -3
      vertex 4.39474 0.75 -3
      vertex 4.06203 -0.517556 -3
    endloop
  endfacet
  facet normal 0 0 -1
    outer loop
      vertex 4.03217 -0.507854 -3
      vertex 4.39474 0.75 -3
      vertex 4.04725 -0.512236 -3
    endloop
  endfacet
  facet normal 0 0 -1
    outer loop
      vertex 4.01684 -0.504428 -3
      vertex 4.39474 0.75 -3
      vertex 4.03217 -0.507854 -3
    endloop
  endfacet
  facet normal 0 0 -1
    outer loop
      vertex 4.00133 -0.501971 -3
      vertex 4.39474 0.75 -3
      vertex 4.01684 -0.504428 -3
    endloop
  endfacet
  facet normal 0 0 -1
    outer loop
      vertex 3.9857 -0.500493 -3
      vertex 4.39474 0.75 -3
      vertex 4.00133 -0.501971 -3
    endloop
  endfacet
  facet normal 0 0 -1
    outer loop
      vertex 3.97 -0.5 -3
      vertex 4.39474 0.75 -3
      vertex 3.9857 -0.500493 -3
    endloop
  endfacet
  facet normal 0 0 -1
    outer loop
      vertex 3.9543 -0.500493 -3
      vertex 4.39474 0.75 -3
      vertex 3.97 -0.5 -3
    endloop
  endfacet
  facet normal 0 0 -1
    outer loop
      vertex 3.93867 -0.501971 -3
      vertex 4.39474 0.75 -3
      vertex 3.9543 -0.500493 -3
    endloop
  endfacet
  facet normal 0 0 -1
    outer loop
      vertex 3.92315 -0.504428 -3
      vertex 4.39474 0.75 -3
      vertex 3.93867 -0.501971 -3
    endloop
  endfacet
  facet normal 0 0 -1
    outer loop
      vertex 3.90783 -0.507854 -3
      vertex 4.39474 0.75 -3
      vertex 3.92315 -0.504428 -3
    endloop
  endfacet
  facet normal 0 0 -1
    outer loop
      vertex 3.89275 -0.512236 -3
      vertex 4.39474 0.75 -3
      vertex 3.90783 -0.507854 -3
    endloop
  endfacet
  facet normal 0 0 -1
    outer loop
      vertex 3.87797 -0.517556 -3
      vertex 4.39474 0.75 -3
      vertex 3.89275 -0.512236 -3
    endloop
  endfacet
  facet normal 0 0 -1
    outer loop
      vertex 3.86355 -0.523793 -3
      vertex 4.39474 0.75 -3
      vertex 3.87797 -0.517556 -3
    endloop
  endfacet
  facet normal 0 0 -1
    outer loop
      vertex 3.84956 -0.530923 -3
      vertex 4.39474 0.75 -3
      vertex 3.86355 -0.523793 -3
    endloop
  endfacet
  facet normal 0 0 -1
    outer loop
      vertex 3.83604 -0.538918 -3
      vertex 4.39474 0.75 -3
      vertex 3.84956 -0.530923 -3
    endloop
  endfacet
  facet normal 0 0 -1
    outer loop
      vertex 3.82305 -0.547746 -3
      vertex 4.39474 0.75 -3
      vertex 3.83604 -0.538918 -3
    endloop
  endfacet
  facet normal 0 0 -1
    outer loop
      vertex 3.81064 -0.557372 -3
      vertex 4.39474 0.75 -3
      vertex 3.82305 -0.547746 -3
    endloop
  endfacet
  facet normal 0 0 -1
    outer loop
      vertex 3.78776 -0.578863 -3
      vertex 3.54526 0.75 -3
      vertex 3.79886 -0.567758 -3
    endloop
  endfacet
  facet normal 0 0 -1
    outer loop
      vertex 3.77737 -0.590644 -3
      vertex 3.54526 0.75 -3
      vertex 3.78776 -0.578863 -3
    endloop
  endfacet
  facet normal 0 0 -1
    outer loop
      vertex 3.76775 -0.603054 -3
      vertex 3.54526 0.75 -3
      vertex 3.77737 -0.590644 -3
    endloop
  endfacet
  facet normal 0 0 -1
    outer loop
      vertex 3.75892 -0.616043 -3
      vertex 3.54526 0.75 -3
      vertex 3.76775 -0.603054 -3
    endloop
  endfacet
  facet normal 0 0 -1
    outer loop
      vertex 3.75092 -0.629562 -3
      vertex 3.54526 0.75 -3
      vertex 3.75892 -0.616043 -3
    endloop
  endfacet
  facet normal 0 0 -1
    outer loop
      vertex 3.74379 -0.643555 -3
      vertex 3.54526 0.75 -3
      vertex 3.75092 -0.629562 -3
    endloop
  endfacet
  facet normal 0 0 -1
    outer loop
      vertex 3.73756 -0.657969 -3
      vertex 3.54526 0.75 -3
      vertex 3.74379 -0.643555 -3
    endloop
  endfacet
  facet normal 0 0 -1
    outer loop
      vertex 3.73224 -0.672746 -3
      vertex 3.54526 0.75 -3
      vertex 3.73756 -0.657969 -3
    endloop
  endfacet
  facet normal 0 0 -1
    outer loop
      vertex 3.72785 -0.687828 -3
      vertex 3.54526 0.75 -3
      vertex 3.73224 -0.672746 -3
    endloop
  endfacet
  facet normal 0 0 -1
    outer loop
      vertex 3.72443 -0.703155 -3
      vertex 3.54526 0.75 -3
      vertex 3.72785 -0.687828 -3
    endloop
  endfacet
  facet normal 0 0 -1
    outer loop
      vertex 3.72197 -0.718667 -3
      vertex 3.54526 0.75 -3
      vertex 3.72443 -0.703155 -3
    endloop
  endfacet
  facet normal 0 0 -1
    outer loop
      vertex 3.72049 -0.734302 -3
      vertex 3.54526 0.75 -3
      vertex 3.72197 -0.718667 -3
    endloop
  endfacet
  facet normal 0 0 -1
    outer loop
      vertex 3.72 -0.75 -3
      vertex 3.54526 0.75 -3
      vertex 3.72049 -0.734302 -3
    endloop
  endfacet
  facet normal 0 0 -1
    outer loop
      vertex 3.79886 -0.567758 -3
      vertex 4.39474 0.75 -3
      vertex 3.81064 -0.557372 -3
    endloop
  endfacet
  facet normal 0 -1 0
    outer loop
      vertex 4.22 -0.75 3
      vertex 4.22 -0.75 -3
      vertex 4.39474 -0.75 -3
    endloop
  endfacet
  facet normal 0 -1 0
    outer loop
      vertex 4.78076 -0.75 -0.810761
      vertex 4.22 -0.75 3
      vertex 4.57107 -0.75 -2
    endloop
  endfacet
  facet normal 0 -1 0
    outer loop
      vertex 4.57107 -0.75 -2
      vertex 4.22 -0.75 3
      vertex 4.39474 -0.75 -3
    endloop
  endfacet
  facet normal 0 -1 0
    outer loop
      vertex 5.97 -0.75 -2
      vertex 4.78076 -0.75 -0.810761
      vertex 4.57107 -0.75 -2
    endloop
  endfacet
  facet normal 0 -1 0
    outer loop
      vertex 4.78076 -0.75 -0.810761
      vertex 5.4527 -0.75 3
      vertex 4.22 -0.75 3
    endloop
  endfacet
  facet normal 0 0 -1
    outer loop
      vertex 4.57107 -0.75 -2
      vertex 4.57107 0.45 -2
      vertex 5.97 -0.75 -2
    endloop
  endfacet
  facet normal 0 0 -1
    outer loop
      vertex 5.97 -0.75 -2
      vertex 4.57107 0.45 -2
      vertex 5.97 0.45 -2
    endloop
  endfacet
  facet normal 0 1 0
    outer loop
      vertex 5.97 0.45 -2
      vertex 4.57107 0.45 -2
      vertex 4.78076 0.45 -0.810761
    endloop
  endfacet
  facet normal 0.707107 0 0.707107
    outer loop
      vertex 5.97 -0.75 -2
      vertex 5.97 0.45 -2
      vertex 4.78076 0.45 -0.810761
    endloop
  endfacet
  facet normal 0.707107 0 0.707107
    outer loop
      vertex 4.78076 -0.75 -0.810761
      vertex 5.97 -0.75 -2
      vertex 4.78076 0.45 -0.810761
    endloop
  endfacet
  facet normal -0.999507 -0.0313898 0
    outer loop
      vertex 4.22 -0.75 3
      vertex 4.21951 -0.734302 3
      vertex 4.22 -0.75 -3
    endloop
  endfacet
  facet normal -0.999507 -0.0313898 0
    outer loop
      vertex 4.22 -0.75 -3
      vertex 4.21951 -0.734302 3
      vertex 4.21951 -0.734302 -3
    endloop
  endfacet
  facet normal -0.995562 -0.0941119 0
    outer loop
      vertex 4.21951 -0.734302 3
      vertex 4.21803 -0.718667 3
      vertex 4.21951 -0.734302 -3
    endloop
  endfacet
  facet normal -0.995562 -0.0941119 0
    outer loop
      vertex 4.21951 -0.734302 -3
      vertex 4.21803 -0.718667 3
      vertex 4.21803 -0.718667 -3
    endloop
  endfacet
  facet normal -0.987687 -0.156443 0
    outer loop
      vertex 4.21803 -0.718667 3
      vertex 4.21557 -0.703155 3
      vertex 4.21803 -0.718667 -3
    endloop
  endfacet
  facet normal -0.987687 -0.156443 0
    outer loop
      vertex 4.21803 -0.718667 -3
      vertex 4.21557 -0.703155 3
      vertex 4.21557 -0.703155 -3
    endloop
  endfacet
  facet normal -0.975917 -0.218144 0
    outer loop
      vertex 4.21557 -0.703155 3
      vertex 4.21215 -0.687828 3
      vertex 4.21557 -0.703155 -3
    endloop
  endfacet
  facet normal -0.975917 -0.218144 0
    outer loop
      vertex 4.21557 -0.703155 -3
      vertex 4.21215 -0.687828 3
      vertex 4.21215 -0.687828 -3
    endloop
  endfacet
  facet normal -0.960289 -0.279007 0
    outer loop
      vertex 4.21215 -0.687828 3
      vertex 4.20776 -0.672746 3
      vertex 4.21215 -0.687828 -3
    endloop
  endfacet
  facet normal -0.960289 -0.279007 0
    outer loop
      vertex 4.21215 -0.687828 -3
      vertex 4.20776 -0.672746 3
      vertex 4.20776 -0.672746 -3
    endloop
  endfacet
  facet normal -0.940882 -0.338735 0
    outer loop
      vertex 4.20776 -0.672746 3
      vertex 4.20244 -0.657969 3
      vertex 4.20776 -0.672746 -3
    endloop
  endfacet
  facet normal -0.940882 -0.338735 0
    outer loop
      vertex 4.20776 -0.672746 -3
      vertex 4.20244 -0.657969 3
      vertex 4.20244 -0.657969 -3
    endloop
  endfacet
  facet normal -0.917766 -0.397121 0
    outer loop
      vertex 4.20244 -0.657969 3
      vertex 4.19621 -0.643555 3
      vertex 4.20244 -0.657969 -3
    endloop
  endfacet
  facet normal -0.917766 -0.397121 0
    outer loop
      vertex 4.20244 -0.657969 -3
      vertex 4.19621 -0.643555 3
      vertex 4.19621 -0.643555 -3
    endloop
  endfacet
  facet normal -0.891001 -0.454001 0
    outer loop
      vertex 4.19621 -0.643555 3
      vertex 4.18908 -0.629562 3
      vertex 4.19621 -0.643555 -3
    endloop
  endfacet
  facet normal -0.891001 -0.454001 0
    outer loop
      vertex 4.19621 -0.643555 -3
      vertex 4.18908 -0.629562 3
      vertex 4.18908 -0.629562 -3
    endloop
  endfacet
  facet normal -0.860745 -0.509036 0
    outer loop
      vertex 4.18908 -0.629562 3
      vertex 4.18108 -0.616043 3
      vertex 4.18908 -0.629562 -3
    endloop
  endfacet
  facet normal -0.860745 -0.509036 0
    outer loop
      vertex 4.18908 -0.629562 -3
      vertex 4.18108 -0.616043 3
      vertex 4.18108 -0.616043 -3
    endloop
  endfacet
  facet normal -0.82706 -0.562113 0
    outer loop
      vertex 4.18108 -0.616043 3
      vertex 4.17225 -0.603054 3
      vertex 4.18108 -0.616043 -3
    endloop
  endfacet
  facet normal -0.82706 -0.562113 0
    outer loop
      vertex 4.18108 -0.616043 -3
      vertex 4.17225 -0.603054 3
      vertex 4.17225 -0.603054 -3
    endloop
  endfacet
  facet normal -0.790161 -0.6129 0
    outer loop
      vertex 4.17225 -0.603054 3
      vertex 4.16263 -0.590644 3
      vertex 4.17225 -0.603054 -3
    endloop
  endfacet
  facet normal -0.790161 -0.6129 0
    outer loop
      vertex 4.17225 -0.603054 -3
      vertex 4.16263 -0.590644 3
      vertex 4.16263 -0.590644 -3
    endloop
  endfacet
  facet normal -0.750122 -0.661299 0
    outer loop
      vertex 4.16263 -0.590644 3
      vertex 4.15224 -0.578863 3
      vertex 4.16263 -0.590644 -3
    endloop
  endfacet
  facet normal -0.750122 -0.661299 0
    outer loop
      vertex 4.16263 -0.590644 -3
      vertex 4.15224 -0.578863 3
      vertex 4.15224 -0.578863 -3
    endloop
  endfacet
  facet normal -0.707107 -0.707107 0
    outer loop
      vertex 4.15224 -0.578863 -3
      vertex 4.15224 -0.578863 3
      vertex 4.14114 -0.567758 3
    endloop
  endfacet
  facet normal -0.707107 -0.707107 0
    outer loop
      vertex 4.14114 -0.567758 -3
      vertex 4.15224 -0.578863 -3
      vertex 4.14114 -0.567758 3
    endloop
  endfacet
  facet normal -0.661299 -0.750122 0
    outer loop
      vertex 4.14114 -0.567758 -3
      vertex 4.14114 -0.567758 3
      vertex 4.12936 -0.557372 3
    endloop
  endfacet
  facet normal -0.661299 -0.750122 0
    outer loop
      vertex 4.12936 -0.557372 -3
      vertex 4.14114 -0.567758 -3
      vertex 4.12936 -0.557372 3
    endloop
  endfacet
  facet normal -0.6129 -0.790161 0
    outer loop
      vertex 4.12936 -0.557372 -3
      vertex 4.12936 -0.557372 3
      vertex 4.11695 -0.547746 3
    endloop
  endfacet
  facet normal -0.6129 -0.790161 0
    outer loop
      vertex 4.11695 -0.547746 -3
      vertex 4.12936 -0.557372 -3
      vertex 4.11695 -0.547746 3
    endloop
  endfacet
  facet normal -0.562113 -0.82706 0
    outer loop
      vertex 4.11695 -0.547746 -3
      vertex 4.11695 -0.547746 3
      vertex 4.10396 -0.538918 3
    endloop
  endfacet
  facet normal -0.562113 -0.82706 0
    outer loop
      vertex 4.10396 -0.538918 -3
      vertex 4.11695 -0.547746 -3
      vertex 4.10396 -0.538918 3
    endloop
  endfacet
  facet normal -0.509036 -0.860745 0
    outer loop
      vertex 4.10396 -0.538918 -3
      vertex 4.10396 -0.538918 3
      vertex 4.09044 -0.530923 3
    endloop
  endfacet
  facet normal -0.509036 -0.860745 0
    outer loop
      vertex 4.09044 -0.530923 -3
      vertex 4.10396 -0.538918 -3
      vertex 4.09044 -0.530923 3
    endloop
  endfacet
  facet normal -0.454001 -0.891001 0
    outer loop
      vertex 4.09044 -0.530923 -3
      vertex 4.09044 -0.530923 3
      vertex 4.07644 -0.523793 3
    endloop
  endfacet
  facet normal -0.454001 -0.891001 0
    outer loop
      vertex 4.07644 -0.523793 -3
      vertex 4.09044 -0.530923 -3
      vertex 4.07644 -0.523793 3
    endloop
  endfacet
  facet normal -0.397121 -0.917766 0
    outer loop
      vertex 4.07644 -0.523793 -3
      vertex 4.07644 -0.523793 3
      vertex 4.06203 -0.517556 3
    endloop
  endfacet
  facet normal -0.397121 -0.917766 0
    outer loop
      vertex 4.06203 -0.517556 -3
      vertex 4.07644 -0.523793 -3
      vertex 4.06203 -0.517556 3
    endloop
  endfacet
  facet normal -0.338735 -0.940882 0
    outer loop
      vertex 4.06203 -0.517556 -3
      vertex 4.06203 -0.517556 3
      vertex 4.04725 -0.512236 3
    endloop
  endfacet
  facet normal -0.338735 -0.940882 0
    outer loop
      vertex 4.04725 -0.512236 -3
      vertex 4.06203 -0.517556 -3
      vertex 4.04725 -0.512236 3
    endloop
  endfacet
  facet normal -0.279007 -0.960289 0
    outer loop
      vertex 4.04725 -0.512236 -3
      vertex 4.04725 -0.512236 3
      vertex 4.03217 -0.507854 3
    endloop
  endfacet
  facet normal -0.279007 -0.960289 0
    outer loop
      vertex 4.03217 -0.507854 -3
      vertex 4.04725 -0.512236 -3
      vertex 4.03217 -0.507854 3
    endloop
  endfacet
  facet normal -0.218144 -0.975917 0
    outer loop
      vertex 4.03217 -0.507854 -3
      vertex 4.03217 -0.507854 3
      vertex 4.01684 -0.504428 3
    endloop
  endfacet
  facet normal -0.218144 -0.975917 0
    outer loop
      vertex 4.01684 -0.504428 -3
      vertex 4.03217 -0.507854 -3
      vertex 4.01684 -0.504428 3
    endloop
  endfacet
  facet normal -0.156443 -0.987687 0
    outer loop
      vertex 4.01684 -0.504428 -3
      vertex 4.01684 -0.504428 3
      vertex 4.00133 -0.501971 3
    endloop
  endfacet
  facet normal -0.156443 -0.987687 0
    outer loop
      vertex 4.00133 -0.501971 -3
      vertex 4.01684 -0.504428 -3
      vertex 4.00133 -0.501971 3
    endloop
  endfacet
  facet normal -0.0941119 -0.995562 0
    outer loop
      vertex 4.00133 -0.501971 -3
      vertex 4.00133 -0.501971 3
      vertex 3.9857 -0.500493 3
    endloop
  endfacet
  facet normal -0.0941119 -0.995562 0
    outer loop
      vertex 3.9857 -0.500493 -3
      vertex 4.00133 -0.501971 -3
      vertex 3.9857 -0.500493 3
    endloop
  endfacet
  facet normal -0.0313898 -0.999507 0
    outer loop
      vertex 3.9857 -0.500493 -3
      vertex 3.9857 -0.500493 3
      vertex 3.97 -0.5 3
    endloop
  endfacet
  facet normal -0.0313898 -0.999507 0
    outer loop
      vertex 3.97 -0.5 -3
      vertex 3.9857 -0.500493 -3
      vertex 3.97 -0.5 3
    endloop
  endfacet
  facet normal 0.0313898 -0.999507 0
    outer loop
      vertex 3.97 -0.5 -3
      vertex 3.97 -0.5 3
      vertex 3.9543 -0.500493 3
    endloop
  endfacet
  facet normal 0.0313898 -0.999507 0
    outer loop
      vertex 3.9543 -0.500493 -3
      vertex 3.97 -0.5 -3
      vertex 3.9543 -0.500493 3
    endloop
  endfacet
  facet normal 0.0941119 -0.995562 0
    outer loop
      vertex 3.9543 -0.500493 -3
      vertex 3.9543 -0.500493 3
      vertex 3.93867 -0.501971 3
    endloop
  endfacet
  facet normal 0.0941119 -0.995562 0
    outer loop
      vertex 3.93867 -0.501971 -3
      vertex 3.9543 -0.500493 -3
      vertex 3.93867 -0.501971 3
    endloop
  endfacet
  facet normal 0.156443 -0.987687 0
    outer loop
      vertex 3.93867 -0.501971 -3
      vertex 3.93867 -0.501971 3
      vertex 3.92315 -0.504428 3
    endloop
  endfacet
  facet normal 0.156443 -0.987687 0
    outer loop
      vertex 3.92315 -0.504428 -3
      vertex 3.93867 -0.501971 -3
      vertex 3.92315 -0.504428 3
    endloop
  endfacet
  facet normal 0.218144 -0.975917 0
    outer loop
      vertex 3.92315 -0.504428 -3
      vertex 3.92315 -0.504428 3
      vertex 3.90783 -0.507854 3
    endloop
  endfacet
  facet normal 0.218144 -0.975917 0
    outer loop
      vertex 3.90783 -0.507854 -3
      vertex 3.92315 -0.504428 -3
      vertex 3.90783 -0.507854 3
    endloop
  endfacet
  facet normal 0.279007 -0.960289 0
    outer loop
      vertex 3.90783 -0.507854 -3
      vertex 3.90783 -0.507854 3
      vertex 3.89275 -0.512236 3
    endloop
  endfacet
  facet normal 0.279007 -0.960289 0
    outer loop
      vertex 3.89275 -0.512236 -3
      vertex 3.90783 -0.507854 -3
      vertex 3.89275 -0.512236 3
    endloop
  endfacet
  facet normal 0.338735 -0.940882 0
    outer loop
      vertex 3.89275 -0.512236 -3
      vertex 3.89275 -0.512236 3
      vertex 3.87797 -0.517556 3
    endloop
  endfacet
  facet normal 0.338735 -0.940882 0
    outer loop
      vertex 3.87797 -0.517556 -3
      vertex 3.89275 -0.512236 -3
      vertex 3.87797 -0.517556 3
    endloop
  endfacet
  facet normal 0.397121 -0.917766 0
    outer loop
      vertex 3.87797 -0.517556 -3
      vertex 3.87797 -0.517556 3
      vertex 3.86355 -0.523793 3
    endloop
  endfacet
  facet normal 0.397121 -0.917766 0
    outer loop
      vertex 3.86355 -0.523793 -3
      vertex 3.87797 -0.517556 -3
      vertex 3.86355 -0.523793 3
    endloop
  endfacet
  facet normal 0.454001 -0.891001 0
    outer loop
      vertex 3.86355 -0.523793 -3
      vertex 3.86355 -0.523793 3
      vertex 3.84956 -0.530923 3
    endloop
  endfacet
  facet normal 0.454001 -0.891001 0
    outer loop
      vertex 3.84956 -0.530923 -3
      vertex 3.86355 -0.523793 -3
      vertex 3.84956 -0.530923 3
    endloop
  endfacet
  facet normal 0.509036 -0.860745 0
    outer loop
      vertex 3.84956 -0.530923 -3
      vertex 3.84956 -0.530923 3
      vertex 3.83604 -0.538918 3
    endloop
  endfacet
  facet normal 0.509036 -0.860745 0
    outer loop
      vertex 3.83604 -0.538918 -3
      vertex 3.84956 -0.530923 -3
      vertex 3.83604 -0.538918 3
    endloop
  endfacet
  facet normal 0.562113 -0.82706 0
    outer loop
      vertex 3.83604 -0.538918 -3
      vertex 3.83604 -0.538918 3
      vertex 3.82305 -0.547746 3
    endloop
  endfacet
  facet normal 0.562113 -0.82706 0
    outer loop
      vertex 3.82305 -0.547746 -3
      vertex 3.83604 -0.538918 -3
      vertex 3.82305 -0.547746 3
    endloop
  endfacet
  facet normal 0.6129 -0.790161 0
    outer loop
      vertex 3.82305 -0.547746 -3
      vertex 3.82305 -0.547746 3
      vertex 3.81064 -0.557372 3
    endloop
  endfacet
  facet normal 0.6129 -0.790161 0
    outer loop
      vertex 3.81064 -0.557372 -3
      vertex 3.82305 -0.547746 -3
      vertex 3.81064 -0.557372 3
    endloop
  endfacet
  facet normal 0.661299 -0.750122 0
    outer loop
      vertex 3.81064 -0.557372 -3
      vertex 3.81064 -0.557372 3
      vertex 3.79886 -0.567758 3
    endloop
  endfacet
  facet normal 0.661299 -0.750122 0
    outer loop
      vertex 3.79886 -0.567758 -3
      vertex 3.81064 -0.557372 -3
      vertex 3.79886 -0.567758 3
    endloop
  endfacet
  facet normal 0.707107 -0.707107 0
    outer loop
      vertex 3.79886 -0.567758 -3
      vertex 3.79886 -0.567758 3
      vertex 3.78776 -0.578863 3
    endloop
  endfacet
  facet normal 0.707107 -0.707107 0
    outer loop
      vertex 3.78776 -0.578863 -3
      vertex 3.79886 -0.567758 -3
      vertex 3.78776 -0.578863 3
    endloop
  endfacet
  facet normal 0.750122 -0.661299 0
    outer loop
      vertex 3.78776 -0.578863 -3
      vertex 3.78776 -0.578863 3
      vertex 3.77737 -0.590644 3
    endloop
  endfacet
  facet normal 0.750122 -0.661299 0
    outer loop
      vertex 3.77737 -0.590644 -3
      vertex 3.78776 -0.578863 -3
      vertex 3.77737 -0.590644 3
    endloop
  endfacet
  facet normal 0.790161 -0.6129 0
    outer loop
      vertex 3.77737 -0.590644 -3
      vertex 3.77737 -0.590644 3
      vertex 3.76775 -0.603054 3
    endloop
  endfacet
  facet normal 0.790161 -0.6129 0
    outer loop
      vertex 3.76775 -0.603054 -3
      vertex 3.77737 -0.590644 -3
      vertex 3.76775 -0.603054 3
    endloop
  endfacet
  facet normal 0.82706 -0.562113 0
    outer loop
      vertex 3.76775 -0.603054 -3
      vertex 3.76775 -0.603054 3
      vertex 3.75892 -0.616043 3
    endloop
  endfacet
  facet normal 0.82706 -0.562113 0
    outer loop
      vertex 3.75892 -0.616043 -3
      vertex 3.76775 -0.603054 -3
      vertex 3.75892 -0.616043 3
    endloop
  endfacet
  facet normal 0.860745 -0.509036 0
    outer loop
      vertex 3.75892 -0.616043 -3
      vertex 3.75892 -0.616043 3
      vertex 3.75092 -0.629562 3
    endloop
  endfacet
  facet normal 0.860745 -0.509036 0
    outer loop
      vertex 3.75092 -0.629562 -3
      vertex 3.75892 -0.616043 -3
      vertex 3.75092 -0.629562 3
    endloop
  endfacet
  facet normal 0.891001 -0.454001 0
    outer loop
      vertex 3.75092 -0.629562 -3
      vertex 3.75092 -0.629562 3
      vertex 3.74379 -0.643555 3
    endloop
  endfacet
  facet normal 0.891001 -0.454001 0
    outer loop
      vertex 3.74379 -0.643555 -3
      vertex 3.75092 -0.629562 -3
      vertex 3.74379 -0.643555 3
    endloop
  endfacet
  facet normal 0.917766 -0.397121 0
    outer loop
      vertex 3.74379 -0.643555 -3
      vertex 3.74379 -0.643555 3
      vertex 3.73756 -0.657969 3
    endloop
  endfacet
  facet normal 0.917766 -0.397121 0
    outer loop
      vertex 3.73756 -0.657969 -3
      vertex 3.74379 -0.643555 -3
      vertex 3.73756 -0.657969 3
    endloop
  endfacet
  facet normal 0.940882 -0.338735 0
    outer loop
      vertex 3.73756 -0.657969 -3
      vertex 3.73756 -0.657969 3
      vertex 3.73224 -0.672746 3
    endloop
  endfacet
  facet normal 0.940882 -0.338735 0
    outer loop
      vertex 3.73224 -0.672746 -3
      vertex 3.73756 -0.657969 -3
      vertex 3.73224 -0.672746 3
    endloop
  endfacet
  facet normal 0.960289 -0.279007 0
    outer loop
      vertex 3.73224 -0.672746 -3
      vertex 3.73224 -0.672746 3
      vertex 3.72785 -0.687828 3
    endloop
  endfacet
  facet normal 0.960289 -0.279007 0
    outer loop
      vertex 3.72785 -0.687828 -3
      vertex 3.73224 -0.672746 -3
      vertex 3.72785 -0.687828 3
    endloop
  endfacet
  facet normal 0.975917 -0.218144 0
    outer loop
      vertex 3.72785 -0.687828 -3
      vertex 3.72785 -0.687828 3
      vertex 3.72443 -0.703155 3
    endloop
  endfacet
  facet normal 0.975917 -0.218144 0
    outer loop
      vertex 3.72443 -0.703155 -3
      vertex 3.72785 -0.687828 -3
      vertex 3.72443 -0.703155 3
    endloop
  endfacet
  facet normal 0.987687 -0.156443 0
    outer loop
      vertex 3.72443 -0.703155 -3
      vertex 3.72443 -0.703155 3
      vertex 3.72197 -0.718667 3
    endloop
  endfacet
  facet normal 0.987687 -0.156443 0
    outer loop
      vertex 3.72197 -0.718667 -3
      vertex 3.72443 -0.703155 -3
      vertex 3.72197 -0.718667 3
    endloop
  endfacet
  facet normal 0.995562 -0.0941119 0
    outer loop
      vertex 3.72197 -0.718667 -3
      vertex 3.72197 -0.718667 3
      vertex 3.72049 -0.734302 3
    endloop
  endfacet
  facet normal 0.995562 -0.0941119 0
    outer loop
      vertex 3.72049 -0.734302 -3
      vertex 3.72197 -0.718667 -3
      vertex 3.72049 -0.734302 3
    endloop
  endfacet
  facet normal 0.999507 -0.0313898 0
    outer loop
      vertex 3.72049 -0.734302 -3
      vertex 3.72049 -0.734302 3
      vertex 3.72 -0.75 3
    endloop
  endfacet
  facet normal 0.999507 -0.0313898 0
    outer loop
      vertex 3.72 -0.75 -3
      vertex 3.72049 -0.734302 -3
      vertex 3.72 -0.75 3
    endloop
  endfacet
  facet normal 0 -1 0
    outer loop
      vertex 1.97 -0.75 -1.95685
      vertex 1.97 -0.75 -2
      vertex 3.36893 -0.75 -2
    endloop
  endfacet
  facet normal 0 -1 0
    outer loop
      vertex 3.15734 -0.75 -0.8
      vertex 1.97 -0.75 -1.95685
      vertex 3.36893 -0.75 -2
    endloop
  endfacet
  facet normal 0 -1 0
    outer loop
      vertex 3.54526 -0.75 -3
      vertex 3.72 -0.75 -3
      vertex 3.36893 -0.75 -2
    endloop
  endfacet
  facet normal 0 -1 0
    outer loop
      vertex 3.72 -0.75 -3
      vertex 3.72 -0.75 3
      vertex 3.36893 -0.75 -2
    endloop
  endfacet
  facet normal 0 -1 0
    outer loop
      vertex 3.72 -0.75 3
      vertex 3.15734 -0.75 -0.8
      vertex 3.36893 -0.75 -2
    endloop
  endfacet
  facet normal 0 -1 0
    outer loop
      vertex 3.12685 -0.75 -0.8
      vertex 1.97 -0.75 -1.95685
      vertex 3.15734 -0.75 -0.8
    endloop
  endfacet
  facet normal 0 -1 0
    outer loop
      vertex 2.4873 -0.75 3
      vertex 3.15734 -0.75 -0.8
      vertex 3.72 -0.75 3
    endloop
  endfacet
  facet normal 0 0 1
    outer loop
      vertex 3.12685 0.45 -0.8
      vertex 3.12685 -0.75 -0.8
      vertex 3.15734 -0.75 -0.8
    endloop
  endfacet
  facet normal 0 0 1
    outer loop
      vertex 3.15734 0.45 -0.8
      vertex 3.12685 0.45 -0.8
      vertex 3.15734 -0.75 -0.8
    endloop
  endfacet
  facet normal 0 1 0
    outer loop
      vertex 1.97 0.45 -2
      vertex 1.97 0.45 -1.95685
      vertex 3.36893 0.45 -2
    endloop
  endfacet
  facet normal 0 1 0
    outer loop
      vertex 3.36893 0.45 -2
      vertex 1.97 0.45 -1.95685
      vertex 3.12685 0.45 -0.8
    endloop
  endfacet
  facet normal 0 1 0
    outer loop
      vertex 3.36893 0.45 -2
      vertex 3.12685 0.45 -0.8
      vertex 3.15734 0.45 -0.8
    endloop
  endfacet
  facet normal 0 0 -1
    outer loop
      vertex 1.97 -0.75 -2
      vertex 1.97 0.45 -2
      vertex 3.36893 -0.75 -2
    endloop
  endfacet
  facet normal 0 0 -1
    outer loop
      vertex 3.36893 -0.75 -2
      vertex 1.97 0.45 -2
      vertex 3.36893 0.45 -2
    endloop
  endfacet
  facet normal -1 0 0
    outer loop
      vertex 1.97 -0.75 -2
      vertex 1.97 -0.75 -1.95685
      vertex 1.97 0.45 -2
    endloop
  endfacet
  facet normal -1 0 0
    outer loop
      vertex 1.97 0.45 -2
      vertex 1.97 -0.75 -1.95685
      vertex 1.97 0.45 -1.95685
    endloop
  endfacet
  facet normal -0.707107 0 0.707107
    outer loop
      vertex 3.12685 -0.75 -0.8
      vertex 3.12685 0.45 -0.8
      vertex 1.97 0.45 -1.95685
    endloop
  endfacet
  facet normal -0.707107 0 0.707107
    outer loop
      vertex 1.97 -0.75 -1.95685
      vertex 3.12685 -0.75 -0.8
      vertex 1.97 0.45 -1.95685
    endloop
  endfacet
endsolid OpenSCAD_Model
