solid OpenSCAD_Model
  facet normal -1 0 0
    outer loop
      vertex 0 0 0
      vertex 0 0 4.49
      vertex 0 4.5 0
    endloop
  endfacet
  facet normal -1 0 0
    outer loop
      vertex 0 4.5 0
      vertex 0 0 4.49
      vertex 0 4.5 4.49
    endloop
  endfacet
  facet normal 0 -1 0
    outer loop
      vertex 0 0 4.49
      vertex 0 0 0
      vertex 2.52 0 0
    endloop
  endfacet
  facet normal 0 -1 0
    outer loop
      vertex 2.52 0 4.49
      vertex 0 0 4.49
      vertex 2.52 0 0
    endloop
  endfacet
  facet normal 0 0 -1
    outer loop
      vertex 2.52 0.5 0
      vertex 2.52 0 0
      vertex 0.5 0.5 0
    endloop
  endfacet
  facet normal 0 0 -1
    outer loop
      vertex 6.04 4 0
      vertex 0 4.5 0
      vertex 6.54 4.5 0
    endloop
  endfacet
  facet normal 0 0 -1
    outer loop
      vertex 6.04 0.5 0
      vertex 6.54 4.5 0
      vertex 6.54 0 0
    endloop
  endfacet
  facet normal 0 0 -1
    outer loop
      vertex 6.04 4 0
      vertex 6.54 4.5 0
      vertex 6.04 0.5 0
    endloop
  endfacet
  facet normal 0 0 -1
    outer loop
      vertex 4.02 0 0
      vertex 6.04 0.5 0
      vertex 6.54 0 0
    endloop
  endfacet
  facet normal 0 0 -1
    outer loop
      vertex 0.5 4 0
      vertex 0 4.5 0
      vertex 6.04 4 0
    endloop
  endfacet
  facet normal 0 0 -1
    outer loop
      vertex 0.5 0.5 0
      vertex 0 4.5 0
      vertex 0.5 4 0
    endloop
  endfacet
  facet normal 0 0 -1
    outer loop
      vertex 0 0 0
      vertex 0 4.5 0
      vertex 0.5 0.5 0
    endloop
  endfacet
  facet normal 0 0 -1
    outer loop
      vertex 0 0 0
      vertex 0.5 0.5 0
      vertex 2.52 0 0
    endloop
  endfacet
  facet normal 0 0 -1
    outer loop
      vertex 6.04 0.5 0
      vertex 4.02 0 0
      vertex 4.02 0.5 0
    endloop
  endfacet
  facet normal 0 1 0
    outer loop
      vertex 0 4.5 0
      vertex 0 4.5 4.49
      vertex 6.54 4.5 0
    endloop
  endfacet
  facet normal 0 1 0
    outer loop
      vertex 6.54 4.5 0
      vertex 0 4.5 4.49
      vertex 6.54 4.5 4.49
    endloop
  endfacet
  facet normal 0 0 1
    outer loop
      vertex 0.5 0.5 4.49
      vertex 0 0 4.49
      vertex 2.52 0 4.49
    endloop
  endfacet
  facet normal 0 0 1
    outer loop
      vertex 0.5 0.5 4.49
      vertex 0.5 4 4.49
      vertex 0 4.5 4.49
    endloop
  endfacet
  facet normal 0 0 1
    outer loop
      vertex 0 4.5 4.49
      vertex 0 0 4.49
      vertex 0.5 0.5 4.49
    endloop
  endfacet
  facet normal 0 0 1
    outer loop
      vertex 6.04 4 4.49
      vertex 0 4.5 4.49
      vertex 0.5 4 4.49
    endloop
  endfacet
  facet normal 0 0 1
    outer loop
      vertex 6.54 4.5 4.49
      vertex 0 4.5 4.49
      vertex 6.04 4 4.49
    endloop
  endfacet
  facet normal 0 0 1
    outer loop
      vertex 6.54 0 4.49
      vertex 6.04 4 4.49
      vertex 6.04 0.5 4.49
    endloop
  endfacet
  facet normal 0 0 1
    outer loop
      vertex 6.54 0 4.49
      vertex 6.04 0.5 4.49
      vertex 4.02 0 4.49
    endloop
  endfacet
  facet normal 0 0 1
    outer loop
      vertex 6.54 4.5 4.49
      vertex 6.04 4 4.49
      vertex 6.54 0 4.49
    endloop
  endfacet
  facet normal 0 0 1
    outer loop
      vertex 4.02 0.5 4.49
      vertex 4.02 0 4.49
      vertex 6.04 0.5 4.49
    endloop
  endfacet
  facet normal 0 0 1
    outer loop
      vertex 2.52 0.5 4.49
      vertex 0.5 0.5 4.49
      vertex 2.52 0 4.49
    endloop
  endfacet
  facet normal 1 0 0
    outer loop
      vertex 2.52 0.5 0
      vertex 2.52 0.5 4.49
      vertex 2.52 0 4.49
    endloop
  endfacet
  facet normal 1 0 0
    outer loop
      vertex 2.52 0 0
      vertex 2.52 0.5 0
      vertex 2.52 0 4.49
    endloop
  endfacet
  facet normal 0 1 0
    outer loop
      vertex 2.52 0.5 4.49
      vertex 2.52 0.5 0
      vertex 0.5 0.5 4.49
    endloop
  endfacet
  facet normal 0 1 0
    outer loop
      vertex 0.5 0.5 4.49
      vertex 2.52 0.5 0
      vertex 0.5 0.5 0
    endloop
  endfacet
  facet normal 1 0 0
    outer loop
      vertex 0.5 4 0
      vertex 0.5 4 4.49
      vertex 0.5 0.5 4.49
    endloop
  endfacet
  facet normal 1 0 0
    outer loop
      vertex 0.5 0.5 0
      vertex 0.5 4 0
      vertex 0.5 0.5 4.49
    endloop
  endfacet
  facet normal 0 -1 0
    outer loop
      vertex 6.04 4 0
      vertex 6.04 4 4.49
      vertex 0.5 4 4.49
    endloop
  endfacet
  facet normal 0 -1 0
    outer loop
      vertex 0.5 4 0
      vertex 6.04 4 0
      vertex 0.5 4 4.49
    endloop
  endfacet
  facet normal -1 0 0
    outer loop
      vertex 6.04 4 4.49
      vertex 6.04 4 0
      vertex 6.04 0.5 4.49
    endloop
  endfacet
  facet normal -1 0 0
    outer loop
      vertex 6.04 0.5 4.49
      vertex 6.04 4 0
      vertex 6.04 0.5 0
    endloop
  endfacet
  facet normal 0 1 0
    outer loop
      vertex 6.04 0.5 4.49
      vertex 6.04 0.5 0
      vertex 4.02 0.5 4.49
    endloop
  endfacet
  facet normal 0 1 0
    outer loop
      vertex 4.02 0.5 4.49
      vertex 6.04 0.5 0
      vertex 4.02 0.5 0
    endloop
  endfacet
  facet normal -1 0 0
    outer loop
      vertex 4.02 0.5 4.49
      vertex 4.02 0.5 0
      vertex 4.02 0 4.49
    endloop
  endfacet
  facet normal -1 0 0
    outer loop
      vertex 4.02 0 4.49
      vertex 4.02 0.5 0
      vertex 4.02 0 0
    endloop
  endfacet
  facet normal 0 -1 0
    outer loop
      vertex 4.02 0 4.49
      vertex 4.02 0 0
      vertex 6.54 0 0
    endloop
  endfacet
  facet normal 0 -1 0
    outer loop
      vertex 6.54 0 4.49
      vertex 4.02 0 4.49
      vertex 6.54 0 0
    endloop
  endfacet
  facet normal 1 0 0
    outer loop
      vertex 6.54 0 4.49
      vertex 6.54 0 0
      vertex 6.54 4.5 0
    endloop
  endfacet
  facet normal 1 0 0
    outer loop
      vertex 6.54 4.5 4.49
      vertex 6.54 0 4.49
      vertex 6.54 4.5 0
    endloop
  endfacet
  facet normal -1.22465e-16 -1 0
    outer loop
      vertex 0.834044 -5 2.75
      vertex -2.29404 -5 2.75
      vertex -0.820324 -5 -2.75
    endloop
  endfacet
  facet normal -1.22465e-16 -1 0
    outer loop
      vertex -0.639676 -5 -2.75
      vertex 0.834044 -5 2.75
      vertex -0.820324 -5 -2.75
    endloop
  endfacet
  facet normal -0.965926 1.18292e-16 -0.258819
    outer loop
      vertex -0.98 -4.5 -2.15408
      vertex -0.979507 -4.5157 -2.15592
      vertex -2.29404 -4.5 2.75
    endloop
  endfacet
  facet normal -0.965926 1.18292e-16 -0.258819
    outer loop
      vertex -2.29404 -4.5 2.75
      vertex -0.979507 -4.5157 -2.15592
      vertex -0.978029 -4.53133 -2.16144
    endloop
  endfacet
  facet normal -0.965926 1.18292e-16 -0.258819
    outer loop
      vertex -0.978029 -4.53133 -2.16144
      vertex -0.975572 -4.54684 -2.17061
      vertex -2.29404 -4.5 2.75
    endloop
  endfacet
  facet normal -0.965926 1.18292e-16 -0.258819
    outer loop
      vertex -0.975572 -4.54684 -2.17061
      vertex -0.972146 -4.56217 -2.18339
      vertex -2.29404 -4.5 2.75
    endloop
  endfacet
  facet normal -0.965926 1.18292e-16 -0.258819
    outer loop
      vertex -0.972146 -4.56217 -2.18339
      vertex -0.967764 -4.57725 -2.19975
      vertex -2.29404 -4.5 2.75
    endloop
  endfacet
  facet normal -0.965926 1.18292e-16 -0.258819
    outer loop
      vertex -0.967764 -4.57725 -2.19975
      vertex -0.962444 -4.59203 -2.2196
      vertex -2.29404 -4.5 2.75
    endloop
  endfacet
  facet normal -0.965926 1.18292e-16 -0.258819
    outer loop
      vertex -0.962444 -4.59203 -2.2196
      vertex -0.956207 -4.60644 -2.24288
      vertex -2.29404 -4.5 2.75
    endloop
  endfacet
  facet normal -0.965926 1.18292e-16 -0.258819
    outer loop
      vertex -0.956207 -4.60644 -2.24288
      vertex -0.949077 -4.62044 -2.26949
      vertex -2.29404 -4.5 2.75
    endloop
  endfacet
  facet normal -0.965926 1.18292e-16 -0.258819
    outer loop
      vertex -0.949077 -4.62044 -2.26949
      vertex -0.941082 -4.63396 -2.29932
      vertex -2.29404 -4.5 2.75
    endloop
  endfacet
  facet normal -0.965926 1.18292e-16 -0.258819
    outer loop
      vertex -0.941082 -4.63396 -2.29932
      vertex -0.932254 -4.64695 -2.33227
      vertex -2.29404 -4.5 2.75
    endloop
  endfacet
  facet normal -0.965926 1.18292e-16 -0.258819
    outer loop
      vertex -0.932254 -4.64695 -2.33227
      vertex -0.922628 -4.65936 -2.3682
      vertex -2.29404 -4.5 2.75
    endloop
  endfacet
  facet normal -0.965926 1.18292e-16 -0.258819
    outer loop
      vertex -0.922628 -4.65936 -2.3682
      vertex -0.912242 -4.67114 -2.40696
      vertex -2.29404 -4.5 2.75
    endloop
  endfacet
  facet normal -0.965926 1.18292e-16 -0.258819
    outer loop
      vertex -0.912242 -4.67114 -2.40696
      vertex -0.901137 -4.68224 -2.4484
      vertex -2.29404 -4.5 2.75
    endloop
  endfacet
  facet normal -0.965926 1.18292e-16 -0.258819
    outer loop
      vertex -0.901137 -4.68224 -2.4484
      vertex -0.889356 -4.69263 -2.49237
      vertex -2.29404 -4.5 2.75
    endloop
  endfacet
  facet normal -0.965926 1.18292e-16 -0.258819
    outer loop
      vertex -0.889356 -4.69263 -2.49237
      vertex -0.876946 -4.70225 -2.53868
      vertex -2.29404 -4.5 2.75
    endloop
  endfacet
  facet normal -0.965926 1.18292e-16 -0.258819
    outer loop
      vertex -0.876946 -4.70225 -2.53868
      vertex -0.863957 -4.71108 -2.58716
      vertex -2.29404 -4.5 2.75
    endloop
  endfacet
  facet normal -0.965926 1.18292e-16 -0.258819
    outer loop
      vertex -0.863957 -4.71108 -2.58716
      vertex -0.850438 -4.71908 -2.63761
      vertex -2.29404 -4.5 2.75
    endloop
  endfacet
  facet normal -0.965926 1.18292e-16 -0.258819
    outer loop
      vertex -0.850438 -4.71908 -2.63761
      vertex -0.836445 -4.72621 -2.68984
      vertex -2.29404 -4.5 2.75
    endloop
  endfacet
  facet normal -0.965926 1.18292e-16 -0.258819
    outer loop
      vertex -0.836445 -4.72621 -2.68984
      vertex -0.822031 -4.73244 -2.74363
      vertex -2.29404 -4.5 2.75
    endloop
  endfacet
  facet normal -0.965926 1.18292e-16 -0.258819
    outer loop
      vertex -0.822031 -4.73244 -2.74363
      vertex -0.820324 -4.73306 -2.75
      vertex -2.29404 -4.5 2.75
    endloop
  endfacet
  facet normal -0.965926 1.18292e-16 -0.258819
    outer loop
      vertex -2.29404 -4.5 2.75
      vertex -0.820324 -4.73306 -2.75
      vertex -0.820324 -5 -2.75
    endloop
  endfacet
  facet normal -0.965926 1.18292e-16 -0.258819
    outer loop
      vertex -2.29404 -4.5 2.75
      vertex -0.820324 -5 -2.75
      vertex -2.29404 -5 2.75
    endloop
  endfacet
  facet normal 0 0 1
    outer loop
      vertex -0.73 -4.75 2.75
      vertex -2.29404 -5 2.75
      vertex 0.834044 -5 2.75
    endloop
  endfacet
  facet normal 0 0 1
    outer loop
      vertex -0.776845 -4.74557 2.75
      vertex -2.29404 -4.5 2.75
      vertex -2.29404 -5 2.75
    endloop
  endfacet
  facet normal 0 0 1
    outer loop
      vertex 0.834044 -4.5 2.75
      vertex -0.48 -4.5 2.75
      vertex 0.834044 -5 2.75
    endloop
  endfacet
  facet normal 0 0 1
    outer loop
      vertex -0.48 -4.5 2.75
      vertex -0.480493 -4.5157 2.75
      vertex 0.834044 -5 2.75
    endloop
  endfacet
  facet normal 0 0 1
    outer loop
      vertex -0.480493 -4.5157 2.75
      vertex -0.481971 -4.53133 2.75
      vertex 0.834044 -5 2.75
    endloop
  endfacet
  facet normal 0 0 1
    outer loop
      vertex -0.481971 -4.53133 2.75
      vertex -0.484428 -4.54684 2.75
      vertex 0.834044 -5 2.75
    endloop
  endfacet
  facet normal 0 0 1
    outer loop
      vertex -0.484428 -4.54684 2.75
      vertex -0.487854 -4.56217 2.75
      vertex 0.834044 -5 2.75
    endloop
  endfacet
  facet normal 0 0 1
    outer loop
      vertex -0.978029 -4.53133 2.75
      vertex -0.979507 -4.5157 2.75
      vertex -2.29404 -4.5 2.75
    endloop
  endfacet
  facet normal 0 0 1
    outer loop
      vertex -0.487854 -4.56217 2.75
      vertex -0.492236 -4.57725 2.75
      vertex 0.834044 -5 2.75
    endloop
  endfacet
  facet normal 0 0 1
    outer loop
      vertex -0.492236 -4.57725 2.75
      vertex -0.497556 -4.59203 2.75
      vertex 0.834044 -5 2.75
    endloop
  endfacet
  facet normal 0 0 1
    outer loop
      vertex -0.497556 -4.59203 2.75
      vertex -0.503793 -4.60644 2.75
      vertex 0.834044 -5 2.75
    endloop
  endfacet
  facet normal 0 0 1
    outer loop
      vertex -0.503793 -4.60644 2.75
      vertex -0.510923 -4.62044 2.75
      vertex 0.834044 -5 2.75
    endloop
  endfacet
  facet normal 0 0 1
    outer loop
      vertex -0.967764 -4.57725 2.75
      vertex -0.972146 -4.56217 2.75
      vertex -2.29404 -4.5 2.75
    endloop
  endfacet
  facet normal 0 0 1
    outer loop
      vertex -0.510923 -4.62044 2.75
      vertex -0.518918 -4.63396 2.75
      vertex 0.834044 -5 2.75
    endloop
  endfacet
  facet normal 0 0 1
    outer loop
      vertex -0.518918 -4.63396 2.75
      vertex -0.527746 -4.64695 2.75
      vertex 0.834044 -5 2.75
    endloop
  endfacet
  facet normal 0 0 1
    outer loop
      vertex -0.527746 -4.64695 2.75
      vertex -0.537372 -4.65936 2.75
      vertex 0.834044 -5 2.75
    endloop
  endfacet
  facet normal 0 0 1
    outer loop
      vertex -0.537372 -4.65936 2.75
      vertex -0.547758 -4.67114 2.75
      vertex 0.834044 -5 2.75
    endloop
  endfacet
  facet normal 0 0 1
    outer loop
      vertex -0.949077 -4.62044 2.75
      vertex -0.956207 -4.60644 2.75
      vertex -2.29404 -4.5 2.75
    endloop
  endfacet
  facet normal 0 0 1
    outer loop
      vertex -0.547758 -4.67114 2.75
      vertex -0.558863 -4.68224 2.75
      vertex 0.834044 -5 2.75
    endloop
  endfacet
  facet normal 0 0 1
    outer loop
      vertex -0.558863 -4.68224 2.75
      vertex -0.570644 -4.69263 2.75
      vertex 0.834044 -5 2.75
    endloop
  endfacet
  facet normal 0 0 1
    outer loop
      vertex -0.570644 -4.69263 2.75
      vertex -0.583054 -4.70225 2.75
      vertex 0.834044 -5 2.75
    endloop
  endfacet
  facet normal 0 0 1
    outer loop
      vertex -0.583054 -4.70225 2.75
      vertex -0.596043 -4.71108 2.75
      vertex 0.834044 -5 2.75
    endloop
  endfacet
  facet normal 0 0 1
    outer loop
      vertex -0.596043 -4.71108 2.75
      vertex -0.609562 -4.71908 2.75
      vertex 0.834044 -5 2.75
    endloop
  endfacet
  facet normal 0 0 1
    outer loop
      vertex -0.912242 -4.67114 2.75
      vertex -0.922628 -4.65936 2.75
      vertex -2.29404 -4.5 2.75
    endloop
  endfacet
  facet normal 0 0 1
    outer loop
      vertex -0.609562 -4.71908 2.75
      vertex -0.623555 -4.72621 2.75
      vertex 0.834044 -5 2.75
    endloop
  endfacet
  facet normal 0 0 1
    outer loop
      vertex -0.623555 -4.72621 2.75
      vertex -0.637969 -4.73244 2.75
      vertex 0.834044 -5 2.75
    endloop
  endfacet
  facet normal 0 0 1
    outer loop
      vertex -0.637969 -4.73244 2.75
      vertex -0.652746 -4.73776 2.75
      vertex 0.834044 -5 2.75
    endloop
  endfacet
  facet normal 0 0 1
    outer loop
      vertex -0.652746 -4.73776 2.75
      vertex -0.667828 -4.74215 2.75
      vertex 0.834044 -5 2.75
    endloop
  endfacet
  facet normal 0 0 1
    outer loop
      vertex -0.667828 -4.74215 2.75
      vertex -0.683155 -4.74557 2.75
      vertex 0.834044 -5 2.75
    endloop
  endfacet
  facet normal 0 0 1
    outer loop
      vertex -0.683155 -4.74557 2.75
      vertex -0.698667 -4.74803 2.75
      vertex 0.834044 -5 2.75
    endloop
  endfacet
  facet normal 0 0 1
    outer loop
      vertex -0.698667 -4.74803 2.75
      vertex -0.714302 -4.74951 2.75
      vertex 0.834044 -5 2.75
    endloop
  endfacet
  facet normal 0 0 1
    outer loop
      vertex -0.714302 -4.74951 2.75
      vertex -0.73 -4.75 2.75
      vertex 0.834044 -5 2.75
    endloop
  endfacet
  facet normal 0 0 1
    outer loop
      vertex -0.822031 -4.73244 2.75
      vertex -0.836445 -4.72621 2.75
      vertex -2.29404 -4.5 2.75
    endloop
  endfacet
  facet normal 0 0 1
    outer loop
      vertex -0.73 -4.75 2.75
      vertex -0.745698 -4.74951 2.75
      vertex -2.29404 -5 2.75
    endloop
  endfacet
  facet normal 0 0 1
    outer loop
      vertex -0.745698 -4.74951 2.75
      vertex -0.761333 -4.74803 2.75
      vertex -2.29404 -5 2.75
    endloop
  endfacet
  facet normal 0 0 1
    outer loop
      vertex -0.761333 -4.74803 2.75
      vertex -0.776845 -4.74557 2.75
      vertex -2.29404 -5 2.75
    endloop
  endfacet
  facet normal 0 0 1
    outer loop
      vertex -0.792172 -4.74215 2.75
      vertex -0.807254 -4.73776 2.75
      vertex -2.29404 -4.5 2.75
    endloop
  endfacet
  facet normal 0 0 1
    outer loop
      vertex -0.901137 -4.68224 2.75
      vertex -0.912242 -4.67114 2.75
      vertex -2.29404 -4.5 2.75
    endloop
  endfacet
  facet normal 0 0 1
    outer loop
      vertex -0.836445 -4.72621 2.75
      vertex -0.850438 -4.71908 2.75
      vertex -2.29404 -4.5 2.75
    endloop
  endfacet
  facet normal 0 0 1
    outer loop
      vertex -0.850438 -4.71908 2.75
      vertex -0.863957 -4.71108 2.75
      vertex -2.29404 -4.5 2.75
    endloop
  endfacet
  facet normal 0 0 1
    outer loop
      vertex -0.863957 -4.71108 2.75
      vertex -0.876946 -4.70225 2.75
      vertex -2.29404 -4.5 2.75
    endloop
  endfacet
  facet normal 0 0 1
    outer loop
      vertex -0.876946 -4.70225 2.75
      vertex -0.889356 -4.69263 2.75
      vertex -2.29404 -4.5 2.75
    endloop
  endfacet
  facet normal 0 0 1
    outer loop
      vertex -0.889356 -4.69263 2.75
      vertex -0.901137 -4.68224 2.75
      vertex -2.29404 -4.5 2.75
    endloop
  endfacet
  facet normal 0 0 1
    outer loop
      vertex -0.941082 -4.63396 2.75
      vertex -0.949077 -4.62044 2.75
      vertex -2.29404 -4.5 2.75
    endloop
  endfacet
  facet normal 0 0 1
    outer loop
      vertex -0.922628 -4.65936 2.75
      vertex -0.932254 -4.64695 2.75
      vertex -2.29404 -4.5 2.75
    endloop
  endfacet
  facet normal 0 0 1
    outer loop
      vertex -0.932254 -4.64695 2.75
      vertex -0.941082 -4.63396 2.75
      vertex -2.29404 -4.5 2.75
    endloop
  endfacet
  facet normal 0 0 1
    outer loop
      vertex -0.962444 -4.59203 2.75
      vertex -0.967764 -4.57725 2.75
      vertex -2.29404 -4.5 2.75
    endloop
  endfacet
  facet normal 0 0 1
    outer loop
      vertex -0.956207 -4.60644 2.75
      vertex -0.962444 -4.59203 2.75
      vertex -2.29404 -4.5 2.75
    endloop
  endfacet
  facet normal 0 0 1
    outer loop
      vertex -0.975572 -4.54684 2.75
      vertex -0.978029 -4.53133 2.75
      vertex -2.29404 -4.5 2.75
    endloop
  endfacet
  facet normal 0 0 1
    outer loop
      vertex -0.972146 -4.56217 2.75
      vertex -0.975572 -4.54684 2.75
      vertex -2.29404 -4.5 2.75
    endloop
  endfacet
  facet normal 0 0 1
    outer loop
      vertex -0.979507 -4.5157 2.75
      vertex -0.98 -4.5 2.75
      vertex -2.29404 -4.5 2.75
    endloop
  endfacet
  facet normal 0 0 1
    outer loop
      vertex -0.776845 -4.74557 2.75
      vertex -0.792172 -4.74215 2.75
      vertex -2.29404 -4.5 2.75
    endloop
  endfacet
  facet normal 0 0 1
    outer loop
      vertex -0.807254 -4.73776 2.75
      vertex -0.822031 -4.73244 2.75
      vertex -2.29404 -4.5 2.75
    endloop
  endfacet
  facet normal 0.965926 -1.18292e-16 -0.258819
    outer loop
      vertex 0.834044 -4.5 2.75
      vertex -0.637969 -4.73244 -2.74363
      vertex -0.623555 -4.72621 -2.68984
    endloop
  endfacet
  facet normal 0.965926 -1.18292e-16 -0.258819
    outer loop
      vertex -0.596043 -4.71108 -2.58716
      vertex 0.834044 -4.5 2.75
      vertex -0.609562 -4.71908 -2.63761
    endloop
  endfacet
  facet normal 0.965926 -1.18292e-16 -0.258819
    outer loop
      vertex -0.609562 -4.71908 -2.63761
      vertex 0.834044 -4.5 2.75
      vertex -0.623555 -4.72621 -2.68984
    endloop
  endfacet
  facet normal 0.965926 -1.18292e-16 -0.258819
    outer loop
      vertex -0.639676 -4.73306 -2.75
      vertex -0.637969 -4.73244 -2.74363
      vertex 0.834044 -4.5 2.75
    endloop
  endfacet
  facet normal 0.965926 -1.18292e-16 -0.258819
    outer loop
      vertex -0.583054 -4.70225 -2.53868
      vertex 0.834044 -4.5 2.75
      vertex -0.596043 -4.71108 -2.58716
    endloop
  endfacet
  facet normal 0.965926 -1.18292e-16 -0.258819
    outer loop
      vertex -0.570644 -4.69263 -2.49237
      vertex 0.834044 -4.5 2.75
      vertex -0.583054 -4.70225 -2.53868
    endloop
  endfacet
  facet normal 0.965926 -1.18292e-16 -0.258819
    outer loop
      vertex -0.558863 -4.68224 -2.4484
      vertex 0.834044 -4.5 2.75
      vertex -0.570644 -4.69263 -2.49237
    endloop
  endfacet
  facet normal 0.965926 -1.18292e-16 -0.258819
    outer loop
      vertex -0.547758 -4.67114 -2.40696
      vertex 0.834044 -4.5 2.75
      vertex -0.558863 -4.68224 -2.4484
    endloop
  endfacet
  facet normal 0.965926 -1.18292e-16 -0.258819
    outer loop
      vertex -0.537372 -4.65936 -2.3682
      vertex 0.834044 -4.5 2.75
      vertex -0.547758 -4.67114 -2.40696
    endloop
  endfacet
  facet normal 0.965926 -1.18292e-16 -0.258819
    outer loop
      vertex -0.527746 -4.64695 -2.33227
      vertex 0.834044 -4.5 2.75
      vertex -0.537372 -4.65936 -2.3682
    endloop
  endfacet
  facet normal 0.965926 -1.18292e-16 -0.258819
    outer loop
      vertex -0.518918 -4.63396 -2.29932
      vertex 0.834044 -4.5 2.75
      vertex -0.527746 -4.64695 -2.33227
    endloop
  endfacet
  facet normal 0.965926 -1.18292e-16 -0.258819
    outer loop
      vertex -0.510923 -4.62044 -2.26949
      vertex 0.834044 -4.5 2.75
      vertex -0.518918 -4.63396 -2.29932
    endloop
  endfacet
  facet normal 0.965926 -1.18292e-16 -0.258819
    outer loop
      vertex -0.503793 -4.60644 -2.24288
      vertex 0.834044 -4.5 2.75
      vertex -0.510923 -4.62044 -2.26949
    endloop
  endfacet
  facet normal 0.965926 -1.18292e-16 -0.258819
    outer loop
      vertex -0.497556 -4.59203 -2.2196
      vertex 0.834044 -4.5 2.75
      vertex -0.503793 -4.60644 -2.24288
    endloop
  endfacet
  facet normal 0.965926 -1.18292e-16 -0.258819
    outer loop
      vertex -0.492236 -4.57725 -2.19975
      vertex 0.834044 -4.5 2.75
      vertex -0.497556 -4.59203 -2.2196
    endloop
  endfacet
  facet normal 0.965926 -1.18292e-16 -0.258819
    outer loop
      vertex -0.487854 -4.56217 -2.18339
      vertex 0.834044 -4.5 2.75
      vertex -0.492236 -4.57725 -2.19975
    endloop
  endfacet
  facet normal 0.965926 -1.18292e-16 -0.258819
    outer loop
      vertex -0.484428 -4.54684 -2.17061
      vertex 0.834044 -4.5 2.75
      vertex -0.487854 -4.56217 -2.18339
    endloop
  endfacet
  facet normal 0.965926 -1.18292e-16 -0.258819
    outer loop
      vertex -0.481971 -4.53133 -2.16144
      vertex 0.834044 -4.5 2.75
      vertex -0.484428 -4.54684 -2.17061
    endloop
  endfacet
  facet normal 0.965926 -1.18292e-16 -0.258819
    outer loop
      vertex -0.480493 -4.5157 -2.15592
      vertex 0.834044 -4.5 2.75
      vertex -0.481971 -4.53133 -2.16144
    endloop
  endfacet
  facet normal 0.965926 -1.18292e-16 -0.258819
    outer loop
      vertex -0.48 -4.5 -2.15408
      vertex 0.834044 -4.5 2.75
      vertex -0.480493 -4.5157 -2.15592
    endloop
  endfacet
  facet normal 0.965926 -1.18292e-16 -0.258819
    outer loop
      vertex 0.834044 -4.5 2.75
      vertex 0.834044 -5 2.75
      vertex -0.639676 -4.73306 -2.75
    endloop
  endfacet
  facet normal 0.965926 -1.18292e-16 -0.258819
    outer loop
      vertex 0.834044 -5 2.75
      vertex -0.639676 -5 -2.75
      vertex -0.639676 -4.73306 -2.75
    endloop
  endfacet
  facet normal 0 0 -1
    outer loop
      vertex -0.820324 -5 -2.75
      vertex -0.820324 -4.73306 -2.75
      vertex -0.639676 -5 -2.75
    endloop
  endfacet
  facet normal 0 0 -1
    outer loop
      vertex -0.639676 -5 -2.75
      vertex -0.820324 -4.73306 -2.75
      vertex -0.807254 -4.73776 -2.75
    endloop
  endfacet
  facet normal 0 0 -1
    outer loop
      vertex -0.639676 -5 -2.75
      vertex -0.807254 -4.73776 -2.75
      vertex -0.792172 -4.74215 -2.75
    endloop
  endfacet
  facet normal 0 0 -1
    outer loop
      vertex -0.792172 -4.74215 -2.75
      vertex -0.776845 -4.74557 -2.75
      vertex -0.639676 -5 -2.75
    endloop
  endfacet
  facet normal 0 0 -1
    outer loop
      vertex -0.776845 -4.74557 -2.75
      vertex -0.761333 -4.74803 -2.75
      vertex -0.639676 -5 -2.75
    endloop
  endfacet
  facet normal 0 0 -1
    outer loop
      vertex -0.761333 -4.74803 -2.75
      vertex -0.745698 -4.74951 -2.75
      vertex -0.639676 -5 -2.75
    endloop
  endfacet
  facet normal 0 0 -1
    outer loop
      vertex -0.745698 -4.74951 -2.75
      vertex -0.73 -4.75 -2.75
      vertex -0.639676 -5 -2.75
    endloop
  endfacet
  facet normal 0 0 -1
    outer loop
      vertex -0.73 -4.75 -2.75
      vertex -0.714302 -4.74951 -2.75
      vertex -0.639676 -5 -2.75
    endloop
  endfacet
  facet normal 0 0 -1
    outer loop
      vertex -0.714302 -4.74951 -2.75
      vertex -0.698667 -4.74803 -2.75
      vertex -0.639676 -5 -2.75
    endloop
  endfacet
  facet normal 0 0 -1
    outer loop
      vertex -0.698667 -4.74803 -2.75
      vertex -0.683155 -4.74557 -2.75
      vertex -0.639676 -5 -2.75
    endloop
  endfacet
  facet normal 0 0 -1
    outer loop
      vertex -0.683155 -4.74557 -2.75
      vertex -0.667828 -4.74215 -2.75
      vertex -0.639676 -5 -2.75
    endloop
  endfacet
  facet normal 0 0 -1
    outer loop
      vertex -0.667828 -4.74215 -2.75
      vertex -0.652746 -4.73776 -2.75
      vertex -0.639676 -5 -2.75
    endloop
  endfacet
  facet normal 0 0 -1
    outer loop
      vertex -0.652746 -4.73776 -2.75
      vertex -0.639676 -4.73306 -2.75
      vertex -0.639676 -5 -2.75
    endloop
  endfacet
  facet normal 1.22465e-16 1 0
    outer loop
      vertex -0.98 -4.5 -2.15408
      vertex -2.29404 -4.5 2.75
      vertex -0.98 -4.5 2.75
    endloop
  endfacet
  facet normal 0.338735 0.940882 0
    outer loop
      vertex -0.807254 -4.73776 2.75
      vertex -0.807254 -4.73776 -2.75
      vertex -0.822031 -4.73244 2.75
    endloop
  endfacet
  facet normal 0.338735 0.940882 0
    outer loop
      vertex -0.822031 -4.73244 2.75
      vertex -0.807254 -4.73776 -2.75
      vertex -0.820324 -4.73306 -2.75
    endloop
  endfacet
  facet normal 0.338735 0.940882 0
    outer loop
      vertex -0.822031 -4.73244 2.75
      vertex -0.820324 -4.73306 -2.75
      vertex -0.822031 -4.73244 -2.74363
    endloop
  endfacet
  facet normal 0.397121 0.917766 0
    outer loop
      vertex -0.822031 -4.73244 2.75
      vertex -0.822031 -4.73244 -2.74363
      vertex -0.836445 -4.72621 2.75
    endloop
  endfacet
  facet normal 0.397121 0.917766 0
    outer loop
      vertex -0.836445 -4.72621 2.75
      vertex -0.822031 -4.73244 -2.74363
      vertex -0.836445 -4.72621 -2.68984
    endloop
  endfacet
  facet normal 0.454001 0.891001 0
    outer loop
      vertex -0.836445 -4.72621 2.75
      vertex -0.836445 -4.72621 -2.68984
      vertex -0.850438 -4.71908 2.75
    endloop
  endfacet
  facet normal 0.454001 0.891001 0
    outer loop
      vertex -0.850438 -4.71908 2.75
      vertex -0.836445 -4.72621 -2.68984
      vertex -0.850438 -4.71908 -2.63761
    endloop
  endfacet
  facet normal 0.509036 0.860745 0
    outer loop
      vertex -0.850438 -4.71908 2.75
      vertex -0.850438 -4.71908 -2.63761
      vertex -0.863957 -4.71108 2.75
    endloop
  endfacet
  facet normal 0.509036 0.860745 0
    outer loop
      vertex -0.863957 -4.71108 2.75
      vertex -0.850438 -4.71908 -2.63761
      vertex -0.863957 -4.71108 -2.58716
    endloop
  endfacet
  facet normal 0.562113 0.82706 0
    outer loop
      vertex -0.863957 -4.71108 2.75
      vertex -0.863957 -4.71108 -2.58716
      vertex -0.876946 -4.70225 2.75
    endloop
  endfacet
  facet normal 0.562113 0.82706 0
    outer loop
      vertex -0.876946 -4.70225 2.75
      vertex -0.863957 -4.71108 -2.58716
      vertex -0.876946 -4.70225 -2.53868
    endloop
  endfacet
  facet normal 0.6129 0.790161 0
    outer loop
      vertex -0.876946 -4.70225 2.75
      vertex -0.876946 -4.70225 -2.53868
      vertex -0.889356 -4.69263 2.75
    endloop
  endfacet
  facet normal 0.6129 0.790161 0
    outer loop
      vertex -0.889356 -4.69263 2.75
      vertex -0.876946 -4.70225 -2.53868
      vertex -0.889356 -4.69263 -2.49237
    endloop
  endfacet
  facet normal 0.661299 0.750122 0
    outer loop
      vertex -0.889356 -4.69263 2.75
      vertex -0.889356 -4.69263 -2.49237
      vertex -0.901137 -4.68224 2.75
    endloop
  endfacet
  facet normal 0.661299 0.750122 0
    outer loop
      vertex -0.901137 -4.68224 2.75
      vertex -0.889356 -4.69263 -2.49237
      vertex -0.901137 -4.68224 -2.4484
    endloop
  endfacet
  facet normal 0.707107 0.707107 0
    outer loop
      vertex -0.912242 -4.67114 2.75
      vertex -0.901137 -4.68224 2.75
      vertex -0.901137 -4.68224 -2.4484
    endloop
  endfacet
  facet normal 0.707107 0.707107 0
    outer loop
      vertex -0.912242 -4.67114 -2.40696
      vertex -0.912242 -4.67114 2.75
      vertex -0.901137 -4.68224 -2.4484
    endloop
  endfacet
  facet normal 0.750122 0.661299 0
    outer loop
      vertex -0.922628 -4.65936 2.75
      vertex -0.912242 -4.67114 2.75
      vertex -0.912242 -4.67114 -2.40696
    endloop
  endfacet
  facet normal 0.750122 0.661299 0
    outer loop
      vertex -0.922628 -4.65936 -2.3682
      vertex -0.922628 -4.65936 2.75
      vertex -0.912242 -4.67114 -2.40696
    endloop
  endfacet
  facet normal 0.790161 0.6129 0
    outer loop
      vertex -0.932254 -4.64695 2.75
      vertex -0.922628 -4.65936 2.75
      vertex -0.922628 -4.65936 -2.3682
    endloop
  endfacet
  facet normal 0.790161 0.6129 0
    outer loop
      vertex -0.932254 -4.64695 -2.33227
      vertex -0.932254 -4.64695 2.75
      vertex -0.922628 -4.65936 -2.3682
    endloop
  endfacet
  facet normal 0.82706 0.562113 0
    outer loop
      vertex -0.941082 -4.63396 2.75
      vertex -0.932254 -4.64695 2.75
      vertex -0.932254 -4.64695 -2.33227
    endloop
  endfacet
  facet normal 0.82706 0.562113 0
    outer loop
      vertex -0.941082 -4.63396 -2.29932
      vertex -0.941082 -4.63396 2.75
      vertex -0.932254 -4.64695 -2.33227
    endloop
  endfacet
  facet normal 0.860745 0.509036 0
    outer loop
      vertex -0.949077 -4.62044 2.75
      vertex -0.941082 -4.63396 2.75
      vertex -0.941082 -4.63396 -2.29932
    endloop
  endfacet
  facet normal 0.860745 0.509036 0
    outer loop
      vertex -0.949077 -4.62044 -2.26949
      vertex -0.949077 -4.62044 2.75
      vertex -0.941082 -4.63396 -2.29932
    endloop
  endfacet
  facet normal 0.891001 0.454001 0
    outer loop
      vertex -0.956207 -4.60644 2.75
      vertex -0.949077 -4.62044 2.75
      vertex -0.949077 -4.62044 -2.26949
    endloop
  endfacet
  facet normal 0.891001 0.454001 0
    outer loop
      vertex -0.956207 -4.60644 -2.24288
      vertex -0.956207 -4.60644 2.75
      vertex -0.949077 -4.62044 -2.26949
    endloop
  endfacet
  facet normal 0.917766 0.397121 0
    outer loop
      vertex -0.962444 -4.59203 2.75
      vertex -0.956207 -4.60644 2.75
      vertex -0.956207 -4.60644 -2.24288
    endloop
  endfacet
  facet normal 0.917766 0.397121 0
    outer loop
      vertex -0.962444 -4.59203 -2.2196
      vertex -0.962444 -4.59203 2.75
      vertex -0.956207 -4.60644 -2.24288
    endloop
  endfacet
  facet normal 0.940882 0.338735 0
    outer loop
      vertex -0.967764 -4.57725 2.75
      vertex -0.962444 -4.59203 2.75
      vertex -0.962444 -4.59203 -2.2196
    endloop
  endfacet
  facet normal 0.940882 0.338735 0
    outer loop
      vertex -0.967764 -4.57725 -2.19975
      vertex -0.967764 -4.57725 2.75
      vertex -0.962444 -4.59203 -2.2196
    endloop
  endfacet
  facet normal 0.960289 0.279007 0
    outer loop
      vertex -0.972146 -4.56217 2.75
      vertex -0.967764 -4.57725 2.75
      vertex -0.967764 -4.57725 -2.19975
    endloop
  endfacet
  facet normal 0.960289 0.279007 0
    outer loop
      vertex -0.972146 -4.56217 -2.18339
      vertex -0.972146 -4.56217 2.75
      vertex -0.967764 -4.57725 -2.19975
    endloop
  endfacet
  facet normal 0.975917 0.218144 0
    outer loop
      vertex -0.975572 -4.54684 2.75
      vertex -0.972146 -4.56217 2.75
      vertex -0.972146 -4.56217 -2.18339
    endloop
  endfacet
  facet normal 0.975917 0.218144 0
    outer loop
      vertex -0.975572 -4.54684 -2.17061
      vertex -0.975572 -4.54684 2.75
      vertex -0.972146 -4.56217 -2.18339
    endloop
  endfacet
  facet normal 0.987687 0.156443 0
    outer loop
      vertex -0.978029 -4.53133 2.75
      vertex -0.975572 -4.54684 2.75
      vertex -0.975572 -4.54684 -2.17061
    endloop
  endfacet
  facet normal 0.987687 0.156443 0
    outer loop
      vertex -0.978029 -4.53133 -2.16144
      vertex -0.978029 -4.53133 2.75
      vertex -0.975572 -4.54684 -2.17061
    endloop
  endfacet
  facet normal 0.995562 0.0941119 0
    outer loop
      vertex -0.979507 -4.5157 2.75
      vertex -0.978029 -4.53133 2.75
      vertex -0.978029 -4.53133 -2.16144
    endloop
  endfacet
  facet normal 0.995562 0.0941119 0
    outer loop
      vertex -0.979507 -4.5157 -2.15592
      vertex -0.979507 -4.5157 2.75
      vertex -0.978029 -4.53133 -2.16144
    endloop
  endfacet
  facet normal 0.999507 0.0313898 0
    outer loop
      vertex -0.98 -4.5 2.75
      vertex -0.979507 -4.5157 2.75
      vertex -0.979507 -4.5157 -2.15592
    endloop
  endfacet
  facet normal 0.999507 0.0313898 0
    outer loop
      vertex -0.98 -4.5 -2.15408
      vertex -0.98 -4.5 2.75
      vertex -0.979507 -4.5157 -2.15592
    endloop
  endfacet
  facet normal 0.279007 0.960289 0
    outer loop
      vertex -0.792172 -4.74215 2.75
      vertex -0.792172 -4.74215 -2.75
      vertex -0.807254 -4.73776 2.75
    endloop
  endfacet
  facet normal 0.279007 0.960289 0
    outer loop
      vertex -0.807254 -4.73776 2.75
      vertex -0.792172 -4.74215 -2.75
      vertex -0.807254 -4.73776 -2.75
    endloop
  endfacet
  facet normal 0.218144 0.975917 0
    outer loop
      vertex -0.776845 -4.74557 2.75
      vertex -0.776845 -4.74557 -2.75
      vertex -0.792172 -4.74215 2.75
    endloop
  endfacet
  facet normal 0.218144 0.975917 0
    outer loop
      vertex -0.792172 -4.74215 2.75
      vertex -0.776845 -4.74557 -2.75
      vertex -0.792172 -4.74215 -2.75
    endloop
  endfacet
  facet normal 0.156443 0.987687 0
    outer loop
      vertex -0.761333 -4.74803 2.75
      vertex -0.761333 -4.74803 -2.75
      vertex -0.776845 -4.74557 2.75
    endloop
  endfacet
  facet normal 0.156443 0.987687 0
    outer loop
      vertex -0.776845 -4.74557 2.75
      vertex -0.761333 -4.74803 -2.75
      vertex -0.776845 -4.74557 -2.75
    endloop
  endfacet
  facet normal 0.0941119 0.995562 0
    outer loop
      vertex -0.745698 -4.74951 2.75
      vertex -0.745698 -4.74951 -2.75
      vertex -0.761333 -4.74803 2.75
    endloop
  endfacet
  facet normal 0.0941119 0.995562 0
    outer loop
      vertex -0.761333 -4.74803 2.75
      vertex -0.745698 -4.74951 -2.75
      vertex -0.761333 -4.74803 -2.75
    endloop
  endfacet
  facet normal 0.0313898 0.999507 0
    outer loop
      vertex -0.73 -4.75 2.75
      vertex -0.73 -4.75 -2.75
      vertex -0.745698 -4.74951 2.75
    endloop
  endfacet
  facet normal 0.0313898 0.999507 0
    outer loop
      vertex -0.745698 -4.74951 2.75
      vertex -0.73 -4.75 -2.75
      vertex -0.745698 -4.74951 -2.75
    endloop
  endfacet
  facet normal -0.0313898 0.999507 0
    outer loop
      vertex -0.714302 -4.74951 2.75
      vertex -0.714302 -4.74951 -2.75
      vertex -0.73 -4.75 2.75
    endloop
  endfacet
  facet normal -0.0313898 0.999507 0
    outer loop
      vertex -0.73 -4.75 2.75
      vertex -0.714302 -4.74951 -2.75
      vertex -0.73 -4.75 -2.75
    endloop
  endfacet
  facet normal -0.0941119 0.995562 0
    outer loop
      vertex -0.698667 -4.74803 2.75
      vertex -0.698667 -4.74803 -2.75
      vertex -0.714302 -4.74951 2.75
    endloop
  endfacet
  facet normal -0.0941119 0.995562 0
    outer loop
      vertex -0.714302 -4.74951 2.75
      vertex -0.698667 -4.74803 -2.75
      vertex -0.714302 -4.74951 -2.75
    endloop
  endfacet
  facet normal -0.156443 0.987687 0
    outer loop
      vertex -0.683155 -4.74557 2.75
      vertex -0.683155 -4.74557 -2.75
      vertex -0.698667 -4.74803 2.75
    endloop
  endfacet
  facet normal -0.156443 0.987687 0
    outer loop
      vertex -0.698667 -4.74803 2.75
      vertex -0.683155 -4.74557 -2.75
      vertex -0.698667 -4.74803 -2.75
    endloop
  endfacet
  facet normal -0.218144 0.975917 0
    outer loop
      vertex -0.667828 -4.74215 2.75
      vertex -0.667828 -4.74215 -2.75
      vertex -0.683155 -4.74557 2.75
    endloop
  endfacet
  facet normal -0.218144 0.975917 0
    outer loop
      vertex -0.683155 -4.74557 2.75
      vertex -0.667828 -4.74215 -2.75
      vertex -0.683155 -4.74557 -2.75
    endloop
  endfacet
  facet normal -0.279007 0.960289 0
    outer loop
      vertex -0.652746 -4.73776 2.75
      vertex -0.652746 -4.73776 -2.75
      vertex -0.667828 -4.74215 2.75
    endloop
  endfacet
  facet normal -0.279007 0.960289 0
    outer loop
      vertex -0.667828 -4.74215 2.75
      vertex -0.652746 -4.73776 -2.75
      vertex -0.667828 -4.74215 -2.75
    endloop
  endfacet
  facet normal -0.338735 0.940882 0
    outer loop
      vertex -0.637969 -4.73244 2.75
      vertex -0.637969 -4.73244 -2.74363
      vertex -0.652746 -4.73776 2.75
    endloop
  endfacet
  facet normal -0.338735 0.940882 0
    outer loop
      vertex -0.652746 -4.73776 2.75
      vertex -0.637969 -4.73244 -2.74363
      vertex -0.639676 -4.73306 -2.75
    endloop
  endfacet
  facet normal -0.338735 0.940882 0
    outer loop
      vertex -0.652746 -4.73776 2.75
      vertex -0.639676 -4.73306 -2.75
      vertex -0.652746 -4.73776 -2.75
    endloop
  endfacet
  facet normal -0.397121 0.917766 0
    outer loop
      vertex -0.623555 -4.72621 2.75
      vertex -0.623555 -4.72621 -2.68984
      vertex -0.637969 -4.73244 2.75
    endloop
  endfacet
  facet normal -0.397121 0.917766 0
    outer loop
      vertex -0.637969 -4.73244 2.75
      vertex -0.623555 -4.72621 -2.68984
      vertex -0.637969 -4.73244 -2.74363
    endloop
  endfacet
  facet normal -0.454001 0.891001 0
    outer loop
      vertex -0.609562 -4.71908 2.75
      vertex -0.609562 -4.71908 -2.63761
      vertex -0.623555 -4.72621 2.75
    endloop
  endfacet
  facet normal -0.454001 0.891001 0
    outer loop
      vertex -0.623555 -4.72621 2.75
      vertex -0.609562 -4.71908 -2.63761
      vertex -0.623555 -4.72621 -2.68984
    endloop
  endfacet
  facet normal -0.509036 0.860745 0
    outer loop
      vertex -0.596043 -4.71108 2.75
      vertex -0.596043 -4.71108 -2.58716
      vertex -0.609562 -4.71908 2.75
    endloop
  endfacet
  facet normal -0.509036 0.860745 0
    outer loop
      vertex -0.609562 -4.71908 2.75
      vertex -0.596043 -4.71108 -2.58716
      vertex -0.609562 -4.71908 -2.63761
    endloop
  endfacet
  facet normal -0.562113 0.82706 0
    outer loop
      vertex -0.583054 -4.70225 2.75
      vertex -0.583054 -4.70225 -2.53868
      vertex -0.596043 -4.71108 2.75
    endloop
  endfacet
  facet normal -0.562113 0.82706 0
    outer loop
      vertex -0.596043 -4.71108 2.75
      vertex -0.583054 -4.70225 -2.53868
      vertex -0.596043 -4.71108 -2.58716
    endloop
  endfacet
  facet normal -0.6129 0.790161 0
    outer loop
      vertex -0.570644 -4.69263 2.75
      vertex -0.570644 -4.69263 -2.49237
      vertex -0.583054 -4.70225 2.75
    endloop
  endfacet
  facet normal -0.6129 0.790161 0
    outer loop
      vertex -0.583054 -4.70225 2.75
      vertex -0.570644 -4.69263 -2.49237
      vertex -0.583054 -4.70225 -2.53868
    endloop
  endfacet
  facet normal -0.661299 0.750122 0
    outer loop
      vertex -0.558863 -4.68224 2.75
      vertex -0.558863 -4.68224 -2.4484
      vertex -0.570644 -4.69263 2.75
    endloop
  endfacet
  facet normal -0.661299 0.750122 0
    outer loop
      vertex -0.570644 -4.69263 2.75
      vertex -0.558863 -4.68224 -2.4484
      vertex -0.570644 -4.69263 -2.49237
    endloop
  endfacet
  facet normal -0.707107 0.707107 0
    outer loop
      vertex -0.547758 -4.67114 2.75
      vertex -0.547758 -4.67114 -2.40696
      vertex -0.558863 -4.68224 2.75
    endloop
  endfacet
  facet normal -0.707107 0.707107 0
    outer loop
      vertex -0.558863 -4.68224 2.75
      vertex -0.547758 -4.67114 -2.40696
      vertex -0.558863 -4.68224 -2.4484
    endloop
  endfacet
  facet normal -0.750122 0.661299 0
    outer loop
      vertex -0.537372 -4.65936 2.75
      vertex -0.537372 -4.65936 -2.3682
      vertex -0.547758 -4.67114 2.75
    endloop
  endfacet
  facet normal -0.750122 0.661299 0
    outer loop
      vertex -0.547758 -4.67114 2.75
      vertex -0.537372 -4.65936 -2.3682
      vertex -0.547758 -4.67114 -2.40696
    endloop
  endfacet
  facet normal -0.790161 0.6129 0
    outer loop
      vertex -0.527746 -4.64695 2.75
      vertex -0.527746 -4.64695 -2.33227
      vertex -0.537372 -4.65936 2.75
    endloop
  endfacet
  facet normal -0.790161 0.6129 0
    outer loop
      vertex -0.537372 -4.65936 2.75
      vertex -0.527746 -4.64695 -2.33227
      vertex -0.537372 -4.65936 -2.3682
    endloop
  endfacet
  facet normal -0.82706 0.562113 0
    outer loop
      vertex -0.518918 -4.63396 2.75
      vertex -0.518918 -4.63396 -2.29932
      vertex -0.527746 -4.64695 2.75
    endloop
  endfacet
  facet normal -0.82706 0.562113 0
    outer loop
      vertex -0.527746 -4.64695 2.75
      vertex -0.518918 -4.63396 -2.29932
      vertex -0.527746 -4.64695 -2.33227
    endloop
  endfacet
  facet normal -0.860745 0.509036 0
    outer loop
      vertex -0.510923 -4.62044 2.75
      vertex -0.510923 -4.62044 -2.26949
      vertex -0.518918 -4.63396 2.75
    endloop
  endfacet
  facet normal -0.860745 0.509036 0
    outer loop
      vertex -0.518918 -4.63396 2.75
      vertex -0.510923 -4.62044 -2.26949
      vertex -0.518918 -4.63396 -2.29932
    endloop
  endfacet
  facet normal -0.891001 0.454001 0
    outer loop
      vertex -0.503793 -4.60644 2.75
      vertex -0.503793 -4.60644 -2.24288
      vertex -0.510923 -4.62044 2.75
    endloop
  endfacet
  facet normal -0.891001 0.454001 0
    outer loop
      vertex -0.510923 -4.62044 2.75
      vertex -0.503793 -4.60644 -2.24288
      vertex -0.510923 -4.62044 -2.26949
    endloop
  endfacet
  facet normal -0.917766 0.397121 0
    outer loop
      vertex -0.497556 -4.59203 2.75
      vertex -0.497556 -4.59203 -2.2196
      vertex -0.503793 -4.60644 2.75
    endloop
  endfacet
  facet normal -0.917766 0.397121 0
    outer loop
      vertex -0.503793 -4.60644 2.75
      vertex -0.497556 -4.59203 -2.2196
      vertex -0.503793 -4.60644 -2.24288
    endloop
  endfacet
  facet normal -0.940882 0.338735 0
    outer loop
      vertex -0.492236 -4.57725 2.75
      vertex -0.492236 -4.57725 -2.19975
      vertex -0.497556 -4.59203 2.75
    endloop
  endfacet
  facet normal -0.940882 0.338735 0
    outer loop
      vertex -0.497556 -4.59203 2.75
      vertex -0.492236 -4.57725 -2.19975
      vertex -0.497556 -4.59203 -2.2196
    endloop
  endfacet
  facet normal -0.960289 0.279007 0
    outer loop
      vertex -0.487854 -4.56217 2.75
      vertex -0.487854 -4.56217 -2.18339
      vertex -0.492236 -4.57725 2.75
    endloop
  endfacet
  facet normal -0.960289 0.279007 0
    outer loop
      vertex -0.492236 -4.57725 2.75
      vertex -0.487854 -4.56217 -2.18339
      vertex -0.492236 -4.57725 -2.19975
    endloop
  endfacet
  facet normal -0.975917 0.218144 0
    outer loop
      vertex -0.484428 -4.54684 2.75
      vertex -0.484428 -4.54684 -2.17061
      vertex -0.487854 -4.56217 2.75
    endloop
  endfacet
  facet normal -0.975917 0.218144 0
    outer loop
      vertex -0.487854 -4.56217 2.75
      vertex -0.484428 -4.54684 -2.17061
      vertex -0.487854 -4.56217 -2.18339
    endloop
  endfacet
  facet normal -0.987687 0.156443 0
    outer loop
      vertex -0.481971 -4.53133 2.75
      vertex -0.481971 -4.53133 -2.16144
      vertex -0.484428 -4.54684 2.75
    endloop
  endfacet
  facet normal -0.987687 0.156443 0
    outer loop
      vertex -0.484428 -4.54684 2.75
      vertex -0.481971 -4.53133 -2.16144
      vertex -0.484428 -4.54684 -2.17061
    endloop
  endfacet
  facet normal -0.995562 0.0941119 0
    outer loop
      vertex -0.480493 -4.5157 2.75
      vertex -0.480493 -4.5157 -2.15592
      vertex -0.481971 -4.53133 2.75
    endloop
  endfacet
  facet normal -0.995562 0.0941119 0
    outer loop
      vertex -0.481971 -4.53133 2.75
      vertex -0.480493 -4.5157 -2.15592
      vertex -0.481971 -4.53133 -2.16144
    endloop
  endfacet
  facet normal -0.999507 0.0313898 0
    outer loop
      vertex -0.48 -4.5 2.75
      vertex -0.48 -4.5 -2.15408
      vertex -0.480493 -4.5157 2.75
    endloop
  endfacet
  facet normal -0.999507 0.0313898 0
    outer loop
      vertex -0.480493 -4.5157 2.75
      vertex -0.48 -4.5 -2.15408
      vertex -0.480493 -4.5157 -2.15592
    endloop
  endfacet
  facet normal 1.22465e-16 1 0
    outer loop
      vertex 0.834044 -4.5 2.75
      vertex -0.48 -4.5 -2.15408
      vertex -0.48 -4.5 2.75
    endloop
  endfacet
endsolid OpenSCAD_Model
