solid OpenSCAD_Model
  facet normal -2.22045e-16 -1 -2.54072e-33
    outer loop
      vertex 0 -2.99 4.5
      vertex -3 -2.99 4.5
      vertex -3 -2.99 2.5
    endloop
  endfacet
  facet normal -2.22045e-16 -1 -2.54072e-33
    outer loop
      vertex 2.44929e-16 -2.99 2.5
      vertex 0 -2.99 4.5
      vertex -3 -2.99 2.5
    endloop
  endfacet
  facet normal -1 2.22045e-16 -1.22465e-16
    outer loop
      vertex -3 -2.99 4.5
      vertex -3 5.91 4.5
      vertex -3 -2.99 2.5
    endloop
  endfacet
  facet normal -1 2.22045e-16 -1.22465e-16
    outer loop
      vertex -3 -2.99 2.5
      vertex -3 5.91 4.5
      vertex -3 5.91 2.5
    endloop
  endfacet
  facet normal -1.22465e-16 2.71926e-32 1
    outer loop
      vertex -2.55 -2.24833 4.5
      vertex -3 -2.99 4.5
      vertex 0 -2.99 4.5
    endloop
  endfacet
  facet normal -1.22465e-16 2.71926e-32 1
    outer loop
      vertex -0.85 -2.24833 4.5
      vertex -2.55 -2.24833 4.5
      vertex 0 -2.99 4.5
    endloop
  endfacet
  facet normal -1.22465e-16 2.71926e-32 1
    outer loop
      vertex -3 5.91 4.5
      vertex -3 -2.99 4.5
      vertex -2.55 -2.24833 4.5
    endloop
  endfacet
  facet normal -1.22465e-16 2.71926e-32 1
    outer loop
      vertex -0.85 3.685 4.5
      vertex -2.55 3.685 4.5
      vertex -0.85 2.41833 4.5
    endloop
  endfacet
  facet normal -1.22465e-16 2.71926e-32 1
    outer loop
      vertex -3 5.91 4.5
      vertex -2.55 -2.24833 4.5
      vertex -2.55 -0.548333 4.5
    endloop
  endfacet
  facet normal -1.22465e-16 2.71926e-32 1
    outer loop
      vertex -2.55 0.718333 4.5
      vertex -2.55 -0.548333 4.5
      vertex -0.85 -0.548333 4.5
    endloop
  endfacet
  facet normal -1.22465e-16 2.71926e-32 1
    outer loop
      vertex -3 5.91 4.5
      vertex -2.55 -0.548333 4.5
      vertex -2.55 0.718333 4.5
    endloop
  endfacet
  facet normal -1.22465e-16 2.71926e-32 1
    outer loop
      vertex -3 5.91 4.5
      vertex -2.55 0.718333 4.5
      vertex -2.55 2.41833 4.5
    endloop
  endfacet
  facet normal -1.22465e-16 2.71926e-32 1
    outer loop
      vertex 1.9762e-15 5.91 4.5
      vertex -0.85 2.41833 4.5
      vertex 0 -2.99 4.5
    endloop
  endfacet
  facet normal -1.22465e-16 2.71926e-32 1
    outer loop
      vertex -0.85 2.41833 4.5
      vertex -0.85 0.718333 4.5
      vertex 0 -2.99 4.5
    endloop
  endfacet
  facet normal -1.22465e-16 2.71926e-32 1
    outer loop
      vertex -2.55 3.685 4.5
      vertex -2.55 5.385 4.5
      vertex -3 5.91 4.5
    endloop
  endfacet
  facet normal -1.22465e-16 2.71926e-32 1
    outer loop
      vertex -2.55 2.41833 4.5
      vertex -0.85 2.41833 4.5
      vertex -2.55 3.685 4.5
    endloop
  endfacet
  facet normal -1.22465e-16 2.71926e-32 1
    outer loop
      vertex -3 5.91 4.5
      vertex -2.55 2.41833 4.5
      vertex -2.55 3.685 4.5
    endloop
  endfacet
  facet normal -1.22465e-16 2.71926e-32 1
    outer loop
      vertex 1.9762e-15 5.91 4.5
      vertex -3 5.91 4.5
      vertex -2.55 5.385 4.5
    endloop
  endfacet
  facet normal -1.22465e-16 2.71926e-32 1
    outer loop
      vertex 1.9762e-15 5.91 4.5
      vertex -2.55 5.385 4.5
      vertex -0.85 5.385 4.5
    endloop
  endfacet
  facet normal -1.22465e-16 2.71926e-32 1
    outer loop
      vertex 1.9762e-15 5.91 4.5
      vertex -0.85 3.685 4.5
      vertex -0.85 2.41833 4.5
    endloop
  endfacet
  facet normal -1.22465e-16 2.71926e-32 1
    outer loop
      vertex 1.9762e-15 5.91 4.5
      vertex -0.85 5.385 4.5
      vertex -0.85 3.685 4.5
    endloop
  endfacet
  facet normal -1.22465e-16 2.71926e-32 1
    outer loop
      vertex -0.85 -0.548333 4.5
      vertex -0.85 -2.24833 4.5
      vertex 0 -2.99 4.5
    endloop
  endfacet
  facet normal -1.22465e-16 2.71926e-32 1
    outer loop
      vertex -0.85 0.718333 4.5
      vertex -0.85 -0.548333 4.5
      vertex 0 -2.99 4.5
    endloop
  endfacet
  facet normal -1.22465e-16 2.71926e-32 1
    outer loop
      vertex -0.85 0.718333 4.5
      vertex -2.55 0.718333 4.5
      vertex -0.85 -0.548333 4.5
    endloop
  endfacet
  facet normal 1 -2.22045e-16 1.22465e-16
    outer loop
      vertex 1.92904e-31 -2.99 4.5
      vertex 0 -2.99 4.5
      vertex 2.44929e-16 -2.99 2.5
    endloop
  endfacet
  facet normal 1 -2.22045e-16 1.22465e-16
    outer loop
      vertex 1.9762e-15 5.91 4.5
      vertex 0 -2.99 4.5
      vertex 1.92904e-31 -2.99 4.5
    endloop
  endfacet
  facet normal 1 -2.22045e-16 1.22465e-16
    outer loop
      vertex 1.75193e-15 4.9 4.5
      vertex 1.99686e-15 4.9 2.5
      vertex 1.9762e-15 5.91 4.5
    endloop
  endfacet
  facet normal 1 -2.22045e-16 1.22465e-16
    outer loop
      vertex 1.9762e-15 5.91 4.5
      vertex 1.92904e-31 -2.99 4.5
      vertex 1.75193e-15 4.9 4.5
    endloop
  endfacet
  facet normal 1 -2.22045e-16 1.22465e-16
    outer loop
      vertex 2.22113e-15 5.91 2.5
      vertex 1.9762e-15 5.91 4.5
      vertex 1.99686e-15 4.9 2.5
    endloop
  endfacet
  facet normal 1.22465e-16 -2.71926e-32 -1
    outer loop
      vertex -0.85 5.385 2.5
      vertex -3 5.91 2.5
      vertex 2.22113e-15 5.91 2.5
    endloop
  endfacet
  facet normal 1.22465e-16 -2.71926e-32 -1
    outer loop
      vertex -2.55 3.685 2.5
      vertex -3 5.91 2.5
      vertex -2.55 5.385 2.5
    endloop
  endfacet
  facet normal 1.22465e-16 -2.71926e-32 -1
    outer loop
      vertex -3 -2.99 2.5
      vertex 0 -2.99 2.5
      vertex 2.44929e-16 -2.99 2.5
    endloop
  endfacet
  facet normal 1.22465e-16 -2.71926e-32 -1
    outer loop
      vertex -0.85 -0.548333 2.5
      vertex 0 -2.99 2.5
      vertex -0.85 -2.24833 2.5
    endloop
  endfacet
  facet normal 1.22465e-16 -2.71926e-32 -1
    outer loop
      vertex -3 -2.99 2.5
      vertex -3 5.91 2.5
      vertex -2.55 -0.548333 2.5
    endloop
  endfacet
  facet normal 1.22465e-16 -2.71926e-32 -1
    outer loop
      vertex -2.55 2.41833 2.5
      vertex -2.55 3.685 2.5
      vertex -0.85 2.41833 2.5
    endloop
  endfacet
  facet normal 1.22465e-16 -2.71926e-32 -1
    outer loop
      vertex -3 -2.99 2.5
      vertex -2.55 -0.548333 2.5
      vertex -2.55 -2.24833 2.5
    endloop
  endfacet
  facet normal 1.22465e-16 -2.71926e-32 -1
    outer loop
      vertex -3 -2.99 2.5
      vertex -2.55 -2.24833 2.5
      vertex 0 -2.99 2.5
    endloop
  endfacet
  facet normal 1.22465e-16 -2.71926e-32 -1
    outer loop
      vertex -2.55 -2.24833 2.5
      vertex -0.85 -2.24833 2.5
      vertex 0 -2.99 2.5
    endloop
  endfacet
  facet normal 1.22465e-16 -2.71926e-32 -1
    outer loop
      vertex -0.85 3.685 2.5
      vertex -0.85 2.41833 2.5
      vertex -2.55 3.685 2.5
    endloop
  endfacet
  facet normal 1.22465e-16 -2.71926e-32 -1
    outer loop
      vertex -2.55 0.718333 2.5
      vertex -3 5.91 2.5
      vertex -2.55 2.41833 2.5
    endloop
  endfacet
  facet normal 1.22465e-16 -2.71926e-32 -1
    outer loop
      vertex -0.85 5.385 2.5
      vertex 1.99686e-15 4.9 2.5
      vertex 0 4.9 2.5
    endloop
  endfacet
  facet normal 1.22465e-16 -2.71926e-32 -1
    outer loop
      vertex -2.55 -0.548333 2.5
      vertex -3 5.91 2.5
      vertex -2.55 0.718333 2.5
    endloop
  endfacet
  facet normal 1.22465e-16 -2.71926e-32 -1
    outer loop
      vertex -2.55 -0.548333 2.5
      vertex -2.55 0.718333 2.5
      vertex -0.85 -0.548333 2.5
    endloop
  endfacet
  facet normal 1.22465e-16 -2.71926e-32 -1
    outer loop
      vertex -0.85 0.718333 2.5
      vertex 0 -2.99 2.5
      vertex -0.85 -0.548333 2.5
    endloop
  endfacet
  facet normal 1.22465e-16 -2.71926e-32 -1
    outer loop
      vertex -0.85 0.718333 2.5
      vertex -0.85 2.41833 2.5
      vertex 0 4.9 2.5
    endloop
  endfacet
  facet normal 1.22465e-16 -2.71926e-32 -1
    outer loop
      vertex -2.55 2.41833 2.5
      vertex -3 5.91 2.5
      vertex -2.55 3.685 2.5
    endloop
  endfacet
  facet normal 1.22465e-16 -2.71926e-32 -1
    outer loop
      vertex -0.85 0.718333 2.5
      vertex -0.85 -0.548333 2.5
      vertex -2.55 0.718333 2.5
    endloop
  endfacet
  facet normal 1.22465e-16 -2.71926e-32 -1
    outer loop
      vertex -0.85 5.385 2.5
      vertex 0 4.9 2.5
      vertex -0.85 3.685 2.5
    endloop
  endfacet
  facet normal 1.22465e-16 -2.71926e-32 -1
    outer loop
      vertex -0.85 2.41833 2.5
      vertex -0.85 3.685 2.5
      vertex 0 4.9 2.5
    endloop
  endfacet
  facet normal 1.22465e-16 -2.71926e-32 -1
    outer loop
      vertex 1.99686e-15 4.9 2.5
      vertex -0.85 5.385 2.5
      vertex 2.22113e-15 5.91 2.5
    endloop
  endfacet
  facet normal 1.22465e-16 -2.71926e-32 -1
    outer loop
      vertex 0 -2.99 2.5
      vertex -0.85 0.718333 2.5
      vertex 0 4.9 2.5
    endloop
  endfacet
  facet normal 1.22465e-16 -2.71926e-32 -1
    outer loop
      vertex -2.55 5.385 2.5
      vertex -3 5.91 2.5
      vertex -0.85 5.385 2.5
    endloop
  endfacet
  facet normal 2.22045e-16 1 2.54072e-33
    outer loop
      vertex -3 5.91 4.5
      vertex 1.9762e-15 5.91 4.5
      vertex -3 5.91 2.5
    endloop
  endfacet
  facet normal 2.22045e-16 1 2.54072e-33
    outer loop
      vertex -3 5.91 2.5
      vertex 1.9762e-15 5.91 4.5
      vertex 2.22113e-15 5.91 2.5
    endloop
  endfacet
  facet normal 2.22045e-16 1 2.54072e-33
    outer loop
      vertex -0.85 -2.24833 2.5
      vertex -2.55 -2.24833 2.5
      vertex -0.85 -2.24833 4.5
    endloop
  endfacet
  facet normal 2.22045e-16 1 2.54072e-33
    outer loop
      vertex -0.85 -2.24833 4.5
      vertex -2.55 -2.24833 2.5
      vertex -2.55 -2.24833 4.5
    endloop
  endfacet
  facet normal 1 -2.22045e-16 1.22465e-16
    outer loop
      vertex -2.55 -2.24833 2.5
      vertex -2.55 -0.548333 2.5
      vertex -2.55 -0.548333 4.5
    endloop
  endfacet
  facet normal 1 -2.22045e-16 1.22465e-16
    outer loop
      vertex -2.55 -2.24833 4.5
      vertex -2.55 -2.24833 2.5
      vertex -2.55 -0.548333 4.5
    endloop
  endfacet
  facet normal -1 2.22045e-16 -1.22465e-16
    outer loop
      vertex -0.85 -0.548333 2.5
      vertex -0.85 -2.24833 2.5
      vertex -0.85 -0.548333 4.5
    endloop
  endfacet
  facet normal -1 2.22045e-16 -1.22465e-16
    outer loop
      vertex -0.85 -0.548333 4.5
      vertex -0.85 -2.24833 2.5
      vertex -0.85 -2.24833 4.5
    endloop
  endfacet
  facet normal -2.22045e-16 -1 -2.54072e-33
    outer loop
      vertex -2.55 -0.548333 2.5
      vertex -0.85 -0.548333 2.5
      vertex -0.85 -0.548333 4.5
    endloop
  endfacet
  facet normal -2.22045e-16 -1 -2.54072e-33
    outer loop
      vertex -2.55 -0.548333 4.5
      vertex -2.55 -0.548333 2.5
      vertex -0.85 -0.548333 4.5
    endloop
  endfacet
  facet normal 2.22045e-16 1 2.54072e-33
    outer loop
      vertex -0.85 0.718333 2.5
      vertex -2.55 0.718333 2.5
      vertex -0.85 0.718333 4.5
    endloop
  endfacet
  facet normal 2.22045e-16 1 2.54072e-33
    outer loop
      vertex -0.85 0.718333 4.5
      vertex -2.55 0.718333 2.5
      vertex -2.55 0.718333 4.5
    endloop
  endfacet
  facet normal 1 -2.22045e-16 1.22465e-16
    outer loop
      vertex -2.55 0.718333 2.5
      vertex -2.55 2.41833 2.5
      vertex -2.55 2.41833 4.5
    endloop
  endfacet
  facet normal 1 -2.22045e-16 1.22465e-16
    outer loop
      vertex -2.55 0.718333 4.5
      vertex -2.55 0.718333 2.5
      vertex -2.55 2.41833 4.5
    endloop
  endfacet
  facet normal -1 2.22045e-16 -1.22465e-16
    outer loop
      vertex -0.85 2.41833 2.5
      vertex -0.85 0.718333 2.5
      vertex -0.85 2.41833 4.5
    endloop
  endfacet
  facet normal -1 2.22045e-16 -1.22465e-16
    outer loop
      vertex -0.85 2.41833 4.5
      vertex -0.85 0.718333 2.5
      vertex -0.85 0.718333 4.5
    endloop
  endfacet
  facet normal -2.22045e-16 -1 -2.54072e-33
    outer loop
      vertex -2.55 2.41833 2.5
      vertex -0.85 2.41833 2.5
      vertex -0.85 2.41833 4.5
    endloop
  endfacet
  facet normal -2.22045e-16 -1 -2.54072e-33
    outer loop
      vertex -2.55 2.41833 4.5
      vertex -2.55 2.41833 2.5
      vertex -0.85 2.41833 4.5
    endloop
  endfacet
  facet normal 2.22045e-16 1 2.54072e-33
    outer loop
      vertex -0.85 3.685 2.5
      vertex -2.55 3.685 2.5
      vertex -0.85 3.685 4.5
    endloop
  endfacet
  facet normal 2.22045e-16 1 2.54072e-33
    outer loop
      vertex -0.85 3.685 4.5
      vertex -2.55 3.685 2.5
      vertex -2.55 3.685 4.5
    endloop
  endfacet
  facet normal 1 -2.22045e-16 1.22465e-16
    outer loop
      vertex -2.55 3.685 2.5
      vertex -2.55 5.385 2.5
      vertex -2.55 5.385 4.5
    endloop
  endfacet
  facet normal 1 -2.22045e-16 1.22465e-16
    outer loop
      vertex -2.55 3.685 4.5
      vertex -2.55 3.685 2.5
      vertex -2.55 5.385 4.5
    endloop
  endfacet
  facet normal -1 2.22045e-16 -1.22465e-16
    outer loop
      vertex -0.85 5.385 2.5
      vertex -0.85 3.685 2.5
      vertex -0.85 5.385 4.5
    endloop
  endfacet
  facet normal -1 2.22045e-16 -1.22465e-16
    outer loop
      vertex -0.85 5.385 4.5
      vertex -0.85 3.685 2.5
      vertex -0.85 3.685 4.5
    endloop
  endfacet
  facet normal -2.22045e-16 -1 -2.54072e-33
    outer loop
      vertex -2.55 5.385 2.5
      vertex -0.85 5.385 2.5
      vertex -0.85 5.385 4.5
    endloop
  endfacet
  facet normal -2.22045e-16 -1 -2.54072e-33
    outer loop
      vertex -2.55 5.385 4.5
      vertex -2.55 5.385 2.5
      vertex -0.85 5.385 4.5
    endloop
  endfacet
  facet normal 0 1 0
    outer loop
      vertex 0 4.9 0
      vertex 0 4.9 2.5
      vertex 3.3 4.9 0
    endloop
  endfacet
  facet normal 0 1 0
    outer loop
      vertex 3.3 4.9 0
      vertex 0 4.9 2.5
      vertex 1.99686e-15 4.9 2.5
    endloop
  endfacet
  facet normal 0 1 0
    outer loop
      vertex 3.3 4.9 0
      vertex 1.99686e-15 4.9 2.5
      vertex 1.75193e-15 4.9 4.5
    endloop
  endfacet
  facet normal 0 1 0
    outer loop
      vertex 3.3 4.9 0
      vertex 1.75193e-15 4.9 4.5
      vertex 3.3 4.9 4.5
    endloop
  endfacet
  facet normal 0 0 1
    outer loop
      vertex 0.65 -2.54 4.5
      vertex 1.92904e-31 -2.99 4.5
      vertex 7.8 -2.99 4.5
    endloop
  endfacet
  facet normal 0 0 1
    outer loop
      vertex 7.8 4.9 4.5
      vertex 4.5 4.9 4.5
      vertex 6.7 3.8 4.5
    endloop
  endfacet
  facet normal 0 0 1
    outer loop
      vertex 1.1 1.1 4.5
      vertex 1.1 3.8 4.5
      vertex 1.75193e-15 4.9 4.5
    endloop
  endfacet
  facet normal 0 0 1
    outer loop
      vertex 1.75193e-15 4.9 4.5
      vertex 1.92904e-31 -2.99 4.5
      vertex 1.1 1.1 4.5
    endloop
  endfacet
  facet normal 0 0 1
    outer loop
      vertex 3.25 -2.54 4.5
      vertex 3.25 -0.84 4.5
      vertex 2.35 -0.84 4.5
    endloop
  endfacet
  facet normal 0 0 1
    outer loop
      vertex 3.3 3.8 4.5
      vertex 1.75193e-15 4.9 4.5
      vertex 1.1 3.8 4.5
    endloop
  endfacet
  facet normal 0 0 1
    outer loop
      vertex 0.65 -0.84 4.5
      vertex 2.35 -0.84 4.5
      vertex 1.1 1.1 4.5
    endloop
  endfacet
  facet normal 0 0 1
    outer loop
      vertex 2.35 -2.54 4.5
      vertex 0.65 -2.54 4.5
      vertex 7.8 -2.99 4.5
    endloop
  endfacet
  facet normal 0 0 1
    outer loop
      vertex 0.65 -0.84 4.5
      vertex 1.92904e-31 -2.99 4.5
      vertex 0.65 -2.54 4.5
    endloop
  endfacet
  facet normal 0 0 1
    outer loop
      vertex 5.85 -2.54 4.5
      vertex 5.85 -0.84 4.5
      vertex 4.95 -0.84 4.5
    endloop
  endfacet
  facet normal 0 0 1
    outer loop
      vertex 1.1 1.1 4.5
      vertex 1.92904e-31 -2.99 4.5
      vertex 0.65 -0.84 4.5
    endloop
  endfacet
  facet normal 0 0 1
    outer loop
      vertex 7.55 -2.54 4.5
      vertex 5.85 -2.54 4.5
      vertex 7.8 -2.99 4.5
    endloop
  endfacet
  facet normal 0 0 1
    outer loop
      vertex 3.25 -2.54 4.5
      vertex 2.35 -2.54 4.5
      vertex 7.8 -2.99 4.5
    endloop
  endfacet
  facet normal 0 0 1
    outer loop
      vertex 4.95 -2.54 4.5
      vertex 3.25 -2.54 4.5
      vertex 7.8 -2.99 4.5
    endloop
  endfacet
  facet normal 0 0 1
    outer loop
      vertex 2.35 -0.84 4.5
      vertex 2.35 -2.54 4.5
      vertex 3.25 -2.54 4.5
    endloop
  endfacet
  facet normal 0 0 1
    outer loop
      vertex 7.55 -0.84 4.5
      vertex 7.55 -2.54 4.5
      vertex 7.8 -2.99 4.5
    endloop
  endfacet
  facet normal 0 0 1
    outer loop
      vertex 1.1 1.1 4.5
      vertex 2.35 -0.84 4.5
      vertex 3.25 -0.84 4.5
    endloop
  endfacet
  facet normal 0 0 1
    outer loop
      vertex 3.3 3.8 4.5
      vertex 3.3 4.9 4.5
      vertex 1.75193e-15 4.9 4.5
    endloop
  endfacet
  facet normal 0 0 1
    outer loop
      vertex 5.85 -2.54 4.5
      vertex 4.95 -2.54 4.5
      vertex 7.8 -2.99 4.5
    endloop
  endfacet
  facet normal 0 0 1
    outer loop
      vertex 5.85 -0.84 4.5
      vertex 7.55 -0.84 4.5
      vertex 6.7 1.1 4.5
    endloop
  endfacet
  facet normal 0 0 1
    outer loop
      vertex 3.25 -0.84 4.5
      vertex 4.95 -0.84 4.5
      vertex 1.1 1.1 4.5
    endloop
  endfacet
  facet normal 0 0 1
    outer loop
      vertex 4.95 -0.84 4.5
      vertex 4.95 -2.54 4.5
      vertex 5.85 -2.54 4.5
    endloop
  endfacet
  facet normal 0 0 1
    outer loop
      vertex 7.8 4.9 4.5
      vertex 7.55 -0.84 4.5
      vertex 7.8 -2.99 4.5
    endloop
  endfacet
  facet normal 0 0 1
    outer loop
      vertex 7.8 4.9 4.5
      vertex 6.7 3.8 4.5
      vertex 7.55 -0.84 4.5
    endloop
  endfacet
  facet normal 0 0 1
    outer loop
      vertex 4.5 3.8 4.5
      vertex 6.7 3.8 4.5
      vertex 4.5 4.9 4.5
    endloop
  endfacet
  facet normal 0 0 1
    outer loop
      vertex 6.7 1.1 4.5
      vertex 7.55 -0.84 4.5
      vertex 6.7 3.8 4.5
    endloop
  endfacet
  facet normal 0 0 1
    outer loop
      vertex 6.7 1.1 4.5
      vertex 4.95 -0.84 4.5
      vertex 5.85 -0.84 4.5
    endloop
  endfacet
  facet normal 0 0 1
    outer loop
      vertex 6.7 1.1 4.5
      vertex 1.1 1.1 4.5
      vertex 4.95 -0.84 4.5
    endloop
  endfacet
  facet normal 0 -1 0
    outer loop
      vertex 2.44929e-16 -2.99 2.5
      vertex 0 -2.99 2.5
      vertex 7.8 -2.99 2.5
    endloop
  endfacet
  facet normal 0 -1 0
    outer loop
      vertex 7.8 -2.99 4.5
      vertex 2.44929e-16 -2.99 2.5
      vertex 7.8 -2.99 2.5
    endloop
  endfacet
  facet normal 0 -1 0
    outer loop
      vertex 1.92904e-31 -2.99 4.5
      vertex 2.44929e-16 -2.99 2.5
      vertex 7.8 -2.99 4.5
    endloop
  endfacet
  facet normal -1 0 0
    outer loop
      vertex 0 0 2.5
      vertex 0 -2.99 2.5
      vertex 0 4.9 2.5
    endloop
  endfacet
  facet normal -1 0 0
    outer loop
      vertex 0 0 2.5
      vertex 0 4.9 2.5
      vertex 0 4.9 0
    endloop
  endfacet
  facet normal -1 0 0
    outer loop
      vertex 0 0 2.5
      vertex 0 4.9 0
      vertex 0 0 0
    endloop
  endfacet
  facet normal 0 0 -1
    outer loop
      vertex 1.1 3.8 0
      vertex 0 4.9 0
      vertex 3.3 4.9 0
    endloop
  endfacet
  facet normal 0 0 -1
    outer loop
      vertex 2.9 0.75 0
      vertex 2.9 0 0
      vertex 1.1 1.1 0
    endloop
  endfacet
  facet normal 0 0 -1
    outer loop
      vertex 6.7 1.1 0
      vertex 4.9 0.75 0
      vertex 2.9 0.75 0
    endloop
  endfacet
  facet normal 0 0 -1
    outer loop
      vertex 1.1 1.1 0
      vertex 0 4.9 0
      vertex 1.1 3.8 0
    endloop
  endfacet
  facet normal 0 0 -1
    outer loop
      vertex 0 0 0
      vertex 0 4.9 0
      vertex 1.1 1.1 0
    endloop
  endfacet
  facet normal 0 0 -1
    outer loop
      vertex 0 0 0
      vertex 1.1 1.1 0
      vertex 2.9 0 0
    endloop
  endfacet
  facet normal 0 0 -1
    outer loop
      vertex 4.5 4.9 0
      vertex 6.7 3.8 0
      vertex 4.5 3.8 0
    endloop
  endfacet
  facet normal 0 0 -1
    outer loop
      vertex 4.9 0.75 0
      vertex 6.7 1.1 0
      vertex 4.9 0 0
    endloop
  endfacet
  facet normal 0 0 -1
    outer loop
      vertex 6.7 3.8 0
      vertex 4.5 4.9 0
      vertex 7.8 4.9 0
    endloop
  endfacet
  facet normal 0 0 -1
    outer loop
      vertex 6.7 3.8 0
      vertex 7.8 4.9 0
      vertex 6.7 1.1 0
    endloop
  endfacet
  facet normal 0 0 -1
    outer loop
      vertex 6.7 1.1 0
      vertex 7.8 4.9 0
      vertex 7.8 0 0
    endloop
  endfacet
  facet normal 0 0 -1
    outer loop
      vertex 6.7 1.1 0
      vertex 7.8 0 0
      vertex 4.9 0 0
    endloop
  endfacet
  facet normal 0 0 -1
    outer loop
      vertex 1.1 3.8 0
      vertex 3.3 4.9 0
      vertex 3.3 3.8 0
    endloop
  endfacet
  facet normal 0 0 -1
    outer loop
      vertex 6.7 1.1 0
      vertex 2.9 0.75 0
      vertex 1.1 1.1 0
    endloop
  endfacet
  facet normal 1 0 0
    outer loop
      vertex 3.3 4.9 0
      vertex 3.3 4.9 4.5
      vertex 3.3 3.8 4.5
    endloop
  endfacet
  facet normal 1 0 0
    outer loop
      vertex 3.3 3.8 0
      vertex 3.3 4.9 0
      vertex 3.3 3.8 4.5
    endloop
  endfacet
  facet normal 0 -1 0
    outer loop
      vertex 3.3 3.8 0
      vertex 3.3 3.8 4.5
      vertex 1.1 3.8 4.5
    endloop
  endfacet
  facet normal 0 -1 0
    outer loop
      vertex 1.1 3.8 0
      vertex 3.3 3.8 0
      vertex 1.1 3.8 4.5
    endloop
  endfacet
  facet normal 1 0 0
    outer loop
      vertex 1.1 3.8 0
      vertex 1.1 3.8 4.5
      vertex 1.1 1.1 4.5
    endloop
  endfacet
  facet normal 1 0 0
    outer loop
      vertex 1.1 1.1 0
      vertex 1.1 3.8 0
      vertex 1.1 1.1 4.5
    endloop
  endfacet
  facet normal 0 1 0
    outer loop
      vertex 6.7 1.1 4.5
      vertex 6.7 1.1 0
      vertex 1.1 1.1 4.5
    endloop
  endfacet
  facet normal 0 1 0
    outer loop
      vertex 1.1 1.1 4.5
      vertex 6.7 1.1 0
      vertex 1.1 1.1 0
    endloop
  endfacet
  facet normal -1 0 0
    outer loop
      vertex 6.7 3.8 4.5
      vertex 6.7 3.8 0
      vertex 6.7 1.1 4.5
    endloop
  endfacet
  facet normal -1 0 0
    outer loop
      vertex 6.7 1.1 4.5
      vertex 6.7 3.8 0
      vertex 6.7 1.1 0
    endloop
  endfacet
  facet normal 0 -1 0
    outer loop
      vertex 6.7 3.8 0
      vertex 6.7 3.8 4.5
      vertex 4.5 3.8 4.5
    endloop
  endfacet
  facet normal 0 -1 0
    outer loop
      vertex 4.5 3.8 0
      vertex 6.7 3.8 0
      vertex 4.5 3.8 4.5
    endloop
  endfacet
  facet normal -1 0 0
    outer loop
      vertex 4.5 4.9 4.5
      vertex 4.5 4.9 0
      vertex 4.5 3.8 4.5
    endloop
  endfacet
  facet normal -1 0 0
    outer loop
      vertex 4.5 3.8 4.5
      vertex 4.5 4.9 0
      vertex 4.5 3.8 0
    endloop
  endfacet
  facet normal 0 1 0
    outer loop
      vertex 4.5 4.9 0
      vertex 4.5 4.9 4.5
      vertex 7.8 4.9 0
    endloop
  endfacet
  facet normal 0 1 0
    outer loop
      vertex 7.8 4.9 0
      vertex 4.5 4.9 4.5
      vertex 7.8 4.9 4.5
    endloop
  endfacet
  facet normal 1 0 0
    outer loop
      vertex 7.8 -2.99 4.5
      vertex 7.8 -2.99 2.5
      vertex 7.8 0 2.5
    endloop
  endfacet
  facet normal 1 0 0
    outer loop
      vertex 7.8 4.9 0
      vertex 7.8 -2.99 4.5
      vertex 7.8 0 2.5
    endloop
  endfacet
  facet normal 1 0 0
    outer loop
      vertex 7.8 0 0
      vertex 7.8 4.9 0
      vertex 7.8 0 2.5
    endloop
  endfacet
  facet normal 1 0 0
    outer loop
      vertex 7.8 4.9 0
      vertex 7.8 4.9 4.5
      vertex 7.8 -2.99 4.5
    endloop
  endfacet
  facet normal 1 0 0
    outer loop
      vertex 0.65 -0.84 2.5
      vertex 0.65 -0.84 4.5
      vertex 0.65 -2.54 4.5
    endloop
  endfacet
  facet normal 1 0 0
    outer loop
      vertex 0.65 -2.54 2.5
      vertex 0.65 -0.84 2.5
      vertex 0.65 -2.54 4.5
    endloop
  endfacet
  facet normal 0 1 0
    outer loop
      vertex 2.35 -2.54 4.5
      vertex 2.35 -2.54 2.5
      vertex 0.65 -2.54 4.5
    endloop
  endfacet
  facet normal 0 1 0
    outer loop
      vertex 0.65 -2.54 4.5
      vertex 2.35 -2.54 2.5
      vertex 0.65 -2.54 2.5
    endloop
  endfacet
  facet normal -1 0 0
    outer loop
      vertex 2.35 -0.84 4.5
      vertex 2.35 -0.84 2.5
      vertex 2.35 -2.54 4.5
    endloop
  endfacet
  facet normal -1 0 0
    outer loop
      vertex 2.35 -2.54 4.5
      vertex 2.35 -0.84 2.5
      vertex 2.35 -2.54 2.5
    endloop
  endfacet
  facet normal 0 -1 0
    outer loop
      vertex 2.35 -0.84 2.5
      vertex 2.35 -0.84 4.5
      vertex 0.65 -0.84 4.5
    endloop
  endfacet
  facet normal 0 -1 0
    outer loop
      vertex 0.65 -0.84 2.5
      vertex 2.35 -0.84 2.5
      vertex 0.65 -0.84 4.5
    endloop
  endfacet
  facet normal 1 0 0
    outer loop
      vertex 3.25 -0.84 2.5
      vertex 3.25 -0.84 4.5
      vertex 3.25 -2.54 4.5
    endloop
  endfacet
  facet normal 1 0 0
    outer loop
      vertex 3.25 -2.54 2.5
      vertex 3.25 -0.84 2.5
      vertex 3.25 -2.54 4.5
    endloop
  endfacet
  facet normal 0 1 0
    outer loop
      vertex 4.95 -2.54 4.5
      vertex 4.95 -2.54 2.5
      vertex 3.25 -2.54 4.5
    endloop
  endfacet
  facet normal 0 1 0
    outer loop
      vertex 3.25 -2.54 4.5
      vertex 4.95 -2.54 2.5
      vertex 3.25 -2.54 2.5
    endloop
  endfacet
  facet normal -1 0 0
    outer loop
      vertex 4.95 -0.84 4.5
      vertex 4.95 -0.84 2.5
      vertex 4.95 -2.54 4.5
    endloop
  endfacet
  facet normal -1 0 0
    outer loop
      vertex 4.95 -2.54 4.5
      vertex 4.95 -0.84 2.5
      vertex 4.95 -2.54 2.5
    endloop
  endfacet
  facet normal 0 -1 0
    outer loop
      vertex 4.95 -0.84 2.5
      vertex 4.95 -0.84 4.5
      vertex 3.25 -0.84 4.5
    endloop
  endfacet
  facet normal 0 -1 0
    outer loop
      vertex 3.25 -0.84 2.5
      vertex 4.95 -0.84 2.5
      vertex 3.25 -0.84 4.5
    endloop
  endfacet
  facet normal 1 0 0
    outer loop
      vertex 5.85 -0.84 2.5
      vertex 5.85 -0.84 4.5
      vertex 5.85 -2.54 4.5
    endloop
  endfacet
  facet normal 1 0 0
    outer loop
      vertex 5.85 -2.54 2.5
      vertex 5.85 -0.84 2.5
      vertex 5.85 -2.54 4.5
    endloop
  endfacet
  facet normal 0 1 0
    outer loop
      vertex 7.55 -2.54 4.5
      vertex 7.55 -2.54 2.5
      vertex 5.85 -2.54 4.5
    endloop
  endfacet
  facet normal 0 1 0
    outer loop
      vertex 5.85 -2.54 4.5
      vertex 7.55 -2.54 2.5
      vertex 5.85 -2.54 2.5
    endloop
  endfacet
  facet normal -1 0 0
    outer loop
      vertex 7.55 -0.84 4.5
      vertex 7.55 -0.84 2.5
      vertex 7.55 -2.54 4.5
    endloop
  endfacet
  facet normal -1 0 0
    outer loop
      vertex 7.55 -2.54 4.5
      vertex 7.55 -0.84 2.5
      vertex 7.55 -2.54 2.5
    endloop
  endfacet
  facet normal 0 -1 0
    outer loop
      vertex 7.55 -0.84 2.5
      vertex 7.55 -0.84 4.5
      vertex 5.85 -0.84 4.5
    endloop
  endfacet
  facet normal 0 -1 0
    outer loop
      vertex 5.85 -0.84 2.5
      vertex 7.55 -0.84 2.5
      vertex 5.85 -0.84 4.5
    endloop
  endfacet
  facet normal 0 0 -1
    outer loop
      vertex 2.9 0 2.5
      vertex 2.9 -0.75 2.5
      vertex 0 0 2.5
    endloop
  endfacet
  facet normal 0 0 -1
    outer loop
      vertex 5.85 -2.54 2.5
      vertex 4.95 -0.84 2.5
      vertex 5.85 -0.84 2.5
    endloop
  endfacet
  facet normal 0 0 -1
    outer loop
      vertex 3.67725 -0.636502 2.5
      vertex 3.65 -0.75 2.5
      vertex 3.66224 -0.672746 2.5
    endloop
  endfacet
  facet normal 0 0 -1
    outer loop
      vertex 3.65 -0.75 2.5
      vertex 3.65308 -0.710891 2.5
      vertex 3.66224 -0.672746 2.5
    endloop
  endfacet
  facet normal 0 0 -1
    outer loop
      vertex 3.69775 -0.603054 2.5
      vertex 3.65 -0.75 2.5
      vertex 3.67725 -0.636502 2.5
    endloop
  endfacet
  facet normal 0 0 -1
    outer loop
      vertex 3.72322 -0.573223 2.5
      vertex 3.65 -0.75 2.5
      vertex 3.69775 -0.603054 2.5
    endloop
  endfacet
  facet normal 0 0 -1
    outer loop
      vertex 3.75305 -0.547746 2.5
      vertex 3.65 -0.75 2.5
      vertex 3.72322 -0.573223 2.5
    endloop
  endfacet
  facet normal 0 0 -1
    outer loop
      vertex 3.7865 -0.527248 2.5
      vertex 3.65 -0.75 2.5
      vertex 3.75305 -0.547746 2.5
    endloop
  endfacet
  facet normal 0 0 -1
    outer loop
      vertex 3.82275 -0.512236 2.5
      vertex 3.65 -0.75 2.5
      vertex 3.7865 -0.527248 2.5
    endloop
  endfacet
  facet normal 0 0 -1
    outer loop
      vertex 3.86089 -0.503078 2.5
      vertex 3.65 -0.75 2.5
      vertex 3.82275 -0.512236 2.5
    endloop
  endfacet
  facet normal 0 0 -1
    outer loop
      vertex 3.9 -0.5 2.5
      vertex 3.65 -0.75 2.5
      vertex 3.86089 -0.503078 2.5
    endloop
  endfacet
  facet normal 0 0 -1
    outer loop
      vertex 3.93911 -0.503078 2.5
      vertex 3.65 -0.75 2.5
      vertex 3.9 -0.5 2.5
    endloop
  endfacet
  facet normal 0 0 -1
    outer loop
      vertex 3.97725 -0.512236 2.5
      vertex 3.65 -0.75 2.5
      vertex 3.93911 -0.503078 2.5
    endloop
  endfacet
  facet normal 0 0 -1
    outer loop
      vertex 4.0135 -0.527248 2.5
      vertex 3.65 -0.75 2.5
      vertex 3.97725 -0.512236 2.5
    endloop
  endfacet
  facet normal 0 0 -1
    outer loop
      vertex 4.04695 -0.547746 2.5
      vertex 3.65 -0.75 2.5
      vertex 4.0135 -0.527248 2.5
    endloop
  endfacet
  facet normal 0 0 -1
    outer loop
      vertex 4.07678 -0.573223 2.5
      vertex 3.65 -0.75 2.5
      vertex 4.04695 -0.547746 2.5
    endloop
  endfacet
  facet normal 0 0 -1
    outer loop
      vertex 4.10225 -0.603054 2.5
      vertex 3.65 -0.75 2.5
      vertex 4.07678 -0.573223 2.5
    endloop
  endfacet
  facet normal 0 0 -1
    outer loop
      vertex 4.12275 -0.636502 2.5
      vertex 3.65 -0.75 2.5
      vertex 4.10225 -0.603054 2.5
    endloop
  endfacet
  facet normal 0 0 -1
    outer loop
      vertex 4.13776 -0.672746 2.5
      vertex 3.65 -0.75 2.5
      vertex 4.12275 -0.636502 2.5
    endloop
  endfacet
  facet normal 0 0 -1
    outer loop
      vertex 4.14692 -0.710891 2.5
      vertex 3.65 -0.75 2.5
      vertex 4.13776 -0.672746 2.5
    endloop
  endfacet
  facet normal 0 0 -1
    outer loop
      vertex 4.15 -0.75 2.5
      vertex 3.65 -0.75 2.5
      vertex 4.14692 -0.710891 2.5
    endloop
  endfacet
  facet normal 0 0 -1
    outer loop
      vertex 3.25 -0.84 2.5
      vertex 4.15 -0.75 2.5
      vertex 4.95 -0.84 2.5
    endloop
  endfacet
  facet normal 0 0 -1
    outer loop
      vertex 7.8 0 2.5
      vertex 4.9 -0.75 2.5
      vertex 4.9 0 2.5
    endloop
  endfacet
  facet normal 0 0 -1
    outer loop
      vertex 7.55 -0.84 2.5
      vertex 4.9 -0.75 2.5
      vertex 7.8 0 2.5
    endloop
  endfacet
  facet normal 0 0 -1
    outer loop
      vertex 0.65 -2.54 2.5
      vertex 7.8 -2.99 2.5
      vertex 0 -2.99 2.5
    endloop
  endfacet
  facet normal 0 0 -1
    outer loop
      vertex 2.35 -2.54 2.5
      vertex 7.8 -2.99 2.5
      vertex 0.65 -2.54 2.5
    endloop
  endfacet
  facet normal 0 0 -1
    outer loop
      vertex 0 0 2.5
      vertex 0.65 -2.54 2.5
      vertex 0 -2.99 2.5
    endloop
  endfacet
  facet normal 0 0 -1
    outer loop
      vertex 3.25 -2.54 2.5
      vertex 7.8 -2.99 2.5
      vertex 2.35 -2.54 2.5
    endloop
  endfacet
  facet normal 0 0 -1
    outer loop
      vertex 0 0 2.5
      vertex 2.9 -0.75 2.5
      vertex 2.35 -0.84 2.5
    endloop
  endfacet
  facet normal 0 0 -1
    outer loop
      vertex 0.65 -0.84 2.5
      vertex 0 0 2.5
      vertex 2.35 -0.84 2.5
    endloop
  endfacet
  facet normal 0 0 -1
    outer loop
      vertex 3.25 -2.54 2.5
      vertex 2.35 -0.84 2.5
      vertex 2.9 -0.75 2.5
    endloop
  endfacet
  facet normal 0 0 -1
    outer loop
      vertex 0 0 2.5
      vertex 0.65 -0.84 2.5
      vertex 0.65 -2.54 2.5
    endloop
  endfacet
  facet normal 0 0 -1
    outer loop
      vertex 4.95 -2.54 2.5
      vertex 7.8 -2.99 2.5
      vertex 3.25 -2.54 2.5
    endloop
  endfacet
  facet normal 0 0 -1
    outer loop
      vertex 5.85 -2.54 2.5
      vertex 7.8 -2.99 2.5
      vertex 4.95 -2.54 2.5
    endloop
  endfacet
  facet normal 0 0 -1
    outer loop
      vertex 4.15 -0.75 2.5
      vertex 4.9 -0.75 2.5
      vertex 4.95 -0.84 2.5
    endloop
  endfacet
  facet normal 0 0 -1
    outer loop
      vertex 3.25 -0.84 2.5
      vertex 3.65 -0.75 2.5
      vertex 4.15 -0.75 2.5
    endloop
  endfacet
  facet normal 0 0 -1
    outer loop
      vertex 2.9 -0.75 2.5
      vertex 3.65 -0.75 2.5
      vertex 3.25 -0.84 2.5
    endloop
  endfacet
  facet normal 0 0 -1
    outer loop
      vertex 7.8 -2.99 2.5
      vertex 7.55 -2.54 2.5
      vertex 7.8 0 2.5
    endloop
  endfacet
  facet normal 0 0 -1
    outer loop
      vertex 5.85 -0.84 2.5
      vertex 4.9 -0.75 2.5
      vertex 7.55 -0.84 2.5
    endloop
  endfacet
  facet normal 0 0 -1
    outer loop
      vertex 7.55 -2.54 2.5
      vertex 7.55 -0.84 2.5
      vertex 7.8 0 2.5
    endloop
  endfacet
  facet normal 0 0 -1
    outer loop
      vertex 4.95 -0.84 2.5
      vertex 4.9 -0.75 2.5
      vertex 5.85 -0.84 2.5
    endloop
  endfacet
  facet normal 0 0 -1
    outer loop
      vertex 4.95 -0.84 2.5
      vertex 5.85 -2.54 2.5
      vertex 4.95 -2.54 2.5
    endloop
  endfacet
  facet normal 0 0 -1
    outer loop
      vertex 7.55 -2.54 2.5
      vertex 7.8 -2.99 2.5
      vertex 5.85 -2.54 2.5
    endloop
  endfacet
  facet normal 0 0 -1
    outer loop
      vertex 2.35 -0.84 2.5
      vertex 3.25 -2.54 2.5
      vertex 2.35 -2.54 2.5
    endloop
  endfacet
  facet normal 0 0 -1
    outer loop
      vertex 3.25 -2.54 2.5
      vertex 2.9 -0.75 2.5
      vertex 3.25 -0.84 2.5
    endloop
  endfacet
  facet normal 0 -1 0
    outer loop
      vertex 0 0 2.5
      vertex 0 0 0
      vertex 2.9 0 0
    endloop
  endfacet
  facet normal 0 -1 0
    outer loop
      vertex 2.9 0 2.5
      vertex 0 0 2.5
      vertex 2.9 0 0
    endloop
  endfacet
  facet normal -1 0 0
    outer loop
      vertex 2.9 0 2.5
      vertex 2.9 0 0
      vertex 2.9 -0.75 2.5
    endloop
  endfacet
  facet normal -1 0 0
    outer loop
      vertex 2.9 0.75 -1.45685
      vertex 2.9 0 0
      vertex 2.9 0.75 0
    endloop
  endfacet
  facet normal -1 0 0
    outer loop
      vertex 2.9 -0.75 -1.45685
      vertex 2.9 0 0
      vertex 2.9 0.75 -1.45685
    endloop
  endfacet
  facet normal -1 0 0
    outer loop
      vertex 2.9 -0.75 2.5
      vertex 2.9 0 0
      vertex 2.9 -0.75 -1.45685
    endloop
  endfacet
  facet normal 0 1 0
    outer loop
      vertex 1.9 0.75 -2.5
      vertex 1.9 0.75 -2.45685
      vertex 5.9 0.75 -2.5
    endloop
  endfacet
  facet normal 0 1 0
    outer loop
      vertex 5.9 0.75 -2.5
      vertex 1.9 0.75 -2.45685
      vertex 2.9 0.75 -1.45685
    endloop
  endfacet
  facet normal 0 1 0
    outer loop
      vertex 5.9 0.75 -2.5
      vertex 2.9 0.75 -1.45685
      vertex 2.9 0.75 0
    endloop
  endfacet
  facet normal 0 1 0
    outer loop
      vertex 4.9 0.75 -1.5
      vertex 2.9 0.75 0
      vertex 4.9 0.75 0
    endloop
  endfacet
  facet normal 0 1 0
    outer loop
      vertex 5.9 0.75 -2.5
      vertex 2.9 0.75 0
      vertex 4.9 0.75 -1.5
    endloop
  endfacet
  facet normal 1 0 0
    outer loop
      vertex 4.9 0.75 -1.5
      vertex 4.9 0.75 0
      vertex 4.9 0 0
    endloop
  endfacet
  facet normal 1 0 0
    outer loop
      vertex 4.9 -0.75 -1.5
      vertex 4.9 0.75 -1.5
      vertex 4.9 0 0
    endloop
  endfacet
  facet normal 1 0 0
    outer loop
      vertex 4.9 0 2.5
      vertex 4.9 -0.75 2.5
      vertex 4.9 0 0
    endloop
  endfacet
  facet normal 1 0 0
    outer loop
      vertex 4.9 -0.75 2.5
      vertex 4.9 -0.75 -1.5
      vertex 4.9 0 0
    endloop
  endfacet
  facet normal 0 -1 0
    outer loop
      vertex 4.9 0 2.5
      vertex 4.9 0 0
      vertex 7.8 0 0
    endloop
  endfacet
  facet normal 0 -1 0
    outer loop
      vertex 7.8 0 2.5
      vertex 4.9 0 2.5
      vertex 7.8 0 0
    endloop
  endfacet
  facet normal 0 -1 0
    outer loop
      vertex 4.9 -0.75 -1.5
      vertex 4.15 -0.75 -2.5
      vertex 5.9 -0.75 -2.5
    endloop
  endfacet
  facet normal 0 -1 0
    outer loop
      vertex 4.15 -0.75 2.5
      vertex 4.15 -0.75 -2.5
      vertex 4.9 -0.75 -1.5
    endloop
  endfacet
  facet normal 0 -1 0
    outer loop
      vertex 4.9 -0.75 -1.5
      vertex 4.9 -0.75 2.5
      vertex 4.15 -0.75 2.5
    endloop
  endfacet
  facet normal -0.996917 -0.0784605 0
    outer loop
      vertex 4.15 -0.75 2.5
      vertex 4.14692 -0.710891 2.5
      vertex 4.15 -0.75 -2.5
    endloop
  endfacet
  facet normal -0.996917 -0.0784605 0
    outer loop
      vertex 4.15 -0.75 -2.5
      vertex 4.14692 -0.710891 2.5
      vertex 4.14692 -0.710891 -2.5
    endloop
  endfacet
  facet normal -0.972369 -0.23345 0
    outer loop
      vertex 4.14692 -0.710891 2.5
      vertex 4.13776 -0.672746 2.5
      vertex 4.14692 -0.710891 -2.5
    endloop
  endfacet
  facet normal -0.972369 -0.23345 0
    outer loop
      vertex 4.14692 -0.710891 -2.5
      vertex 4.13776 -0.672746 2.5
      vertex 4.13776 -0.672746 -2.5
    endloop
  endfacet
  facet normal -0.923886 -0.382667 0
    outer loop
      vertex 4.13776 -0.672746 2.5
      vertex 4.12275 -0.636502 2.5
      vertex 4.13776 -0.672746 -2.5
    endloop
  endfacet
  facet normal -0.923886 -0.382667 0
    outer loop
      vertex 4.13776 -0.672746 -2.5
      vertex 4.12275 -0.636502 2.5
      vertex 4.12275 -0.636502 -2.5
    endloop
  endfacet
  facet normal -0.852628 -0.522518 0
    outer loop
      vertex 4.12275 -0.636502 2.5
      vertex 4.10225 -0.603054 2.5
      vertex 4.12275 -0.636502 -2.5
    endloop
  endfacet
  facet normal -0.852628 -0.522518 0
    outer loop
      vertex 4.12275 -0.636502 -2.5
      vertex 4.10225 -0.603054 2.5
      vertex 4.10225 -0.603054 -2.5
    endloop
  endfacet
  facet normal -0.76042 -0.649432 0
    outer loop
      vertex 4.10225 -0.603054 2.5
      vertex 4.07678 -0.573223 2.5
      vertex 4.10225 -0.603054 -2.5
    endloop
  endfacet
  facet normal -0.76042 -0.649432 0
    outer loop
      vertex 4.10225 -0.603054 -2.5
      vertex 4.07678 -0.573223 2.5
      vertex 4.07678 -0.573223 -2.5
    endloop
  endfacet
  facet normal -0.649432 -0.76042 0
    outer loop
      vertex 4.07678 -0.573223 -2.5
      vertex 4.07678 -0.573223 2.5
      vertex 4.04695 -0.547746 2.5
    endloop
  endfacet
  facet normal -0.649432 -0.76042 0
    outer loop
      vertex 4.04695 -0.547746 -2.5
      vertex 4.07678 -0.573223 -2.5
      vertex 4.04695 -0.547746 2.5
    endloop
  endfacet
  facet normal -0.522518 -0.852628 0
    outer loop
      vertex 4.04695 -0.547746 -2.5
      vertex 4.04695 -0.547746 2.5
      vertex 4.0135 -0.527248 2.5
    endloop
  endfacet
  facet normal -0.522518 -0.852628 0
    outer loop
      vertex 4.0135 -0.527248 -2.5
      vertex 4.04695 -0.547746 -2.5
      vertex 4.0135 -0.527248 2.5
    endloop
  endfacet
  facet normal -0.382667 -0.923886 0
    outer loop
      vertex 4.0135 -0.527248 -2.5
      vertex 4.0135 -0.527248 2.5
      vertex 3.97725 -0.512236 2.5
    endloop
  endfacet
  facet normal -0.382667 -0.923886 0
    outer loop
      vertex 3.97725 -0.512236 -2.5
      vertex 4.0135 -0.527248 -2.5
      vertex 3.97725 -0.512236 2.5
    endloop
  endfacet
  facet normal -0.23345 -0.972369 0
    outer loop
      vertex 3.97725 -0.512236 -2.5
      vertex 3.97725 -0.512236 2.5
      vertex 3.93911 -0.503078 2.5
    endloop
  endfacet
  facet normal -0.23345 -0.972369 0
    outer loop
      vertex 3.93911 -0.503078 -2.5
      vertex 3.97725 -0.512236 -2.5
      vertex 3.93911 -0.503078 2.5
    endloop
  endfacet
  facet normal -0.0784605 -0.996917 0
    outer loop
      vertex 3.93911 -0.503078 -2.5
      vertex 3.93911 -0.503078 2.5
      vertex 3.9 -0.5 2.5
    endloop
  endfacet
  facet normal -0.0784605 -0.996917 0
    outer loop
      vertex 3.9 -0.5 -2.5
      vertex 3.93911 -0.503078 -2.5
      vertex 3.9 -0.5 2.5
    endloop
  endfacet
  facet normal 0.0784605 -0.996917 0
    outer loop
      vertex 3.9 -0.5 -2.5
      vertex 3.9 -0.5 2.5
      vertex 3.86089 -0.503078 2.5
    endloop
  endfacet
  facet normal 0.0784605 -0.996917 0
    outer loop
      vertex 3.86089 -0.503078 -2.5
      vertex 3.9 -0.5 -2.5
      vertex 3.86089 -0.503078 2.5
    endloop
  endfacet
  facet normal 0.23345 -0.972369 0
    outer loop
      vertex 3.86089 -0.503078 -2.5
      vertex 3.86089 -0.503078 2.5
      vertex 3.82275 -0.512236 2.5
    endloop
  endfacet
  facet normal 0.23345 -0.972369 0
    outer loop
      vertex 3.82275 -0.512236 -2.5
      vertex 3.86089 -0.503078 -2.5
      vertex 3.82275 -0.512236 2.5
    endloop
  endfacet
  facet normal 0.382667 -0.923886 0
    outer loop
      vertex 3.82275 -0.512236 -2.5
      vertex 3.82275 -0.512236 2.5
      vertex 3.7865 -0.527248 2.5
    endloop
  endfacet
  facet normal 0.382667 -0.923886 0
    outer loop
      vertex 3.7865 -0.527248 -2.5
      vertex 3.82275 -0.512236 -2.5
      vertex 3.7865 -0.527248 2.5
    endloop
  endfacet
  facet normal 0.522518 -0.852628 0
    outer loop
      vertex 3.7865 -0.527248 -2.5
      vertex 3.7865 -0.527248 2.5
      vertex 3.75305 -0.547746 2.5
    endloop
  endfacet
  facet normal 0.522518 -0.852628 0
    outer loop
      vertex 3.75305 -0.547746 -2.5
      vertex 3.7865 -0.527248 -2.5
      vertex 3.75305 -0.547746 2.5
    endloop
  endfacet
  facet normal 0.649432 -0.76042 0
    outer loop
      vertex 3.75305 -0.547746 -2.5
      vertex 3.75305 -0.547746 2.5
      vertex 3.72322 -0.573223 2.5
    endloop
  endfacet
  facet normal 0.649432 -0.76042 0
    outer loop
      vertex 3.72322 -0.573223 -2.5
      vertex 3.75305 -0.547746 -2.5
      vertex 3.72322 -0.573223 2.5
    endloop
  endfacet
  facet normal 0.76042 -0.649432 0
    outer loop
      vertex 3.72322 -0.573223 -2.5
      vertex 3.72322 -0.573223 2.5
      vertex 3.69775 -0.603054 2.5
    endloop
  endfacet
  facet normal 0.76042 -0.649432 0
    outer loop
      vertex 3.69775 -0.603054 -2.5
      vertex 3.72322 -0.573223 -2.5
      vertex 3.69775 -0.603054 2.5
    endloop
  endfacet
  facet normal 0.852628 -0.522518 0
    outer loop
      vertex 3.69775 -0.603054 -2.5
      vertex 3.69775 -0.603054 2.5
      vertex 3.67725 -0.636502 2.5
    endloop
  endfacet
  facet normal 0.852628 -0.522518 0
    outer loop
      vertex 3.67725 -0.636502 -2.5
      vertex 3.69775 -0.603054 -2.5
      vertex 3.67725 -0.636502 2.5
    endloop
  endfacet
  facet normal 0.923886 -0.382667 0
    outer loop
      vertex 3.67725 -0.636502 -2.5
      vertex 3.67725 -0.636502 2.5
      vertex 3.66224 -0.672746 2.5
    endloop
  endfacet
  facet normal 0.923886 -0.382667 0
    outer loop
      vertex 3.66224 -0.672746 -2.5
      vertex 3.67725 -0.636502 -2.5
      vertex 3.66224 -0.672746 2.5
    endloop
  endfacet
  facet normal 0.972369 -0.23345 0
    outer loop
      vertex 3.66224 -0.672746 -2.5
      vertex 3.66224 -0.672746 2.5
      vertex 3.65308 -0.710891 2.5
    endloop
  endfacet
  facet normal 0.972369 -0.23345 0
    outer loop
      vertex 3.65308 -0.710891 -2.5
      vertex 3.66224 -0.672746 -2.5
      vertex 3.65308 -0.710891 2.5
    endloop
  endfacet
  facet normal 0.996917 -0.0784605 0
    outer loop
      vertex 3.65308 -0.710891 -2.5
      vertex 3.65308 -0.710891 2.5
      vertex 3.65 -0.75 2.5
    endloop
  endfacet
  facet normal 0.996917 -0.0784605 0
    outer loop
      vertex 3.65 -0.75 -2.5
      vertex 3.65308 -0.710891 -2.5
      vertex 3.65 -0.75 2.5
    endloop
  endfacet
  facet normal 0 -1 0
    outer loop
      vertex 1.9 -0.75 -2.45685
      vertex 1.9 -0.75 -2.5
      vertex 3.65 -0.75 -2.5
    endloop
  endfacet
  facet normal 0 -1 0
    outer loop
      vertex 2.9 -0.75 -1.45685
      vertex 1.9 -0.75 -2.45685
      vertex 3.65 -0.75 -2.5
    endloop
  endfacet
  facet normal 0 -1 0
    outer loop
      vertex 3.65 -0.75 2.5
      vertex 2.9 -0.75 -1.45685
      vertex 3.65 -0.75 -2.5
    endloop
  endfacet
  facet normal 0 -1 0
    outer loop
      vertex 2.9 -0.75 2.5
      vertex 2.9 -0.75 -1.45685
      vertex 3.65 -0.75 2.5
    endloop
  endfacet
  facet normal -0.707107 0 0.707107
    outer loop
      vertex 2.9 -0.75 -1.45685
      vertex 2.9 0.75 -1.45685
      vertex 1.9 0.75 -2.45685
    endloop
  endfacet
  facet normal -0.707107 0 0.707107
    outer loop
      vertex 1.9 -0.75 -2.45685
      vertex 2.9 -0.75 -1.45685
      vertex 1.9 0.75 -2.45685
    endloop
  endfacet
  facet normal 0 0 -1
    outer loop
      vertex 1.9 -0.75 -2.5
      vertex 1.9 0.75 -2.5
      vertex 3.65 -0.75 -2.5
    endloop
  endfacet
  facet normal 0 0 -1
    outer loop
      vertex 3.97725 -0.512236 -2.5
      vertex 1.9 0.75 -2.5
      vertex 5.9 0.75 -2.5
    endloop
  endfacet
  facet normal 0 0 -1
    outer loop
      vertex 4.15 -0.75 -2.5
      vertex 5.9 0.75 -2.5
      vertex 5.9 -0.75 -2.5
    endloop
  endfacet
  facet normal 0 0 -1
    outer loop
      vertex 4.14692 -0.710891 -2.5
      vertex 5.9 0.75 -2.5
      vertex 4.15 -0.75 -2.5
    endloop
  endfacet
  facet normal 0 0 -1
    outer loop
      vertex 4.13776 -0.672746 -2.5
      vertex 5.9 0.75 -2.5
      vertex 4.14692 -0.710891 -2.5
    endloop
  endfacet
  facet normal 0 0 -1
    outer loop
      vertex 4.12275 -0.636502 -2.5
      vertex 5.9 0.75 -2.5
      vertex 4.13776 -0.672746 -2.5
    endloop
  endfacet
  facet normal 0 0 -1
    outer loop
      vertex 4.10225 -0.603054 -2.5
      vertex 5.9 0.75 -2.5
      vertex 4.12275 -0.636502 -2.5
    endloop
  endfacet
  facet normal 0 0 -1
    outer loop
      vertex 4.07678 -0.573223 -2.5
      vertex 5.9 0.75 -2.5
      vertex 4.10225 -0.603054 -2.5
    endloop
  endfacet
  facet normal 0 0 -1
    outer loop
      vertex 4.04695 -0.547746 -2.5
      vertex 5.9 0.75 -2.5
      vertex 4.07678 -0.573223 -2.5
    endloop
  endfacet
  facet normal 0 0 -1
    outer loop
      vertex 4.0135 -0.527248 -2.5
      vertex 5.9 0.75 -2.5
      vertex 4.04695 -0.547746 -2.5
    endloop
  endfacet
  facet normal 0 0 -1
    outer loop
      vertex 3.93911 -0.503078 -2.5
      vertex 1.9 0.75 -2.5
      vertex 3.97725 -0.512236 -2.5
    endloop
  endfacet
  facet normal 0 0 -1
    outer loop
      vertex 3.9 -0.5 -2.5
      vertex 1.9 0.75 -2.5
      vertex 3.93911 -0.503078 -2.5
    endloop
  endfacet
  facet normal 0 0 -1
    outer loop
      vertex 3.86089 -0.503078 -2.5
      vertex 1.9 0.75 -2.5
      vertex 3.9 -0.5 -2.5
    endloop
  endfacet
  facet normal 0 0 -1
    outer loop
      vertex 3.82275 -0.512236 -2.5
      vertex 1.9 0.75 -2.5
      vertex 3.86089 -0.503078 -2.5
    endloop
  endfacet
  facet normal 0 0 -1
    outer loop
      vertex 3.7865 -0.527248 -2.5
      vertex 1.9 0.75 -2.5
      vertex 3.82275 -0.512236 -2.5
    endloop
  endfacet
  facet normal 0 0 -1
    outer loop
      vertex 3.75305 -0.547746 -2.5
      vertex 1.9 0.75 -2.5
      vertex 3.7865 -0.527248 -2.5
    endloop
  endfacet
  facet normal 0 0 -1
    outer loop
      vertex 3.72322 -0.573223 -2.5
      vertex 1.9 0.75 -2.5
      vertex 3.75305 -0.547746 -2.5
    endloop
  endfacet
  facet normal 0 0 -1
    outer loop
      vertex 3.69775 -0.603054 -2.5
      vertex 1.9 0.75 -2.5
      vertex 3.72322 -0.573223 -2.5
    endloop
  endfacet
  facet normal 0 0 -1
    outer loop
      vertex 3.67725 -0.636502 -2.5
      vertex 1.9 0.75 -2.5
      vertex 3.69775 -0.603054 -2.5
    endloop
  endfacet
  facet normal 0 0 -1
    outer loop
      vertex 3.66224 -0.672746 -2.5
      vertex 1.9 0.75 -2.5
      vertex 3.67725 -0.636502 -2.5
    endloop
  endfacet
  facet normal 0 0 -1
    outer loop
      vertex 3.65308 -0.710891 -2.5
      vertex 1.9 0.75 -2.5
      vertex 3.66224 -0.672746 -2.5
    endloop
  endfacet
  facet normal 0 0 -1
    outer loop
      vertex 3.65 -0.75 -2.5
      vertex 1.9 0.75 -2.5
      vertex 3.65308 -0.710891 -2.5
    endloop
  endfacet
  facet normal 0 0 -1
    outer loop
      vertex 3.97725 -0.512236 -2.5
      vertex 5.9 0.75 -2.5
      vertex 4.0135 -0.527248 -2.5
    endloop
  endfacet
  facet normal 0.707107 0 0.707107
    outer loop
      vertex 5.9 -0.75 -2.5
      vertex 5.9 0.75 -2.5
      vertex 4.9 0.75 -1.5
    endloop
  endfacet
  facet normal 0.707107 0 0.707107
    outer loop
      vertex 4.9 -0.75 -1.5
      vertex 5.9 -0.75 -2.5
      vertex 4.9 0.75 -1.5
    endloop
  endfacet
  facet normal -1 0 0
    outer loop
      vertex 1.9 -0.75 -2.5
      vertex 1.9 -0.75 -2.45685
      vertex 1.9 0.75 -2.5
    endloop
  endfacet
  facet normal -1 0 0
    outer loop
      vertex 1.9 0.75 -2.5
      vertex 1.9 -0.75 -2.45685
      vertex 1.9 0.75 -2.45685
    endloop
  endfacet
  facet normal -2.22045e-16 -1 0
    outer loop
      vertex 7.8 -2.99 4.5
      vertex 7.8 -2.99 2.5
      vertex 10.8 -2.99 2.5
    endloop
  endfacet
  facet normal -2.22045e-16 -1 0
    outer loop
      vertex 10.8 -2.99 4.5
      vertex 7.8 -2.99 4.5
      vertex 10.8 -2.99 2.5
    endloop
  endfacet
  facet normal 0 0 -1
    outer loop
      vertex 8.65 5.385 2.5
      vertex 7.8 5.91 2.5
      vertex 10.8 5.91 2.5
    endloop
  endfacet
  facet normal 0 0 -1
    outer loop
      vertex 7.8 -2.99 2.5
      vertex 7.8 5.91 2.5
      vertex 8.65 -0.548333 2.5
    endloop
  endfacet
  facet normal 0 0 -1
    outer loop
      vertex 8.65 2.41833 2.5
      vertex 8.65 3.685 2.5
      vertex 10.35 2.41833 2.5
    endloop
  endfacet
  facet normal 0 0 -1
    outer loop
      vertex 7.8 -2.99 2.5
      vertex 8.65 -0.548333 2.5
      vertex 8.65 -2.24833 2.5
    endloop
  endfacet
  facet normal 0 0 -1
    outer loop
      vertex 7.8 -2.99 2.5
      vertex 8.65 -2.24833 2.5
      vertex 10.8 -2.99 2.5
    endloop
  endfacet
  facet normal 0 0 -1
    outer loop
      vertex 8.65 3.685 2.5
      vertex 7.8 5.91 2.5
      vertex 8.65 5.385 2.5
    endloop
  endfacet
  facet normal 0 0 -1
    outer loop
      vertex 10.35 3.685 2.5
      vertex 10.35 2.41833 2.5
      vertex 8.65 3.685 2.5
    endloop
  endfacet
  facet normal 0 0 -1
    outer loop
      vertex 10.8 -2.99 2.5
      vertex 10.35 -0.548333 2.5
      vertex 10.8 5.91 2.5
    endloop
  endfacet
  facet normal 0 0 -1
    outer loop
      vertex 8.65 -0.548333 2.5
      vertex 7.8 5.91 2.5
      vertex 8.65 0.718333 2.5
    endloop
  endfacet
  facet normal 0 0 -1
    outer loop
      vertex 7.8 5.91 2.5
      vertex 8.65 2.41833 2.5
      vertex 8.65 0.718333 2.5
    endloop
  endfacet
  facet normal 0 0 -1
    outer loop
      vertex 10.35 -2.24833 2.5
      vertex 10.8 -2.99 2.5
      vertex 8.65 -2.24833 2.5
    endloop
  endfacet
  facet normal 0 0 -1
    outer loop
      vertex 10.35 -0.548333 2.5
      vertex 10.35 0.718333 2.5
      vertex 10.8 5.91 2.5
    endloop
  endfacet
  facet normal 0 0 -1
    outer loop
      vertex 10.35 0.718333 2.5
      vertex 10.35 2.41833 2.5
      vertex 10.8 5.91 2.5
    endloop
  endfacet
  facet normal 0 0 -1
    outer loop
      vertex 10.35 5.385 2.5
      vertex 8.65 5.385 2.5
      vertex 10.8 5.91 2.5
    endloop
  endfacet
  facet normal 0 0 -1
    outer loop
      vertex 10.35 2.41833 2.5
      vertex 10.35 3.685 2.5
      vertex 10.8 5.91 2.5
    endloop
  endfacet
  facet normal 0 0 -1
    outer loop
      vertex 10.35 3.685 2.5
      vertex 10.35 5.385 2.5
      vertex 10.8 5.91 2.5
    endloop
  endfacet
  facet normal 0 0 -1
    outer loop
      vertex 8.65 2.41833 2.5
      vertex 7.8 5.91 2.5
      vertex 8.65 3.685 2.5
    endloop
  endfacet
  facet normal 0 0 -1
    outer loop
      vertex 10.35 0.718333 2.5
      vertex 10.35 -0.548333 2.5
      vertex 8.65 0.718333 2.5
    endloop
  endfacet
  facet normal 0 0 -1
    outer loop
      vertex 8.65 -0.548333 2.5
      vertex 8.65 0.718333 2.5
      vertex 10.35 -0.548333 2.5
    endloop
  endfacet
  facet normal 0 0 -1
    outer loop
      vertex 10.35 -0.548333 2.5
      vertex 10.8 -2.99 2.5
      vertex 10.35 -2.24833 2.5
    endloop
  endfacet
  facet normal -1 2.22045e-16 0
    outer loop
      vertex 7.8 -2.99 2.5
      vertex 7.8 -2.99 4.5
      vertex 7.8 5.91 2.5
    endloop
  endfacet
  facet normal -1 2.22045e-16 0
    outer loop
      vertex 7.8 5.91 2.5
      vertex 7.8 -2.99 4.5
      vertex 7.8 5.91 4.5
    endloop
  endfacet
  facet normal 0 0 1
    outer loop
      vertex 8.65 -2.24833 4.5
      vertex 7.8 -2.99 4.5
      vertex 10.8 -2.99 4.5
    endloop
  endfacet
  facet normal 0 0 1
    outer loop
      vertex 10.35 3.685 4.5
      vertex 8.65 3.685 4.5
      vertex 10.35 2.41833 4.5
    endloop
  endfacet
  facet normal 0 0 1
    outer loop
      vertex 10.35 -0.548333 4.5
      vertex 10.35 -2.24833 4.5
      vertex 10.8 -2.99 4.5
    endloop
  endfacet
  facet normal 0 0 1
    outer loop
      vertex 7.8 5.91 4.5
      vertex 7.8 -2.99 4.5
      vertex 8.65 -2.24833 4.5
    endloop
  endfacet
  facet normal 0 0 1
    outer loop
      vertex 7.8 5.91 4.5
      vertex 8.65 -2.24833 4.5
      vertex 8.65 -0.548333 4.5
    endloop
  endfacet
  facet normal 0 0 1
    outer loop
      vertex 10.8 5.91 4.5
      vertex 10.35 -0.548333 4.5
      vertex 10.8 -2.99 4.5
    endloop
  endfacet
  facet normal 0 0 1
    outer loop
      vertex 7.8 5.91 4.5
      vertex 8.65 -0.548333 4.5
      vertex 8.65 0.718333 4.5
    endloop
  endfacet
  facet normal 0 0 1
    outer loop
      vertex 10.35 0.718333 4.5
      vertex 8.65 0.718333 4.5
      vertex 10.35 -0.548333 4.5
    endloop
  endfacet
  facet normal 0 0 1
    outer loop
      vertex 7.8 5.91 4.5
      vertex 8.65 0.718333 4.5
      vertex 8.65 2.41833 4.5
    endloop
  endfacet
  facet normal 0 0 1
    outer loop
      vertex 8.65 3.685 4.5
      vertex 8.65 5.385 4.5
      vertex 7.8 5.91 4.5
    endloop
  endfacet
  facet normal 0 0 1
    outer loop
      vertex 10.8 5.91 4.5
      vertex 10.35 0.718333 4.5
      vertex 10.35 -0.548333 4.5
    endloop
  endfacet
  facet normal 0 0 1
    outer loop
      vertex 10.8 5.91 4.5
      vertex 10.35 2.41833 4.5
      vertex 10.35 0.718333 4.5
    endloop
  endfacet
  facet normal 0 0 1
    outer loop
      vertex 8.65 2.41833 4.5
      vertex 10.35 2.41833 4.5
      vertex 8.65 3.685 4.5
    endloop
  endfacet
  facet normal 0 0 1
    outer loop
      vertex 10.8 5.91 4.5
      vertex 7.8 5.91 4.5
      vertex 8.65 5.385 4.5
    endloop
  endfacet
  facet normal 0 0 1
    outer loop
      vertex 10.8 5.91 4.5
      vertex 8.65 5.385 4.5
      vertex 10.35 5.385 4.5
    endloop
  endfacet
  facet normal 0 0 1
    outer loop
      vertex 10.8 5.91 4.5
      vertex 10.35 3.685 4.5
      vertex 10.35 2.41833 4.5
    endloop
  endfacet
  facet normal 0 0 1
    outer loop
      vertex 10.8 5.91 4.5
      vertex 10.35 5.385 4.5
      vertex 10.35 3.685 4.5
    endloop
  endfacet
  facet normal 0 0 1
    outer loop
      vertex 10.35 -2.24833 4.5
      vertex 8.65 -2.24833 4.5
      vertex 10.8 -2.99 4.5
    endloop
  endfacet
  facet normal 0 0 1
    outer loop
      vertex 8.65 2.41833 4.5
      vertex 8.65 3.685 4.5
      vertex 7.8 5.91 4.5
    endloop
  endfacet
  facet normal 0 0 1
    outer loop
      vertex 8.65 -0.548333 4.5
      vertex 10.35 -0.548333 4.5
      vertex 8.65 0.718333 4.5
    endloop
  endfacet
  facet normal 1 -2.22045e-16 0
    outer loop
      vertex 10.8 -2.99 4.5
      vertex 10.8 -2.99 2.5
      vertex 10.8 5.91 2.5
    endloop
  endfacet
  facet normal 1 -2.22045e-16 0
    outer loop
      vertex 10.8 5.91 4.5
      vertex 10.8 -2.99 4.5
      vertex 10.8 5.91 2.5
    endloop
  endfacet
  facet normal 2.22045e-16 1 0
    outer loop
      vertex 7.8 5.91 2.5
      vertex 7.8 5.91 4.5
      vertex 10.8 5.91 2.5
    endloop
  endfacet
  facet normal 2.22045e-16 1 0
    outer loop
      vertex 10.8 5.91 2.5
      vertex 7.8 5.91 4.5
      vertex 10.8 5.91 4.5
    endloop
  endfacet
  facet normal 1 -2.22045e-16 0
    outer loop
      vertex 8.65 -0.548333 2.5
      vertex 8.65 -0.548333 4.5
      vertex 8.65 -2.24833 4.5
    endloop
  endfacet
  facet normal 1 -2.22045e-16 0
    outer loop
      vertex 8.65 -2.24833 2.5
      vertex 8.65 -0.548333 2.5
      vertex 8.65 -2.24833 4.5
    endloop
  endfacet
  facet normal -2.22045e-16 -1 0
    outer loop
      vertex 10.35 -0.548333 2.5
      vertex 10.35 -0.548333 4.5
      vertex 8.65 -0.548333 4.5
    endloop
  endfacet
  facet normal -2.22045e-16 -1 0
    outer loop
      vertex 8.65 -0.548333 2.5
      vertex 10.35 -0.548333 2.5
      vertex 8.65 -0.548333 4.5
    endloop
  endfacet
  facet normal -1 2.22045e-16 0
    outer loop
      vertex 10.35 -0.548333 4.5
      vertex 10.35 -0.548333 2.5
      vertex 10.35 -2.24833 4.5
    endloop
  endfacet
  facet normal -1 2.22045e-16 0
    outer loop
      vertex 10.35 -2.24833 4.5
      vertex 10.35 -0.548333 2.5
      vertex 10.35 -2.24833 2.5
    endloop
  endfacet
  facet normal 2.22045e-16 1 0
    outer loop
      vertex 10.35 -2.24833 4.5
      vertex 10.35 -2.24833 2.5
      vertex 8.65 -2.24833 4.5
    endloop
  endfacet
  facet normal 2.22045e-16 1 0
    outer loop
      vertex 8.65 -2.24833 4.5
      vertex 10.35 -2.24833 2.5
      vertex 8.65 -2.24833 2.5
    endloop
  endfacet
  facet normal 1 -2.22045e-16 0
    outer loop
      vertex 8.65 2.41833 2.5
      vertex 8.65 2.41833 4.5
      vertex 8.65 0.718333 4.5
    endloop
  endfacet
  facet normal 1 -2.22045e-16 0
    outer loop
      vertex 8.65 0.718333 2.5
      vertex 8.65 2.41833 2.5
      vertex 8.65 0.718333 4.5
    endloop
  endfacet
  facet normal -2.22045e-16 -1 0
    outer loop
      vertex 10.35 2.41833 2.5
      vertex 10.35 2.41833 4.5
      vertex 8.65 2.41833 4.5
    endloop
  endfacet
  facet normal -2.22045e-16 -1 0
    outer loop
      vertex 8.65 2.41833 2.5
      vertex 10.35 2.41833 2.5
      vertex 8.65 2.41833 4.5
    endloop
  endfacet
  facet normal -1 2.22045e-16 0
    outer loop
      vertex 10.35 2.41833 4.5
      vertex 10.35 2.41833 2.5
      vertex 10.35 0.718333 4.5
    endloop
  endfacet
  facet normal -1 2.22045e-16 0
    outer loop
      vertex 10.35 0.718333 4.5
      vertex 10.35 2.41833 2.5
      vertex 10.35 0.718333 2.5
    endloop
  endfacet
  facet normal 2.22045e-16 1 0
    outer loop
      vertex 10.35 0.718333 4.5
      vertex 10.35 0.718333 2.5
      vertex 8.65 0.718333 4.5
    endloop
  endfacet
  facet normal 2.22045e-16 1 0
    outer loop
      vertex 8.65 0.718333 4.5
      vertex 10.35 0.718333 2.5
      vertex 8.65 0.718333 2.5
    endloop
  endfacet
  facet normal 1 -2.22045e-16 0
    outer loop
      vertex 8.65 5.385 2.5
      vertex 8.65 5.385 4.5
      vertex 8.65 3.685 4.5
    endloop
  endfacet
  facet normal 1 -2.22045e-16 0
    outer loop
      vertex 8.65 3.685 2.5
      vertex 8.65 5.385 2.5
      vertex 8.65 3.685 4.5
    endloop
  endfacet
  facet normal -2.22045e-16 -1 0
    outer loop
      vertex 10.35 5.385 2.5
      vertex 10.35 5.385 4.5
      vertex 8.65 5.385 4.5
    endloop
  endfacet
  facet normal -2.22045e-16 -1 0
    outer loop
      vertex 8.65 5.385 2.5
      vertex 10.35 5.385 2.5
      vertex 8.65 5.385 4.5
    endloop
  endfacet
  facet normal -1 2.22045e-16 0
    outer loop
      vertex 10.35 5.385 4.5
      vertex 10.35 5.385 2.5
      vertex 10.35 3.685 4.5
    endloop
  endfacet
  facet normal -1 2.22045e-16 0
    outer loop
      vertex 10.35 3.685 4.5
      vertex 10.35 5.385 2.5
      vertex 10.35 3.685 2.5
    endloop
  endfacet
  facet normal 2.22045e-16 1 0
    outer loop
      vertex 10.35 3.685 4.5
      vertex 10.35 3.685 2.5
      vertex 8.65 3.685 4.5
    endloop
  endfacet
  facet normal 2.22045e-16 1 0
    outer loop
      vertex 8.65 3.685 4.5
      vertex 10.35 3.685 2.5
      vertex 8.65 3.685 2.5
    endloop
  endfacet
endsolid OpenSCAD_Model
